<svg xmlns="http://www.w3.org/2000/svg" xmlns:xlink="http://www.w3.org/1999/xlink" xml:lang="en" height="920.1999999999999pt" width="574.922pt" viewBox="-42.004000000000005 -411.2 574.922 920.1999999999999"><polygon points="207.0,-99.89999999999999 198.0,-87.3 189.0,-99.89999999999999 " style="stroke:black;fill:none;stroke-width:2.0;stroke-dasharray:-;stroke-linecap:round;stroke-linejoin:round;" /><circle cx="307.8" cy="72.0" r="19.8" style="stroke:black;fill:none;stroke-width:2.0;stroke-dasharray:-;" /><polygon points="369.0,116.10000000000001 360.0,128.70000000000002 351.0,116.10000000000001 " style="stroke:black;fill:none;stroke-width:2.0;stroke-dasharray:-;stroke-linecap:round;stroke-linejoin:round;" /><polygon points="207.0,-27.9 198.0,-15.3 189.0,-27.900000000000002 " style="stroke:black;fill:none;stroke-width:2.0;stroke-dasharray:-;stroke-linecap:round;stroke-linejoin:round;" /><path d="M 108.0,-288.0 L 108.0,-302.40000000000003" style="stroke:black;fill:none;stroke-width:2.0;stroke-dasharray:-;stroke-linecap:round;stroke-linejoin:round;" /><path d="M 108.0,-302.40000000000003 L 101.25,-302.40000000000003" style="stroke:black;fill:none;stroke-width:2.0;stroke-dasharray:-;stroke-linecap:round;stroke-linejoin:round;" /><path d="M 108.0,-302.40000000000003 L 114.75,-302.40000000000003" style="stroke:black;fill:none;stroke-width:2.0;stroke-dasharray:-;stroke-linecap:round;stroke-linejoin:round;" /><path d="M 108.0,-288.0 L 108.0,-279.0 L 108.0,-270.0" style="stroke:black;fill:none;stroke-width:2.0;stroke-dasharray:-;stroke-linecap:round;stroke-linejoin:round;" /><path d="M 108.0,-270.0 L 108.0,-255.24 M 117.0,-255.24 L 99.0,-255.24 M 117.0,-248.76 L 99.0,-248.76 M 108.0,-248.76 L 108.0,-234.0" style="stroke:black;fill:none;stroke-width:2.0;stroke-dasharray:-;stroke-linecap:round;stroke-linejoin:round;" /><path d="M 108.0,-234.0 L 108.0,-228.6 L 108.0,-223.20000000000002" style="stroke:black;fill:none;stroke-width:2.0;stroke-dasharray:-;stroke-linecap:round;stroke-linejoin:round;" /><path d="M 108.0,-223.20000000000002 L 108.0,-208.79999999999998 L 99.0,-208.79999999999998 L 117.0,-208.79999999999998 M 101.7,-204.48 L 114.3,-204.48 M 106.2,-200.16000000000003 L 109.8,-200.16000000000003" style="stroke:black;fill:none;stroke-width:2.0;stroke-dasharray:-;stroke-linecap:round;stroke-linejoin:round;" /><path d="M 108.0,-270.0 L 126.0,-270.0 L 144.0,-270.0" style="stroke:black;fill:none;stroke-width:2.0;stroke-dasharray:-;stroke-linecap:round;stroke-linejoin:round;" /><path d="M 144.0,-270.0 L 144.0,-255.24 M 153.0,-255.24 L 135.0,-255.24 M 153.0,-248.76 L 135.0,-248.76 M 144.0,-248.76 L 144.0,-234.0" style="stroke:black;fill:none;stroke-width:2.0;stroke-dasharray:-;stroke-linecap:round;stroke-linejoin:round;" /><path d="M 144.0,-234.0 L 144.0,-228.6 L 144.0,-223.20000000000002" style="stroke:black;fill:none;stroke-width:2.0;stroke-dasharray:-;stroke-linecap:round;stroke-linejoin:round;" /><path d="M 144.0,-223.20000000000002 L 144.0,-208.79999999999998 L 135.0,-208.79999999999998 L 153.0,-208.79999999999998 M 137.70000000000002,-204.48 L 150.29999999999998,-204.48 M 142.20000000000002,-200.16000000000003 L 145.79999999999998,-200.16000000000003" style="stroke:black;fill:none;stroke-width:2.0;stroke-dasharray:-;stroke-linecap:round;stroke-linejoin:round;" /><path d="M 108.0,-288.0 L 144.0,-288.0 L 180.0,-288.0" style="stroke:black;fill:none;stroke-width:2.0;stroke-dasharray:-;stroke-linecap:round;stroke-linejoin:round;" /><path d="M 432.0,-288.0 L 432.0,-302.40000000000003" style="stroke:black;fill:none;stroke-width:2.0;stroke-dasharray:-;stroke-linecap:round;stroke-linejoin:round;" /><path d="M 432.0,-302.40000000000003 L 425.25,-302.40000000000003" style="stroke:black;fill:none;stroke-width:2.0;stroke-dasharray:-;stroke-linecap:round;stroke-linejoin:round;" /><path d="M 432.0,-302.40000000000003 L 438.75,-302.40000000000003" style="stroke:black;fill:none;stroke-width:2.0;stroke-dasharray:-;stroke-linecap:round;stroke-linejoin:round;" /><path d="M 432.0,-288.0 L 432.0,-279.0 L 432.0,-270.0" style="stroke:black;fill:none;stroke-width:2.0;stroke-dasharray:-;stroke-linecap:round;stroke-linejoin:round;" /><path d="M 432.0,-270.0 L 432.0,-255.24 M 441.0,-255.24 L 423.0,-255.24 M 441.0,-248.76 L 423.0,-248.76 M 432.0,-248.76 L 432.0,-234.0" style="stroke:black;fill:none;stroke-width:2.0;stroke-dasharray:-;stroke-linecap:round;stroke-linejoin:round;" /><path d="M 432.0,-234.0 L 432.0,-228.6 L 432.0,-223.20000000000002" style="stroke:black;fill:none;stroke-width:2.0;stroke-dasharray:-;stroke-linecap:round;stroke-linejoin:round;" /><path d="M 432.0,-223.20000000000002 L 432.0,-208.79999999999998 L 423.0,-208.79999999999998 L 441.0,-208.79999999999998 M 425.7,-204.48 L 438.3,-204.48 M 430.2,-200.16000000000003 L 433.8,-200.16000000000003" style="stroke:black;fill:none;stroke-width:2.0;stroke-dasharray:-;stroke-linecap:round;stroke-linejoin:round;" /><path d="M 432.0,-270.0 L 450.0,-270.0 L 468.0,-270.0" style="stroke:black;fill:none;stroke-width:2.0;stroke-dasharray:-;stroke-linecap:round;stroke-linejoin:round;" /><path d="M 468.0,-270.0 L 468.0,-255.24 M 477.0,-255.24 L 459.0,-255.24 M 477.0,-248.76 L 459.0,-248.76 M 468.0,-248.76 L 468.0,-234.0" style="stroke:black;fill:none;stroke-width:2.0;stroke-dasharray:-;stroke-linecap:round;stroke-linejoin:round;" /><path d="M 468.0,-234.0 L 468.0,-228.6 L 468.0,-223.20000000000002" style="stroke:black;fill:none;stroke-width:2.0;stroke-dasharray:-;stroke-linecap:round;stroke-linejoin:round;" /><path d="M 468.0,-223.20000000000002 L 468.0,-208.79999999999998 L 459.0,-208.79999999999998 L 477.0,-208.79999999999998 M 461.7,-204.48 L 474.3,-204.48 M 466.2,-200.16000000000003 L 469.8,-200.16000000000003" style="stroke:black;fill:none;stroke-width:2.0;stroke-dasharray:-;stroke-linecap:round;stroke-linejoin:round;" /><path d="M 432.0,-288.0 L 468.0,-288.0 L 504.0,-288.0" style="stroke:black;fill:none;stroke-width:2.0;stroke-dasharray:-;stroke-linecap:round;stroke-linejoin:round;" /><path d="M 72.0,-162.0 L 162.0,-162.0 L 162.0,-262.8 L 72.0,-262.8 L 72.0,-162.0" style="stroke:black;fill:none;stroke-width:2.0;stroke-dasharray:-;stroke-linecap:round;stroke-linejoin:round;" /><path d="M 72.0,-180.0 L 54.0,-180.0" style="stroke:black;fill:none;stroke-width:2.0;stroke-dasharray:-;stroke-linecap:round;stroke-linejoin:round;" /><path d="M 72.0,-201.6 L 54.0,-201.6" style="stroke:black;fill:none;stroke-width:2.0;stroke-dasharray:-;stroke-linecap:round;stroke-linejoin:round;" /><path d="M 72.0,-223.20000000000002 L 54.0,-223.20000000000002" style="stroke:black;fill:none;stroke-width:2.0;stroke-dasharray:-;stroke-linecap:round;stroke-linejoin:round;" /><path d="M 72.0,-244.79999999999998 L 54.0,-244.79999999999998" style="stroke:black;fill:none;stroke-width:2.0;stroke-dasharray:-;stroke-linecap:round;stroke-linejoin:round;" /><path d="M 162.0,-180.0 L 180.0,-180.0" style="stroke:black;fill:none;stroke-width:2.0;stroke-dasharray:-;stroke-linecap:round;stroke-linejoin:round;" /><path d="M 162.0,-201.6 L 180.0,-201.6" style="stroke:black;fill:none;stroke-width:2.0;stroke-dasharray:-;stroke-linecap:round;stroke-linejoin:round;" /><path d="M 162.0,-223.20000000000002 L 180.0,-223.20000000000002" style="stroke:black;fill:none;stroke-width:2.0;stroke-dasharray:-;stroke-linecap:round;stroke-linejoin:round;" /><path d="M 162.0,-244.79999999999998 L 180.0,-244.79999999999998" style="stroke:black;fill:none;stroke-width:2.0;stroke-dasharray:-;stroke-linecap:round;stroke-linejoin:round;" /><path d="M 36.0,-216.0 L 27.0,-216.0 L 18.0,-216.0" style="stroke:black;fill:none;stroke-width:2.0;stroke-dasharray:-;stroke-linecap:round;stroke-linejoin:round;" /><path d="M 18.0,-216.0 L 18.0,-230.4" style="stroke:black;fill:none;stroke-width:2.0;stroke-dasharray:-;stroke-linecap:round;stroke-linejoin:round;" /><path d="M 18.0,-230.4 L 11.25,-230.4" style="stroke:black;fill:none;stroke-width:2.0;stroke-dasharray:-;stroke-linecap:round;stroke-linejoin:round;" /><path d="M 18.0,-230.4 L 24.75,-230.4" style="stroke:black;fill:none;stroke-width:2.0;stroke-dasharray:-;stroke-linecap:round;stroke-linejoin:round;" /><path d="M 36.0,-180.0 L 27.0,-180.0 L 18.0,-180.0" style="stroke:black;fill:none;stroke-width:2.0;stroke-dasharray:-;stroke-linecap:round;stroke-linejoin:round;" /><path d="M 18.0,-180.0 L 18.0,-165.6 L 9.0,-165.6 L 27.0,-165.6 M 11.700000000000001,-161.28000000000003 L 24.3,-161.28000000000003 M 16.2,-156.96 L 19.8,-156.96" style="stroke:black;fill:none;stroke-width:2.0;stroke-dasharray:-;stroke-linecap:round;stroke-linejoin:round;" /><path d="M 36.0,-144.0 L 9.0,-144.0 L -18.0,-144.0" style="stroke:black;fill:none;stroke-width:2.0;stroke-dasharray:-;stroke-linecap:round;stroke-linejoin:round;" /><path d="M 36.0,-108.0 L 9.0,-108.0 L -18.0,-108.0" style="stroke:black;fill:none;stroke-width:2.0;stroke-dasharray:-;stroke-linecap:round;stroke-linejoin:round;" /><path d="M 108.0,-216.0 L 126.0,-216.0 L 144.0,-216.0" style="stroke:black;fill:none;stroke-width:2.0;stroke-dasharray:-;stroke-linecap:round;stroke-linejoin:round;" /><path d="M 144.0,-216.0 L 153.0,-216.0 L 156.0,-225.0 L 162.0,-207.0 L 168.0,-225.0 L 174.0,-207.0 L 180.0,-225.0 L 185.99999999999997,-207.0 L 189.0,-216.0 L 198.0,-216.0" style="stroke:black;fill:none;stroke-width:2.0;stroke-dasharray:-;stroke-linecap:round;stroke-linejoin:round;" /><path d="M 198.0,-216.0 L 207.0,-216.0 L 216.0,-216.0" style="stroke:black;fill:none;stroke-width:2.0;stroke-dasharray:-;stroke-linecap:round;stroke-linejoin:round;" /><path d="M 198.0,-216.0 L 198.0,-198.0 L 198.0,-180.0" style="stroke:black;fill:none;stroke-width:2.0;stroke-dasharray:-;stroke-linecap:round;stroke-linejoin:round;" /><path d="M 198.0,-180.0 L 198.0,-174.6 L 198.0,-169.20000000000002" style="stroke:black;fill:none;stroke-width:2.0;stroke-dasharray:-;stroke-linecap:round;stroke-linejoin:round;" /><path d="M 198.0,-169.20000000000002 L 198.0,-154.79999999999998 L 189.0,-154.79999999999998 L 207.0,-154.79999999999998 M 191.70000000000002,-150.48 L 204.29999999999998,-150.48 M 196.20000000000002,-146.16000000000003 L 199.79999999999998,-146.16000000000003" style="stroke:black;fill:none;stroke-width:2.0;stroke-dasharray:-;stroke-linecap:round;stroke-linejoin:round;" /><path d="M 198.0,-216.0 L 198.0,-180.0 L 198.0,-144.0" style="stroke:black;fill:none;stroke-width:2.0;stroke-dasharray:-;stroke-linecap:round;stroke-linejoin:round;" /><path d="M 198.0,-144.0 L 207.0,-141.0 L 189.0,-135.0 L 207.0,-129.0 L 189.0,-123.00000000000001 L 207.0,-117.0 L 189.0,-111.0 L 198.0,-108.0" style="stroke:black;fill:none;stroke-width:2.0;stroke-dasharray:-;stroke-linecap:round;stroke-linejoin:round;" /><path d="M 198.0,-108.0 L 198.0,-99.89999999999999 M 207.0,-87.3 L 189.0,-87.3 M 198.0,-87.3 L 198.0,-79.2" style="stroke:black;fill:none;stroke-width:2.0;stroke-dasharray:-;stroke-linecap:round;stroke-linejoin:round;" /><path d="M 211.5,-90.89999999999999 L 220.9986493767039,-85.4722003561692" style="stroke:black;fill:none;stroke-width:2.0;stroke-dasharray:-;stroke-linecap:round;stroke-linejoin:round;" /><path d="M 225.5135137157511 -82.89227787671366 L 219.56976923423622 -82.97166010685075 L 222.42752951917157 -87.97274060548763 Z" style="stroke:black;fill:black;stroke-linecap:butt;stroke-linejoin:miter;" /><path d="M 211.5,-99.0 L 220.9986493767039,-93.5722003561692" style="stroke:black;fill:none;stroke-width:2.0;stroke-dasharray:-;stroke-linecap:round;stroke-linejoin:round;" /><path d="M 225.5135137157511 -90.99227787671367 L 219.56976923423622 -91.07166010685076 L 222.42752951917157 -96.07274060548764 Z" style="stroke:black;fill:black;stroke-linecap:butt;stroke-linejoin:miter;" /><path d="M 198.0,-79.2 L 198.0,-73.80000000000001 L 198.0,-68.4" style="stroke:black;fill:none;stroke-width:2.0;stroke-dasharray:-;stroke-linecap:round;stroke-linejoin:round;" /><path d="M 198.0,-68.4 L 198.0,-54.0 L 189.0,-54.0 L 207.0,-54.0 M 191.70000000000002,-49.68000000000001 L 204.29999999999998,-49.68000000000001 M 196.20000000000002,-45.36000000000001 L 199.79999999999998,-45.36000000000001" style="stroke:black;fill:none;stroke-width:2.0;stroke-dasharray:-;stroke-linecap:round;stroke-linejoin:round;" /><path d="M 108.0,-180.0 L 126.0,-180.0 L 144.0,-180.0" style="stroke:black;fill:none;stroke-width:2.0;stroke-dasharray:-;stroke-linecap:round;stroke-linejoin:round;" /><path d="M 144.0,-180.0 L 153.0,-180.0 L 156.0,-189.0 L 162.0,-171.0 L 168.0,-189.0 L 174.0,-171.0 L 180.0,-189.0 L 185.99999999999997,-171.0 L 189.0,-180.0 L 198.0,-180.0" style="stroke:black;fill:none;stroke-width:2.0;stroke-dasharray:-;stroke-linecap:round;stroke-linejoin:round;" /><path d="M 198.0,-180.0 L 207.0,-180.0 L 216.0,-180.0" style="stroke:black;fill:none;stroke-width:2.0;stroke-dasharray:-;stroke-linecap:round;stroke-linejoin:round;" /><path d="M 198.0,-180.0 L 198.0,-162.0 L 198.0,-144.0" style="stroke:black;fill:none;stroke-width:2.0;stroke-dasharray:-;stroke-linecap:round;stroke-linejoin:round;" /><path d="M 198.0,-144.0 L 198.0,-138.6 L 198.0,-133.20000000000002" style="stroke:black;fill:none;stroke-width:2.0;stroke-dasharray:-;stroke-linecap:round;stroke-linejoin:round;" /><path d="M 198.0,-133.20000000000002 L 198.0,-118.80000000000001 L 189.0,-118.80000000000001 L 207.0,-118.80000000000001 M 191.70000000000002,-114.48 L 204.29999999999998,-114.48 M 196.20000000000002,-110.16 L 199.79999999999998,-110.16" style="stroke:black;fill:none;stroke-width:2.0;stroke-dasharray:-;stroke-linecap:round;stroke-linejoin:round;" /><path d="M 216.0,72.0 L 225.0,72.0 L 234.0,72.0" style="stroke:black;fill:none;stroke-width:2.0;stroke-dasharray:-;stroke-linecap:round;stroke-linejoin:round;" /><path d="M 234.0,72.0 L 243.0,72.0 L 246.0,63.0 L 252.0,81.0 L 258.0,63.0 L 264.0,81.0 L 270.0,63.0 L 276.0,81.0 L 279.0,72.0 L 288.0,72.0" style="stroke:black;fill:none;stroke-width:2.0;stroke-dasharray:-;stroke-linecap:round;stroke-linejoin:round;" /><path d="M 288.0,72.0 L 301.20000000000005,72.0" style="stroke:black;fill:none;stroke-width:2.0;stroke-dasharray:-;stroke-linecap:round;stroke-linejoin:round;" /><path d="M 301.20000000000005,58.8 L 301.20000000000005,85.2" style="stroke:black;fill:none;stroke-width:2.0;stroke-dasharray:-;stroke-linecap:round;stroke-linejoin:round;" /><path d="M 301.20000000000005,65.4 L 315.06,53.52 L 315.06,46.919999999999995" style="stroke:black;fill:none;stroke-width:2.0;stroke-dasharray:-;stroke-linecap:round;stroke-linejoin:round;" /><path d="M 301.20000000000005,78.6 L 315.06,90.47999999999999 L 315.06,97.08" style="stroke:black;fill:none;stroke-width:2.0;stroke-dasharray:-;stroke-linecap:round;stroke-linejoin:round;" /><path d="M 288.0,43.199999999999996 L 288.0,34.199999999999996 L 288.0,25.2" style="stroke:black;fill:none;stroke-width:2.0;stroke-dasharray:-;stroke-linecap:round;stroke-linejoin:round;" /><path d="M 288.0,25.2 L 279.0,22.199999999999996 L 297.0,16.2 L 279.0,10.2 L 297.0,4.200000000000001 L 279.0,-1.8000000000000016 L 297.0,-7.800000000000001 L 288.0,-10.8" style="stroke:black;fill:none;stroke-width:2.0;stroke-dasharray:-;stroke-linecap:round;stroke-linejoin:round;" /><path d="M 288.0,-10.8 L 288.0,-19.8 L 288.0,-28.8" style="stroke:black;fill:none;stroke-width:2.0;stroke-dasharray:-;stroke-linecap:round;stroke-linejoin:round;" /><path d="M 288.0,100.8 L 288.0,109.8 L 288.0,118.8" style="stroke:black;fill:none;stroke-width:2.0;stroke-dasharray:-;stroke-linecap:round;stroke-linejoin:round;" /><path d="M 288.0,118.8 L 288.0,133.2 L 279.0,133.2 L 297.0,133.2 M 281.7,137.51999999999998 L 294.3,137.51999999999998 M 286.2,141.84 L 289.8,141.84" style="stroke:black;fill:none;stroke-width:2.0;stroke-dasharray:-;stroke-linecap:round;stroke-linejoin:round;" /><path d="M 324.0,72.0 L 342.0,72.0 L 360.0,72.0" style="stroke:black;fill:none;stroke-width:2.0;stroke-dasharray:-;stroke-linecap:round;stroke-linejoin:round;" /><path d="M 360.0,72.0 L 369.0,75.0 L 351.0,81.0 L 369.0,87.0 L 351.0,92.99999999999999 L 369.0,99.0 L 351.0,105.0 L 360.0,108.0" style="stroke:black;fill:none;stroke-width:2.0;stroke-dasharray:-;stroke-linecap:round;stroke-linejoin:round;" /><path d="M 360.0,108.0 L 360.0,116.10000000000001 M 369.0,128.70000000000002 L 351.0,128.70000000000002 M 360.0,128.70000000000002 L 360.0,136.79999999999998" style="stroke:black;fill:none;stroke-width:2.0;stroke-dasharray:-;stroke-linecap:round;stroke-linejoin:round;" /><path d="M 373.5,125.10000000000001 L 382.99864937670384,130.5277996438308" style="stroke:black;fill:none;stroke-width:2.0;stroke-dasharray:-;stroke-linecap:round;stroke-linejoin:round;" /><path d="M 387.51351371575106 133.10772212328632 L 381.56976923423616 133.02833989314922 L 384.42752951917157 128.02725939451233 Z" style="stroke:black;fill:black;stroke-linecap:butt;stroke-linejoin:miter;" /><path d="M 373.5,117.0 L 382.99864937670384,122.4277996438308" style="stroke:black;fill:none;stroke-width:2.0;stroke-dasharray:-;stroke-linecap:round;stroke-linejoin:round;" /><path d="M 387.51351371575106 125.00772212328633 L 381.56976923423616 124.92833989314924 L 384.42752951917157 119.92725939451236 Z" style="stroke:black;fill:black;stroke-linecap:butt;stroke-linejoin:miter;" /><path d="M 360.0,136.79999999999998 L 360.0,142.2 L 360.0,147.6" style="stroke:black;fill:none;stroke-width:2.0;stroke-dasharray:-;stroke-linecap:round;stroke-linejoin:round;" /><path d="M 360.0,147.6 L 360.0,162.0 L 351.0,162.0 L 369.0,162.0 M 353.7,166.31999999999996 L 366.3,166.31999999999996 M 358.2,170.64 L 361.8,170.64" style="stroke:black;fill:none;stroke-width:2.0;stroke-dasharray:-;stroke-linecap:round;stroke-linejoin:round;" /><path d="M 108.0,-144.0 L 126.0,-144.0 L 144.0,-144.0" style="stroke:black;fill:none;stroke-width:2.0;stroke-dasharray:-;stroke-linecap:round;stroke-linejoin:round;" /><path d="M 144.0,-144.0 L 153.0,-144.0 L 156.0,-153.0 L 162.0,-135.0 L 168.0,-153.0 L 174.0,-135.0 L 180.0,-153.0 L 185.99999999999997,-135.0 L 189.0,-144.0 L 198.0,-144.0" style="stroke:black;fill:none;stroke-width:2.0;stroke-dasharray:-;stroke-linecap:round;stroke-linejoin:round;" /><path d="M 198.0,-144.0 L 207.0,-144.0 L 216.0,-144.0" style="stroke:black;fill:none;stroke-width:2.0;stroke-dasharray:-;stroke-linecap:round;stroke-linejoin:round;" /><path d="M 198.0,-144.0 L 198.0,-126.0 L 198.0,-108.0" style="stroke:black;fill:none;stroke-width:2.0;stroke-dasharray:-;stroke-linecap:round;stroke-linejoin:round;" /><path d="M 198.0,-108.0 L 198.0,-102.60000000000001 L 198.0,-97.2" style="stroke:black;fill:none;stroke-width:2.0;stroke-dasharray:-;stroke-linecap:round;stroke-linejoin:round;" /><path d="M 198.0,-97.2 L 198.0,-82.80000000000001 L 189.0,-82.80000000000001 L 207.0,-82.80000000000001 M 191.70000000000002,-78.48 L 204.29999999999998,-78.48 M 196.20000000000002,-74.16 L 199.79999999999998,-74.16" style="stroke:black;fill:none;stroke-width:2.0;stroke-dasharray:-;stroke-linecap:round;stroke-linejoin:round;" /><path d="M 198.0,-144.0 L 198.0,-108.0 L 198.0,-72.0" style="stroke:black;fill:none;stroke-width:2.0;stroke-dasharray:-;stroke-linecap:round;stroke-linejoin:round;" /><path d="M 198.0,-72.0 L 207.0,-69.0 L 189.0,-63.0 L 207.0,-57.0 L 189.0,-51.0 L 207.0,-45.0 L 189.0,-39.00000000000001 L 198.0,-36.0" style="stroke:black;fill:none;stroke-width:2.0;stroke-dasharray:-;stroke-linecap:round;stroke-linejoin:round;" /><path d="M 198.0,-36.0 L 198.0,-27.9 M 207.0,-15.3 L 189.0,-15.3 M 198.0,-15.3 L 198.0,-7.199999999999998" style="stroke:black;fill:none;stroke-width:2.0;stroke-dasharray:-;stroke-linecap:round;stroke-linejoin:round;" /><path d="M 211.5,-18.9 L 220.9986493767039,-13.472200356169198" style="stroke:black;fill:none;stroke-width:2.0;stroke-dasharray:-;stroke-linecap:round;stroke-linejoin:round;" /><path d="M 225.5135137157511 -10.892277876713662 L 219.56976923423622 -10.971660106850758 L 222.42752951917157 -15.97274060548764 Z" style="stroke:black;fill:black;stroke-linecap:butt;stroke-linejoin:miter;" /><path d="M 211.5,-26.999999999999996 L 220.9986493767039,-21.572200356169198" style="stroke:black;fill:none;stroke-width:2.0;stroke-dasharray:-;stroke-linecap:round;stroke-linejoin:round;" /><path d="M 225.5135137157511 -18.992277876713665 L 219.56976923423622 -19.071660106850757 L 222.42752951917157 -24.072740605487642 Z" style="stroke:black;fill:black;stroke-linecap:butt;stroke-linejoin:miter;" /><path d="M 198.0,-7.199999999999998 L 198.0,-1.7999999999999985 L 198.0,3.6000000000000014" style="stroke:black;fill:none;stroke-width:2.0;stroke-dasharray:-;stroke-linecap:round;stroke-linejoin:round;" /><path d="M 198.0,3.6000000000000014 L 198.0,18.0 L 189.0,18.0 L 207.0,18.0 M 191.70000000000002,22.320000000000004 L 204.29999999999998,22.320000000000004 M 196.20000000000002,26.64 L 199.79999999999998,26.64" style="stroke:black;fill:none;stroke-width:2.0;stroke-dasharray:-;stroke-linecap:round;stroke-linejoin:round;" /><path d="M 108.0,-108.0 L 126.0,-108.0 L 144.0,-108.0" style="stroke:black;fill:none;stroke-width:2.0;stroke-dasharray:-;stroke-linecap:round;stroke-linejoin:round;" /><path d="M 144.0,-108.0 L 153.0,-108.0 L 156.0,-117.0 L 162.0,-99.0 L 168.0,-117.0 L 174.0,-99.0 L 180.0,-117.0 L 185.99999999999997,-99.0 L 189.0,-108.0 L 198.0,-108.0" style="stroke:black;fill:none;stroke-width:2.0;stroke-dasharray:-;stroke-linecap:round;stroke-linejoin:round;" /><path d="M 198.0,-108.0 L 207.0,-108.0 L 216.0,-108.0" style="stroke:black;fill:none;stroke-width:2.0;stroke-dasharray:-;stroke-linecap:round;stroke-linejoin:round;" /><path d="M 0.0,216.0 L 18.0,216.0 L 36.0,216.0" style="stroke:black;fill:none;stroke-width:2.0;stroke-dasharray:-;stroke-linecap:round;stroke-linejoin:round;" /><path d="M 36.0,216.0 L 36.0,201.6" style="stroke:black;fill:none;stroke-width:2.0;stroke-dasharray:-;stroke-linecap:round;stroke-linejoin:round;" /><path d="M 36.0,201.6 L 29.25,201.6" style="stroke:black;fill:none;stroke-width:2.0;stroke-dasharray:-;stroke-linecap:round;stroke-linejoin:round;" /><path d="M 36.0,201.6 L 42.75,201.6" style="stroke:black;fill:none;stroke-width:2.0;stroke-dasharray:-;stroke-linecap:round;stroke-linejoin:round;" /><path d="M 0.0,234.0 L 9.0,234.0 L 18.0,234.0" style="stroke:black;fill:none;stroke-width:2.0;stroke-dasharray:-;stroke-linecap:round;stroke-linejoin:round;" /><path d="M 18.0,234.0 L 18.0,248.4 L 9.0,248.4 L 27.0,248.4 M 11.700000000000001,252.71999999999997 L 24.3,252.71999999999997 M 16.2,257.03999999999996 L 19.8,257.03999999999996" style="stroke:black;fill:none;stroke-width:2.0;stroke-dasharray:-;stroke-linecap:round;stroke-linejoin:round;" /><text x="3.6" y="-413.59999999999997" dominant-baseline="central" fill="black" font-size="14" font-family="sans" text-anchor="start"><tspan x="3.6" dy="14">PRISME BOTTOM BOARD - OUTPUT CIRCUITS</tspan></text><text x="3.6" y="-391.59999999999997" dominant-baseline="central" fill="black" font-size="10" font-family="sans" text-anchor="start"><tspan x="3.6" dy="10">Session 25 - Actual Design (0-5V, No Op-Amp)</tspan></text><text x="3.6" y="-371.59999999999997" dominant-baseline="central" fill="black" font-size="8" font-family="sans" text-anchor="start"><tspan x="3.6" dy="8">Date: 2025-11-03</tspan></text><text x="3.6" y="-339.59999999999997" dominant-baseline="central" fill="black" font-size="12" font-family="bold" text-anchor="start"><tspan x="3.6" dy="12">POWER DISTRIBUTION</tspan></text><text x="3.6" y="-301.59999999999997" dominant-baseline="central" fill="black" font-size="10" font-family="sans" text-anchor="start"><tspan x="3.6" dy="10">5V Rail (Powers DAC):</tspan></text><text x="108.0" y="-322.0" dominant-baseline="ideographic" fill="black" font-size="8" font-family="sans" text-anchor="middle"><tspan x="108.0" dy="8">5V USB</tspan><tspan x="108.0" dy="8">(from M4)</tspan></text><text x="108.0" y="-294.59999999999997" dominant-baseline="ideographic" fill="black" font-size="7" font-family="sans" text-anchor="middle"><tspan x="108.0" dy="7">C1</tspan><tspan x="108.0" dy="7">47uF</tspan><tspan x="108.0" dy="7">Electrolytic</tspan></text><text x="144.0" y="-294.59999999999997" dominant-baseline="ideographic" fill="black" font-size="7" font-family="sans" text-anchor="middle"><tspan x="144.0" dy="7">C2</tspan><tspan x="144.0" dy="7">0.1uF</tspan><tspan x="144.0" dy="7">Ceramic</tspan></text><text x="255.6" y="-301.59999999999997" dominant-baseline="central" fill="black" font-size="10" font-family="sans" text-anchor="start"><tspan x="255.6" dy="10">3.3V Rail (Powers MIDI/OLED/LEDs):</tspan></text><text x="432.0" y="-322.0" dominant-baseline="ideographic" fill="black" font-size="8" font-family="sans" text-anchor="middle"><tspan x="432.0" dy="8">3.3V</tspan><tspan x="432.0" dy="8">(from M4)</tspan></text><text x="432.0" y="-294.59999999999997" dominant-baseline="ideographic" fill="black" font-size="7" font-family="sans" text-anchor="middle"><tspan x="432.0" dy="7">C9</tspan><tspan x="432.0" dy="7">10uF</tspan><tspan x="432.0" dy="7">Electrolytic</tspan></text><text x="468.0" y="-294.59999999999997" dominant-baseline="ideographic" fill="black" font-size="7" font-family="sans" text-anchor="middle"><tspan x="468.0" dy="7">C10</tspan><tspan x="468.0" dy="7">0.1uF</tspan><tspan x="468.0" dy="7">Ceramic</tspan></text><text x="3.6" y="-213.6" dominant-baseline="central" fill="black" font-size="12" font-family="bold" text-anchor="start"><tspan x="3.6" dy="12">MCP4728 4-CHANNEL I2C DAC</tspan></text><text x="69.3" y="-193.70000000000002" dominant-baseline="ideographic" fill="black" font-size="11" font-family="sans" text-anchor="end"><tspan x="69.3" dy="11">1</tspan></text><text x="77.39999999999999" y="-194.0" dominant-baseline="central" fill="black" font-size="14" font-family="sans" text-anchor="start"><tspan x="77.39999999999999" dy="14">VDD</tspan></text><text x="69.3" y="-215.29999999999998" dominant-baseline="ideographic" fill="black" font-size="11" font-family="sans" text-anchor="end"><tspan x="69.3" dy="11">2</tspan></text><text x="77.39999999999999" y="-215.6" dominant-baseline="central" fill="black" font-size="14" font-family="sans" text-anchor="start"><tspan x="77.39999999999999" dy="14">GND</tspan></text><text x="69.3" y="-236.9" dominant-baseline="ideographic" fill="black" font-size="11" font-family="sans" text-anchor="end"><tspan x="69.3" dy="11">3</tspan></text><text x="77.39999999999999" y="-237.20000000000002" dominant-baseline="central" fill="black" font-size="14" font-family="sans" text-anchor="start"><tspan x="77.39999999999999" dy="14">SDA</tspan></text><text x="69.3" y="-258.5" dominant-baseline="ideographic" fill="black" font-size="11" font-family="sans" text-anchor="end"><tspan x="69.3" dy="11">4</tspan></text><text x="77.39999999999999" y="-258.79999999999995" dominant-baseline="central" fill="black" font-size="14" font-family="sans" text-anchor="start"><tspan x="77.39999999999999" dy="14">SCL</tspan></text><text x="164.70000000000002" y="-193.70000000000002" dominant-baseline="ideographic" fill="black" font-size="11" font-family="sans" text-anchor="start"><tspan x="164.70000000000002" dy="11">5</tspan></text><text x="156.6" y="-194.0" dominant-baseline="central" fill="black" font-size="14" font-family="sans" text-anchor="end"><tspan x="156.6" dy="14">VA</tspan></text><text x="164.70000000000002" y="-215.29999999999998" dominant-baseline="ideographic" fill="black" font-size="11" font-family="sans" text-anchor="start"><tspan x="164.70000000000002" dy="11">6</tspan></text><text x="156.6" y="-215.6" dominant-baseline="central" fill="black" font-size="14" font-family="sans" text-anchor="end"><tspan x="156.6" dy="14">VB</tspan></text><text x="164.70000000000002" y="-236.9" dominant-baseline="ideographic" fill="black" font-size="11" font-family="sans" text-anchor="start"><tspan x="164.70000000000002" dy="11">7</tspan></text><text x="156.6" y="-237.20000000000002" dominant-baseline="central" fill="black" font-size="14" font-family="sans" text-anchor="end"><tspan x="156.6" dy="14">VC</tspan></text><text x="164.70000000000002" y="-258.5" dominant-baseline="ideographic" fill="black" font-size="11" font-family="sans" text-anchor="start"><tspan x="164.70000000000002" dy="11">8</tspan></text><text x="156.6" y="-258.79999999999995" dominant-baseline="central" fill="black" font-size="14" font-family="sans" text-anchor="end"><tspan x="156.6" dy="14">VD</tspan></text><text x="120.60000000000001" y="-229.5" dominant-baseline="central" fill="black" font-size="9" font-family="sans" text-anchor="middle"><tspan x="120.60000000000001" dy="9">MCP4728</tspan><tspan x="120.60000000000001" dy="9">0x60</tspan></text><text x="18.0" y="-241.0" dominant-baseline="ideographic" fill="black" font-size="7" font-family="sans" text-anchor="middle"><tspan x="18.0" dy="7">5V</tspan></text><text x="212.4" y="-186.4" dominant-baseline="central" fill="black" font-size="10" font-family="sans" text-anchor="start"><tspan x="212.4" dy="10">CV OUT - 0-5V (1V/octave)</tspan></text><text x="171.0" y="-242.6" dominant-baseline="ideographic" fill="black" font-size="7" font-family="sans" text-anchor="middle"><tspan x="171.0" dy="7">R1</tspan><tspan x="171.0" dy="7">100 ohm</tspan></text><text x="198.0" y="-111.39999999999999" dominant-baseline="hanging" fill="black" font-size="7" font-family="sans" text-anchor="middle"><tspan x="198.0" dy="7">R7</tspan><tspan x="198.0" dy="7">1k ohm</tspan></text><text x="211.005" y="-82.60000000000001" dominant-baseline="hanging" fill="black" font-size="7" font-family="sans" text-anchor="middle"><tspan x="211.005" dy="7">LED3</tspan><tspan x="211.005" dy="7">White</tspan></text><text x="219.6" y="-78.39999999999999" dominant-baseline="central" fill="black" font-size="10" font-family="sans" text-anchor="start"><tspan x="219.6" dy="10">TRIG OUT (V-Trig) - 0-5V Gate</tspan></text><text x="171.0" y="-206.6" dominant-baseline="ideographic" fill="black" font-size="7" font-family="sans" text-anchor="middle"><tspan x="171.0" dy="7">R2</tspan><tspan x="171.0" dy="7">100 ohm</tspan></text><text x="219.6" y="29.6" dominant-baseline="central" fill="black" font-size="10" font-family="sans" text-anchor="start"><tspan x="219.6" dy="10">TRIG OUT (S-Trig) - Switch to GND</tspan></text><text x="261.0" y="45.4" dominant-baseline="ideographic" fill="black" font-size="7" font-family="sans" text-anchor="middle"><tspan x="261.0" dy="7">R8</tspan><tspan x="261.0" dy="7">1k ohm</tspan></text><text x="307.8" y="93.68" dominant-baseline="hanging" fill="black" font-size="7" font-family="sans" text-anchor="middle"><tspan x="307.8" dy="7">Q1</tspan><tspan x="307.8" dy="7">2N3904</tspan><tspan x="307.8" dy="7">NPN</tspan></text><text x="288.0" y="-28.400000000000006" dominant-baseline="ideographic" fill="black" font-size="7" font-family="sans" text-anchor="middle"><tspan x="288.0" dy="7">R9</tspan><tspan x="288.0" dy="7">100 ohm</tspan></text><text x="327.59999999999997" y="12.599999999999998" dominant-baseline="central" fill="black" font-size="6" font-family="sans" text-anchor="start"><tspan x="327.59999999999997" dy="6">(Same jack as V-Trig,</tspan><tspan x="327.59999999999997" dy="6">user selects mode)</tspan></text><text x="360.0" y="104.60000000000001" dominant-baseline="hanging" fill="black" font-size="7" font-family="sans" text-anchor="middle"><tspan x="360.0" dy="7">R10</tspan><tspan x="360.0" dy="7">330 ohm</tspan></text><text x="373.005" y="133.4" dominant-baseline="hanging" fill="black" font-size="7" font-family="sans" text-anchor="middle"><tspan x="373.005" dy="7">LED4</tspan><tspan x="373.005" dy="7">RGB</tspan></text><text x="219.6" y="137.6" dominant-baseline="central" fill="black" font-size="10" font-family="sans" text-anchor="start"><tspan x="219.6" dy="10">CC OUT - 0-5V (MIDI CC)</tspan></text><text x="171.0" y="-170.6" dominant-baseline="ideographic" fill="black" font-size="7" font-family="sans" text-anchor="middle"><tspan x="171.0" dy="7">R3</tspan><tspan x="171.0" dy="7">100 ohm</tspan></text><text x="198.0" y="-39.4" dominant-baseline="hanging" fill="black" font-size="7" font-family="sans" text-anchor="middle"><tspan x="198.0" dy="7">R11</tspan><tspan x="198.0" dy="7">1k ohm</tspan></text><text x="211.005" y="-10.6" dominant-baseline="hanging" fill="black" font-size="7" font-family="sans" text-anchor="middle"><tspan x="211.005" dy="7">LED5</tspan><tspan x="211.005" dy="7">White</tspan></text><text x="219.6" y="245.6" dominant-baseline="central" fill="black" font-size="10" font-family="sans" text-anchor="start"><tspan x="219.6" dy="10">Channel D - FUTURE (Available)</tspan></text><text x="171.0" y="-141.60000000000002" dominant-baseline="ideographic" fill="black" font-size="7" font-family="sans" text-anchor="middle"><tspan x="171.0" dy="7">R4</tspan><tspan x="171.0" dy="7">100 ohm</tspan><tspan x="171.0" dy="7">(future)</tspan></text><text x="3.6" y="166.4" dominant-baseline="central" fill="black" font-size="10" font-family="bold" text-anchor="start"><tspan x="3.6" dy="10">USB-C POWER INPUT</tspan></text><text x="36.0" y="191.0" dominant-baseline="ideographic" fill="black" font-size="7" font-family="sans" text-anchor="middle"><tspan x="36.0" dy="7">5V</tspan></text><text x="3.6" y="256.40000000000003" dominant-baseline="central" fill="black" font-size="10" font-family="bold" text-anchor="start"><tspan x="3.6" dy="10">MIDI CONNECTIONS</tspan></text><text x="3.6" y="276.40000000000003" dominant-baseline="central" fill="black" font-size="8" font-family="sans" text-anchor="start"><tspan x="3.6" dy="8">MIDI IN: Via MIDI FeatherWing DIN-5</tspan></text><text x="3.6" y="294.40000000000003" dominant-baseline="central" fill="black" font-size="8" font-family="sans" text-anchor="start"><tspan x="3.6" dy="8">MIDI OUT: Via MIDI FeatherWing DIN-5</tspan></text><text x="3.6" y="312.40000000000003" dominant-baseline="central" fill="black" font-size="8" font-family="sans" text-anchor="start"><tspan x="3.6" dy="8">Power: 3.3V from M4</tspan></text><text x="3.6" y="330.40000000000003" dominant-baseline="central" fill="black" font-size="8" font-family="sans" text-anchor="start"><tspan x="3.6" dy="8">UART: RX/TX to M4 Serial1</tspan></text><text x="3.6" y="382.40000000000003" dominant-baseline="central" fill="black" font-size="10" font-family="bold" text-anchor="start"><tspan x="3.6" dy="10">DESIGN NOTES:</tspan></text><text x="3.6" y="402.40000000000003" dominant-baseline="central" fill="black" font-size="8" font-family="sans" text-anchor="start"><tspan x="3.6" dy="8">1. CV OUT is 0-5V DIRECT (no op-amp, 5 octaves at 1V/octave)</tspan></text><text x="3.6" y="420.40000000000003" dominant-baseline="central" fill="black" font-size="8" font-family="sans" text-anchor="start"><tspan x="3.6" dy="8">2. All DAC outputs have 100 ohm series protection</tspan></text><text x="3.6" y="438.40000000000003" dominant-baseline="central" fill="black" font-size="8" font-family="sans" text-anchor="start"><tspan x="3.6" dy="8">3. TRIG OUT supports V-Trig (DAC) OR S-Trig (transistor)</tspan></text><text x="3.6" y="456.40000000000003" dominant-baseline="central" fill="black" font-size="8" font-family="sans" text-anchor="start"><tspan x="3.6" dy="8">4. MCP4728 powered by 5V for full 0-5V output range</tspan></text><text x="3.6" y="474.40000000000003" dominant-baseline="central" fill="black" font-size="8" font-family="sans" text-anchor="start"><tspan x="3.6" dy="8">5. MIDI + OLED + LEDs powered by 3.3V rail</tspan></text><text x="3.6" y="492.40000000000003" dominant-baseline="central" fill="black" font-size="8" font-family="sans" text-anchor="start"><tspan x="3.6" dy="8">6. Both power rails require proper decoupling (C1,C2 + C9,C10)</tspan></text><text x="255.6" y="382.40000000000003" dominant-baseline="central" fill="black" font-size="10" font-family="bold" text-anchor="start"><tspan x="255.6" dy="10">VOLTAGE SPECS:</tspan></text><text x="255.6" y="402.40000000000003" dominant-baseline="central" fill="black" font-size="8" font-family="sans" text-anchor="start"><tspan x="255.6" dy="8">CV OUT: 0-5V (5 octaves, C0-C5)</tspan></text><text x="255.6" y="420.40000000000003" dominant-baseline="central" fill="black" font-size="8" font-family="sans" text-anchor="start"><tspan x="255.6" dy="8">TRIG OUT: 0-5V (V-Trig) or GND (S-Trig)</tspan></text><text x="255.6" y="438.40000000000003" dominant-baseline="central" fill="black" font-size="8" font-family="sans" text-anchor="start"><tspan x="255.6" dy="8">CC OUT: 0-5V (CC 0-127 mapped)</tspan></text><text x="255.6" y="456.40000000000003" dominant-baseline="central" fill="black" font-size="8" font-family="sans" text-anchor="start"><tspan x="255.6" dy="8">MCP4728: I2C address 0x60</tspan></text><text x="255.6" y="474.40000000000003" dominant-baseline="central" fill="black" font-size="8" font-family="sans" text-anchor="start"><tspan x="255.6" dy="8">Reference: Internal 4.096V</tspan></text><circle cx="180.0" cy="-288.0" r="2.6999999999999997" style="stroke:black;fill:black;stroke-width:2.0;stroke-dasharray:-;" /><text x="180.0" y="-308.3" dominant-baseline="ideographic" fill="black" font-size="7" font-family="sans" text-anchor="start"><tspan x="180.0" dy="7">To MCP4728</tspan><tspan x="180.0" dy="7">VDD</tspan></text><circle cx="504.0" cy="-288.0" r="2.6999999999999997" style="stroke:black;fill:black;stroke-width:2.0;stroke-dasharray:-;" /><text x="504.0" y="-315.3" dominant-baseline="ideographic" fill="black" font-size="7" font-family="sans" text-anchor="start"><tspan x="504.0" dy="7">To MIDI</tspan><tspan x="504.0" dy="7">OLED</tspan><tspan x="504.0" dy="7">LEDs</tspan></text><circle cx="-18.0" cy="-144.0" r="2.6999999999999997" style="stroke:black;fill:black;stroke-width:2.0;stroke-dasharray:-;" /><text x="-18.0" y="-164.29999999999998" dominant-baseline="ideographic" fill="black" font-size="7" font-family="sans" text-anchor="end"><tspan x="-18.0" dy="7">To M4</tspan><tspan x="-18.0" dy="7">SDA</tspan></text><circle cx="-18.0" cy="-108.0" r="2.6999999999999997" style="stroke:black;fill:black;stroke-width:2.0;stroke-dasharray:-;" /><text x="-18.0" y="-128.3" dominant-baseline="ideographic" fill="black" font-size="7" font-family="sans" text-anchor="end"><tspan x="-18.0" dy="7">To M4</tspan><tspan x="-18.0" dy="7">SCL</tspan></text><circle cx="216.0" cy="-216.0" r="2.6999999999999997" style="stroke:black;fill:black;stroke-width:2.0;stroke-dasharray:-;" /><text x="216.0" y="-238.29999999999998" dominant-baseline="ideographic" fill="black" font-size="8" font-family="sans" text-anchor="start"><tspan x="216.0" dy="8">CV OUT</tspan><tspan x="216.0" dy="8">Jack TIP</tspan></text><circle cx="198.0" cy="-180.0" r="2.6999999999999997" style="stroke:black;fill:black;stroke-width:2.0;stroke-dasharray:-;" /><text x="198.0" y="-200.29999999999998" dominant-baseline="ideographic" fill="black" font-size="7" font-family="sans" text-anchor="start"><tspan x="198.0" dy="7">Jack</tspan><tspan x="198.0" dy="7">SLEEVE</tspan></text><circle cx="216.0" cy="-180.0" r="2.6999999999999997" style="stroke:black;fill:black;stroke-width:2.0;stroke-dasharray:-;" /><text x="216.0" y="-207.29999999999998" dominant-baseline="ideographic" fill="black" font-size="7" font-family="sans" text-anchor="start"><tspan x="216.0" dy="7">TRIG OUT</tspan><tspan x="216.0" dy="7">Jack TIP</tspan><tspan x="216.0" dy="7">(V-Trig)</tspan></text><circle cx="198.0" cy="-144.0" r="2.6999999999999997" style="stroke:black;fill:black;stroke-width:2.0;stroke-dasharray:-;" /><text x="198.0" y="-164.29999999999998" dominant-baseline="ideographic" fill="black" font-size="7" font-family="sans" text-anchor="start"><tspan x="198.0" dy="7">Jack</tspan><tspan x="198.0" dy="7">SLEEVE</tspan></text><circle cx="216.0" cy="72.0" r="2.6999999999999997" style="stroke:black;fill:black;stroke-width:2.0;stroke-dasharray:-;" /><text x="216.0" y="51.7" dominant-baseline="ideographic" fill="black" font-size="7" font-family="sans" text-anchor="end"><tspan x="216.0" dy="7">From M4</tspan><tspan x="216.0" dy="7">Pin D10</tspan></text><circle cx="288.0" cy="-28.8" r="2.6999999999999997" style="stroke:black;fill:black;stroke-width:2.0;stroke-dasharray:-;" /><text x="288.0" y="-56.1" dominant-baseline="ideographic" fill="black" font-size="7" font-family="sans" text-anchor="start"><tspan x="288.0" dy="7">TRIG OUT</tspan><tspan x="288.0" dy="7">Jack TIP</tspan><tspan x="288.0" dy="7">(S-Trig)</tspan></text><circle cx="216.0" cy="-144.0" r="2.6999999999999997" style="stroke:black;fill:black;stroke-width:2.0;stroke-dasharray:-;" /><text x="216.0" y="-166.29999999999998" dominant-baseline="ideographic" fill="black" font-size="8" font-family="sans" text-anchor="start"><tspan x="216.0" dy="8">CC OUT</tspan><tspan x="216.0" dy="8">Jack TIP</tspan></text><circle cx="198.0" cy="-108.0" r="2.6999999999999997" style="stroke:black;fill:black;stroke-width:2.0;stroke-dasharray:-;" /><text x="198.0" y="-128.3" dominant-baseline="ideographic" fill="black" font-size="7" font-family="sans" text-anchor="start"><tspan x="198.0" dy="7">Jack</tspan><tspan x="198.0" dy="7">SLEEVE</tspan></text><circle cx="216.0" cy="-108.0" r="2.6999999999999997" style="stroke:black;fill:black;stroke-width:2.0;stroke-dasharray:-;" /><text x="216.0" y="-128.3" dominant-baseline="ideographic" fill="black" font-size="7" font-family="sans" text-anchor="start"><tspan x="216.0" dy="7">Future</tspan><tspan x="216.0" dy="7">Expansion</tspan></text><circle cx="0.0" cy="216.0" r="2.6999999999999997" style="stroke:black;fill:black;stroke-width:2.0;stroke-dasharray:-;" /><text x="0.0" y="195.70000000000002" dominant-baseline="ideographic" fill="black" font-size="7" font-family="sans" text-anchor="end"><tspan x="0.0" dy="7">USB-C</tspan><tspan x="0.0" dy="7">5V</tspan></text><circle cx="0.0" cy="234.0" r="2.6999999999999997" style="stroke:black;fill:black;stroke-width:2.0;stroke-dasharray:-;" /><text x="0.0" y="213.70000000000002" dominant-baseline="ideographic" fill="black" font-size="7" font-family="sans" text-anchor="end"><tspan x="0.0" dy="7">USB-C</tspan><tspan x="0.0" dy="7">GND</tspan></text></svg>