<svg xmlns="http://www.w3.org/2000/svg" xmlns:xlink="http://www.w3.org/1999/xlink" xml:lang="en" height="711.9pt" width="282.50000000000006pt" viewBox="-8.775999999999996 -447.2 282.50000000000006 711.9"><path d="M 36.0,-198.0 L 54.0,-198.0 L 72.0,-198.0" style="stroke:black;fill:none;stroke-width:2.0;stroke-dasharray:-;stroke-linecap:round;stroke-linejoin:round;" /><path d="M 72.0,-198.0 L 90.0,-198.0 L 93.0,-207.0 L 99.0,-189.0 L 105.0,-207.0 L 110.99999999999999,-189.0 L 117.0,-207.0 L 123.0,-189.0 L 126.0,-198.0 L 144.0,-198.0" style="stroke:black;fill:none;stroke-width:2.0;stroke-dasharray:-;stroke-linecap:round;stroke-linejoin:round;" /><path d="M 144.0,-198.0 L 162.0,-198.0 L 180.0,-198.0" style="stroke:black;fill:none;stroke-width:2.0;stroke-dasharray:-;stroke-linecap:round;stroke-linejoin:round;" /><path d="M 180.0,-198.0 L 180.0,-180.0 L 180.0,-162.0" style="stroke:black;fill:none;stroke-width:2.0;stroke-dasharray:-;stroke-linecap:round;stroke-linejoin:round;" /><path d="M 180.0,-162.0 L 180.0,-153.0 L 180.0,-144.0" style="stroke:black;fill:none;stroke-width:2.0;stroke-dasharray:-;stroke-linecap:round;stroke-linejoin:round;" /><path d="M 180.0,-144.0 L 180.0,-129.6 L 171.0,-129.6 L 189.0,-129.6 M 173.70000000000002,-125.28 L 186.29999999999998,-125.28 M 178.20000000000002,-120.96 L 181.79999999999998,-120.96" style="stroke:black;fill:none;stroke-width:2.0;stroke-dasharray:-;stroke-linecap:round;stroke-linejoin:round;" /><path d="M 36.0,-90.0 L 54.0,-90.0 L 72.0,-90.0" style="stroke:black;fill:none;stroke-width:2.0;stroke-dasharray:-;stroke-linecap:round;stroke-linejoin:round;" /><path d="M 72.0,-90.0 L 90.0,-90.0 L 93.0,-99.0 L 99.0,-81.0 L 105.0,-99.0 L 110.99999999999999,-81.0 L 117.0,-99.0 L 123.0,-81.0 L 126.0,-90.0 L 144.0,-90.0" style="stroke:black;fill:none;stroke-width:2.0;stroke-dasharray:-;stroke-linecap:round;stroke-linejoin:round;" /><path d="M 144.0,-90.0 L 162.0,-90.0 L 180.0,-90.0" style="stroke:black;fill:none;stroke-width:2.0;stroke-dasharray:-;stroke-linecap:round;stroke-linejoin:round;" /><path d="M 180.0,-90.0 L 180.0,-72.0 L 180.0,-54.0" style="stroke:black;fill:none;stroke-width:2.0;stroke-dasharray:-;stroke-linecap:round;stroke-linejoin:round;" /><path d="M 180.0,-54.0 L 180.0,-45.0 L 180.0,-36.0" style="stroke:black;fill:none;stroke-width:2.0;stroke-dasharray:-;stroke-linecap:round;stroke-linejoin:round;" /><path d="M 180.0,-36.0 L 180.0,-21.599999999999998 L 171.0,-21.599999999999998 L 189.0,-21.599999999999998 M 173.70000000000002,-17.28 L 186.29999999999998,-17.28 M 178.20000000000002,-12.959999999999999 L 181.79999999999998,-12.959999999999999" style="stroke:black;fill:none;stroke-width:2.0;stroke-dasharray:-;stroke-linecap:round;stroke-linejoin:round;" /><path d="M 36.0,18.0 L 54.0,18.0 L 72.0,18.0" style="stroke:black;fill:none;stroke-width:2.0;stroke-dasharray:-;stroke-linecap:round;stroke-linejoin:round;" /><path d="M 72.0,18.0 L 90.0,18.0 L 93.0,9.0 L 99.0,27.0 L 105.0,9.0 L 110.99999999999999,27.0 L 117.0,9.0 L 123.0,27.0 L 126.0,18.0 L 144.0,18.0" style="stroke:black;fill:none;stroke-width:2.0;stroke-dasharray:-;stroke-linecap:round;stroke-linejoin:round;" /><path d="M 144.0,18.0 L 162.0,18.0 L 180.0,18.0" style="stroke:black;fill:none;stroke-width:2.0;stroke-dasharray:-;stroke-linecap:round;stroke-linejoin:round;" /><path d="M 180.0,18.0 L 180.0,36.0 L 180.0,54.0" style="stroke:black;fill:none;stroke-width:2.0;stroke-dasharray:-;stroke-linecap:round;stroke-linejoin:round;" /><path d="M 180.0,54.0 L 180.0,63.0 L 180.0,72.0" style="stroke:black;fill:none;stroke-width:2.0;stroke-dasharray:-;stroke-linecap:round;stroke-linejoin:round;" /><path d="M 180.0,72.0 L 180.0,86.39999999999999 L 171.0,86.39999999999999 L 189.0,86.39999999999999 M 173.70000000000002,90.72 L 186.29999999999998,90.72 M 178.20000000000002,95.04 L 181.79999999999998,95.04" style="stroke:black;fill:none;stroke-width:2.0;stroke-dasharray:-;stroke-linecap:round;stroke-linejoin:round;" /><text x="3.6" y="-449.59999999999997" dominant-baseline="central" fill="black" font-size="14" font-family="bold" text-anchor="start"><tspan x="3.6" dy="14">BOTTOM PCB - MCP4728 DAC OUTPUTS</tspan></text><text x="3.6" y="-420.40000000000003" dominant-baseline="central" fill="black" font-size="10" font-family="sans" text-anchor="start"><tspan x="3.6" dy="10">4-channel I2C DAC for CV, TRIG, CC outputs</tspan></text><text x="3.6" y="-374.59999999999997" dominant-baseline="central" fill="black" font-size="11" font-family="bold" text-anchor="start"><tspan x="3.6" dy="11">MCP4728 CONNECTIONS:</tspan></text><text x="3.6" y="-354.59999999999997" dominant-baseline="central" fill="black" font-size="9" font-family="sans" text-anchor="start"><tspan x="3.6" dy="9">VDD ← 5V Rail (needs 5V for 0-5V output range)</tspan></text><text x="3.6" y="-336.59999999999997" dominant-baseline="central" fill="black" font-size="9" font-family="sans" text-anchor="start"><tspan x="3.6" dy="9">GND ← Common ground</tspan></text><text x="3.6" y="-318.59999999999997" dominant-baseline="central" fill="black" font-size="9" font-family="sans" text-anchor="start"><tspan x="3.6" dy="9">SDA ← M4 SDA (shared with OLED)</tspan></text><text x="3.6" y="-300.59999999999997" dominant-baseline="central" fill="black" font-size="9" font-family="sans" text-anchor="start"><tspan x="3.6" dy="9">SCL ← M4 SCL (shared with OLED)</tspan></text><text x="3.6" y="-282.59999999999997" dominant-baseline="central" fill="black" font-size="9" font-family="sans" text-anchor="start"><tspan x="3.6" dy="9">I2C Address: 0x60 (factory default)</tspan></text><text x="3.6" y="-248.6" dominant-baseline="central" fill="black" font-size="11" font-family="bold" text-anchor="start"><tspan x="3.6" dy="11">CHANNEL A - CV OUT (0-5V):</tspan></text><text x="108.0" y="-228.6" dominant-baseline="ideographic" fill="black" font-size="9" font-family="sans" text-anchor="middle"><tspan x="108.0" dy="9">R1</tspan><tspan x="108.0" dy="9">100Ω</tspan></text><text x="3.5999999999999996" y="-133.39999999999998" dominant-baseline="central" fill="black" font-size="11" font-family="bold" text-anchor="start"><tspan x="3.5999999999999996" dy="11">CHANNEL B - TRIG OUT V-Trig (0-5V):</tspan></text><text x="108.0" y="-120.60000000000001" dominant-baseline="ideographic" fill="black" font-size="9" font-family="sans" text-anchor="middle"><tspan x="108.0" dy="9">R2</tspan><tspan x="108.0" dy="9">100Ω</tspan></text><text x="3.5999999999999996" y="-25.4" dominant-baseline="central" fill="black" font-size="11" font-family="bold" text-anchor="start"><tspan x="3.5999999999999996" dy="11">CHANNEL C - CC OUT (0-5V):</tspan></text><text x="108.0" y="-12.6" dominant-baseline="ideographic" fill="black" font-size="9" font-family="sans" text-anchor="middle"><tspan x="108.0" dy="9">R3</tspan><tspan x="108.0" dy="9">100Ω</tspan></text><text x="3.5999999999999996" y="82.60000000000001" dominant-baseline="central" fill="black" font-size="11" font-family="bold" text-anchor="start"><tspan x="3.5999999999999996" dy="11">COMPONENT VALUES:</tspan></text><text x="3.5999999999999996" y="102.60000000000001" dominant-baseline="central" fill="black" font-size="9" font-family="sans" text-anchor="start"><tspan x="3.5999999999999996" dy="9">R1, R2, R3: 100Ω ±5% 1/4W (output protection)</tspan></text><text x="3.5999999999999996" y="120.6" dominant-baseline="central" fill="black" font-size="9" font-family="sans" text-anchor="start"><tspan x="3.5999999999999996" dy="9">Purpose: Limits current on short circuit</tspan></text><text x="3.5999999999999996" y="138.6" dominant-baseline="central" fill="black" font-size="9" font-family="sans" text-anchor="start"><tspan x="3.5999999999999996" dy="9">MCP4728: Adafruit #4470 (I2C 4-ch 12-bit DAC)</tspan></text><text x="3.5999999999999996" y="172.6" dominant-baseline="central" fill="black" font-size="11" font-family="bold" text-anchor="start"><tspan x="3.5999999999999996" dy="11">OUTPUT SPECIFICATIONS:</tspan></text><text x="3.5999999999999996" y="192.6" dominant-baseline="central" fill="black" font-size="9" font-family="sans" text-anchor="start"><tspan x="3.5999999999999996" dy="9">Range: 0-5V (5 octaves, C0 to C5)</tspan></text><text x="3.5999999999999996" y="210.6" dominant-baseline="central" fill="black" font-size="9" font-family="sans" text-anchor="start"><tspan x="3.5999999999999996" dy="9">Standard: 1V/octave Eurorack</tspan></text><text x="3.5999999999999996" y="228.6" dominant-baseline="central" fill="black" font-size="9" font-family="sans" text-anchor="start"><tspan x="3.5999999999999996" dy="9">Resolution: 12-bit (4096 steps)</tspan></text><text x="3.5999999999999996" y="246.6" dominant-baseline="central" fill="black" font-size="9" font-family="sans" text-anchor="start"><tspan x="3.5999999999999996" dy="9">Reference: Internal 2.048V × 2 (software configurable)</tspan></text><circle cx="36.0" cy="-198.0" r="2.6999999999999997" style="stroke:black;fill:black;stroke-width:2.0;stroke-dasharray:-;" /><text x="36.0" y="-222.29999999999998" dominant-baseline="ideographic" fill="black" font-size="9" font-family="sans" text-anchor="end"><tspan x="36.0" dy="9">MCP4728</tspan><tspan x="36.0" dy="9">VA Pin</tspan></text><circle cx="180.0" cy="-198.0" r="2.6999999999999997" style="stroke:black;fill:black;stroke-width:2.0;stroke-dasharray:-;" /><text x="180.0" y="-224.29999999999998" dominant-baseline="ideographic" fill="black" font-size="10" font-family="sans" text-anchor="start"><tspan x="180.0" dy="10">CV OUT</tspan><tspan x="180.0" dy="10">Jack TIP</tspan></text><circle cx="180.0" cy="-162.0" r="2.6999999999999997" style="stroke:black;fill:black;stroke-width:2.0;stroke-dasharray:-;" /><text x="180.0" y="-186.29999999999998" dominant-baseline="ideographic" fill="black" font-size="9" font-family="sans" text-anchor="start"><tspan x="180.0" dy="9">Jack</tspan><tspan x="180.0" dy="9">SLEEVE</tspan></text><circle cx="36.0" cy="-90.0" r="2.6999999999999997" style="stroke:black;fill:black;stroke-width:2.0;stroke-dasharray:-;" /><text x="36.0" y="-114.3" dominant-baseline="ideographic" fill="black" font-size="9" font-family="sans" text-anchor="end"><tspan x="36.0" dy="9">MCP4728</tspan><tspan x="36.0" dy="9">VB Pin</tspan></text><circle cx="180.0" cy="-90.0" r="2.6999999999999997" style="stroke:black;fill:black;stroke-width:2.0;stroke-dasharray:-;" /><text x="180.0" y="-116.3" dominant-baseline="ideographic" fill="black" font-size="10" font-family="sans" text-anchor="start"><tspan x="180.0" dy="10">TRIG OUT</tspan><tspan x="180.0" dy="10">Jack TIP</tspan></text><circle cx="180.0" cy="-54.0" r="2.6999999999999997" style="stroke:black;fill:black;stroke-width:2.0;stroke-dasharray:-;" /><text x="180.0" y="-78.30000000000001" dominant-baseline="ideographic" fill="black" font-size="9" font-family="sans" text-anchor="start"><tspan x="180.0" dy="9">Jack</tspan><tspan x="180.0" dy="9">SLEEVE</tspan></text><circle cx="36.0" cy="18.0" r="2.6999999999999997" style="stroke:black;fill:black;stroke-width:2.0;stroke-dasharray:-;" /><text x="36.0" y="-6.299999999999999" dominant-baseline="ideographic" fill="black" font-size="9" font-family="sans" text-anchor="end"><tspan x="36.0" dy="9">MCP4728</tspan><tspan x="36.0" dy="9">VC Pin</tspan></text><circle cx="180.0" cy="18.0" r="2.6999999999999997" style="stroke:black;fill:black;stroke-width:2.0;stroke-dasharray:-;" /><text x="180.0" y="-8.299999999999999" dominant-baseline="ideographic" fill="black" font-size="10" font-family="sans" text-anchor="start"><tspan x="180.0" dy="10">CC OUT</tspan><tspan x="180.0" dy="10">Jack TIP</tspan></text><circle cx="180.0" cy="54.0" r="2.6999999999999997" style="stroke:black;fill:black;stroke-width:2.0;stroke-dasharray:-;" /><text x="180.0" y="29.699999999999996" dominant-baseline="ideographic" fill="black" font-size="9" font-family="sans" text-anchor="start"><tspan x="180.0" dy="9">Jack</tspan><tspan x="180.0" dy="9">SLEEVE</tspan></text></svg>