<svg xmlns="http://www.w3.org/2000/svg" xmlns:xlink="http://www.w3.org/1999/xlink" xml:lang="en" height="319.5pt" width="449.8159999999999pt" viewBox="-6.879999999999997 -303.2 449.8159999999999 319.5"><path d="M 0.0,-198.0 L 27.0,-198.0 L 54.0,-198.0" style="stroke:black;fill:none;stroke-width:2.0;stroke-dasharray:-;stroke-linecap:round;stroke-linejoin:round;" /><path d="M 0.0,-180.0 L 27.0,-180.0 L 54.0,-180.0" style="stroke:black;fill:none;stroke-width:2.0;stroke-dasharray:-;stroke-linecap:round;stroke-linejoin:round;" /><path d="M 54.0,-180.0 L 54.0,-165.6 L 45.0,-165.6 L 63.0,-165.6 M 47.699999999999996,-161.28000000000003 L 60.300000000000004,-161.28000000000003 M 52.199999999999996,-156.96 L 55.800000000000004,-156.96" style="stroke:black;fill:none;stroke-width:2.0;stroke-dasharray:-;stroke-linecap:round;stroke-linejoin:round;" /><path d="M 54.0,-198.0 L 81.0,-198.0 L 108.0,-198.0" style="stroke:black;fill:none;stroke-width:2.0;stroke-dasharray:-;stroke-linecap:round;stroke-linejoin:round;" /><path d="M 108.0,-216.0 L 144.0,-216.0 L 180.0,-216.0" style="stroke:black;fill:none;stroke-width:2.0;stroke-dasharray:-;stroke-linecap:round;stroke-linejoin:round;" /><path d="M 180.0,-216.0 L 180.0,-162.0 L 180.0,-108.0" style="stroke:black;fill:none;stroke-width:2.0;stroke-dasharray:-;stroke-linecap:round;stroke-linejoin:round;" /><path d="M 180.0,-108.0 L 144.0,-108.0 L 108.0,-108.00000000000001" style="stroke:black;fill:none;stroke-width:2.0;stroke-dasharray:-;stroke-linecap:round;stroke-linejoin:round;" /><path d="M 108.0,-108.0 L 108.0,-162.0 L 108.0,-216.0" style="stroke:black;fill:none;stroke-width:2.0;stroke-dasharray:-;stroke-linecap:round;stroke-linejoin:round;" /><path d="M 180.0,-198.0 L 216.0,-198.0 L 252.0,-198.0" style="stroke:black;fill:none;stroke-width:2.0;stroke-dasharray:-;stroke-linecap:round;stroke-linejoin:round;" /><path d="M 180.0,-144.0 L 216.0,-144.0 L 252.0,-144.0" style="stroke:black;fill:none;stroke-width:2.0;stroke-dasharray:-;stroke-linecap:round;stroke-linejoin:round;" /><path d="M 108.0,-108.0 L 144.0,-108.0 L 180.0,-108.0" style="stroke:black;fill:none;stroke-width:2.0;stroke-dasharray:-;stroke-linecap:round;stroke-linejoin:round;" /><path d="M 108.0,-108.0 L 108.0,-93.60000000000001 L 99.0,-93.60000000000001 L 117.0,-93.60000000000001 M 101.7,-89.28 L 114.3,-89.28 M 106.2,-84.96 L 109.8,-84.96" style="stroke:black;fill:none;stroke-width:2.0;stroke-dasharray:-;stroke-linecap:round;stroke-linejoin:round;" /><path d="M 252.0,-198.0 L 288.0,-198.0 L 324.0,-198.0" style="stroke:black;fill:none;stroke-width:2.0;stroke-dasharray:-;stroke-linecap:round;stroke-linejoin:round;" /><path d="M 324.0,-198.0 L 324.0,-192.6 L 324.0,-187.20000000000002" style="stroke:black;fill:none;stroke-width:2.0;stroke-dasharray:-;stroke-linecap:round;stroke-linejoin:round;" /><path d="M 324.0,-187.20000000000002 L 324.0,-181.44 M 333.0,-181.44 L 315.0,-181.44 M 333.0,-174.96 L 315.0,-174.96 M 324.0,-174.96 L 324.0,-169.20000000000002" style="stroke:black;fill:none;stroke-width:2.0;stroke-dasharray:-;stroke-linecap:round;stroke-linejoin:round;" /><path d="M 324.0,-169.20000000000002 L 324.0,-154.79999999999998 L 315.0,-154.79999999999998 L 333.0,-154.79999999999998 M 317.7,-150.48 L 330.3,-150.48 M 322.2,-146.16000000000003 L 325.8,-146.16000000000003" style="stroke:black;fill:none;stroke-width:2.0;stroke-dasharray:-;stroke-linecap:round;stroke-linejoin:round;" /><path d="M 352.8,-187.20000000000002 L 352.8,-181.79999999999998 L 352.8,-176.4" style="stroke:black;fill:none;stroke-width:2.0;stroke-dasharray:-;stroke-linecap:round;stroke-linejoin:round;" /><path d="M 352.8,-176.4 L 352.8,-170.64000000000001 M 361.8,-170.64000000000001 L 343.8,-170.64000000000001 M 361.8,-164.16000000000003 L 343.8,-164.16000000000003 M 352.8,-164.16000000000003 L 352.8,-158.4" style="stroke:black;fill:none;stroke-width:2.0;stroke-dasharray:-;stroke-linecap:round;stroke-linejoin:round;" /><path d="M 352.8,-158.4 L 352.8,-144.0 L 343.8,-144.0 L 361.8,-144.0 M 346.5,-139.68 L 359.1,-139.68 M 351.0,-135.36 L 354.6,-135.36" style="stroke:black;fill:none;stroke-width:2.0;stroke-dasharray:-;stroke-linecap:round;stroke-linejoin:round;" /><path d="M 252.0,-144.0 L 288.0,-144.0 L 324.0,-144.0" style="stroke:black;fill:none;stroke-width:2.0;stroke-dasharray:-;stroke-linecap:round;stroke-linejoin:round;" /><path d="M 324.0,-90.0 L 324.0,-84.60000000000001 L 324.0,-79.2" style="stroke:black;fill:none;stroke-width:2.0;stroke-dasharray:-;stroke-linecap:round;stroke-linejoin:round;" /><path d="M 324.0,-79.2 L 324.0,-73.44 M 333.0,-73.44 L 315.0,-73.44 M 333.0,-66.96000000000001 L 315.0,-66.96000000000001 M 324.0,-66.96000000000001 L 324.0,-61.2" style="stroke:black;fill:none;stroke-width:2.0;stroke-dasharray:-;stroke-linecap:round;stroke-linejoin:round;" /><path d="M 324.0,-61.2 L 324.0,-46.80000000000001 L 315.0,-46.80000000000001 L 333.0,-46.80000000000001 M 317.7,-42.480000000000004 L 330.3,-42.480000000000004 M 322.2,-38.160000000000004 L 325.8,-38.160000000000004" style="stroke:black;fill:none;stroke-width:2.0;stroke-dasharray:-;stroke-linecap:round;stroke-linejoin:round;" /><path d="M 352.8,-79.2 L 352.8,-73.80000000000001 L 352.8,-68.4" style="stroke:black;fill:none;stroke-width:2.0;stroke-dasharray:-;stroke-linecap:round;stroke-linejoin:round;" /><path d="M 352.8,-68.4 L 352.8,-62.64000000000001 M 361.8,-62.64 L 343.8,-62.64000000000001 M 361.8,-56.160000000000004 L 343.8,-56.16000000000001 M 352.8,-56.160000000000004 L 352.8,-50.400000000000006" style="stroke:black;fill:none;stroke-width:2.0;stroke-dasharray:-;stroke-linecap:round;stroke-linejoin:round;" /><path d="M 352.8,-50.400000000000006 L 352.8,-36.0 L 343.8,-36.0 L 361.8,-36.0 M 346.5,-31.680000000000003 L 359.1,-31.680000000000003 M 351.0,-27.360000000000003 L 354.6,-27.360000000000003" style="stroke:black;fill:none;stroke-width:2.0;stroke-dasharray:-;stroke-linecap:round;stroke-linejoin:round;" /><text x="3.6" y="-305.59999999999997" dominant-baseline="central" fill="black" font-size="14" font-family="bold" text-anchor="start"><tspan x="3.6" dy="14">PRISME Power Distribution - USB-Only</tspan></text><text x="3.6" y="-283.59999999999997" dominant-baseline="central" fill="black" font-size="10" font-family="sans" text-anchor="start"><tspan x="3.6" dy="10">Session 27: Simplified (No Battery/Powerboost)</tspan></text><text x="3.6" y="-230.6" dominant-baseline="central" fill="black" font-size="11" font-family="bold" text-anchor="start"><tspan x="3.6" dy="11">USB-C CONNECTOR</tspan></text><text x="2.204364238465236e-15" y="-170.0" dominant-baseline="central" fill="black" font-size="8" font-family="sans" text-anchor="middle"><tspan x="2.204364238465236e-15" dy="8">+</tspan></text><text x="27.0" y="-210.6" dominant-baseline="ideographic" fill="black" font-size="9" font-family="sans" text-anchor="middle"><tspan x="27.0" dy="9">5V</tspan></text><text x="2.204364238465236e-15" y="-152.0" dominant-baseline="central" fill="black" font-size="8" font-family="sans" text-anchor="middle"><tspan x="2.204364238465236e-15" dy="8">−</tspan></text><text x="27.0" y="-185.4" dominant-baseline="hanging" fill="black" font-size="9" font-family="sans" text-anchor="middle"><tspan x="27.0" dy="9">GND</tspan></text><text x="147.6" y="-248.6" dominant-baseline="central" fill="black" font-size="11" font-family="bold" text-anchor="middle"><tspan x="147.6" dy="11">FEATHER M4 CAN EXPRESS</tspan></text><text x="140.4" y="-210.6" dominant-baseline="central" fill="black" font-size="9" font-family="sans" text-anchor="middle"><tspan x="140.4" dy="9">M4</tspan></text><text x="140.4" y="-191.6" dominant-baseline="central" fill="black" font-size="8" font-family="sans" text-anchor="middle"><tspan x="140.4" dy="8">USB → 5V</tspan></text><text x="140.4" y="-173.6" dominant-baseline="central" fill="black" font-size="8" font-family="sans" text-anchor="middle"><tspan x="140.4" dy="8">3V3 ← Regulator</tspan></text><text x="140.4" y="-154.6" dominant-baseline="central" fill="black" font-size="7" font-family="sans" text-anchor="middle"><tspan x="140.4" dy="7">(500mA)</tspan></text><text x="262.8" y="-211.6" dominant-baseline="central" fill="black" font-size="10" font-family="bold" text-anchor="start"><tspan x="262.8" dy="10">5V RAIL</tspan></text><text x="262.8" y="-157.6" dominant-baseline="central" fill="black" font-size="10" font-family="bold" text-anchor="start"><tspan x="262.8" dy="10">3.3V RAIL</tspan></text><text x="147.6" y="-126.80000000000001" dominant-baseline="central" fill="black" font-size="8" font-family="sans" text-anchor="middle"><tspan x="147.6" dy="8">GND</tspan></text><text x="327.59999999999997" y="-247.6" dominant-baseline="central" fill="black" font-size="10" font-family="bold" text-anchor="start"><tspan x="327.59999999999997" dy="10">5V CONSUMERS:</tspan></text><text x="334.79999999999995" y="-210.6" dominant-baseline="central" fill="black" font-size="9" font-family="sans" text-anchor="start"><tspan x="334.79999999999995" dy="9">MCP4728 DAC (VDD)</tspan></text><text x="334.79999999999995" y="-198.79999999999998" dominant-baseline="central" fill="black" font-size="8" font-family="sans" text-anchor="start"><tspan x="334.79999999999995" dy="8">~1-5mA typical</tspan></text><text x="324.0" y="-206.79999999999998" dominant-baseline="ideographic" fill="black" font-size="8" font-family="sans" text-anchor="middle"><tspan x="324.0" dy="8">C1</tspan><tspan x="324.0" dy="8">47µF</tspan></text><text x="352.8" y="-196.0" dominant-baseline="ideographic" fill="black" font-size="8" font-family="sans" text-anchor="middle"><tspan x="352.8" dy="8">C2</tspan><tspan x="352.8" dy="8">0.1µF</tspan></text><text x="327.59999999999997" y="-132.39999999999998" dominant-baseline="central" fill="black" font-size="10" font-family="bold" text-anchor="start"><tspan x="327.59999999999997" dy="10">3.3V CONSUMERS:</tspan></text><text x="334.79999999999995" y="-155.6" dominant-baseline="central" fill="black" font-size="8" font-family="sans" text-anchor="start"><tspan x="334.79999999999995" dy="8">OLED FeatherWing (~20mA)</tspan></text><text x="334.79999999999995" y="-144.8" dominant-baseline="central" fill="black" font-size="8" font-family="sans" text-anchor="start"><tspan x="334.79999999999995" dy="8">MIDI FeatherWing (~15mA)</tspan></text><text x="334.79999999999995" y="-134.0" dominant-baseline="central" fill="black" font-size="8" font-family="sans" text-anchor="start"><tspan x="334.79999999999995" dy="8">4× White LEDs (~8mA)</tspan></text><text x="334.79999999999995" y="-123.2" dominant-baseline="central" fill="black" font-size="8" font-family="sans" text-anchor="start"><tspan x="334.79999999999995" dy="8">6× RGB channels (~20mA)</tspan></text><text x="334.79999999999995" y="-112.39999999999999" dominant-baseline="central" fill="black" font-size="8" font-family="sans" text-anchor="start"><tspan x="334.79999999999995" dy="8">BAT85 clamps (if used)</tspan></text><text x="324.0" y="-98.80000000000001" dominant-baseline="ideographic" fill="black" font-size="8" font-family="sans" text-anchor="middle"><tspan x="324.0" dy="8">C9</tspan><tspan x="324.0" dy="8">10µF</tspan></text><text x="352.8" y="-88.0" dominant-baseline="ideographic" fill="black" font-size="8" font-family="sans" text-anchor="middle"><tspan x="352.8" dy="8">C10</tspan><tspan x="352.8" dy="8">0.1µF</tspan></text><text x="3.5999999999999996" y="-61.4" dominant-baseline="central" fill="black" font-size="11" font-family="bold" text-anchor="start"><tspan x="3.5999999999999996" dy="11">POWER BUDGET:</tspan></text><text x="3.5999999999999996" y="-45.0" dominant-baseline="central" fill="black" font-size="9" font-family="sans" text-anchor="start"><tspan x="3.5999999999999996" dy="9">USB Input: 5V @ 500mA min (USB 2.0), up to 3A (USB 3.0)</tspan></text><text x="3.5999999999999996" y="-30.599999999999998" dominant-baseline="central" fill="black" font-size="9" font-family="sans" text-anchor="start"><tspan x="3.5999999999999996" dy="9">5V Rail: ~5mA typical, ~50mA max</tspan></text><text x="3.5999999999999996" y="-16.2" dominant-baseline="central" fill="black" font-size="9" font-family="sans" text-anchor="start"><tspan x="3.5999999999999996" dy="9">3.3V Rail: ~65mA typical, ~100mA max</tspan></text><text x="3.5999999999999996" y="-1.7999999999999998" dominant-baseline="central" fill="black" font-size="9" font-family="sans" text-anchor="start"><tspan x="3.5999999999999996" dy="9">Total Load: ~75mA typical, ~120mA max (4× margin)</tspan></text><text x="327.59999999999997" y="-60.4" dominant-baseline="central" fill="black" font-size="10" font-family="bold" text-anchor="start"><tspan x="327.59999999999997" dy="10">NOTES:</tspan></text><text x="327.59999999999997" y="-44.0" dominant-baseline="central" fill="black" font-size="8" font-family="sans" text-anchor="start"><tspan x="327.59999999999997" dy="8">• NO battery or powerboost</tspan></text><text x="327.59999999999997" y="-33.2" dominant-baseline="central" fill="black" font-size="8" font-family="sans" text-anchor="start"><tspan x="327.59999999999997" dy="8">• USB-C power only</tspan></text><text x="327.59999999999997" y="-22.4" dominant-baseline="central" fill="black" font-size="8" font-family="sans" text-anchor="start"><tspan x="327.59999999999997" dy="8">• Simpler, cheaper, safer</tspan></text><text x="327.59999999999997" y="-11.6" dominant-baseline="central" fill="black" font-size="8" font-family="sans" text-anchor="start"><tspan x="327.59999999999997" dy="8">• 500mA USB 2.0 sufficient</tspan></text><text x="327.59999999999997" y="-0.7999999999999998" dominant-baseline="central" fill="black" font-size="8" font-family="sans" text-anchor="start"><tspan x="327.59999999999997" dy="8">• Plenty of headroom</tspan></text><circle cx="54.0" cy="-198.0" r="2.6999999999999997" style="stroke:black;fill:black;stroke-width:2.0;stroke-dasharray:-;" /><circle cx="108.0" cy="-198.0" r="2.6999999999999997" style="stroke:black;fill:black;stroke-width:2.0;stroke-dasharray:-;" /><text x="108.0" y="-212.29999999999998" dominant-baseline="ideographic" fill="black" font-size="8" font-family="sans" text-anchor="middle"><tspan x="108.0" dy="8">USB pin</tspan></text><circle cx="252.0" cy="-198.0" r="2.6999999999999997" style="stroke:black;fill:black;stroke-width:2.0;stroke-dasharray:-;" /><circle cx="252.0" cy="-144.0" r="2.6999999999999997" style="stroke:black;fill:black;stroke-width:2.0;stroke-dasharray:-;" /></svg>