<svg xmlns="http://www.w3.org/2000/svg" xmlns:xlink="http://www.w3.org/1999/xlink" xml:lang="en" height="524.1pt" width="290.84pt" viewBox="-7.239999999999997 -392.6 290.84 524.1"><polygon points="135.0,-308.7 144.0,-321.3 153.0,-308.7 " style="stroke:black;fill:none;stroke-width:2.0;stroke-dasharray:-;stroke-linecap:round;stroke-linejoin:round;" /><polygon points="218.70000000000002,-171.0 231.29999999999998,-162.0 218.70000000000002,-153.0 " style="stroke:black;fill:none;stroke-width:2.0;stroke-dasharray:-;stroke-linecap:round;stroke-linejoin:round;" /><path d="M 36.0,-252.0 L 54.0,-252.0 L 72.0,-252.0" style="stroke:black;fill:none;stroke-width:2.0;stroke-dasharray:-;stroke-linecap:round;stroke-linejoin:round;" /><path d="M 72.0,-252.0 L 90.0,-252.0 L 93.0,-261.0 L 99.0,-243.0 L 105.0,-261.0 L 110.99999999999999,-243.0 L 117.0,-261.0 L 123.0,-243.0 L 126.0,-252.0 L 144.0,-252.0" style="stroke:black;fill:none;stroke-width:2.0;stroke-dasharray:-;stroke-linecap:round;stroke-linejoin:round;" /><path d="M 144.0,-252.0 L 180.0,-252.0 L 216.0,-252.0" style="stroke:black;fill:none;stroke-width:2.0;stroke-dasharray:-;stroke-linecap:round;stroke-linejoin:round;" /><path d="M 144.0,-252.0 L 144.0,-234.0 L 144.0,-216.0" style="stroke:black;fill:none;stroke-width:2.0;stroke-dasharray:-;stroke-linecap:round;stroke-linejoin:round;" /><path d="M 144.0,-216.0 L 144.0,-207.0 L 153.0,-204.0 L 135.0,-198.0 L 153.0,-192.0 L 135.0,-186.0 L 153.0,-180.0 L 135.0,-174.00000000000003 L 143.99999999999997,-171.0 L 143.99999999999997,-162.0" style="stroke:black;fill:none;stroke-width:2.0;stroke-dasharray:-;stroke-linecap:round;stroke-linejoin:round;" /><path d="M 143.99999999999997,-162.0 L 143.99999999999997,-153.0 L 143.99999999999997,-144.0" style="stroke:black;fill:none;stroke-width:2.0;stroke-dasharray:-;stroke-linecap:round;stroke-linejoin:round;" /><path d="M 143.99999999999997,-144.0 L 143.99999999999997,-129.6 L 134.99999999999997,-129.6 L 153.0,-129.6 M 137.7,-125.28 L 150.29999999999998,-125.28 M 142.2,-120.96 L 145.79999999999998,-120.96" style="stroke:black;fill:none;stroke-width:2.0;stroke-dasharray:-;stroke-linecap:round;stroke-linejoin:round;" /><path d="M 144.0,-252.0 L 144.0,-270.0 L 144.0,-288.0" style="stroke:black;fill:none;stroke-width:2.0;stroke-dasharray:-;stroke-linecap:round;stroke-linejoin:round;" /><path d="M 144.0,-288.0 L 144.0,-308.7 M 135.0,-321.3 L 153.0,-321.3 M 144.0,-321.3 L 144.0,-342.0" style="stroke:black;fill:none;stroke-width:2.0;stroke-dasharray:-;stroke-linecap:round;stroke-linejoin:round;" /><path d="M 144.0,-342.0 L 144.0,-351.0 L 144.0,-360.0" style="stroke:black;fill:none;stroke-width:2.0;stroke-dasharray:-;stroke-linecap:round;stroke-linejoin:round;" /><path d="M 144.0,-360.0 L 144.0,-374.40000000000003" style="stroke:black;fill:none;stroke-width:2.0;stroke-dasharray:-;stroke-linecap:round;stroke-linejoin:round;" /><path d="M 144.0,-374.40000000000003 L 137.25,-374.40000000000003" style="stroke:black;fill:none;stroke-width:2.0;stroke-dasharray:-;stroke-linecap:round;stroke-linejoin:round;" /><path d="M 144.0,-374.40000000000003 L 150.75,-374.40000000000003" style="stroke:black;fill:none;stroke-width:2.0;stroke-dasharray:-;stroke-linecap:round;stroke-linejoin:round;" /><path d="M 108.0,-252.0 L 108.0,-234.0 L 108.0,-216.0" style="stroke:black;fill:none;stroke-width:2.0;stroke-dasharray:-;stroke-linecap:round;stroke-linejoin:round;" /><path d="M 108.0,-216.0 L 108.0,-192.24 M 117.0,-192.24 L 99.0,-192.24 M 117.0,-185.76 L 99.0,-185.76 M 108.0,-185.76 L 107.99999999999999,-162.0" style="stroke:black;fill:none;stroke-width:2.0;stroke-dasharray:-;stroke-linecap:round;stroke-linejoin:round;" /><path d="M 107.99999999999999,-162.0 L 107.99999999999999,-153.0 L 107.99999999999999,-144.0" style="stroke:black;fill:none;stroke-width:2.0;stroke-dasharray:-;stroke-linecap:round;stroke-linejoin:round;" /><path d="M 107.99999999999999,-144.0 L 107.99999999999999,-129.6 L 98.99999999999999,-129.6 L 116.99999999999999,-129.6 M 101.69999999999999,-125.28 L 114.29999999999998,-125.28 M 106.19999999999999,-120.96 L 109.79999999999998,-120.96" style="stroke:black;fill:none;stroke-width:2.0;stroke-dasharray:-;stroke-linecap:round;stroke-linejoin:round;" /><path d="M 36.0,-252.0 L 35.99999999999999,-234.0 L 35.99999999999999,-216.0" style="stroke:black;fill:none;stroke-width:2.0;stroke-dasharray:-;stroke-linecap:round;stroke-linejoin:round;" /><path d="M 35.99999999999999,-216.0 L 35.99999999999999,-207.0 L 35.999999999999986,-198.0" style="stroke:black;fill:none;stroke-width:2.0;stroke-dasharray:-;stroke-linecap:round;stroke-linejoin:round;" /><path d="M 35.999999999999986,-198.0 L 35.999999999999986,-183.6 L 26.99999999999999,-183.6 L 44.999999999999986,-183.6 M 29.69999999999999,-179.28000000000003 L 42.29999999999998,-179.28000000000003 M 34.19999999999999,-174.96 L 37.79999999999998,-174.96" style="stroke:black;fill:none;stroke-width:2.0;stroke-dasharray:-;stroke-linecap:round;stroke-linejoin:round;" /><path d="M 36.0,-162.0 L 54.0,-162.0 L 72.0,-162.0" style="stroke:black;fill:none;stroke-width:2.0;stroke-dasharray:-;stroke-linecap:round;stroke-linejoin:round;" /><path d="M 72.0,-162.0 L 90.0,-162.0 L 108.0,-162.0" style="stroke:black;fill:none;stroke-width:2.0;stroke-dasharray:-;stroke-linecap:round;stroke-linejoin:round;" /><path d="M 108.0,-162.0 L 126.0,-162.0 L 129.0,-171.0 L 135.0,-153.0 L 141.0,-171.0 L 147.0,-153.0 L 153.0,-171.0 L 158.99999999999997,-153.0 L 162.0,-162.0 L 180.0,-162.0" style="stroke:black;fill:none;stroke-width:2.0;stroke-dasharray:-;stroke-linecap:round;stroke-linejoin:round;" /><path d="M 180.0,-162.0 L 189.0,-162.0 L 198.0,-162.0" style="stroke:black;fill:none;stroke-width:2.0;stroke-dasharray:-;stroke-linecap:round;stroke-linejoin:round;" /><path d="M 198.0,-162.0 L 218.70000000000002,-162.0 M 231.29999999999998,-171.0 L 231.29999999999998,-153.0 M 231.29999999999998,-162.0 L 252.0,-162.0" style="stroke:black;fill:none;stroke-width:2.0;stroke-dasharray:-;stroke-linecap:round;stroke-linejoin:round;" /><path d="M 227.70000000000002,-175.5 L 233.12779964383083,-184.9986493767039" style="stroke:black;fill:none;stroke-width:2.0;stroke-dasharray:-;stroke-linecap:round;stroke-linejoin:round;" /><path d="M 235.70772212328635 -189.5135137157511 L 235.62833989314925 -183.56976923423622 L 230.62725939451235 -186.42752951917157 Z" style="stroke:black;fill:black;stroke-linecap:butt;stroke-linejoin:miter;" /><path d="M 219.6,-175.5 L 225.02779964383078,-184.9986493767039" style="stroke:black;fill:none;stroke-width:2.0;stroke-dasharray:-;stroke-linecap:round;stroke-linejoin:round;" /><path d="M 227.60772212328632 -189.5135137157511 L 227.52833989314922 -183.56976923423622 L 222.52725939451233 -186.42752951917157 Z" style="stroke:black;fill:black;stroke-linecap:butt;stroke-linejoin:miter;" /><path d="M 252.0,-162.0 L 261.0,-162.0 L 270.0,-162.0" style="stroke:black;fill:none;stroke-width:2.0;stroke-dasharray:-;stroke-linecap:round;stroke-linejoin:round;" /><path d="M 270.0,-162.0 L 270.0,-147.6 L 261.0,-147.6 L 279.0,-147.6 M 263.7,-143.28 L 276.3,-143.28 M 268.2,-138.96 L 271.8,-138.96" style="stroke:black;fill:none;stroke-width:2.0;stroke-dasharray:-;stroke-linecap:round;stroke-linejoin:round;" /><text x="3.6" y="-377.59999999999997" dominant-baseline="central" fill="black" font-size="14" font-family="bold" text-anchor="start"><tspan x="3.6" dy="14">TOP PCB - CV IN PROTECTION CIRCUIT</tspan></text><text x="3.6" y="-348.40000000000003" dominant-baseline="central" fill="black" font-size="10" font-family="sans" text-anchor="start"><tspan x="3.6" dy="10">Protects M4 ADC from 0-5V Eurorack input</tspan></text><text x="108.0" y="-282.59999999999997" dominant-baseline="ideographic" fill="black" font-size="9" font-family="sans" text-anchor="middle"><tspan x="108.0" dy="9">R1</tspan><tspan x="108.0" dy="9">10kΩ</tspan></text><text x="144.0" y="-237.6" dominant-baseline="ideographic" fill="black" font-size="9" font-family="sans" text-anchor="middle"><tspan x="144.0" dy="9">R2</tspan><tspan x="144.0" dy="9">10kΩ</tspan></text><text x="144.0" y="-293.40000000000003" dominant-baseline="hanging" fill="black" font-size="9" font-family="sans" text-anchor="middle"><tspan x="144.0" dy="9">D1</tspan><tspan x="144.0" dy="9">BAT85</tspan><tspan x="144.0" dy="9">Schottky</tspan></text><text x="144.0" y="-388.0" dominant-baseline="ideographic" fill="black" font-size="10" font-family="sans" text-anchor="middle"><tspan x="144.0" dy="10">3.3V</tspan></text><text x="107.99999999999999" y="-166.4" dominant-baseline="hanging" fill="black" font-size="8" font-family="sans" text-anchor="middle"><tspan x="107.99999999999999" dy="8">C15</tspan><tspan x="107.99999999999999" dy="8">100nF</tspan><tspan x="107.99999999999999" dy="8">(optional)</tspan></text><text x="144.0" y="-192.6" dominant-baseline="ideographic" fill="black" font-size="9" font-family="sans" text-anchor="middle"><tspan x="144.0" dy="9">R3</tspan><tspan x="144.0" dy="9">1kΩ</tspan></text><text x="225.0" y="-218.60999999999999" dominant-baseline="ideographic" fill="black" font-size="9" font-family="sans" text-anchor="middle"><tspan x="225.0" dy="9">LED1</tspan><tspan x="225.0" dy="9">White</tspan></text><text x="3.6" y="-86.60000000000001" dominant-baseline="central" fill="black" font-size="11" font-family="bold" text-anchor="start"><tspan x="3.6" dy="11">PROTECTION ANALYSIS:</tspan></text><text x="3.6" y="-66.6" dominant-baseline="central" fill="black" font-size="9" font-family="sans" text-anchor="start"><tspan x="3.6" dy="9">Voltage Divider: 5V input → 2.5V at TAP (÷2)</tspan></text><text x="3.6" y="-48.6" dominant-baseline="central" fill="black" font-size="9" font-family="sans" text-anchor="start"><tspan x="3.6" dy="9">BAT85 Clamp: Max 3.3V + 0.4V = 3.7V to ADC</tspan></text><text x="3.6" y="-30.599999999999998" dominant-baseline="central" fill="black" font-size="9" font-family="sans" text-anchor="start"><tspan x="3.6" dy="9">M4 ADC Safe: 3.3V nominal, 3.6V absolute max</tspan></text><text x="3.6" y="-12.6" dominant-baseline="central" fill="green" font-size="9" font-family="sans" text-anchor="start"><tspan x="3.6" dy="9">Result: SAFE up to 40V+ input! ✓</tspan></text><text x="3.6" y="21.4" dominant-baseline="central" fill="black" font-size="11" font-family="bold" text-anchor="start"><tspan x="3.6" dy="11">COMPONENT VALUES:</tspan></text><text x="3.6" y="41.4" dominant-baseline="central" fill="black" font-size="9" font-family="sans" text-anchor="start"><tspan x="3.6" dy="9">R1, R2: 10kΩ ±5% 1/4W (voltage divider)</tspan></text><text x="3.6" y="59.39999999999999" dominant-baseline="central" fill="black" font-size="9" font-family="sans" text-anchor="start"><tspan x="3.6" dy="9">D1: BAT85 Schottky (30V, 200mA, DO-35)</tspan></text><text x="3.6" y="77.39999999999999" dominant-baseline="central" fill="black" font-size="9" font-family="sans" text-anchor="start"><tspan x="3.6" dy="9">R3: 1kΩ ±5% 1/4W (LED current limit)</tspan></text><text x="3.6" y="95.39999999999999" dominant-baseline="central" fill="black" font-size="9" font-family="sans" text-anchor="start"><tspan x="3.6" dy="9">LED1: White 3mm (Vf ~3.0V, If ~10mA)</tspan></text><text x="3.6" y="113.39999999999999" dominant-baseline="central" fill="black" font-size="9" font-family="sans" text-anchor="start"><tspan x="3.6" dy="9">C15: 100nF ceramic X7R (optional noise filter)</tspan></text><circle cx="36.0" cy="-252.0" r="2.6999999999999997" style="stroke:black;fill:black;stroke-width:2.0;stroke-dasharray:-;" /><text x="36.0" y="-278.3" dominant-baseline="ideographic" fill="black" font-size="10" font-family="sans" text-anchor="end"><tspan x="36.0" dy="10">CV IN</tspan><tspan x="36.0" dy="10">Jack TIP</tspan></text><circle cx="144.0" cy="-252.0" r="2.6999999999999997" style="stroke:black;fill:black;stroke-width:2.0;stroke-dasharray:-;" /><text x="144.0" y="-268.3" dominant-baseline="ideographic" fill="black" font-size="10" font-family="sans" text-anchor="middle"><tspan x="144.0" dy="10">TAP</tspan></text><circle cx="216.0" cy="-252.0" r="2.6999999999999997" style="stroke:black;fill:black;stroke-width:2.0;stroke-dasharray:-;" /><text x="216.0" y="-288.3" dominant-baseline="ideographic" fill="black" font-size="10" font-family="sans" text-anchor="start"><tspan x="216.0" dy="10">To M4</tspan><tspan x="216.0" dy="10">Pin A3</tspan><tspan x="216.0" dy="10">(ADC)</tspan></text><circle cx="35.99999999999999" cy="-216.0" r="2.6999999999999997" style="stroke:black;fill:black;stroke-width:2.0;stroke-dasharray:-;" /><text x="35.99999999999999" y="-240.29999999999998" dominant-baseline="ideographic" fill="black" font-size="9" font-family="sans" text-anchor="end"><tspan x="35.99999999999999" dy="9">Jack</tspan><tspan x="35.99999999999999" dy="9">SLEEVE</tspan></text><circle cx="72.0" cy="-162.0" r="2.6999999999999997" style="stroke:black;fill:black;stroke-width:2.0;stroke-dasharray:-;" /><text x="72.0" y="-186.29999999999998" dominant-baseline="ideographic" fill="black" font-size="9" font-family="sans" text-anchor="end"><tspan x="72.0" dy="9">From M4</tspan><tspan x="72.0" dy="9">Pin D4</tspan></text></svg>