<svg xmlns="http://www.w3.org/2000/svg" xmlns:xlink="http://www.w3.org/1999/xlink" xml:lang="en" height="1723.3999999999999pt" width="1453.4899999999998pt" viewBox="-175.60000000000002 -18.2 1453.4899999999998 1723.3999999999999"><polygon points="368.99999999999994,443.7 359.99999999999994,456.3 350.99999999999994,443.7 " style="stroke:black;fill:none;stroke-width:2.0;stroke-dasharray:-;stroke-linecap:round;stroke-linejoin:round;" /><polygon points="263.6999999999999,747.0 276.29999999999984,756.0 263.6999999999999,765.0 " style="stroke:black;fill:none;stroke-width:2.0;stroke-dasharray:-;stroke-linecap:round;stroke-linejoin:round;" /><polygon points="728.9999999999999,1055.7 719.9999999999999,1068.3 710.9999999999999,1055.7 " style="stroke:black;fill:none;stroke-width:2.0;stroke-dasharray:-;stroke-linecap:round;stroke-linejoin:round;" /><polygon points="605.6999999999998,1359.0 618.2999999999997,1368.0 605.6999999999998,1377.0 " style="stroke:black;fill:none;stroke-width:2.0;stroke-dasharray:-;stroke-linecap:round;stroke-linejoin:round;" /><polygon points="605.6999999999998,1431.0 618.2999999999997,1440.0 605.6999999999998,1449.0 " style="stroke:black;fill:none;stroke-width:2.0;stroke-dasharray:-;stroke-linecap:round;stroke-linejoin:round;" /><polygon points="947.6999999999997,1575.0 960.2999999999997,1584.0 947.6999999999997,1593.0 " style="stroke:black;fill:none;stroke-width:2.0;stroke-dasharray:-;stroke-linecap:round;stroke-linejoin:round;" /><path d="M -6.613092715395707e-14,360.0 L 53.999999999999936,360.0 L 107.99999999999994,360.0" style="stroke:black;fill:none;stroke-width:2.0;stroke-dasharray:-;stroke-linecap:round;stroke-linejoin:round;" /><path d="M 107.99999999999994,360.0 L 143.99999999999994,360.0 L 146.99999999999991,351.0 L 152.99999999999994,369.0 L 158.99999999999991,351.0 L 164.99999999999991,369.0 L 170.99999999999994,351.0 L 176.99999999999991,369.0 L 179.99999999999994,360.0 L 215.99999999999994,360.0" style="stroke:black;fill:none;stroke-width:2.0;stroke-dasharray:-;stroke-linecap:round;stroke-linejoin:round;" /><path d="M 215.99999999999994,360.0 L 233.99999999999994,360.0 L 251.99999999999994,360.0" style="stroke:black;fill:none;stroke-width:2.0;stroke-dasharray:-;stroke-linecap:round;stroke-linejoin:round;" /><path d="M 251.99999999999994,360.0 L 251.99999999999994,378.0 L 251.99999999999994,396.0" style="stroke:black;fill:none;stroke-width:2.0;stroke-dasharray:-;stroke-linecap:round;stroke-linejoin:round;" /><path d="M 251.99999999999994,396.0 L 251.99999999999994,432.0 L 260.99999999999994,435.0 L 242.99999999999994,441.0 L 260.99999999999994,447.0 L 242.99999999999994,453.0 L 260.99999999999994,459.0 L 242.99999999999994,465.0 L 251.99999999999994,468.0 L 251.99999999999991,504.0" style="stroke:black;fill:none;stroke-width:2.0;stroke-dasharray:-;stroke-linecap:round;stroke-linejoin:round;" /><path d="M 251.99999999999991,504.0 L 251.99999999999991,522.0 L 251.99999999999991,540.0" style="stroke:black;fill:none;stroke-width:2.0;stroke-dasharray:-;stroke-linecap:round;stroke-linejoin:round;" /><path d="M 251.99999999999991,540.0 L 251.99999999999991,554.4 L 242.99999999999991,554.4 L 260.9999999999999,554.4 M 245.6999999999999,558.72 L 258.2999999999999,558.72 M 250.1999999999999,563.04 L 253.7999999999999,563.04" style="stroke:black;fill:none;stroke-width:2.0;stroke-dasharray:-;stroke-linecap:round;stroke-linejoin:round;" /><path d="M 251.99999999999994,360.0 L 305.99999999999994,360.0 L 359.99999999999994,360.0" style="stroke:black;fill:none;stroke-width:2.0;stroke-dasharray:-;stroke-linecap:round;stroke-linejoin:round;" /><path d="M 359.99999999999994,360.0 L 359.99999999999994,378.0 L 359.99999999999994,396.0" style="stroke:black;fill:none;stroke-width:2.0;stroke-dasharray:-;stroke-linecap:round;stroke-linejoin:round;" /><path d="M 359.99999999999994,396.0 L 359.99999999999994,443.7 M 368.99999999999994,456.3 L 350.99999999999994,456.3 M 359.99999999999994,456.3 L 359.99999999999994,504.0" style="stroke:black;fill:none;stroke-width:2.0;stroke-dasharray:-;stroke-linecap:round;stroke-linejoin:round;" /><path d="M 359.99999999999994,504.0 L 359.99999999999994,513.0 L 359.99999999999994,522.0" style="stroke:black;fill:none;stroke-width:2.0;stroke-dasharray:-;stroke-linecap:round;stroke-linejoin:round;" /><path d="M 359.99999999999994,360.0 L 413.99999999999994,360.0 L 467.99999999999994,360.0" style="stroke:black;fill:none;stroke-width:2.0;stroke-dasharray:-;stroke-linecap:round;stroke-linejoin:round;" /><path d="M 467.99999999999994,360.0 L 467.99999999999994,378.0 L 467.99999999999994,396.0" style="stroke:black;fill:none;stroke-width:2.0;stroke-dasharray:-;stroke-linecap:round;stroke-linejoin:round;" /><path d="M 467.99999999999994,396.0 L 467.99999999999994,446.76 M 476.99999999999994,446.76 L 458.99999999999994,446.76 M 476.99999999999994,453.24 L 458.99999999999994,453.24 M 467.99999999999994,453.24 L 467.99999999999994,504.0" style="stroke:black;fill:none;stroke-width:2.0;stroke-dasharray:-;stroke-linecap:round;stroke-linejoin:round;" /><path d="M 467.99999999999994,504.0 L 467.99999999999994,522.0 L 467.99999999999994,540.0" style="stroke:black;fill:none;stroke-width:2.0;stroke-dasharray:-;stroke-linecap:round;stroke-linejoin:round;" /><path d="M 467.99999999999994,540.0 L 467.99999999999994,554.4 L 458.99999999999994,554.4 L 476.99999999999994,554.4 M 461.69999999999993,558.72 L 474.29999999999995,558.72 M 466.19999999999993,563.04 L 469.79999999999995,563.04" style="stroke:black;fill:none;stroke-width:2.0;stroke-dasharray:-;stroke-linecap:round;stroke-linejoin:round;" /><path d="M 467.99999999999994,360.0 L 521.9999999999999,360.0 L 575.9999999999999,360.0" style="stroke:black;fill:none;stroke-width:2.0;stroke-dasharray:-;stroke-linecap:round;stroke-linejoin:round;" /><path d="M 575.9999999999999,360.0 L 575.9999999999999,378.0 L 575.9999999999999,396.0" style="stroke:black;fill:none;stroke-width:2.0;stroke-dasharray:-;stroke-linecap:round;stroke-linejoin:round;" /><path d="M 575.9999999999999,396.0 L 575.9999999999999,446.76 M 584.9999999999999,446.76 L 566.9999999999999,446.76 M 584.9999999999999,453.24 L 566.9999999999999,453.24 M 575.9999999999999,453.24 L 575.9999999999999,504.0" style="stroke:black;fill:none;stroke-width:2.0;stroke-dasharray:-;stroke-linecap:round;stroke-linejoin:round;" /><path d="M 575.9999999999999,504.0 L 575.9999999999999,522.0 L 575.9999999999999,540.0" style="stroke:black;fill:none;stroke-width:2.0;stroke-dasharray:-;stroke-linecap:round;stroke-linejoin:round;" /><path d="M 575.9999999999999,540.0 L 575.9999999999999,554.4 L 566.9999999999999,554.4 L 585.0,554.4 M 569.6999999999999,558.72 L 582.3,558.72 M 574.1999999999999,563.04 L 577.8,563.04" style="stroke:black;fill:none;stroke-width:2.0;stroke-dasharray:-;stroke-linecap:round;stroke-linejoin:round;" /><path d="M 575.9999999999999,360.0 L 630.0,360.0 L 684.0,360.0" style="stroke:black;fill:none;stroke-width:2.0;stroke-dasharray:-;stroke-linecap:round;stroke-linejoin:round;" /><path d="M -1.3887494702330983e-13,756.0 L 35.99999999999986,756.0 L 71.99999999999986,756.0" style="stroke:black;fill:none;stroke-width:2.0;stroke-dasharray:-;stroke-linecap:round;stroke-linejoin:round;" /><path d="M 71.99999999999986,756.0 L 107.99999999999987,756.0 L 110.99999999999986,747.0 L 116.99999999999987,765.0 L 122.99999999999986,747.0 L 128.99999999999986,765.0 L 134.9999999999999,747.0 L 140.99999999999986,765.0 L 143.9999999999999,756.0 L 179.9999999999999,756.0" style="stroke:black;fill:none;stroke-width:2.0;stroke-dasharray:-;stroke-linecap:round;stroke-linejoin:round;" /><path d="M 179.9999999999999,756.0 L 197.9999999999999,756.0 L 215.9999999999999,756.0" style="stroke:black;fill:none;stroke-width:2.0;stroke-dasharray:-;stroke-linecap:round;stroke-linejoin:round;" /><path d="M 215.9999999999999,756.0 L 263.6999999999999,756.0 M 276.29999999999984,747.0 L 276.29999999999984,765.0 M 276.29999999999984,756.0 L 323.9999999999999,756.0" style="stroke:black;fill:none;stroke-width:2.0;stroke-dasharray:-;stroke-linecap:round;stroke-linejoin:round;" /><path d="M 272.6999999999999,742.5 L 278.1277996438307,733.0013506232962" style="stroke:black;fill:none;stroke-width:2.0;stroke-dasharray:-;stroke-linecap:round;stroke-linejoin:round;" /><path d="M 280.7077221232862 728.4864862842489 L 280.62833989314913 734.4302307657638 L 275.62725939451224 731.5724704808284 Z" style="stroke:black;fill:black;stroke-linecap:butt;stroke-linejoin:miter;" /><path d="M 264.59999999999985,742.5 L 270.02779964383063,733.0013506232962" style="stroke:black;fill:none;stroke-width:2.0;stroke-dasharray:-;stroke-linecap:round;stroke-linejoin:round;" /><path d="M 272.6077221232862 728.4864862842489 L 272.5283398931491 734.4302307657638 L 267.5272593945122 731.5724704808284 Z" style="stroke:black;fill:black;stroke-linecap:butt;stroke-linejoin:miter;" /><path d="M 323.9999999999999,756.0 L 341.9999999999999,756.0 L 359.9999999999999,756.0" style="stroke:black;fill:none;stroke-width:2.0;stroke-dasharray:-;stroke-linecap:round;stroke-linejoin:round;" /><path d="M 359.9999999999999,756.0 L 359.9999999999999,770.4 L 350.9999999999999,770.4 L 368.9999999999999,770.4 M 353.6999999999998,774.72 L 366.2999999999999,774.72 M 358.1999999999998,779.04 L 361.7999999999999,779.04" style="stroke:black;fill:none;stroke-width:2.0;stroke-dasharray:-;stroke-linecap:round;stroke-linejoin:round;" /><path d="M 359.9999999999999,972.0 L 413.9999999999999,972.0 L 467.9999999999999,972.0" style="stroke:black;fill:none;stroke-width:2.0;stroke-dasharray:-;stroke-linecap:round;stroke-linejoin:round;" /><path d="M 467.9999999999999,972.0 L 503.9999999999999,972.0 L 506.9999999999999,963.0 L 512.9999999999999,981.0 L 518.9999999999999,963.0 L 524.9999999999999,981.0 L 530.9999999999999,963.0 L 536.9999999999999,981.0 L 539.9999999999999,972.0 L 575.9999999999999,972.0" style="stroke:black;fill:none;stroke-width:2.0;stroke-dasharray:-;stroke-linecap:round;stroke-linejoin:round;" /><path d="M 575.9999999999999,972.0 L 593.9999999999999,972.0 L 611.9999999999999,972.0" style="stroke:black;fill:none;stroke-width:2.0;stroke-dasharray:-;stroke-linecap:round;stroke-linejoin:round;" /><path d="M 611.9999999999999,972.0 L 611.9999999999999,990.0 L 611.9999999999999,1008.0" style="stroke:black;fill:none;stroke-width:2.0;stroke-dasharray:-;stroke-linecap:round;stroke-linejoin:round;" /><path d="M 611.9999999999999,1008.0 L 611.9999999999999,1044.0 L 620.9999999999999,1047.0 L 602.9999999999999,1053.0 L 620.9999999999999,1059.0 L 602.9999999999999,1065.0 L 620.9999999999999,1071.0 L 602.9999999999999,1077.0 L 611.9999999999999,1080.0 L 611.9999999999999,1116.0" style="stroke:black;fill:none;stroke-width:2.0;stroke-dasharray:-;stroke-linecap:round;stroke-linejoin:round;" /><path d="M 611.9999999999999,1116.0 L 611.9999999999999,1134.0 L 611.9999999999999,1152.0" style="stroke:black;fill:none;stroke-width:2.0;stroke-dasharray:-;stroke-linecap:round;stroke-linejoin:round;" /><path d="M 611.9999999999999,1152.0 L 611.9999999999999,1166.3999999999999 L 602.9999999999999,1166.3999999999999 L 620.9999999999999,1166.3999999999999 M 605.6999999999998,1170.72 L 618.3,1170.72 M 610.1999999999998,1175.04 L 613.8,1175.04" style="stroke:black;fill:none;stroke-width:2.0;stroke-dasharray:-;stroke-linecap:round;stroke-linejoin:round;" /><path d="M 611.9999999999999,972.0 L 665.9999999999999,972.0 L 719.9999999999999,972.0" style="stroke:black;fill:none;stroke-width:2.0;stroke-dasharray:-;stroke-linecap:round;stroke-linejoin:round;" /><path d="M 719.9999999999999,972.0 L 719.9999999999999,990.0 L 719.9999999999999,1008.0" style="stroke:black;fill:none;stroke-width:2.0;stroke-dasharray:-;stroke-linecap:round;stroke-linejoin:round;" /><path d="M 719.9999999999999,1008.0 L 719.9999999999999,1055.7 M 728.9999999999999,1068.3 L 710.9999999999999,1068.3 M 719.9999999999999,1068.3 L 719.9999999999999,1116.0" style="stroke:black;fill:none;stroke-width:2.0;stroke-dasharray:-;stroke-linecap:round;stroke-linejoin:round;" /><path d="M 719.9999999999999,1116.0 L 719.9999999999999,1125.0 L 719.9999999999999,1134.0" style="stroke:black;fill:none;stroke-width:2.0;stroke-dasharray:-;stroke-linecap:round;stroke-linejoin:round;" /><path d="M 719.9999999999999,972.0 L 773.9999999999999,972.0 L 827.9999999999999,972.0" style="stroke:black;fill:none;stroke-width:2.0;stroke-dasharray:-;stroke-linecap:round;stroke-linejoin:round;" /><path d="M 827.9999999999999,972.0 L 827.9999999999999,990.0 L 827.9999999999999,1008.0" style="stroke:black;fill:none;stroke-width:2.0;stroke-dasharray:-;stroke-linecap:round;stroke-linejoin:round;" /><path d="M 827.9999999999999,1008.0 L 827.9999999999999,1058.76 M 836.9999999999999,1058.76 L 818.9999999999999,1058.76 M 836.9999999999999,1065.24 L 818.9999999999999,1065.24 M 827.9999999999999,1065.24 L 827.9999999999999,1116.0" style="stroke:black;fill:none;stroke-width:2.0;stroke-dasharray:-;stroke-linecap:round;stroke-linejoin:round;" /><path d="M 827.9999999999999,1116.0 L 827.9999999999999,1134.0 L 827.9999999999999,1152.0" style="stroke:black;fill:none;stroke-width:2.0;stroke-dasharray:-;stroke-linecap:round;stroke-linejoin:round;" /><path d="M 827.9999999999999,1152.0 L 827.9999999999999,1166.3999999999999 L 818.9999999999999,1166.3999999999999 L 836.9999999999999,1166.3999999999999 M 821.6999999999998,1170.72 L 834.3,1170.72 M 826.1999999999998,1175.04 L 829.8,1175.04" style="stroke:black;fill:none;stroke-width:2.0;stroke-dasharray:-;stroke-linecap:round;stroke-linejoin:round;" /><path d="M 827.9999999999999,972.0 L 881.9999999999999,972.0 L 935.9999999999999,972.0" style="stroke:black;fill:none;stroke-width:2.0;stroke-dasharray:-;stroke-linecap:round;stroke-linejoin:round;" /><path d="M 359.99999999999983,1368.0 L 386.99999999999983,1368.0 L 413.99999999999983,1368.0" style="stroke:black;fill:none;stroke-width:2.0;stroke-dasharray:-;stroke-linecap:round;stroke-linejoin:round;" /><path d="M 413.99999999999983,1368.0 L 449.99999999999983,1368.0 L 452.99999999999983,1359.0 L 458.99999999999983,1377.0 L 464.9999999999998,1359.0 L 470.99999999999983,1377.0 L 476.99999999999983,1359.0 L 482.9999999999998,1377.0 L 485.99999999999983,1368.0 L 521.9999999999998,1368.0" style="stroke:black;fill:none;stroke-width:2.0;stroke-dasharray:-;stroke-linecap:round;stroke-linejoin:round;" /><path d="M 521.9999999999998,1368.0 L 539.9999999999998,1368.0 L 557.9999999999998,1368.0" style="stroke:black;fill:none;stroke-width:2.0;stroke-dasharray:-;stroke-linecap:round;stroke-linejoin:round;" /><path d="M 557.9999999999998,1368.0 L 605.6999999999998,1368.0 M 618.2999999999997,1359.0 L 618.2999999999997,1377.0 M 618.2999999999997,1368.0 L 665.9999999999998,1368.0" style="stroke:black;fill:none;stroke-width:2.0;stroke-dasharray:-;stroke-linecap:round;stroke-linejoin:round;" /><path d="M 614.6999999999998,1354.5 L 620.1277996438306,1345.001350623296" style="stroke:black;fill:none;stroke-width:2.0;stroke-dasharray:-;stroke-linecap:round;stroke-linejoin:round;" /><path d="M 622.7077221232862 1340.486486284249 L 622.6283398931491 1346.4302307657638 L 617.6272593945122 1343.5724704808285 Z" style="stroke:black;fill:black;stroke-linecap:butt;stroke-linejoin:miter;" /><path d="M 606.5999999999998,1354.5 L 612.0277996438306,1345.001350623296" style="stroke:black;fill:none;stroke-width:2.0;stroke-dasharray:-;stroke-linecap:round;stroke-linejoin:round;" /><path d="M 614.6077221232862 1340.486486284249 L 614.5283398931491 1346.4302307657638 L 609.5272593945122 1343.5724704808285 Z" style="stroke:black;fill:black;stroke-linecap:butt;stroke-linejoin:miter;" /><path d="M 665.9999999999998,1368.0 L 683.9999999999998,1368.0 L 701.9999999999998,1368.0" style="stroke:black;fill:none;stroke-width:2.0;stroke-dasharray:-;stroke-linecap:round;stroke-linejoin:round;" /><path d="M 701.9999999999998,1368.0 L 701.9999999999998,1382.3999999999999 L 692.9999999999998,1382.3999999999999 L 710.9999999999998,1382.3999999999999 M 695.6999999999997,1386.72 L 708.2999999999997,1386.72 M 700.1999999999997,1391.04 L 703.7999999999997,1391.04" style="stroke:black;fill:none;stroke-width:2.0;stroke-dasharray:-;stroke-linecap:round;stroke-linejoin:round;" /><path d="M 359.99999999999983,1440.0 L 386.99999999999983,1440.0 L 413.99999999999983,1440.0" style="stroke:black;fill:none;stroke-width:2.0;stroke-dasharray:-;stroke-linecap:round;stroke-linejoin:round;" /><path d="M 413.99999999999983,1440.0 L 449.99999999999983,1440.0 L 452.99999999999983,1431.0 L 458.99999999999983,1449.0 L 464.9999999999998,1431.0 L 470.99999999999983,1449.0 L 476.99999999999983,1431.0 L 482.9999999999998,1449.0 L 485.99999999999983,1440.0 L 521.9999999999998,1440.0" style="stroke:black;fill:none;stroke-width:2.0;stroke-dasharray:-;stroke-linecap:round;stroke-linejoin:round;" /><path d="M 521.9999999999998,1440.0 L 539.9999999999998,1440.0 L 557.9999999999998,1440.0" style="stroke:black;fill:none;stroke-width:2.0;stroke-dasharray:-;stroke-linecap:round;stroke-linejoin:round;" /><path d="M 557.9999999999998,1440.0 L 605.6999999999998,1440.0 M 618.2999999999997,1431.0 L 618.2999999999997,1449.0 M 618.2999999999997,1440.0 L 665.9999999999998,1440.0" style="stroke:black;fill:none;stroke-width:2.0;stroke-dasharray:-;stroke-linecap:round;stroke-linejoin:round;" /><path d="M 614.6999999999998,1426.5 L 620.1277996438306,1417.001350623296" style="stroke:black;fill:none;stroke-width:2.0;stroke-dasharray:-;stroke-linecap:round;stroke-linejoin:round;" /><path d="M 622.7077221232862 1412.486486284249 L 622.6283398931491 1418.4302307657638 L 617.6272593945122 1415.5724704808285 Z" style="stroke:black;fill:black;stroke-linecap:butt;stroke-linejoin:miter;" /><path d="M 606.5999999999998,1426.5 L 612.0277996438306,1417.001350623296" style="stroke:black;fill:none;stroke-width:2.0;stroke-dasharray:-;stroke-linecap:round;stroke-linejoin:round;" /><path d="M 614.6077221232862 1412.486486284249 L 614.5283398931491 1418.4302307657638 L 609.5272593945122 1415.5724704808285 Z" style="stroke:black;fill:black;stroke-linecap:butt;stroke-linejoin:miter;" /><path d="M 665.9999999999998,1440.0 L 683.9999999999998,1440.0 L 701.9999999999998,1440.0" style="stroke:black;fill:none;stroke-width:2.0;stroke-dasharray:-;stroke-linecap:round;stroke-linejoin:round;" /><path d="M 701.9999999999998,1440.0 L 701.9999999999998,1454.3999999999999 L 692.9999999999998,1454.3999999999999 L 710.9999999999998,1454.3999999999999 M 695.6999999999997,1458.72 L 708.2999999999997,1458.72 M 700.1999999999997,1463.04 L 703.7999999999997,1463.04" style="stroke:black;fill:none;stroke-width:2.0;stroke-dasharray:-;stroke-linecap:round;stroke-linejoin:round;" /><path d="M 701.9999999999998,1584.0 L 728.9999999999998,1584.0 L 755.9999999999998,1584.0" style="stroke:black;fill:none;stroke-width:2.0;stroke-dasharray:-;stroke-linecap:round;stroke-linejoin:round;" /><path d="M 755.9999999999998,1584.0 L 791.9999999999998,1584.0 L 794.9999999999997,1575.0 L 800.9999999999998,1593.0 L 806.9999999999998,1575.0 L 812.9999999999997,1593.0 L 818.9999999999998,1575.0 L 824.9999999999998,1593.0 L 827.9999999999998,1584.0 L 863.9999999999998,1584.0" style="stroke:black;fill:none;stroke-width:2.0;stroke-dasharray:-;stroke-linecap:round;stroke-linejoin:round;" /><path d="M 863.9999999999998,1584.0 L 881.9999999999998,1584.0 L 899.9999999999998,1584.0" style="stroke:black;fill:none;stroke-width:2.0;stroke-dasharray:-;stroke-linecap:round;stroke-linejoin:round;" /><path d="M 899.9999999999998,1584.0 L 947.6999999999997,1584.0 M 960.2999999999997,1575.0 L 960.2999999999997,1593.0 M 960.2999999999997,1584.0 L 1007.9999999999998,1584.0" style="stroke:black;fill:none;stroke-width:2.0;stroke-dasharray:-;stroke-linecap:round;stroke-linejoin:round;" /><path d="M 956.6999999999997,1570.5 L 962.1277996438305,1561.001350623296" style="stroke:black;fill:none;stroke-width:2.0;stroke-dasharray:-;stroke-linecap:round;stroke-linejoin:round;" /><path d="M 964.7077221232861 1556.486486284249 L 964.628339893149 1562.4302307657638 L 959.6272593945121 1559.5724704808285 Z" style="stroke:black;fill:black;stroke-linecap:butt;stroke-linejoin:miter;" /><path d="M 948.5999999999998,1570.5 L 954.0277996438306,1561.001350623296" style="stroke:black;fill:none;stroke-width:2.0;stroke-dasharray:-;stroke-linecap:round;stroke-linejoin:round;" /><path d="M 956.6077221232862 1556.486486284249 L 956.5283398931491 1562.4302307657638 L 951.5272593945122 1559.5724704808285 Z" style="stroke:black;fill:black;stroke-linecap:butt;stroke-linejoin:miter;" /><path d="M 1007.9999999999998,1584.0 L 1025.9999999999998,1584.0 L 1043.9999999999998,1584.0" style="stroke:black;fill:none;stroke-width:2.0;stroke-dasharray:-;stroke-linecap:round;stroke-linejoin:round;" /><path d="M 1043.9999999999998,1584.0 L 1043.9999999999998,1598.3999999999999 L 1034.9999999999998,1598.3999999999999 L 1052.9999999999998,1598.3999999999999 M 1037.6999999999998,1602.72 L 1050.2999999999997,1602.72 M 1042.1999999999998,1607.04 L 1045.7999999999997,1607.04" style="stroke:black;fill:none;stroke-width:2.0;stroke-dasharray:-;stroke-linecap:round;stroke-linejoin:round;" /><text x="3.6" y="-23.6" dominant-baseline="central" fill="black" font-size="20" font-family="sans" text-anchor="middle"><tspan x="3.6" dy="20">PRISME TOP BOARD (INPUT BOARD)</tspan></text><text x="3.5999999999999797" y="95.60000000000001" dominant-baseline="central" fill="black" font-size="16" font-family="sans" text-anchor="middle"><tspan x="3.5999999999999797" dy="16">━━━ POWER RAILS ━━━</tspan></text><text x="3.599999999999973" y="136.6" dominant-baseline="hanging" fill="black" font-size="11" font-family="sans" text-anchor="middle"><tspan x="3.599999999999973" dy="11">5V from header | 3.3V from header (C11 10µF, C12 0.1µF decoupling)</tspan></text><text x="3.599999999999947" y="275.59999999999997" dominant-baseline="central" fill="black" font-size="16" font-family="sans" text-anchor="middle"><tspan x="3.599999999999947" dy="16">━━━ CV INPUT PROTECTION ━━━</tspan></text><text x="161.99999999999994" y="336.40000000000003" dominant-baseline="ideographic" fill="black" font-size="11" font-family="sans" text-anchor="middle"><tspan x="161.99999999999994" dy="11">R14 10kΩ</tspan></text><text x="233.99999999999994" y="402.59999999999997" dominant-baseline="central" fill="black" font-size="10" font-family="sans" text-anchor="middle"><tspan x="233.99999999999994" dy="10">R15</tspan><tspan x="233.99999999999994" dy="10">10kΩ</tspan></text><text x="341.99999999999994" y="402.59999999999997" dominant-baseline="central" fill="black" font-size="10" font-family="sans" text-anchor="middle"><tspan x="341.99999999999994" dy="10">D2</tspan><tspan x="341.99999999999994" dy="10">BAT85</tspan></text><text x="449.99999999999994" y="402.59999999999997" dominant-baseline="central" fill="black" font-size="10" font-family="sans" text-anchor="middle"><tspan x="449.99999999999994" dy="10">C3</tspan><tspan x="449.99999999999994" dy="10">100nF</tspan></text><text x="557.9999999999999" y="402.59999999999997" dominant-baseline="central" fill="black" font-size="10" font-family="sans" text-anchor="middle"><tspan x="557.9999999999999" dy="10">C4</tspan><tspan x="557.9999999999999" dy="10">10nF</tspan></text><text x="3.5999999999998673" y="712.6" dominant-baseline="hanging" fill="black" font-size="11" font-family="sans" text-anchor="middle"><tspan x="3.5999999999998673" dy="11">CV LED:</tspan></text><text x="125.99999999999987" y="732.4" dominant-baseline="ideographic" fill="black" font-size="11" font-family="sans" text-anchor="middle"><tspan x="125.99999999999987" dy="11">R18 220Ω</tspan></text><text x="269.9999999999999" y="706.39" dominant-baseline="ideographic" fill="black" font-size="11" font-family="sans" text-anchor="middle"><tspan x="269.9999999999999" dy="11">White</tspan></text><text x="363.59999999999985" y="887.6" dominant-baseline="central" fill="black" font-size="16" font-family="sans" text-anchor="middle"><tspan x="363.59999999999985" dy="16">━━━ TRIG INPUT PROTECTION ━━━</tspan></text><text x="521.9999999999999" y="948.4" dominant-baseline="ideographic" fill="black" font-size="11" font-family="sans" text-anchor="middle"><tspan x="521.9999999999999" dy="11">R16 10kΩ</tspan></text><text x="593.9999999999999" y="1014.6000000000001" dominant-baseline="central" fill="black" font-size="10" font-family="sans" text-anchor="middle"><tspan x="593.9999999999999" dy="10">R17</tspan><tspan x="593.9999999999999" dy="10">10kΩ</tspan></text><text x="701.9999999999999" y="1014.6000000000001" dominant-baseline="central" fill="black" font-size="10" font-family="sans" text-anchor="middle"><tspan x="701.9999999999999" dy="10">D3</tspan><tspan x="701.9999999999999" dy="10">BAT85</tspan></text><text x="809.9999999999999" y="1014.6000000000001" dominant-baseline="central" fill="black" font-size="10" font-family="sans" text-anchor="middle"><tspan x="809.9999999999999" dy="10">C5</tspan><tspan x="809.9999999999999" dy="10">100nF</tspan></text><text x="363.5999999999998" y="1324.6000000000001" dominant-baseline="hanging" fill="black" font-size="11" font-family="sans" text-anchor="middle"><tspan x="363.5999999999998" dy="11">TRIG RGB LED:</tspan></text><text x="467.99999999999983" y="1345.3999999999999" dominant-baseline="ideographic" fill="black" font-size="10" font-family="sans" text-anchor="middle"><tspan x="467.99999999999983" dy="10">R19 220Ω</tspan></text><text x="611.9999999999998" y="1319.39" dominant-baseline="ideographic" fill="black" font-size="10" font-family="sans" text-anchor="middle"><tspan x="611.9999999999998" dy="10">RED</tspan></text><text x="467.99999999999983" y="1417.3999999999999" dominant-baseline="ideographic" fill="black" font-size="10" font-family="sans" text-anchor="middle"><tspan x="467.99999999999983" dy="10">R20 220Ω</tspan></text><text x="611.9999999999998" y="1391.39" dominant-baseline="ideographic" fill="black" font-size="10" font-family="sans" text-anchor="middle"><tspan x="611.9999999999998" dy="10">GREEN</tspan></text><text x="809.9999999999998" y="1561.3999999999999" dominant-baseline="ideographic" fill="black" font-size="10" font-family="sans" text-anchor="middle"><tspan x="809.9999999999998" dy="10">R21 220Ω</tspan></text><text x="953.9999999999998" y="1535.39" dominant-baseline="ideographic" fill="black" font-size="10" font-family="sans" text-anchor="middle"><tspan x="953.9999999999998" dy="10">BLUE</tspan></text><text x="1047.6" y="1685.6000000000001" dominant-baseline="central" fill="black" font-size="10" font-family="sans" text-anchor="middle"><tspan x="1047.6" dy="10">OPERATION: Voltage dividers scale ±5V→2.62V | BAT85 clamps protect ADC | RC filters remove noise</tspan></text><circle cx="-6.613092715395707e-14" cy="360.0" r="2.6999999999999997" style="stroke:black;fill:black;stroke-width:2.0;stroke-dasharray:-;" /><text x="-6.613092715395707e-14" y="329.7" dominant-baseline="ideographic" fill="black" font-size="12" font-family="sans" text-anchor="middle"><tspan x="-6.613092715395707e-14" dy="12">CV IN</tspan><tspan x="-6.613092715395707e-14" dy="12">±5V</tspan></text><circle cx="251.99999999999994" cy="360.0" r="2.6999999999999997" style="stroke:black;fill:black;stroke-width:2.0;stroke-dasharray:-;" /><circle cx="359.99999999999994" cy="360.0" r="2.6999999999999997" style="stroke:black;fill:black;stroke-width:2.0;stroke-dasharray:-;" /><text x="359.99999999999994" y="342.7" dominant-baseline="ideographic" fill="black" font-size="11" font-family="sans" text-anchor="middle"><tspan x="359.99999999999994" dy="11">2.62V</tspan></text><circle cx="359.99999999999994" cy="522.0" r="2.6999999999999997" style="stroke:black;fill:black;stroke-width:2.0;stroke-dasharray:-;" /><text x="353.69999999999993" y="512.0" dominant-baseline="central" fill="black" font-size="10" font-family="sans" text-anchor="end"><tspan x="353.69999999999993" dy="10">3.3V</tspan></text><circle cx="467.99999999999994" cy="360.0" r="2.6999999999999997" style="stroke:black;fill:black;stroke-width:2.0;stroke-dasharray:-;" /><circle cx="575.9999999999999" cy="360.0" r="2.6999999999999997" style="stroke:black;fill:black;stroke-width:2.0;stroke-dasharray:-;" /><circle cx="684.0" cy="360.0" r="2.6999999999999997" style="stroke:black;fill:black;stroke-width:2.0;stroke-dasharray:-;" /><text x="690.3000000000001" y="348.0" dominant-baseline="central" fill="black" font-size="12" font-family="sans" text-anchor="start"><tspan x="690.3000000000001" dy="12">→ A4 ADC</tspan></text><circle cx="-1.3887494702330983e-13" cy="756.0" r="2.6999999999999997" style="stroke:black;fill:black;stroke-width:2.0;stroke-dasharray:-;" /><text x="-6.300000000000138" y="745.0" dominant-baseline="central" fill="black" font-size="11" font-family="sans" text-anchor="end"><tspan x="-6.300000000000138" dy="11">D5</tspan></text><circle cx="359.9999999999999" cy="972.0" r="2.6999999999999997" style="stroke:black;fill:black;stroke-width:2.0;stroke-dasharray:-;" /><text x="359.9999999999999" y="941.6999999999999" dominant-baseline="ideographic" fill="black" font-size="12" font-family="sans" text-anchor="middle"><tspan x="359.9999999999999" dy="12">TRIG IN</tspan><tspan x="359.9999999999999" dy="12">±5V</tspan></text><circle cx="611.9999999999999" cy="972.0" r="2.6999999999999997" style="stroke:black;fill:black;stroke-width:2.0;stroke-dasharray:-;" /><circle cx="719.9999999999999" cy="972.0" r="2.6999999999999997" style="stroke:black;fill:black;stroke-width:2.0;stroke-dasharray:-;" /><text x="719.9999999999999" y="954.6999999999999" dominant-baseline="ideographic" fill="black" font-size="11" font-family="sans" text-anchor="middle"><tspan x="719.9999999999999" dy="11">2.62V</tspan></text><circle cx="719.9999999999999" cy="1134.0" r="2.6999999999999997" style="stroke:black;fill:black;stroke-width:2.0;stroke-dasharray:-;" /><text x="713.6999999999998" y="1124.0" dominant-baseline="central" fill="black" font-size="10" font-family="sans" text-anchor="end"><tspan x="713.6999999999998" dy="10">3.3V</tspan></text><circle cx="827.9999999999999" cy="972.0" r="2.6999999999999997" style="stroke:black;fill:black;stroke-width:2.0;stroke-dasharray:-;" /><circle cx="935.9999999999999" cy="972.0" r="2.6999999999999997" style="stroke:black;fill:black;stroke-width:2.0;stroke-dasharray:-;" /><text x="942.3" y="960.0" dominant-baseline="central" fill="black" font-size="12" font-family="sans" text-anchor="start"><tspan x="942.3" dy="12">→ A3 ADC</tspan></text><circle cx="359.99999999999983" cy="1368.0" r="2.6999999999999997" style="stroke:black;fill:black;stroke-width:2.0;stroke-dasharray:-;" /><text x="353.69999999999976" y="1358.0" dominant-baseline="central" fill="black" font-size="10" font-family="sans" text-anchor="end"><tspan x="353.69999999999976" dy="10">D6</tspan></text><circle cx="359.99999999999983" cy="1440.0" r="2.6999999999999997" style="stroke:black;fill:black;stroke-width:2.0;stroke-dasharray:-;" /><text x="353.69999999999976" y="1430.0" dominant-baseline="central" fill="black" font-size="10" font-family="sans" text-anchor="end"><tspan x="353.69999999999976" dy="10">D9</tspan></text><circle cx="701.9999999999998" cy="1584.0" r="2.6999999999999997" style="stroke:black;fill:black;stroke-width:2.0;stroke-dasharray:-;" /><text x="695.6999999999997" y="1574.0" dominant-baseline="central" fill="black" font-size="10" font-family="sans" text-anchor="end"><tspan x="695.6999999999997" dy="10">D11</tspan></text></svg>