<svg xmlns="http://www.w3.org/2000/svg" xmlns:xlink="http://www.w3.org/1999/xlink" xml:lang="en" height="596.1000000000001pt" width="288.18799999999993pt" viewBox="-7.239999999999997 -392.6 288.18799999999993 596.1000000000001"><polygon points="135.0,-308.7 144.0,-321.3 153.0,-308.7 " style="stroke:black;fill:none;stroke-width:2.0;stroke-dasharray:-;stroke-linecap:round;stroke-linejoin:round;" /><polygon points="182.70000000000002,-27.0 195.29999999999998,-18.0 182.70000000000002,-9.0 " style="stroke:black;fill:none;stroke-width:2.0;stroke-dasharray:-;stroke-linecap:round;stroke-linejoin:round;" /><polygon points="182.70000000000002,9.0 195.29999999999998,18.0 182.70000000000002,27.0 " style="stroke:black;fill:none;stroke-width:2.0;stroke-dasharray:-;stroke-linecap:round;stroke-linejoin:round;" /><polygon points="182.70000000000002,45.0 195.29999999999998,54.0 182.70000000000002,63.0 " style="stroke:black;fill:none;stroke-width:2.0;stroke-dasharray:-;stroke-linecap:round;stroke-linejoin:round;" /><path d="M 36.0,-252.0 L 54.0,-252.0 L 72.0,-252.0" style="stroke:black;fill:none;stroke-width:2.0;stroke-dasharray:-;stroke-linecap:round;stroke-linejoin:round;" /><path d="M 72.0,-252.0 L 90.0,-252.0 L 93.0,-261.0 L 99.0,-243.0 L 105.0,-261.0 L 110.99999999999999,-243.0 L 117.0,-261.0 L 123.0,-243.0 L 126.0,-252.0 L 144.0,-252.0" style="stroke:black;fill:none;stroke-width:2.0;stroke-dasharray:-;stroke-linecap:round;stroke-linejoin:round;" /><path d="M 144.0,-252.0 L 180.0,-252.0 L 216.0,-252.0" style="stroke:black;fill:none;stroke-width:2.0;stroke-dasharray:-;stroke-linecap:round;stroke-linejoin:round;" /><path d="M 144.0,-252.0 L 144.0,-234.0 L 144.0,-216.0" style="stroke:black;fill:none;stroke-width:2.0;stroke-dasharray:-;stroke-linecap:round;stroke-linejoin:round;" /><path d="M 144.0,-216.0 L 144.0,-207.0 L 153.0,-204.0 L 135.0,-198.0 L 153.0,-192.0 L 135.0,-186.0 L 153.0,-180.0 L 135.0,-174.00000000000003 L 143.99999999999997,-171.0 L 143.99999999999997,-162.0" style="stroke:black;fill:none;stroke-width:2.0;stroke-dasharray:-;stroke-linecap:round;stroke-linejoin:round;" /><path d="M 143.99999999999997,-162.0 L 143.99999999999997,-153.0 L 143.99999999999997,-144.0" style="stroke:black;fill:none;stroke-width:2.0;stroke-dasharray:-;stroke-linecap:round;stroke-linejoin:round;" /><path d="M 143.99999999999997,-144.0 L 143.99999999999997,-129.6 L 134.99999999999997,-129.6 L 153.0,-129.6 M 137.7,-125.28 L 150.29999999999998,-125.28 M 142.2,-120.96 L 145.79999999999998,-120.96" style="stroke:black;fill:none;stroke-width:2.0;stroke-dasharray:-;stroke-linecap:round;stroke-linejoin:round;" /><path d="M 144.0,-252.0 L 144.0,-270.0 L 144.0,-288.0" style="stroke:black;fill:none;stroke-width:2.0;stroke-dasharray:-;stroke-linecap:round;stroke-linejoin:round;" /><path d="M 144.0,-288.0 L 144.0,-308.7 M 135.0,-321.3 L 153.0,-321.3 M 144.0,-321.3 L 144.0,-342.0" style="stroke:black;fill:none;stroke-width:2.0;stroke-dasharray:-;stroke-linecap:round;stroke-linejoin:round;" /><path d="M 144.0,-342.0 L 144.0,-351.0 L 144.0,-360.0" style="stroke:black;fill:none;stroke-width:2.0;stroke-dasharray:-;stroke-linecap:round;stroke-linejoin:round;" /><path d="M 144.0,-360.0 L 144.0,-374.40000000000003" style="stroke:black;fill:none;stroke-width:2.0;stroke-dasharray:-;stroke-linecap:round;stroke-linejoin:round;" /><path d="M 144.0,-374.40000000000003 L 137.25,-374.40000000000003" style="stroke:black;fill:none;stroke-width:2.0;stroke-dasharray:-;stroke-linecap:round;stroke-linejoin:round;" /><path d="M 144.0,-374.40000000000003 L 150.75,-374.40000000000003" style="stroke:black;fill:none;stroke-width:2.0;stroke-dasharray:-;stroke-linecap:round;stroke-linejoin:round;" /><path d="M 108.0,-252.0 L 108.0,-234.0 L 108.0,-216.0" style="stroke:black;fill:none;stroke-width:2.0;stroke-dasharray:-;stroke-linecap:round;stroke-linejoin:round;" /><path d="M 108.0,-216.0 L 108.0,-192.24 M 117.0,-192.24 L 99.0,-192.24 M 117.0,-185.76 L 99.0,-185.76 M 108.0,-185.76 L 107.99999999999999,-162.0" style="stroke:black;fill:none;stroke-width:2.0;stroke-dasharray:-;stroke-linecap:round;stroke-linejoin:round;" /><path d="M 107.99999999999999,-162.0 L 107.99999999999999,-153.0 L 107.99999999999999,-144.0" style="stroke:black;fill:none;stroke-width:2.0;stroke-dasharray:-;stroke-linecap:round;stroke-linejoin:round;" /><path d="M 107.99999999999999,-144.0 L 107.99999999999999,-129.6 L 98.99999999999999,-129.6 L 116.99999999999999,-129.6 M 101.69999999999999,-125.28 L 114.29999999999998,-125.28 M 106.19999999999999,-120.96 L 109.79999999999998,-120.96" style="stroke:black;fill:none;stroke-width:2.0;stroke-dasharray:-;stroke-linecap:round;stroke-linejoin:round;" /><path d="M 36.0,-252.0 L 35.99999999999999,-234.0 L 35.99999999999999,-216.0" style="stroke:black;fill:none;stroke-width:2.0;stroke-dasharray:-;stroke-linecap:round;stroke-linejoin:round;" /><path d="M 35.99999999999999,-216.0 L 35.99999999999999,-207.0 L 35.999999999999986,-198.0" style="stroke:black;fill:none;stroke-width:2.0;stroke-dasharray:-;stroke-linecap:round;stroke-linejoin:round;" /><path d="M 35.999999999999986,-198.0 L 35.999999999999986,-183.6 L 26.99999999999999,-183.6 L 44.999999999999986,-183.6 M 29.69999999999999,-179.28000000000003 L 42.29999999999998,-179.28000000000003 M 34.19999999999999,-174.96 L 37.79999999999998,-174.96" style="stroke:black;fill:none;stroke-width:2.0;stroke-dasharray:-;stroke-linecap:round;stroke-linejoin:round;" /><path d="M 36.0,-18.0 L 54.0,-18.0 L 72.0,-18.0" style="stroke:black;fill:none;stroke-width:2.0;stroke-dasharray:-;stroke-linecap:round;stroke-linejoin:round;" /><path d="M 72.0,-18.0 L 90.0,-18.0 L 93.0,-27.0 L 99.0,-9.0 L 105.0,-27.0 L 110.99999999999999,-9.0 L 117.0,-27.0 L 123.0,-9.0 L 126.0,-18.0 L 144.0,-18.0" style="stroke:black;fill:none;stroke-width:2.0;stroke-dasharray:-;stroke-linecap:round;stroke-linejoin:round;" /><path d="M 144.0,-18.0 L 153.0,-18.0 L 162.0,-18.0" style="stroke:black;fill:none;stroke-width:2.0;stroke-dasharray:-;stroke-linecap:round;stroke-linejoin:round;" /><path d="M 162.0,-18.0 L 182.70000000000002,-18.0 M 195.29999999999998,-27.0 L 195.29999999999998,-9.0 M 195.29999999999998,-18.0 L 216.0,-18.0" style="stroke:black;fill:none;stroke-width:2.0;stroke-dasharray:-;stroke-linecap:round;stroke-linejoin:round;" /><path d="M 191.70000000000002,-31.5 L 197.12779964383083,-40.99864937670389" style="stroke:black;fill:none;stroke-width:2.0;stroke-dasharray:-;stroke-linecap:round;stroke-linejoin:round;" /><path d="M 199.70772212328635 -45.51351371575108 L 199.62833989314925 -39.56976923423621 L 194.62725939451235 -42.42752951917158 Z" style="stroke:black;fill:black;stroke-linecap:butt;stroke-linejoin:miter;" /><path d="M 183.6,-31.5 L 189.02779964383078,-40.99864937670389" style="stroke:black;fill:none;stroke-width:2.0;stroke-dasharray:-;stroke-linecap:round;stroke-linejoin:round;" /><path d="M 191.60772212328632 -45.51351371575108 L 191.52833989314922 -39.56976923423621 L 186.52725939451233 -42.42752951917158 Z" style="stroke:black;fill:black;stroke-linecap:butt;stroke-linejoin:miter;" /><path d="M 216.0,-18.0 L 225.0,-18.0 L 234.0,-18.0" style="stroke:black;fill:none;stroke-width:2.0;stroke-dasharray:-;stroke-linecap:round;stroke-linejoin:round;" /><path d="M 234.0,-18.0 L 234.0,-3.599999999999999 L 225.0,-3.599999999999999 L 243.0,-3.599999999999999 M 227.70000000000002,0.7200000000000006 L 240.29999999999998,0.7200000000000006 M 232.20000000000002,5.040000000000001 L 235.79999999999998,5.040000000000001" style="stroke:black;fill:none;stroke-width:2.0;stroke-dasharray:-;stroke-linecap:round;stroke-linejoin:round;" /><path d="M 36.0,18.0 L 54.0,18.0 L 72.0,18.0" style="stroke:black;fill:none;stroke-width:2.0;stroke-dasharray:-;stroke-linecap:round;stroke-linejoin:round;" /><path d="M 72.0,18.0 L 90.0,18.0 L 93.0,9.0 L 99.0,27.0 L 105.0,9.0 L 110.99999999999999,27.0 L 117.0,9.0 L 123.0,27.0 L 126.0,18.0 L 144.0,18.0" style="stroke:black;fill:none;stroke-width:2.0;stroke-dasharray:-;stroke-linecap:round;stroke-linejoin:round;" /><path d="M 144.0,18.0 L 153.0,18.0 L 162.0,18.0" style="stroke:black;fill:none;stroke-width:2.0;stroke-dasharray:-;stroke-linecap:round;stroke-linejoin:round;" /><path d="M 162.0,18.0 L 182.70000000000002,18.0 M 195.29999999999998,9.0 L 195.29999999999998,27.0 M 195.29999999999998,18.0 L 216.0,18.0" style="stroke:black;fill:none;stroke-width:2.0;stroke-dasharray:-;stroke-linecap:round;stroke-linejoin:round;" /><path d="M 191.70000000000002,4.5 L 197.12779964383083,-4.998649376703892" style="stroke:black;fill:none;stroke-width:2.0;stroke-dasharray:-;stroke-linecap:round;stroke-linejoin:round;" /><path d="M 199.70772212328635 -9.513513715751081 L 199.62833989314925 -3.5697692342362117 L 194.62725939451235 -6.427529519171573 Z" style="stroke:black;fill:black;stroke-linecap:butt;stroke-linejoin:miter;" /><path d="M 183.6,4.5 L 189.02779964383078,-4.998649376703892" style="stroke:black;fill:none;stroke-width:2.0;stroke-dasharray:-;stroke-linecap:round;stroke-linejoin:round;" /><path d="M 191.60772212328632 -9.513513715751081 L 191.52833989314922 -3.5697692342362117 L 186.52725939451233 -6.427529519171573 Z" style="stroke:black;fill:black;stroke-linecap:butt;stroke-linejoin:miter;" /><path d="M 216.0,18.0 L 225.0,18.0 L 234.0,18.0" style="stroke:black;fill:none;stroke-width:2.0;stroke-dasharray:-;stroke-linecap:round;stroke-linejoin:round;" /><path d="M 234.0,18.0 L 234.0,32.4 L 225.0,32.4 L 243.0,32.4 M 227.70000000000002,36.72 L 240.29999999999998,36.72 M 232.20000000000002,41.040000000000006 L 235.79999999999998,41.040000000000006" style="stroke:black;fill:none;stroke-width:2.0;stroke-dasharray:-;stroke-linecap:round;stroke-linejoin:round;" /><path d="M 36.0,54.0 L 54.0,54.0 L 72.0,54.0" style="stroke:black;fill:none;stroke-width:2.0;stroke-dasharray:-;stroke-linecap:round;stroke-linejoin:round;" /><path d="M 72.0,54.0 L 90.0,54.0 L 93.0,45.0 L 99.0,63.0 L 105.0,45.0 L 110.99999999999999,63.0 L 117.0,45.0 L 123.0,63.0 L 126.0,54.0 L 144.0,54.0" style="stroke:black;fill:none;stroke-width:2.0;stroke-dasharray:-;stroke-linecap:round;stroke-linejoin:round;" /><path d="M 144.0,54.0 L 153.0,54.0 L 162.0,54.0" style="stroke:black;fill:none;stroke-width:2.0;stroke-dasharray:-;stroke-linecap:round;stroke-linejoin:round;" /><path d="M 162.0,54.0 L 182.70000000000002,54.0 M 195.29999999999998,45.0 L 195.29999999999998,63.0 M 195.29999999999998,54.0 L 216.0,54.0" style="stroke:black;fill:none;stroke-width:2.0;stroke-dasharray:-;stroke-linecap:round;stroke-linejoin:round;" /><path d="M 191.70000000000002,40.5 L 197.12779964383083,31.00135062329611" style="stroke:black;fill:none;stroke-width:2.0;stroke-dasharray:-;stroke-linecap:round;stroke-linejoin:round;" /><path d="M 199.70772212328635 26.48648628424892 L 199.62833989314925 32.43023076576379 L 194.62725939451235 29.572470480828425 Z" style="stroke:black;fill:black;stroke-linecap:butt;stroke-linejoin:miter;" /><path d="M 183.6,40.5 L 189.02779964383078,31.00135062329611" style="stroke:black;fill:none;stroke-width:2.0;stroke-dasharray:-;stroke-linecap:round;stroke-linejoin:round;" /><path d="M 191.60772212328632 26.48648628424892 L 191.52833989314922 32.43023076576379 L 186.52725939451233 29.572470480828425 Z" style="stroke:black;fill:black;stroke-linecap:butt;stroke-linejoin:miter;" /><path d="M 216.0,54.0 L 225.0,54.0 L 234.0,54.0" style="stroke:black;fill:none;stroke-width:2.0;stroke-dasharray:-;stroke-linecap:round;stroke-linejoin:round;" /><path d="M 234.0,54.0 L 234.0,68.39999999999999 L 225.0,68.39999999999999 L 243.0,68.39999999999999 M 227.70000000000002,72.72 L 240.29999999999998,72.72 M 232.20000000000002,77.04 L 235.79999999999998,77.04" style="stroke:black;fill:none;stroke-width:2.0;stroke-dasharray:-;stroke-linecap:round;stroke-linejoin:round;" /><text x="3.6" y="-377.59999999999997" dominant-baseline="central" fill="black" font-size="14" font-family="bold" text-anchor="start"><tspan x="3.6" dy="14">TOP PCB - TRIG IN PROTECTION CIRCUIT</tspan></text><text x="3.6" y="-348.40000000000003" dominant-baseline="central" fill="black" font-size="10" font-family="sans" text-anchor="start"><tspan x="3.6" dy="10">Protects M4 ADC from 0-5V gate/trigger input</tspan></text><text x="108.0" y="-282.59999999999997" dominant-baseline="ideographic" fill="black" font-size="9" font-family="sans" text-anchor="middle"><tspan x="108.0" dy="9">R4</tspan><tspan x="108.0" dy="9">10kΩ</tspan></text><text x="144.0" y="-237.6" dominant-baseline="ideographic" fill="black" font-size="9" font-family="sans" text-anchor="middle"><tspan x="144.0" dy="9">R5</tspan><tspan x="144.0" dy="9">10kΩ</tspan></text><text x="144.0" y="-293.40000000000003" dominant-baseline="hanging" fill="black" font-size="9" font-family="sans" text-anchor="middle"><tspan x="144.0" dy="9">D2</tspan><tspan x="144.0" dy="9">BAT85</tspan><tspan x="144.0" dy="9">Schottky</tspan></text><text x="144.0" y="-388.0" dominant-baseline="ideographic" fill="black" font-size="10" font-family="sans" text-anchor="middle"><tspan x="144.0" dy="10">3.3V</tspan></text><text x="107.99999999999999" y="-166.4" dominant-baseline="hanging" fill="black" font-size="8" font-family="sans" text-anchor="middle"><tspan x="107.99999999999999" dy="8">C16</tspan><tspan x="107.99999999999999" dy="8">100nF</tspan><tspan x="107.99999999999999" dy="8">(optional)</tspan></text><text x="3.5999999999999996" y="-79.39999999999999" dominant-baseline="central" fill="black" font-size="11" font-family="bold" text-anchor="start"><tspan x="3.5999999999999996" dy="11">RGB LED INDICATOR (3 GPIO pins):</tspan></text><text x="108.0" y="-48.599999999999994" dominant-baseline="ideographic" fill="black" font-size="9" font-family="sans" text-anchor="middle"><tspan x="108.0" dy="9">R6</tspan><tspan x="108.0" dy="9">330Ω</tspan></text><text x="189.0" y="-74.61" dominant-baseline="ideographic" fill="black" font-size="9" font-family="sans" text-anchor="middle"><tspan x="189.0" dy="9">LED2</tspan><tspan x="189.0" dy="9">Red</tspan></text><text x="108.0" y="-3.5999999999999996" dominant-baseline="ideographic" fill="black" font-size="9" font-family="sans" text-anchor="middle"><tspan x="108.0" dy="9">330Ω</tspan></text><text x="189.0" y="-38.61" dominant-baseline="ideographic" fill="black" font-size="9" font-family="sans" text-anchor="middle"><tspan x="189.0" dy="9">LED2</tspan><tspan x="189.0" dy="9">Green</tspan></text><text x="108.0" y="32.4" dominant-baseline="ideographic" fill="black" font-size="9" font-family="sans" text-anchor="middle"><tspan x="108.0" dy="9">330Ω</tspan></text><text x="189.0" y="-2.6099999999999994" dominant-baseline="ideographic" fill="black" font-size="9" font-family="sans" text-anchor="middle"><tspan x="189.0" dy="9">LED2</tspan><tspan x="189.0" dy="9">Blue</tspan></text><text x="3.6" y="93.39999999999999" dominant-baseline="central" fill="black" font-size="11" font-family="bold" text-anchor="start"><tspan x="3.6" dy="11">COMPONENT VALUES:</tspan></text><text x="3.6" y="113.39999999999999" dominant-baseline="central" fill="black" font-size="9" font-family="sans" text-anchor="start"><tspan x="3.6" dy="9">R4, R5: 10kΩ ±5% 1/4W (voltage divider)</tspan></text><text x="3.6" y="131.4" dominant-baseline="central" fill="black" font-size="9" font-family="sans" text-anchor="start"><tspan x="3.6" dy="9">D2: BAT85 Schottky (30V, 200mA, DO-35)</tspan></text><text x="3.6" y="149.4" dominant-baseline="central" fill="black" font-size="9" font-family="sans" text-anchor="start"><tspan x="3.6" dy="9">R6: 330Ω ±5% 1/4W (RGB LED current limit)</tspan></text><text x="3.6" y="167.4" dominant-baseline="central" fill="black" font-size="9" font-family="sans" text-anchor="start"><tspan x="3.6" dy="9">LED2: RGB common cathode 5mm (Vf ~2.0V, If ~10mA)</tspan></text><text x="3.6" y="185.4" dominant-baseline="central" fill="black" font-size="9" font-family="sans" text-anchor="start"><tspan x="3.6" dy="9">C16: 100nF ceramic X7R (optional noise filter)</tspan></text><circle cx="36.0" cy="-252.0" r="2.6999999999999997" style="stroke:black;fill:black;stroke-width:2.0;stroke-dasharray:-;" /><text x="36.0" y="-278.3" dominant-baseline="ideographic" fill="black" font-size="10" font-family="sans" text-anchor="end"><tspan x="36.0" dy="10">TRIG IN</tspan><tspan x="36.0" dy="10">Jack TIP</tspan></text><circle cx="144.0" cy="-252.0" r="2.6999999999999997" style="stroke:black;fill:black;stroke-width:2.0;stroke-dasharray:-;" /><text x="144.0" y="-268.3" dominant-baseline="ideographic" fill="black" font-size="10" font-family="sans" text-anchor="middle"><tspan x="144.0" dy="10">TAP</tspan></text><circle cx="216.0" cy="-252.0" r="2.6999999999999997" style="stroke:black;fill:black;stroke-width:2.0;stroke-dasharray:-;" /><text x="216.0" y="-288.3" dominant-baseline="ideographic" fill="black" font-size="10" font-family="sans" text-anchor="start"><tspan x="216.0" dy="10">To M4</tspan><tspan x="216.0" dy="10">Pin A4</tspan><tspan x="216.0" dy="10">(ADC)</tspan></text><circle cx="35.99999999999999" cy="-216.0" r="2.6999999999999997" style="stroke:black;fill:black;stroke-width:2.0;stroke-dasharray:-;" /><text x="35.99999999999999" y="-240.29999999999998" dominant-baseline="ideographic" fill="black" font-size="9" font-family="sans" text-anchor="end"><tspan x="35.99999999999999" dy="9">Jack</tspan><tspan x="35.99999999999999" dy="9">SLEEVE</tspan></text><circle cx="36.0" cy="-18.0" r="2.6999999999999997" style="stroke:black;fill:black;stroke-width:2.0;stroke-dasharray:-;" /><text x="36.0" y="-33.3" dominant-baseline="ideographic" fill="black" font-size="9" font-family="sans" text-anchor="end"><tspan x="36.0" dy="9">M4 D11</tspan></text><circle cx="36.0" cy="18.0" r="2.6999999999999997" style="stroke:black;fill:black;stroke-width:2.0;stroke-dasharray:-;" /><text x="36.0" y="2.700000000000001" dominant-baseline="ideographic" fill="black" font-size="9" font-family="sans" text-anchor="end"><tspan x="36.0" dy="9">M4 D23</tspan></text><circle cx="36.0" cy="54.0" r="2.6999999999999997" style="stroke:black;fill:black;stroke-width:2.0;stroke-dasharray:-;" /><text x="36.0" y="38.699999999999996" dominant-baseline="ideographic" fill="black" font-size="9" font-family="sans" text-anchor="end"><tspan x="36.0" dy="9">M4 D24</tspan></text></svg>