<svg xmlns="http://www.w3.org/2000/svg" xmlns:xlink="http://www.w3.org/1999/xlink" xml:lang="en" height="891.1600000000001pt" width="783.9019999999999pt" viewBox="-50.302 -33.6 783.9019999999999 891.1600000000001"><polygon points="128.70000000000002,126.0 141.29999999999998,135.0 128.70000000000002,144.0 " style="stroke:black;fill:none;stroke-width:2.0;stroke-dasharray:-;stroke-linecap:round;stroke-linejoin:round;" /><polygon points="128.70000000000002,261.0 141.29999999999998,270.0 128.70000000000002,279.0 " style="stroke:black;fill:none;stroke-width:2.0;stroke-dasharray:-;stroke-linecap:round;stroke-linejoin:round;" /><polygon points="128.70000000000002,396.0 141.29999999999998,405.0 128.70000000000002,414.0 " style="stroke:black;fill:none;stroke-width:2.0;stroke-dasharray:-;stroke-linecap:round;stroke-linejoin:round;" /><polygon points="128.70000000000002,531.0 141.29999999999998,540.0 128.70000000000002,549.0 " style="stroke:black;fill:none;stroke-width:2.0;stroke-dasharray:-;stroke-linecap:round;stroke-linejoin:round;" /><circle cx="109.8" cy="720.0" r="19.8" style="stroke:black;fill:none;stroke-width:2.0;stroke-dasharray:-;" /><path d="M 0.0,-0.0 L 360.0,-0.0 L 720.0,-0.0" style="stroke:black;fill:none;stroke-width:2.0;stroke-dasharray:-;stroke-linecap:round;stroke-linejoin:round;" /><path d="M 720.0,-0.0 L 720.0,-14.4" style="stroke:black;fill:none;stroke-width:2.0;stroke-dasharray:-;stroke-linecap:round;stroke-linejoin:round;" /><path d="M 720.0,-14.4 L 713.25,-14.4" style="stroke:black;fill:none;stroke-width:2.0;stroke-dasharray:-;stroke-linecap:round;stroke-linejoin:round;" /><path d="M 720.0,-14.4 L 726.75,-14.4" style="stroke:black;fill:none;stroke-width:2.0;stroke-dasharray:-;stroke-linecap:round;stroke-linejoin:round;" /><path d="M 0.0,135.0 L 27.0,135.0 L 30.0,126.0 L 36.0,144.0 L 41.99999999999999,126.0 L 48.0,144.0 L 54.0,126.0 L 59.99999999999999,144.0 L 63.0,135.0 L 90.0,135.0" style="stroke:black;fill:none;stroke-width:2.0;stroke-dasharray:-;stroke-linecap:round;stroke-linejoin:round;" /><path d="M 90.0,135.0 L 128.70000000000002,135.0 M 141.29999999999998,126.0 L 141.29999999999998,144.0 M 141.29999999999998,135.0 L 180.0,135.0" style="stroke:black;fill:none;stroke-width:2.0;stroke-dasharray:-;stroke-linecap:round;stroke-linejoin:round;" /><path d="M 137.70000000000002,121.5 L 143.1277996438308,112.0013506232961" style="stroke:black;fill:none;stroke-width:2.0;stroke-dasharray:-;stroke-linecap:round;stroke-linejoin:round;" /><path d="M 145.70772212328635 107.48648628424891 L 145.62833989314925 113.43023076576378 L 140.62725939451235 110.57247048082843 Z" style="stroke:black;fill:black;stroke-linecap:butt;stroke-linejoin:miter;" /><path d="M 129.6,121.5 L 135.0277996438308,112.0013506232961" style="stroke:black;fill:none;stroke-width:2.0;stroke-dasharray:-;stroke-linecap:round;stroke-linejoin:round;" /><path d="M 137.60772212328632 107.48648628424891 L 137.52833989314922 113.43023076576378 L 132.52725939451233 110.57247048082841 Z" style="stroke:black;fill:black;stroke-linecap:butt;stroke-linejoin:miter;" /><path d="M 180.0,135.0 L 225.0,135.0 L 270.0,135.0" style="stroke:black;fill:none;stroke-width:2.0;stroke-dasharray:-;stroke-linecap:round;stroke-linejoin:round;" /><path d="M 0.0,270.0 L 27.0,270.0 L 30.0,261.0 L 36.0,279.0 L 41.99999999999999,261.0 L 48.0,279.0 L 54.0,261.0 L 59.99999999999999,279.0 L 63.0,270.0 L 90.0,270.0" style="stroke:black;fill:none;stroke-width:2.0;stroke-dasharray:-;stroke-linecap:round;stroke-linejoin:round;" /><path d="M 90.0,270.0 L 128.70000000000002,270.0 M 141.29999999999998,261.0 L 141.29999999999998,279.0 M 141.29999999999998,270.0 L 180.0,270.0" style="stroke:black;fill:none;stroke-width:2.0;stroke-dasharray:-;stroke-linecap:round;stroke-linejoin:round;" /><path d="M 137.70000000000002,256.5 L 143.1277996438308,247.0013506232961" style="stroke:black;fill:none;stroke-width:2.0;stroke-dasharray:-;stroke-linecap:round;stroke-linejoin:round;" /><path d="M 145.70772212328635 242.4864862842489 L 145.62833989314925 248.43023076576378 L 140.62725939451235 245.57247048082843 Z" style="stroke:black;fill:black;stroke-linecap:butt;stroke-linejoin:miter;" /><path d="M 129.6,256.5 L 135.0277996438308,247.0013506232961" style="stroke:black;fill:none;stroke-width:2.0;stroke-dasharray:-;stroke-linecap:round;stroke-linejoin:round;" /><path d="M 137.60772212328632 242.4864862842489 L 137.52833989314922 248.43023076576378 L 132.52725939451233 245.57247048082843 Z" style="stroke:black;fill:black;stroke-linecap:butt;stroke-linejoin:miter;" /><path d="M 180.0,270.0 L 225.0,270.0 L 270.0,270.0" style="stroke:black;fill:none;stroke-width:2.0;stroke-dasharray:-;stroke-linecap:round;stroke-linejoin:round;" /><path d="M 0.0,405.0 L 27.0,405.0 L 30.0,396.0 L 36.0,414.0 L 41.99999999999999,396.0 L 48.0,414.0 L 54.0,396.0 L 59.99999999999999,414.0 L 63.0,405.0 L 90.0,405.0" style="stroke:black;fill:none;stroke-width:2.0;stroke-dasharray:-;stroke-linecap:round;stroke-linejoin:round;" /><path d="M 90.0,405.0 L 128.70000000000002,405.0 M 141.29999999999998,396.0 L 141.29999999999998,414.0 M 141.29999999999998,405.0 L 180.0,405.0" style="stroke:black;fill:none;stroke-width:2.0;stroke-dasharray:-;stroke-linecap:round;stroke-linejoin:round;" /><path d="M 137.70000000000002,391.5 L 143.1277996438308,382.00135062329616" style="stroke:black;fill:none;stroke-width:2.0;stroke-dasharray:-;stroke-linecap:round;stroke-linejoin:round;" /><path d="M 145.70772212328635 377.48648628424894 L 145.62833989314925 383.43023076576384 L 140.62725939451235 380.57247048082843 Z" style="stroke:black;fill:black;stroke-linecap:butt;stroke-linejoin:miter;" /><path d="M 129.6,391.5 L 135.0277996438308,382.00135062329616" style="stroke:black;fill:none;stroke-width:2.0;stroke-dasharray:-;stroke-linecap:round;stroke-linejoin:round;" /><path d="M 137.60772212328632 377.48648628424894 L 137.52833989314922 383.4302307657638 L 132.52725939451233 380.5724704808284 Z" style="stroke:black;fill:black;stroke-linecap:butt;stroke-linejoin:miter;" /><path d="M 180.0,405.0 L 225.0,405.0 L 270.0,405.0" style="stroke:black;fill:none;stroke-width:2.0;stroke-dasharray:-;stroke-linecap:round;stroke-linejoin:round;" /><path d="M 0.0,540.0 L 27.0,540.0 L 30.0,531.0 L 36.0,549.0 L 41.99999999999999,531.0 L 48.0,549.0 L 54.0,531.0 L 59.99999999999999,549.0 L 63.0,540.0 L 90.0,540.0" style="stroke:black;fill:none;stroke-width:2.0;stroke-dasharray:-;stroke-linecap:round;stroke-linejoin:round;" /><path d="M 90.0,540.0 L 128.70000000000002,540.0 M 141.29999999999998,531.0 L 141.29999999999998,549.0 M 141.29999999999998,540.0 L 180.0,540.0" style="stroke:black;fill:none;stroke-width:2.0;stroke-dasharray:-;stroke-linecap:round;stroke-linejoin:round;" /><path d="M 137.70000000000002,526.5 L 143.1277996438308,517.0013506232962" style="stroke:black;fill:none;stroke-width:2.0;stroke-dasharray:-;stroke-linecap:round;stroke-linejoin:round;" /><path d="M 145.70772212328635 512.4864862842489 L 145.62833989314925 518.4302307657638 L 140.62725939451235 515.5724704808284 Z" style="stroke:black;fill:black;stroke-linecap:butt;stroke-linejoin:miter;" /><path d="M 129.6,526.5 L 135.0277996438308,517.0013506232962" style="stroke:black;fill:none;stroke-width:2.0;stroke-dasharray:-;stroke-linecap:round;stroke-linejoin:round;" /><path d="M 137.60772212328632 512.4864862842489 L 137.52833989314922 518.4302307657638 L 132.52725939451233 515.5724704808284 Z" style="stroke:black;fill:black;stroke-linecap:butt;stroke-linejoin:miter;" /><path d="M 180.0,540.0 L 225.0,540.0 L 270.0,540.0" style="stroke:black;fill:none;stroke-width:2.0;stroke-dasharray:-;stroke-linecap:round;stroke-linejoin:round;" /><path d="M 0.0,720.0 L 27.0,720.0 L 30.0,711.0 L 36.0,729.0 L 41.99999999999999,711.0 L 48.0,729.0 L 54.0,711.0 L 59.99999999999999,729.0 L 63.0,720.0 L 90.0,720.0" style="stroke:black;fill:none;stroke-width:2.0;stroke-dasharray:-;stroke-linecap:round;stroke-linejoin:round;" /><path d="M 90.0,720.0 L 103.2,720.0" style="stroke:black;fill:none;stroke-width:2.0;stroke-dasharray:-;stroke-linecap:round;stroke-linejoin:round;" /><path d="M 103.2,706.8 L 103.2,733.2" style="stroke:black;fill:none;stroke-width:2.0;stroke-dasharray:-;stroke-linecap:round;stroke-linejoin:round;" /><path d="M 103.2,713.4 L 117.05999999999999,701.5200000000001 L 117.05999999999999,694.9200000000001" style="stroke:black;fill:none;stroke-width:2.0;stroke-dasharray:-;stroke-linecap:round;stroke-linejoin:round;" /><path d="M 103.2,726.6 L 117.05999999999999,738.4799999999999 L 117.05999999999999,745.0799999999999" style="stroke:black;fill:none;stroke-width:2.0;stroke-dasharray:-;stroke-linecap:round;stroke-linejoin:round;" /><path d="M 103.2,726.6 L 110.22669057871231,732.6228776388962" style="stroke:black;fill:none;stroke-width:2.0;stroke-dasharray:-;stroke-linecap:round;stroke-linejoin:round;" /><path d="M 115.54148679526939 737.178417253088 L 107.88384163427082 735.3562014074113 L 112.5695395231538 729.8895538703812 Z" style="stroke:black;fill:black;stroke-linecap:butt;stroke-linejoin:miter;" /><path d="M 117.05999999999999,694.9200000000001 L 117.06,347.46000000000004 L 117.06000000000004,-0.0" style="stroke:black;fill:none;stroke-width:2.0;stroke-dasharray:-;stroke-linecap:round;stroke-linejoin:round;" /><path d="M 117.05999999999999,694.9200000000001 L 117.05999999999997,762.4200000000001 L 117.05999999999996,829.9200000000001" style="stroke:black;fill:none;stroke-width:2.0;stroke-dasharray:-;stroke-linecap:round;stroke-linejoin:round;" /><path d="M 117.05999999999999,694.9200000000001 L 184.56,694.9200000000001 L 252.06,694.9200000000001" style="stroke:black;fill:none;stroke-width:2.0;stroke-dasharray:-;stroke-linecap:round;stroke-linejoin:round;" /><path d="M 0.0,829.9200000000001 L 360.0,829.9200000000001 L 720.0,829.9200000000001" style="stroke:black;fill:none;stroke-width:2.0;stroke-dasharray:-;stroke-linecap:round;stroke-linejoin:round;" /><path d="M 720.0,829.9200000000001 L 720.0,844.3199999999999 L 711.0,844.3199999999999 L 729.0,844.3199999999999 M 713.6999999999999,848.64 L 726.3000000000001,848.64 M 718.1999999999999,852.96 L 721.8000000000001,852.96" style="stroke:black;fill:none;stroke-width:2.0;stroke-dasharray:-;stroke-linecap:round;stroke-linejoin:round;" /><text x="720.0" y="-29.0" dominant-baseline="ideographic" fill="black" font-size="11" font-family="sans" text-anchor="middle"><tspan x="720.0" dy="11">5V</tspan></text><text x="45.0" y="111.39999999999999" dominant-baseline="ideographic" fill="black" font-size="11" font-family="sans" text-anchor="middle"><tspan x="45.0" dy="11">R6 100ohm</tspan></text><text x="135.0" y="136.6" dominant-baseline="hanging" fill="black" font-size="11" font-family="sans" text-anchor="middle"><tspan x="135.0" dy="11">LED1</tspan></text><text x="45.0" y="246.40000000000003" dominant-baseline="ideographic" fill="black" font-size="11" font-family="sans" text-anchor="middle"><tspan x="45.0" dy="11">R7 100ohm</tspan></text><text x="135.0" y="271.59999999999997" dominant-baseline="hanging" fill="black" font-size="11" font-family="sans" text-anchor="middle"><tspan x="135.0" dy="11">LED2</tspan></text><text x="45.0" y="381.40000000000003" dominant-baseline="ideographic" fill="black" font-size="11" font-family="sans" text-anchor="middle"><tspan x="45.0" dy="11">R8 100ohm</tspan></text><text x="135.0" y="406.59999999999997" dominant-baseline="hanging" fill="black" font-size="11" font-family="sans" text-anchor="middle"><tspan x="135.0" dy="11">LED3</tspan></text><text x="45.0" y="516.4" dominant-baseline="ideographic" fill="black" font-size="11" font-family="sans" text-anchor="middle"><tspan x="45.0" dy="11">R9 100ohm</tspan></text><text x="135.0" y="541.6" dominant-baseline="hanging" fill="black" font-size="11" font-family="sans" text-anchor="middle"><tspan x="135.0" dy="11">LED4</tspan></text><text x="45.0" y="696.4" dominant-baseline="ideographic" fill="black" font-size="11" font-family="sans" text-anchor="middle"><tspan x="45.0" dy="11">R10 10kohm</tspan></text><text x="133.20000000000002" y="709.3" dominant-baseline="central" fill="black" font-size="11" font-family="sans" text-anchor="start"><tspan x="133.20000000000002" dy="11">Q1 2N3904</tspan></text><circle cx="0.0" cy="135.0" r="2.6999999999999997" style="stroke:black;fill:black;stroke-width:2.0;stroke-dasharray:-;" /><text x="-6.3" y="124.0" dominant-baseline="central" fill="black" font-size="11" font-family="sans" text-anchor="end"><tspan x="-6.3" dy="11">DAC VA</tspan></text><circle cx="270.0" cy="135.0" r="2.6999999999999997" style="stroke:black;fill:white;stroke-width:2.0;stroke-dasharray:-;" /><text x="276.3" y="124.0" dominant-baseline="central" fill="black" font-size="11" font-family="sans" text-anchor="start"><tspan x="276.3" dy="11">CV OUT 1</tspan></text><circle cx="0.0" cy="270.0" r="2.6999999999999997" style="stroke:black;fill:black;stroke-width:2.0;stroke-dasharray:-;" /><text x="-6.3" y="259.0" dominant-baseline="central" fill="black" font-size="11" font-family="sans" text-anchor="end"><tspan x="-6.3" dy="11">DAC VB</tspan></text><circle cx="270.0" cy="270.0" r="2.6999999999999997" style="stroke:black;fill:white;stroke-width:2.0;stroke-dasharray:-;" /><text x="276.3" y="259.0" dominant-baseline="central" fill="black" font-size="11" font-family="sans" text-anchor="start"><tspan x="276.3" dy="11">CV OUT 2</tspan></text><circle cx="0.0" cy="405.0" r="2.6999999999999997" style="stroke:black;fill:black;stroke-width:2.0;stroke-dasharray:-;" /><text x="-6.3" y="394.0" dominant-baseline="central" fill="black" font-size="11" font-family="sans" text-anchor="end"><tspan x="-6.3" dy="11">DAC VC</tspan></text><circle cx="270.0" cy="405.0" r="2.6999999999999997" style="stroke:black;fill:white;stroke-width:2.0;stroke-dasharray:-;" /><text x="276.3" y="394.0" dominant-baseline="central" fill="black" font-size="11" font-family="sans" text-anchor="start"><tspan x="276.3" dy="11">CV OUT 3</tspan></text><circle cx="0.0" cy="540.0" r="2.6999999999999997" style="stroke:black;fill:black;stroke-width:2.0;stroke-dasharray:-;" /><text x="-6.3" y="529.0" dominant-baseline="central" fill="black" font-size="11" font-family="sans" text-anchor="end"><tspan x="-6.3" dy="11">DAC VD</tspan></text><circle cx="270.0" cy="540.0" r="2.6999999999999997" style="stroke:black;fill:white;stroke-width:2.0;stroke-dasharray:-;" /><text x="276.3" y="529.0" dominant-baseline="central" fill="black" font-size="11" font-family="sans" text-anchor="start"><tspan x="276.3" dy="11">CV OUT 4</tspan></text><circle cx="0.0" cy="720.0" r="2.6999999999999997" style="stroke:black;fill:black;stroke-width:2.0;stroke-dasharray:-;" /><text x="-6.3" y="709.0" dominant-baseline="central" fill="black" font-size="11" font-family="sans" text-anchor="end"><tspan x="-6.3" dy="11">M4 D11</tspan></text><circle cx="252.06" cy="694.9200000000001" r="2.6999999999999997" style="stroke:black;fill:white;stroke-width:2.0;stroke-dasharray:-;" /><text x="258.36" y="683.9200000000001" dominant-baseline="central" fill="black" font-size="11" font-family="sans" text-anchor="start"><tspan x="258.36" dy="11">S-TRIG OUT</tspan></text></svg>