<svg xmlns="http://www.w3.org/2000/svg" xmlns:xlink="http://www.w3.org/1999/xlink" xml:lang="en" height="654.8899999999999pt" width="380.042pt" viewBox="-50.302 -39.61000000000001 380.042 654.8899999999999"><polygon points="128.70000000000002,-9.0 141.29999999999998,-0.0 128.70000000000002,9.0 " style="stroke:black;fill:none;stroke-width:2.0;stroke-dasharray:-;stroke-linecap:round;stroke-linejoin:round;" /><polygon points="128.70000000000002,126.0 141.29999999999998,135.0 128.70000000000002,144.0 " style="stroke:black;fill:none;stroke-width:2.0;stroke-dasharray:-;stroke-linecap:round;stroke-linejoin:round;" /><polygon points="128.70000000000002,261.0 141.29999999999998,270.0 128.70000000000002,279.0 " style="stroke:black;fill:none;stroke-width:2.0;stroke-dasharray:-;stroke-linecap:round;stroke-linejoin:round;" /><polygon points="128.70000000000002,396.0 141.29999999999998,405.0 128.70000000000002,414.0 " style="stroke:black;fill:none;stroke-width:2.0;stroke-dasharray:-;stroke-linecap:round;stroke-linejoin:round;" /><circle cx="109.8" cy="585.0" r="19.8" style="stroke:black;fill:none;stroke-width:2.0;stroke-dasharray:-;" /><path d="M 0.0,-0.0 L 27.0,-0.0 L 30.0,-9.0 L 36.0,9.0 L 41.99999999999999,-9.0 L 48.0,9.0 L 54.0,-9.0 L 59.99999999999999,9.0 L 63.0,-0.0 L 90.0,-0.0" style="stroke:black;fill:none;stroke-width:2.0;stroke-dasharray:-;stroke-linecap:round;stroke-linejoin:round;" /><path d="M 90.0,-0.0 L 128.70000000000002,-0.0 M 141.29999999999998,-9.0 L 141.29999999999998,9.0 M 141.29999999999998,-0.0 L 180.0,-0.0" style="stroke:black;fill:none;stroke-width:2.0;stroke-dasharray:-;stroke-linecap:round;stroke-linejoin:round;" /><path d="M 137.70000000000002,-13.5 L 143.1277996438308,-22.99864937670389" style="stroke:black;fill:none;stroke-width:2.0;stroke-dasharray:-;stroke-linecap:round;stroke-linejoin:round;" /><path d="M 145.70772212328635 -27.51351371575108 L 145.62833989314925 -21.56976923423621 L 140.62725939451235 -24.427529519171575 Z" style="stroke:black;fill:black;stroke-linecap:butt;stroke-linejoin:miter;" /><path d="M 129.6,-13.5 L 135.0277996438308,-22.998649376703895" style="stroke:black;fill:none;stroke-width:2.0;stroke-dasharray:-;stroke-linecap:round;stroke-linejoin:round;" /><path d="M 137.60772212328632 -27.51351371575108 L 137.52833989314922 -21.56976923423621 L 132.52725939451233 -24.42752951917158 Z" style="stroke:black;fill:black;stroke-linecap:butt;stroke-linejoin:miter;" /><path d="M 180.0,-0.0 L 225.0,-0.0 L 270.0,-0.0" style="stroke:black;fill:none;stroke-width:2.0;stroke-dasharray:-;stroke-linecap:round;stroke-linejoin:round;" /><path d="M 0.0,135.0 L 27.0,135.0 L 30.0,126.0 L 36.0,144.0 L 41.99999999999999,126.0 L 48.0,144.0 L 54.0,126.0 L 59.99999999999999,144.0 L 63.0,135.0 L 90.0,135.0" style="stroke:black;fill:none;stroke-width:2.0;stroke-dasharray:-;stroke-linecap:round;stroke-linejoin:round;" /><path d="M 90.0,135.0 L 128.70000000000002,135.0 M 141.29999999999998,126.0 L 141.29999999999998,144.0 M 141.29999999999998,135.0 L 180.0,135.0" style="stroke:black;fill:none;stroke-width:2.0;stroke-dasharray:-;stroke-linecap:round;stroke-linejoin:round;" /><path d="M 137.70000000000002,121.5 L 143.1277996438308,112.0013506232961" style="stroke:black;fill:none;stroke-width:2.0;stroke-dasharray:-;stroke-linecap:round;stroke-linejoin:round;" /><path d="M 145.70772212328635 107.48648628424891 L 145.62833989314925 113.43023076576378 L 140.62725939451235 110.57247048082843 Z" style="stroke:black;fill:black;stroke-linecap:butt;stroke-linejoin:miter;" /><path d="M 129.6,121.5 L 135.0277996438308,112.0013506232961" style="stroke:black;fill:none;stroke-width:2.0;stroke-dasharray:-;stroke-linecap:round;stroke-linejoin:round;" /><path d="M 137.60772212328632 107.48648628424891 L 137.52833989314922 113.43023076576378 L 132.52725939451233 110.57247048082841 Z" style="stroke:black;fill:black;stroke-linecap:butt;stroke-linejoin:miter;" /><path d="M 180.0,135.0 L 225.0,135.0 L 270.0,135.0" style="stroke:black;fill:none;stroke-width:2.0;stroke-dasharray:-;stroke-linecap:round;stroke-linejoin:round;" /><path d="M 0.0,270.0 L 27.0,270.0 L 30.0,261.0 L 36.0,279.0 L 41.99999999999999,261.0 L 48.0,279.0 L 54.0,261.0 L 59.99999999999999,279.0 L 63.0,270.0 L 90.0,270.0" style="stroke:black;fill:none;stroke-width:2.0;stroke-dasharray:-;stroke-linecap:round;stroke-linejoin:round;" /><path d="M 90.0,270.0 L 128.70000000000002,270.0 M 141.29999999999998,261.0 L 141.29999999999998,279.0 M 141.29999999999998,270.0 L 180.0,270.0" style="stroke:black;fill:none;stroke-width:2.0;stroke-dasharray:-;stroke-linecap:round;stroke-linejoin:round;" /><path d="M 137.70000000000002,256.5 L 143.1277996438308,247.0013506232961" style="stroke:black;fill:none;stroke-width:2.0;stroke-dasharray:-;stroke-linecap:round;stroke-linejoin:round;" /><path d="M 145.70772212328635 242.4864862842489 L 145.62833989314925 248.43023076576378 L 140.62725939451235 245.57247048082843 Z" style="stroke:black;fill:black;stroke-linecap:butt;stroke-linejoin:miter;" /><path d="M 129.6,256.5 L 135.0277996438308,247.0013506232961" style="stroke:black;fill:none;stroke-width:2.0;stroke-dasharray:-;stroke-linecap:round;stroke-linejoin:round;" /><path d="M 137.60772212328632 242.4864862842489 L 137.52833989314922 248.43023076576378 L 132.52725939451233 245.57247048082843 Z" style="stroke:black;fill:black;stroke-linecap:butt;stroke-linejoin:miter;" /><path d="M 180.0,270.0 L 225.0,270.0 L 270.0,270.0" style="stroke:black;fill:none;stroke-width:2.0;stroke-dasharray:-;stroke-linecap:round;stroke-linejoin:round;" /><path d="M 0.0,405.0 L 27.0,405.0 L 30.0,396.0 L 36.0,414.0 L 41.99999999999999,396.0 L 48.0,414.0 L 54.0,396.0 L 59.99999999999999,414.0 L 63.0,405.0 L 90.0,405.0" style="stroke:black;fill:none;stroke-width:2.0;stroke-dasharray:-;stroke-linecap:round;stroke-linejoin:round;" /><path d="M 90.0,405.0 L 128.70000000000002,405.0 M 141.29999999999998,396.0 L 141.29999999999998,414.0 M 141.29999999999998,405.0 L 180.0,405.0" style="stroke:black;fill:none;stroke-width:2.0;stroke-dasharray:-;stroke-linecap:round;stroke-linejoin:round;" /><path d="M 137.70000000000002,391.5 L 143.1277996438308,382.00135062329616" style="stroke:black;fill:none;stroke-width:2.0;stroke-dasharray:-;stroke-linecap:round;stroke-linejoin:round;" /><path d="M 145.70772212328635 377.48648628424894 L 145.62833989314925 383.43023076576384 L 140.62725939451235 380.57247048082843 Z" style="stroke:black;fill:black;stroke-linecap:butt;stroke-linejoin:miter;" /><path d="M 129.6,391.5 L 135.0277996438308,382.00135062329616" style="stroke:black;fill:none;stroke-width:2.0;stroke-dasharray:-;stroke-linecap:round;stroke-linejoin:round;" /><path d="M 137.60772212328632 377.48648628424894 L 137.52833989314922 383.4302307657638 L 132.52725939451233 380.5724704808284 Z" style="stroke:black;fill:black;stroke-linecap:butt;stroke-linejoin:miter;" /><path d="M 180.0,405.0 L 225.0,405.0 L 270.0,405.0" style="stroke:black;fill:none;stroke-width:2.0;stroke-dasharray:-;stroke-linecap:round;stroke-linejoin:round;" /><path d="M 0.0,585.0 L 27.0,585.0 L 30.0,576.0 L 36.0,594.0 L 41.99999999999999,576.0 L 48.0,594.0 L 54.0,576.0 L 59.99999999999999,594.0 L 63.0,585.0 L 90.0,585.0" style="stroke:black;fill:none;stroke-width:2.0;stroke-dasharray:-;stroke-linecap:round;stroke-linejoin:round;" /><path d="M 90.0,585.0 L 103.2,585.0" style="stroke:black;fill:none;stroke-width:2.0;stroke-dasharray:-;stroke-linecap:round;stroke-linejoin:round;" /><path d="M 103.2,571.8 L 103.2,598.2" style="stroke:black;fill:none;stroke-width:2.0;stroke-dasharray:-;stroke-linecap:round;stroke-linejoin:round;" /><path d="M 103.2,578.4 L 117.05999999999999,566.52 L 117.05999999999999,559.92" style="stroke:black;fill:none;stroke-width:2.0;stroke-dasharray:-;stroke-linecap:round;stroke-linejoin:round;" /><path d="M 103.2,591.6 L 117.05999999999999,603.4799999999999 L 117.05999999999999,610.0799999999999" style="stroke:black;fill:none;stroke-width:2.0;stroke-dasharray:-;stroke-linecap:round;stroke-linejoin:round;" /><path d="M 103.2,591.6 L 110.22669057871231,597.6228776388962" style="stroke:black;fill:none;stroke-width:2.0;stroke-dasharray:-;stroke-linecap:round;stroke-linejoin:round;" /><path d="M 115.54148679526939 602.178417253088 L 107.88384163427082 600.3562014074113 L 112.5695395231538 594.8895538703812 Z" style="stroke:black;fill:black;stroke-linecap:butt;stroke-linejoin:miter;" /><path d="M 117.05999999999999,559.92 L 117.05999999999999,537.42 L 117.05999999999999,514.92" style="stroke:black;fill:none;stroke-width:2.0;stroke-dasharray:-;stroke-linecap:round;stroke-linejoin:round;" /><path d="M 117.05999999999999,514.92 L 117.05999999999999,500.52" style="stroke:black;fill:none;stroke-width:2.0;stroke-dasharray:-;stroke-linecap:round;stroke-linejoin:round;" /><path d="M 117.05999999999999,500.52 L 110.30999999999999,500.52" style="stroke:black;fill:none;stroke-width:2.0;stroke-dasharray:-;stroke-linecap:round;stroke-linejoin:round;" /><path d="M 117.05999999999999,500.52 L 123.80999999999999,500.52" style="stroke:black;fill:none;stroke-width:2.0;stroke-dasharray:-;stroke-linecap:round;stroke-linejoin:round;" /><path d="M 117.05999999999999,559.92 L 117.05999999999999,573.42 L 117.05999999999999,586.9200000000001" style="stroke:black;fill:none;stroke-width:2.0;stroke-dasharray:-;stroke-linecap:round;stroke-linejoin:round;" /><path d="M 117.05999999999999,586.9200000000001 L 117.05999999999999,601.3199999999999 L 108.05999999999999,601.3199999999999 L 126.05999999999999,601.3199999999999 M 110.76,605.64 L 123.35999999999999,605.64 M 115.26,609.96 L 118.85999999999999,609.96" style="stroke:black;fill:none;stroke-width:2.0;stroke-dasharray:-;stroke-linecap:round;stroke-linejoin:round;" /><path d="M 90.0,585.0 L 157.5,585.0 L 225.0,585.0" style="stroke:black;fill:none;stroke-width:2.0;stroke-dasharray:-;stroke-linecap:round;stroke-linejoin:round;" /><text x="45.0" y="-23.6" dominant-baseline="ideographic" fill="black" font-size="11" font-family="sans" text-anchor="middle"><tspan x="45.0" dy="11">R6 100ohm</tspan></text><text x="135.0" y="1.5999999999999996" dominant-baseline="hanging" fill="black" font-size="11" font-family="sans" text-anchor="middle"><tspan x="135.0" dy="11">LED1</tspan></text><text x="45.0" y="111.39999999999999" dominant-baseline="ideographic" fill="black" font-size="11" font-family="sans" text-anchor="middle"><tspan x="45.0" dy="11">R7 100ohm</tspan></text><text x="135.0" y="136.6" dominant-baseline="hanging" fill="black" font-size="11" font-family="sans" text-anchor="middle"><tspan x="135.0" dy="11">LED2</tspan></text><text x="45.0" y="246.40000000000003" dominant-baseline="ideographic" fill="black" font-size="11" font-family="sans" text-anchor="middle"><tspan x="45.0" dy="11">R8 100ohm</tspan></text><text x="135.0" y="271.59999999999997" dominant-baseline="hanging" fill="black" font-size="11" font-family="sans" text-anchor="middle"><tspan x="135.0" dy="11">LED3</tspan></text><text x="45.0" y="381.40000000000003" dominant-baseline="ideographic" fill="black" font-size="11" font-family="sans" text-anchor="middle"><tspan x="45.0" dy="11">R9 100ohm</tspan></text><text x="135.0" y="406.59999999999997" dominant-baseline="hanging" fill="black" font-size="11" font-family="sans" text-anchor="middle"><tspan x="135.0" dy="11">LED4</tspan></text><text x="45.0" y="561.4" dominant-baseline="ideographic" fill="black" font-size="11" font-family="sans" text-anchor="middle"><tspan x="45.0" dy="11">R10 10kohm</tspan></text><text x="133.20000000000002" y="574.3" dominant-baseline="central" fill="black" font-size="11" font-family="sans" text-anchor="start"><tspan x="133.20000000000002" dy="11">Q1 2N3904</tspan></text><text x="117.05999999999999" y="485.91999999999996" dominant-baseline="ideographic" fill="black" font-size="11" font-family="sans" text-anchor="middle"><tspan x="117.05999999999999" dy="11">5V</tspan></text><circle cx="0.0" cy="-0.0" r="2.6999999999999997" style="stroke:black;fill:black;stroke-width:2.0;stroke-dasharray:-;" /><text x="-6.3" y="-11.0" dominant-baseline="central" fill="black" font-size="11" font-family="sans" text-anchor="end"><tspan x="-6.3" dy="11">DAC VA</tspan></text><circle cx="270.0" cy="-0.0" r="2.6999999999999997" style="stroke:black;fill:white;stroke-width:2.0;stroke-dasharray:-;" /><text x="276.3" y="-11.0" dominant-baseline="central" fill="black" font-size="11" font-family="sans" text-anchor="start"><tspan x="276.3" dy="11">CV OUT 1</tspan></text><circle cx="0.0" cy="135.0" r="2.6999999999999997" style="stroke:black;fill:black;stroke-width:2.0;stroke-dasharray:-;" /><text x="-6.3" y="124.0" dominant-baseline="central" fill="black" font-size="11" font-family="sans" text-anchor="end"><tspan x="-6.3" dy="11">DAC VB</tspan></text><circle cx="270.0" cy="135.0" r="2.6999999999999997" style="stroke:black;fill:white;stroke-width:2.0;stroke-dasharray:-;" /><text x="276.3" y="124.0" dominant-baseline="central" fill="black" font-size="11" font-family="sans" text-anchor="start"><tspan x="276.3" dy="11">CV OUT 2</tspan></text><circle cx="0.0" cy="270.0" r="2.6999999999999997" style="stroke:black;fill:black;stroke-width:2.0;stroke-dasharray:-;" /><text x="-6.3" y="259.0" dominant-baseline="central" fill="black" font-size="11" font-family="sans" text-anchor="end"><tspan x="-6.3" dy="11">DAC VC</tspan></text><circle cx="270.0" cy="270.0" r="2.6999999999999997" style="stroke:black;fill:white;stroke-width:2.0;stroke-dasharray:-;" /><text x="276.3" y="259.0" dominant-baseline="central" fill="black" font-size="11" font-family="sans" text-anchor="start"><tspan x="276.3" dy="11">CV OUT 3</tspan></text><circle cx="0.0" cy="405.0" r="2.6999999999999997" style="stroke:black;fill:black;stroke-width:2.0;stroke-dasharray:-;" /><text x="-6.3" y="394.0" dominant-baseline="central" fill="black" font-size="11" font-family="sans" text-anchor="end"><tspan x="-6.3" dy="11">DAC VD</tspan></text><circle cx="270.0" cy="405.0" r="2.6999999999999997" style="stroke:black;fill:white;stroke-width:2.0;stroke-dasharray:-;" /><text x="276.3" y="394.0" dominant-baseline="central" fill="black" font-size="11" font-family="sans" text-anchor="start"><tspan x="276.3" dy="11">CV OUT 4</tspan></text><circle cx="0.0" cy="585.0" r="2.6999999999999997" style="stroke:black;fill:black;stroke-width:2.0;stroke-dasharray:-;" /><text x="-6.3" y="574.0" dominant-baseline="central" fill="black" font-size="11" font-family="sans" text-anchor="end"><tspan x="-6.3" dy="11">M4 D11</tspan></text><circle cx="225.0" cy="585.0" r="2.6999999999999997" style="stroke:black;fill:white;stroke-width:2.0;stroke-dasharray:-;" /><text x="231.29999999999998" y="574.0" dominant-baseline="central" fill="black" font-size="11" font-family="sans" text-anchor="start"><tspan x="231.29999999999998" dy="11">S-TRIG OUT</tspan></text></svg>