<svg xmlns="http://www.w3.org/2000/svg" xmlns:xlink="http://www.w3.org/1999/xlink" xml:lang="en" height="2587.4pt" width="2256.89pt" viewBox="-209.20000000000002 -18.2 2256.89 2587.4"><polygon points="263.6999999999999,639.0 276.29999999999984,648.0 263.6999999999999,657.0 " style="stroke:black;fill:none;stroke-width:2.0;stroke-dasharray:-;stroke-linecap:round;stroke-linejoin:round;" /><polygon points="605.6999999999997,1431.0 618.2999999999997,1440.0 605.6999999999997,1449.0 " style="stroke:black;fill:none;stroke-width:2.0;stroke-dasharray:-;stroke-linecap:round;stroke-linejoin:round;" /><polygon points="605.6999999999997,1503.0 618.2999999999997,1512.0 605.6999999999997,1521.0 " style="stroke:black;fill:none;stroke-width:2.0;stroke-dasharray:-;stroke-linecap:round;stroke-linejoin:round;" /><polygon points="947.6999999999997,1647.0 960.2999999999997,1656.0 947.6999999999997,1665.0 " style="stroke:black;fill:none;stroke-width:2.0;stroke-dasharray:-;stroke-linecap:round;stroke-linejoin:round;" /><polygon points="1307.6999999999998,2151.0 1320.2999999999997,2160.0 1307.6999999999998,2169.0 " style="stroke:black;fill:none;stroke-width:2.0;stroke-dasharray:-;stroke-linecap:round;stroke-linejoin:round;" /><polygon points="1649.6999999999998,2367.0 1662.2999999999997,2376.0 1649.6999999999998,2385.0 " style="stroke:black;fill:none;stroke-width:2.0;stroke-dasharray:-;stroke-linecap:round;stroke-linejoin:round;" /><polygon points="1649.6999999999998,2439.0 1662.2999999999997,2448.0 1649.6999999999998,2457.0 " style="stroke:black;fill:none;stroke-width:2.0;stroke-dasharray:-;stroke-linecap:round;stroke-linejoin:round;" /><path d="M -6.613092715395707e-14,360.0 L 53.999999999999936,360.0 L 107.99999999999994,360.0" style="stroke:black;fill:none;stroke-width:2.0;stroke-dasharray:-;stroke-linecap:round;stroke-linejoin:round;" /><path d="M 107.99999999999994,360.0 L 143.99999999999994,360.0 L 146.99999999999991,351.0 L 152.99999999999994,369.0 L 158.99999999999991,351.0 L 164.99999999999991,369.0 L 170.99999999999994,351.0 L 176.99999999999991,369.0 L 179.99999999999994,360.0 L 215.99999999999994,360.0" style="stroke:black;fill:none;stroke-width:2.0;stroke-dasharray:-;stroke-linecap:round;stroke-linejoin:round;" /><path d="M 215.99999999999994,360.0 L 233.99999999999994,360.0 L 251.99999999999994,360.0" style="stroke:black;fill:none;stroke-width:2.0;stroke-dasharray:-;stroke-linecap:round;stroke-linejoin:round;" /><path d="M 251.99999999999994,360.0 L 251.99999999999994,378.0 L 251.99999999999994,396.0" style="stroke:black;fill:none;stroke-width:2.0;stroke-dasharray:-;stroke-linecap:round;stroke-linejoin:round;" /><path d="M 251.99999999999994,396.0 L 251.99999999999994,446.76 M 260.99999999999994,446.76 L 242.99999999999994,446.76 M 260.99999999999994,453.24 L 242.99999999999994,453.24 M 251.99999999999994,453.24 L 251.99999999999991,504.0" style="stroke:black;fill:none;stroke-width:2.0;stroke-dasharray:-;stroke-linecap:round;stroke-linejoin:round;" /><path d="M 251.99999999999991,504.0 L 251.99999999999991,522.0 L 251.99999999999991,540.0" style="stroke:black;fill:none;stroke-width:2.0;stroke-dasharray:-;stroke-linecap:round;stroke-linejoin:round;" /><path d="M 251.99999999999991,540.0 L 251.99999999999991,554.4 L 242.99999999999991,554.4 L 260.9999999999999,554.4 M 245.6999999999999,558.72 L 258.2999999999999,558.72 M 250.1999999999999,563.04 L 253.7999999999999,563.04" style="stroke:black;fill:none;stroke-width:2.0;stroke-dasharray:-;stroke-linecap:round;stroke-linejoin:round;" /><path d="M 251.99999999999994,360.0 L 305.99999999999994,360.0 L 359.99999999999994,360.0" style="stroke:black;fill:none;stroke-width:2.0;stroke-dasharray:-;stroke-linecap:round;stroke-linejoin:round;" /><path d="M -1.1903566887712272e-13,648.0 L 35.99999999999988,648.0 L 71.99999999999989,648.0" style="stroke:black;fill:none;stroke-width:2.0;stroke-dasharray:-;stroke-linecap:round;stroke-linejoin:round;" /><path d="M 71.99999999999989,648.0 L 107.99999999999987,648.0 L 110.99999999999987,639.0 L 116.99999999999987,657.0 L 122.99999999999989,639.0 L 128.9999999999999,657.0 L 134.9999999999999,639.0 L 140.9999999999999,657.0 L 143.9999999999999,648.0 L 179.9999999999999,648.0" style="stroke:black;fill:none;stroke-width:2.0;stroke-dasharray:-;stroke-linecap:round;stroke-linejoin:round;" /><path d="M 179.9999999999999,648.0 L 197.9999999999999,648.0 L 215.9999999999999,648.0" style="stroke:black;fill:none;stroke-width:2.0;stroke-dasharray:-;stroke-linecap:round;stroke-linejoin:round;" /><path d="M 215.9999999999999,648.0 L 263.6999999999999,648.0 M 276.29999999999984,639.0 L 276.29999999999984,657.0 M 276.29999999999984,648.0 L 323.9999999999999,648.0" style="stroke:black;fill:none;stroke-width:2.0;stroke-dasharray:-;stroke-linecap:round;stroke-linejoin:round;" /><path d="M 272.6999999999999,634.5 L 278.1277996438307,625.0013506232962" style="stroke:black;fill:none;stroke-width:2.0;stroke-dasharray:-;stroke-linecap:round;stroke-linejoin:round;" /><path d="M 280.7077221232862 620.4864862842489 L 280.62833989314913 626.4302307657638 L 275.62725939451224 623.5724704808284 Z" style="stroke:black;fill:black;stroke-linecap:butt;stroke-linejoin:miter;" /><path d="M 264.59999999999985,634.5 L 270.02779964383063,625.0013506232962" style="stroke:black;fill:none;stroke-width:2.0;stroke-dasharray:-;stroke-linecap:round;stroke-linejoin:round;" /><path d="M 272.6077221232862 620.4864862842489 L 272.5283398931491 626.4302307657638 L 267.5272593945122 623.5724704808284 Z" style="stroke:black;fill:black;stroke-linecap:butt;stroke-linejoin:miter;" /><path d="M 323.9999999999999,648.0 L 341.9999999999999,648.0 L 359.9999999999999,648.0" style="stroke:black;fill:none;stroke-width:2.0;stroke-dasharray:-;stroke-linecap:round;stroke-linejoin:round;" /><path d="M 359.9999999999999,648.0 L 359.9999999999999,662.4 L 350.9999999999999,662.4 L 368.9999999999999,662.4 M 353.6999999999998,666.72 L 366.2999999999999,666.72 M 358.1999999999998,671.04 L 361.7999999999999,671.04" style="stroke:black;fill:none;stroke-width:2.0;stroke-dasharray:-;stroke-linecap:round;stroke-linejoin:round;" /><path d="M 359.9999999999999,900.0 L 413.9999999999999,900.0 L 467.9999999999999,900.0" style="stroke:black;fill:none;stroke-width:2.0;stroke-dasharray:-;stroke-linecap:round;stroke-linejoin:round;" /><path d="M 467.9999999999999,900.0 L 503.9999999999999,900.0 L 506.9999999999999,891.0 L 512.9999999999999,909.0 L 518.9999999999999,891.0 L 524.9999999999999,909.0 L 530.9999999999999,891.0 L 536.9999999999999,909.0 L 539.9999999999999,900.0 L 575.9999999999999,900.0" style="stroke:black;fill:none;stroke-width:2.0;stroke-dasharray:-;stroke-linecap:round;stroke-linejoin:round;" /><path d="M 575.9999999999999,900.0 L 683.9999999999999,900.0 L 791.9999999999999,900.0" style="stroke:black;fill:none;stroke-width:2.0;stroke-dasharray:-;stroke-linecap:round;stroke-linejoin:round;" /><path d="M 359.99999999999983,1080.0 L 395.99999999999983,1080.0 L 431.99999999999983,1080.0" style="stroke:black;fill:none;stroke-width:2.0;stroke-dasharray:-;stroke-linecap:round;stroke-linejoin:round;" /><path d="M 431.99999999999983,1080.0 L 467.99999999999983,1080.0 L 470.99999999999983,1071.0 L 476.99999999999983,1089.0 L 482.9999999999998,1071.0 L 488.99999999999983,1089.0 L 494.99999999999983,1071.0 L 500.9999999999998,1089.0 L 503.99999999999983,1080.0 L 539.9999999999998,1080.0" style="stroke:black;fill:none;stroke-width:2.0;stroke-dasharray:-;stroke-linecap:round;stroke-linejoin:round;" /><path d="M 539.9999999999998,1080.0 L 575.9999999999998,1080.0 L 611.9999999999998,1080.0" style="stroke:black;fill:none;stroke-width:2.0;stroke-dasharray:-;stroke-linecap:round;stroke-linejoin:round;" /><path d="M 611.9999999999998,1080.0 L 625.1999999999998,1080.0" style="stroke:black;fill:none;stroke-width:2.0;stroke-dasharray:-;stroke-linecap:round;stroke-linejoin:round;" /><path d="M 625.1999999999998,1066.8 L 625.1999999999998,1093.2" style="stroke:black;fill:none;stroke-width:2.0;stroke-dasharray:-;stroke-linecap:round;stroke-linejoin:round;" /><path d="M 625.1999999999998,1073.4 L 639.0599999999997,1061.52 L 639.0599999999997,1054.92" style="stroke:black;fill:none;stroke-width:2.0;stroke-dasharray:-;stroke-linecap:round;stroke-linejoin:round;" /><path d="M 625.1999999999998,1086.6 L 639.0599999999997,1098.48 L 639.0599999999997,1105.08" style="stroke:black;fill:none;stroke-width:2.0;stroke-dasharray:-;stroke-linecap:round;stroke-linejoin:round;" /><path d="M 625.1999999999998,1086.6 L 632.226690578712,1092.6228776388962" style="stroke:black;fill:none;stroke-width:2.0;stroke-dasharray:-;stroke-linecap:round;stroke-linejoin:round;" /><path d="M 637.5414867952692 1097.1784172530881 L 629.8838416342707 1095.3562014074114 L 634.5695395231536 1089.8895538703812 Z" style="stroke:black;fill:black;stroke-linecap:butt;stroke-linejoin:miter;" /><path d="M 657.0599999999997,1026.1200000000001 L 657.0599999999997,1008.12 L 657.0599999999997,990.12" style="stroke:black;fill:none;stroke-width:2.0;stroke-dasharray:-;stroke-linecap:round;stroke-linejoin:round;" /><path d="M 657.0599999999997,990.12 L 693.0599999999997,990.12 L 696.0599999999996,981.12 L 702.0599999999997,999.12 L 708.0599999999997,981.12 L 714.0599999999996,999.12 L 720.0599999999997,981.12 L 726.0599999999997,999.12 L 729.0599999999997,990.12 L 765.0599999999997,990.12" style="stroke:black;fill:none;stroke-width:2.0;stroke-dasharray:-;stroke-linecap:round;stroke-linejoin:round;" /><path d="M 765.0599999999997,990.12 L 765.0599999999997,954.12 L 765.0599999999997,918.12" style="stroke:black;fill:none;stroke-width:2.0;stroke-dasharray:-;stroke-linecap:round;stroke-linejoin:round;" /><path d="M 657.0599999999997,1083.72 L 657.0599999999997,1101.72 L 657.0599999999997,1119.72" style="stroke:black;fill:none;stroke-width:2.0;stroke-dasharray:-;stroke-linecap:round;stroke-linejoin:round;" /><path d="M 657.0599999999997,1119.72 L 657.0599999999997,1134.1200000000001 L 648.0599999999997,1134.1200000000001 L 666.0599999999997,1134.1200000000001 M 650.7599999999996,1138.44 L 663.3599999999997,1138.44 M 655.2599999999996,1142.76 L 658.8599999999997,1142.76" style="stroke:black;fill:none;stroke-width:2.0;stroke-dasharray:-;stroke-linecap:round;stroke-linejoin:round;" /><path d="M 359.9999999999998,1440.0 L 386.9999999999998,1440.0 L 413.9999999999998,1440.0" style="stroke:black;fill:none;stroke-width:2.0;stroke-dasharray:-;stroke-linecap:round;stroke-linejoin:round;" /><path d="M 413.9999999999998,1440.0 L 449.9999999999998,1440.0 L 452.9999999999998,1431.0 L 458.9999999999998,1449.0 L 464.9999999999997,1431.0 L 470.9999999999998,1449.0 L 476.9999999999998,1431.0 L 482.9999999999997,1449.0 L 485.9999999999998,1440.0 L 521.9999999999998,1440.0" style="stroke:black;fill:none;stroke-width:2.0;stroke-dasharray:-;stroke-linecap:round;stroke-linejoin:round;" /><path d="M 521.9999999999998,1440.0 L 539.9999999999998,1440.0 L 557.9999999999998,1440.0" style="stroke:black;fill:none;stroke-width:2.0;stroke-dasharray:-;stroke-linecap:round;stroke-linejoin:round;" /><path d="M 557.9999999999998,1440.0 L 605.6999999999997,1440.0 M 618.2999999999997,1431.0 L 618.2999999999997,1449.0 M 618.2999999999997,1440.0 L 665.9999999999998,1440.0" style="stroke:black;fill:none;stroke-width:2.0;stroke-dasharray:-;stroke-linecap:round;stroke-linejoin:round;" /><path d="M 614.6999999999997,1426.5 L 620.1277996438305,1417.001350623296" style="stroke:black;fill:none;stroke-width:2.0;stroke-dasharray:-;stroke-linecap:round;stroke-linejoin:round;" /><path d="M 622.7077221232861 1412.486486284249 L 622.628339893149 1418.4302307657638 L 617.6272593945121 1415.5724704808285 Z" style="stroke:black;fill:black;stroke-linecap:butt;stroke-linejoin:miter;" /><path d="M 606.5999999999998,1426.5 L 612.0277996438306,1417.001350623296" style="stroke:black;fill:none;stroke-width:2.0;stroke-dasharray:-;stroke-linecap:round;stroke-linejoin:round;" /><path d="M 614.6077221232862 1412.486486284249 L 614.5283398931491 1418.4302307657638 L 609.5272593945122 1415.5724704808285 Z" style="stroke:black;fill:black;stroke-linecap:butt;stroke-linejoin:miter;" /><path d="M 665.9999999999998,1440.0 L 683.9999999999998,1440.0 L 701.9999999999998,1440.0" style="stroke:black;fill:none;stroke-width:2.0;stroke-dasharray:-;stroke-linecap:round;stroke-linejoin:round;" /><path d="M 701.9999999999998,1440.0 L 701.9999999999998,1454.3999999999999 L 692.9999999999998,1454.3999999999999 L 710.9999999999998,1454.3999999999999 M 695.6999999999997,1458.72 L 708.2999999999997,1458.72 M 700.1999999999997,1463.04 L 703.7999999999997,1463.04" style="stroke:black;fill:none;stroke-width:2.0;stroke-dasharray:-;stroke-linecap:round;stroke-linejoin:round;" /><path d="M 359.9999999999998,1512.0 L 386.9999999999998,1512.0 L 413.9999999999998,1512.0" style="stroke:black;fill:none;stroke-width:2.0;stroke-dasharray:-;stroke-linecap:round;stroke-linejoin:round;" /><path d="M 413.9999999999998,1512.0 L 449.9999999999998,1512.0 L 452.9999999999998,1503.0 L 458.9999999999998,1521.0 L 464.9999999999997,1503.0 L 470.9999999999998,1521.0 L 476.9999999999998,1503.0 L 482.9999999999997,1521.0 L 485.9999999999998,1512.0 L 521.9999999999998,1512.0" style="stroke:black;fill:none;stroke-width:2.0;stroke-dasharray:-;stroke-linecap:round;stroke-linejoin:round;" /><path d="M 521.9999999999998,1512.0 L 539.9999999999998,1512.0 L 557.9999999999998,1512.0" style="stroke:black;fill:none;stroke-width:2.0;stroke-dasharray:-;stroke-linecap:round;stroke-linejoin:round;" /><path d="M 557.9999999999998,1512.0 L 605.6999999999997,1512.0 M 618.2999999999997,1503.0 L 618.2999999999997,1521.0 M 618.2999999999997,1512.0 L 665.9999999999998,1512.0" style="stroke:black;fill:none;stroke-width:2.0;stroke-dasharray:-;stroke-linecap:round;stroke-linejoin:round;" /><path d="M 614.6999999999997,1498.5 L 620.1277996438305,1489.001350623296" style="stroke:black;fill:none;stroke-width:2.0;stroke-dasharray:-;stroke-linecap:round;stroke-linejoin:round;" /><path d="M 622.7077221232861 1484.486486284249 L 622.628339893149 1490.4302307657638 L 617.6272593945121 1487.5724704808285 Z" style="stroke:black;fill:black;stroke-linecap:butt;stroke-linejoin:miter;" /><path d="M 606.5999999999998,1498.5 L 612.0277996438306,1489.001350623296" style="stroke:black;fill:none;stroke-width:2.0;stroke-dasharray:-;stroke-linecap:round;stroke-linejoin:round;" /><path d="M 614.6077221232862 1484.486486284249 L 614.5283398931491 1490.4302307657638 L 609.5272593945122 1487.5724704808285 Z" style="stroke:black;fill:black;stroke-linecap:butt;stroke-linejoin:miter;" /><path d="M 665.9999999999998,1512.0 L 683.9999999999998,1512.0 L 701.9999999999998,1512.0" style="stroke:black;fill:none;stroke-width:2.0;stroke-dasharray:-;stroke-linecap:round;stroke-linejoin:round;" /><path d="M 701.9999999999998,1512.0 L 701.9999999999998,1526.3999999999999 L 692.9999999999998,1526.3999999999999 L 710.9999999999998,1526.3999999999999 M 695.6999999999997,1530.72 L 708.2999999999997,1530.72 M 700.1999999999997,1535.04 L 703.7999999999997,1535.04" style="stroke:black;fill:none;stroke-width:2.0;stroke-dasharray:-;stroke-linecap:round;stroke-linejoin:round;" /><path d="M 701.9999999999998,1656.0 L 728.9999999999998,1656.0 L 755.9999999999998,1656.0" style="stroke:black;fill:none;stroke-width:2.0;stroke-dasharray:-;stroke-linecap:round;stroke-linejoin:round;" /><path d="M 755.9999999999998,1656.0 L 791.9999999999998,1656.0 L 794.9999999999997,1647.0 L 800.9999999999998,1665.0 L 806.9999999999998,1647.0 L 812.9999999999997,1665.0 L 818.9999999999998,1647.0 L 824.9999999999998,1665.0 L 827.9999999999998,1656.0 L 863.9999999999998,1656.0" style="stroke:black;fill:none;stroke-width:2.0;stroke-dasharray:-;stroke-linecap:round;stroke-linejoin:round;" /><path d="M 863.9999999999998,1656.0 L 881.9999999999998,1656.0 L 899.9999999999998,1656.0" style="stroke:black;fill:none;stroke-width:2.0;stroke-dasharray:-;stroke-linecap:round;stroke-linejoin:round;" /><path d="M 899.9999999999998,1656.0 L 947.6999999999997,1656.0 M 960.2999999999997,1647.0 L 960.2999999999997,1665.0 M 960.2999999999997,1656.0 L 1007.9999999999998,1656.0" style="stroke:black;fill:none;stroke-width:2.0;stroke-dasharray:-;stroke-linecap:round;stroke-linejoin:round;" /><path d="M 956.6999999999997,1642.5 L 962.1277996438305,1633.001350623296" style="stroke:black;fill:none;stroke-width:2.0;stroke-dasharray:-;stroke-linecap:round;stroke-linejoin:round;" /><path d="M 964.7077221232861 1628.486486284249 L 964.628339893149 1634.4302307657638 L 959.6272593945121 1631.5724704808285 Z" style="stroke:black;fill:black;stroke-linecap:butt;stroke-linejoin:miter;" /><path d="M 948.5999999999998,1642.5 L 954.0277996438306,1633.001350623296" style="stroke:black;fill:none;stroke-width:2.0;stroke-dasharray:-;stroke-linecap:round;stroke-linejoin:round;" /><path d="M 956.6077221232862 1628.486486284249 L 956.5283398931491 1634.4302307657638 L 951.5272593945122 1631.5724704808285 Z" style="stroke:black;fill:black;stroke-linecap:butt;stroke-linejoin:miter;" /><path d="M 1007.9999999999998,1656.0 L 1025.9999999999998,1656.0 L 1043.9999999999998,1656.0" style="stroke:black;fill:none;stroke-width:2.0;stroke-dasharray:-;stroke-linecap:round;stroke-linejoin:round;" /><path d="M 1043.9999999999998,1656.0 L 1043.9999999999998,1670.3999999999999 L 1034.9999999999998,1670.3999999999999 L 1052.9999999999998,1670.3999999999999 M 1037.6999999999998,1674.72 L 1050.2999999999997,1674.72 M 1042.1999999999998,1679.04 L 1045.7999999999997,1679.04" style="stroke:black;fill:none;stroke-width:2.0;stroke-dasharray:-;stroke-linecap:round;stroke-linejoin:round;" /><path d="M 1043.9999999999998,1872.0 L 1097.9999999999998,1872.0 L 1151.9999999999998,1872.0" style="stroke:black;fill:none;stroke-width:2.0;stroke-dasharray:-;stroke-linecap:round;stroke-linejoin:round;" /><path d="M 1151.9999999999998,1872.0 L 1187.9999999999998,1872.0 L 1190.9999999999998,1863.0 L 1196.9999999999998,1881.0 L 1202.9999999999995,1863.0 L 1208.9999999999998,1881.0 L 1214.9999999999998,1863.0 L 1220.9999999999995,1881.0 L 1223.9999999999998,1872.0 L 1259.9999999999998,1872.0" style="stroke:black;fill:none;stroke-width:2.0;stroke-dasharray:-;stroke-linecap:round;stroke-linejoin:round;" /><path d="M 1259.9999999999998,1872.0 L 1277.9999999999998,1872.0 L 1295.9999999999998,1872.0" style="stroke:black;fill:none;stroke-width:2.0;stroke-dasharray:-;stroke-linecap:round;stroke-linejoin:round;" /><path d="M 1295.9999999999998,1872.0 L 1295.9999999999998,1890.0 L 1295.9999999999998,1908.0" style="stroke:black;fill:none;stroke-width:2.0;stroke-dasharray:-;stroke-linecap:round;stroke-linejoin:round;" /><path d="M 1295.9999999999998,1908.0 L 1295.9999999999998,1958.7599999999998 M 1304.9999999999998,1958.7599999999998 L 1286.9999999999998,1958.7599999999998 M 1304.9999999999998,1965.2400000000002 L 1286.9999999999998,1965.2400000000002 M 1295.9999999999998,1965.2400000000002 L 1295.9999999999998,2016.0" style="stroke:black;fill:none;stroke-width:2.0;stroke-dasharray:-;stroke-linecap:round;stroke-linejoin:round;" /><path d="M 1295.9999999999998,2016.0 L 1295.9999999999998,2034.0 L 1295.9999999999998,2052.0" style="stroke:black;fill:none;stroke-width:2.0;stroke-dasharray:-;stroke-linecap:round;stroke-linejoin:round;" /><path d="M 1295.9999999999998,2052.0 L 1295.9999999999998,2066.4 L 1286.9999999999998,2066.4 L 1304.9999999999998,2066.4 M 1289.6999999999998,2070.7200000000003 L 1302.2999999999997,2070.7200000000003 M 1294.1999999999998,2075.04 L 1297.7999999999997,2075.04" style="stroke:black;fill:none;stroke-width:2.0;stroke-dasharray:-;stroke-linecap:round;stroke-linejoin:round;" /><path d="M 1295.9999999999998,1872.0 L 1349.9999999999998,1872.0 L 1403.9999999999998,1872.0" style="stroke:black;fill:none;stroke-width:2.0;stroke-dasharray:-;stroke-linecap:round;stroke-linejoin:round;" /><path d="M 1043.9999999999998,2160.0 L 1079.9999999999998,2160.0 L 1115.9999999999998,2160.0" style="stroke:black;fill:none;stroke-width:2.0;stroke-dasharray:-;stroke-linecap:round;stroke-linejoin:round;" /><path d="M 1115.9999999999998,2160.0 L 1151.9999999999998,2160.0 L 1154.9999999999998,2151.0 L 1160.9999999999998,2169.0 L 1166.9999999999995,2151.0 L 1172.9999999999998,2169.0 L 1178.9999999999998,2151.0 L 1184.9999999999995,2169.0 L 1187.9999999999998,2160.0 L 1223.9999999999998,2160.0" style="stroke:black;fill:none;stroke-width:2.0;stroke-dasharray:-;stroke-linecap:round;stroke-linejoin:round;" /><path d="M 1223.9999999999998,2160.0 L 1241.9999999999998,2160.0 L 1259.9999999999998,2160.0" style="stroke:black;fill:none;stroke-width:2.0;stroke-dasharray:-;stroke-linecap:round;stroke-linejoin:round;" /><path d="M 1259.9999999999998,2160.0 L 1307.6999999999998,2160.0 M 1320.2999999999997,2151.0 L 1320.2999999999997,2169.0 M 1320.2999999999997,2160.0 L 1367.9999999999998,2160.0" style="stroke:black;fill:none;stroke-width:2.0;stroke-dasharray:-;stroke-linecap:round;stroke-linejoin:round;" /><path d="M 1316.6999999999998,2146.5 L 1322.1277996438307,2137.0013506232963" style="stroke:black;fill:none;stroke-width:2.0;stroke-dasharray:-;stroke-linecap:round;stroke-linejoin:round;" /><path d="M 1324.7077221232862 2132.4864862842487 L 1324.6283398931491 2138.430230765764 L 1319.6272593945123 2135.5724704808285 Z" style="stroke:black;fill:black;stroke-linecap:butt;stroke-linejoin:miter;" /><path d="M 1308.6,2146.5 L 1314.0277996438306,2137.0013506232963" style="stroke:black;fill:none;stroke-width:2.0;stroke-dasharray:-;stroke-linecap:round;stroke-linejoin:round;" /><path d="M 1316.6077221232863 2132.4864862842487 L 1316.5283398931492 2138.430230765764 L 1311.5272593945124 2135.5724704808285 Z" style="stroke:black;fill:black;stroke-linecap:butt;stroke-linejoin:miter;" /><path d="M 1367.9999999999998,2160.0 L 1385.9999999999998,2160.0 L 1403.9999999999998,2160.0" style="stroke:black;fill:none;stroke-width:2.0;stroke-dasharray:-;stroke-linecap:round;stroke-linejoin:round;" /><path d="M 1403.9999999999998,2160.0 L 1403.9999999999998,2174.4 L 1394.9999999999998,2174.4 L 1412.9999999999998,2174.4 M 1397.6999999999998,2178.7200000000003 L 1410.2999999999997,2178.7200000000003 M 1402.1999999999998,2183.04 L 1405.7999999999997,2183.04" style="stroke:black;fill:none;stroke-width:2.0;stroke-dasharray:-;stroke-linecap:round;stroke-linejoin:round;" /><path d="M 1403.9999999999998,2376.0 L 1430.9999999999998,2376.0 L 1457.9999999999998,2376.0" style="stroke:black;fill:none;stroke-width:2.0;stroke-dasharray:-;stroke-linecap:round;stroke-linejoin:round;" /><path d="M 1457.9999999999998,2376.0 L 1493.9999999999998,2376.0 L 1496.9999999999998,2367.0 L 1502.9999999999998,2385.0 L 1508.9999999999995,2367.0 L 1514.9999999999998,2385.0 L 1520.9999999999998,2367.0 L 1526.9999999999995,2385.0 L 1529.9999999999998,2376.0 L 1565.9999999999998,2376.0" style="stroke:black;fill:none;stroke-width:2.0;stroke-dasharray:-;stroke-linecap:round;stroke-linejoin:round;" /><path d="M 1565.9999999999998,2376.0 L 1583.9999999999998,2376.0 L 1601.9999999999998,2376.0" style="stroke:black;fill:none;stroke-width:2.0;stroke-dasharray:-;stroke-linecap:round;stroke-linejoin:round;" /><path d="M 1601.9999999999998,2376.0 L 1649.6999999999998,2376.0 M 1662.2999999999997,2367.0 L 1662.2999999999997,2385.0 M 1662.2999999999997,2376.0 L 1709.9999999999998,2376.0" style="stroke:black;fill:none;stroke-width:2.0;stroke-dasharray:-;stroke-linecap:round;stroke-linejoin:round;" /><path d="M 1658.6999999999998,2362.5 L 1664.1277996438307,2353.001350623296" style="stroke:black;fill:none;stroke-width:2.0;stroke-dasharray:-;stroke-linecap:round;stroke-linejoin:round;" /><path d="M 1666.7077221232862 2348.4864862842487 L 1666.6283398931491 2354.430230765764 L 1661.6272593945123 2351.5724704808285 Z" style="stroke:black;fill:black;stroke-linecap:butt;stroke-linejoin:miter;" /><path d="M 1650.6,2362.5 L 1656.0277996438306,2353.001350623296" style="stroke:black;fill:none;stroke-width:2.0;stroke-dasharray:-;stroke-linecap:round;stroke-linejoin:round;" /><path d="M 1658.6077221232863 2348.4864862842487 L 1658.5283398931492 2354.430230765764 L 1653.5272593945124 2351.5724704808285 Z" style="stroke:black;fill:black;stroke-linecap:butt;stroke-linejoin:miter;" /><path d="M 1709.9999999999998,2376.0 L 1727.9999999999998,2376.0 L 1745.9999999999998,2376.0" style="stroke:black;fill:none;stroke-width:2.0;stroke-dasharray:-;stroke-linecap:round;stroke-linejoin:round;" /><path d="M 1745.9999999999998,2376.0 L 1745.9999999999998,2390.4 L 1736.9999999999998,2390.4 L 1754.9999999999998,2390.4 M 1739.6999999999998,2394.72 L 1752.2999999999997,2394.72 M 1744.1999999999998,2399.04 L 1747.7999999999997,2399.04" style="stroke:black;fill:none;stroke-width:2.0;stroke-dasharray:-;stroke-linecap:round;stroke-linejoin:round;" /><path d="M 1403.9999999999998,2448.0 L 1430.9999999999998,2448.0 L 1457.9999999999998,2448.0" style="stroke:black;fill:none;stroke-width:2.0;stroke-dasharray:-;stroke-linecap:round;stroke-linejoin:round;" /><path d="M 1457.9999999999998,2448.0 L 1493.9999999999998,2448.0 L 1496.9999999999998,2439.0 L 1502.9999999999998,2457.0 L 1508.9999999999995,2439.0 L 1514.9999999999998,2457.0 L 1520.9999999999998,2439.0 L 1526.9999999999995,2457.0 L 1529.9999999999998,2448.0 L 1565.9999999999998,2448.0" style="stroke:black;fill:none;stroke-width:2.0;stroke-dasharray:-;stroke-linecap:round;stroke-linejoin:round;" /><path d="M 1565.9999999999998,2448.0 L 1583.9999999999998,2448.0 L 1601.9999999999998,2448.0" style="stroke:black;fill:none;stroke-width:2.0;stroke-dasharray:-;stroke-linecap:round;stroke-linejoin:round;" /><path d="M 1601.9999999999998,2448.0 L 1649.6999999999998,2448.0 M 1662.2999999999997,2439.0 L 1662.2999999999997,2457.0 M 1662.2999999999997,2448.0 L 1709.9999999999998,2448.0" style="stroke:black;fill:none;stroke-width:2.0;stroke-dasharray:-;stroke-linecap:round;stroke-linejoin:round;" /><path d="M 1658.6999999999998,2434.5 L 1664.1277996438307,2425.001350623296" style="stroke:black;fill:none;stroke-width:2.0;stroke-dasharray:-;stroke-linecap:round;stroke-linejoin:round;" /><path d="M 1666.7077221232862 2420.4864862842487 L 1666.6283398931491 2426.430230765764 L 1661.6272593945123 2423.5724704808285 Z" style="stroke:black;fill:black;stroke-linecap:butt;stroke-linejoin:miter;" /><path d="M 1650.6,2434.5 L 1656.0277996438306,2425.001350623296" style="stroke:black;fill:none;stroke-width:2.0;stroke-dasharray:-;stroke-linecap:round;stroke-linejoin:round;" /><path d="M 1658.6077221232863 2420.4864862842487 L 1658.5283398931492 2426.430230765764 L 1653.5272593945124 2423.5724704808285 Z" style="stroke:black;fill:black;stroke-linecap:butt;stroke-linejoin:miter;" /><path d="M 1709.9999999999998,2448.0 L 1727.9999999999998,2448.0 L 1745.9999999999998,2448.0" style="stroke:black;fill:none;stroke-width:2.0;stroke-dasharray:-;stroke-linecap:round;stroke-linejoin:round;" /><path d="M 1745.9999999999998,2448.0 L 1745.9999999999998,2462.4 L 1736.9999999999998,2462.4 L 1754.9999999999998,2462.4 M 1739.6999999999998,2466.72 L 1752.2999999999997,2466.72 M 1744.1999999999998,2471.04 L 1747.7999999999997,2471.04" style="stroke:black;fill:none;stroke-width:2.0;stroke-dasharray:-;stroke-linecap:round;stroke-linejoin:round;" /><text x="3.6" y="-23.6" dominant-baseline="central" fill="black" font-size="20" font-family="sans" text-anchor="middle"><tspan x="3.6" dy="20">PRISME BOTTOM BOARD (OUTPUT BOARD)</tspan></text><text x="3.5999999999999797" y="95.60000000000001" dominant-baseline="central" fill="black" font-size="16" font-family="sans" text-anchor="middle"><tspan x="3.5999999999999797" dy="16">━━━ POWER RAILS ━━━</tspan></text><text x="3.599999999999973" y="136.6" dominant-baseline="hanging" fill="black" font-size="11" font-family="sans" text-anchor="middle"><tspan x="3.599999999999973" dy="11">5V from header (C1 47µF, C2 0.1µF) | 3.3V from header (C9 10µF, C10 0.1µF)</tspan></text><text x="3.599999999999947" y="275.59999999999997" dominant-baseline="central" fill="black" font-size="16" font-family="sans" text-anchor="middle"><tspan x="3.599999999999947" dy="16">━━━ CV OUTPUT (MCP4728 Channel A) ━━━</tspan></text><text x="161.99999999999994" y="336.40000000000003" dominant-baseline="ideographic" fill="black" font-size="11" font-family="sans" text-anchor="middle"><tspan x="161.99999999999994" dy="11">R1 100Ω</tspan></text><text x="233.99999999999994" y="402.59999999999997" dominant-baseline="central" fill="black" font-size="10" font-family="sans" text-anchor="middle"><tspan x="233.99999999999994" dy="10">C6</tspan><tspan x="233.99999999999994" dy="10">100nF</tspan></text><text x="3.5999999999998873" y="604.6" dominant-baseline="hanging" fill="black" font-size="11" font-family="sans" text-anchor="middle"><tspan x="3.5999999999998873" dy="11">CV LED:</tspan></text><text x="125.99999999999987" y="624.4" dominant-baseline="ideographic" fill="black" font-size="11" font-family="sans" text-anchor="middle"><tspan x="125.99999999999987" dy="11">R7 220Ω</tspan></text><text x="269.9999999999999" y="598.39" dominant-baseline="ideographic" fill="black" font-size="11" font-family="sans" text-anchor="middle"><tspan x="269.9999999999999" dy="11">White</tspan></text><text x="363.59999999999985" y="779.6" dominant-baseline="central" fill="black" font-size="16" font-family="sans" text-anchor="middle"><tspan x="363.59999999999985" dy="16">━━━ TRIG OUTPUT (MCP4728 Channel B) - Dual Mode ━━━</tspan></text><text x="363.59999999999985" y="856.6" dominant-baseline="hanging" fill="black" font-size="11" font-family="sans" text-anchor="middle"><tspan x="363.59999999999985" dy="11">V-Trig (D10=LOW):</tspan></text><text x="521.9999999999999" y="876.4" dominant-baseline="ideographic" fill="black" font-size="11" font-family="sans" text-anchor="middle"><tspan x="521.9999999999999" dy="11">R2 100Ω</tspan></text><text x="363.5999999999998" y="1036.6000000000001" dominant-baseline="hanging" fill="black" font-size="11" font-family="sans" text-anchor="middle"><tspan x="363.5999999999998" dy="11">S-Trig (D10=HIGH):</tspan></text><text x="485.99999999999983" y="1056.3999999999999" dominant-baseline="ideographic" fill="black" font-size="11" font-family="sans" text-anchor="middle"><tspan x="485.99999999999983" dy="11">R5 1kΩ</tspan></text><text x="625.5299999999997" y="1099.28" dominant-baseline="hanging" fill="black" font-size="10" font-family="sans" text-anchor="middle"><tspan x="625.5299999999997" dy="10">Q1</tspan><tspan x="625.5299999999997" dy="10">2N3904</tspan></text><text x="711.0599999999997" y="967.52" dominant-baseline="ideographic" fill="black" font-size="10" font-family="sans" text-anchor="middle"><tspan x="711.0599999999997" dy="10">R6 100Ω</tspan></text><text x="363.59999999999974" y="1396.6000000000001" dominant-baseline="hanging" fill="black" font-size="11" font-family="sans" text-anchor="middle"><tspan x="363.59999999999974" dy="11">TRIG RGB LED:</tspan></text><text x="467.9999999999998" y="1417.3999999999999" dominant-baseline="ideographic" fill="black" font-size="10" font-family="sans" text-anchor="middle"><tspan x="467.9999999999998" dy="10">R11 220Ω</tspan></text><text x="611.9999999999998" y="1391.39" dominant-baseline="ideographic" fill="black" font-size="10" font-family="sans" text-anchor="middle"><tspan x="611.9999999999998" dy="10">RED</tspan></text><text x="467.9999999999998" y="1489.3999999999999" dominant-baseline="ideographic" fill="black" font-size="10" font-family="sans" text-anchor="middle"><tspan x="467.9999999999998" dy="10">R12 220Ω</tspan></text><text x="611.9999999999998" y="1463.39" dominant-baseline="ideographic" fill="black" font-size="10" font-family="sans" text-anchor="middle"><tspan x="611.9999999999998" dy="10">GREEN</tspan></text><text x="809.9999999999998" y="1633.3999999999999" dominant-baseline="ideographic" fill="black" font-size="10" font-family="sans" text-anchor="middle"><tspan x="809.9999999999998" dy="10">R13 220Ω</tspan></text><text x="953.9999999999998" y="1607.39" dominant-baseline="ideographic" fill="black" font-size="10" font-family="sans" text-anchor="middle"><tspan x="953.9999999999998" dy="10">BLUE</tspan></text><text x="1047.6" y="1787.6000000000001" dominant-baseline="central" fill="black" font-size="16" font-family="sans" text-anchor="middle"><tspan x="1047.6" dy="16">━━━ CC OUTPUT (MCP4728 Channel C) ━━━</tspan></text><text x="1205.9999999999998" y="1848.3999999999999" dominant-baseline="ideographic" fill="black" font-size="11" font-family="sans" text-anchor="middle"><tspan x="1205.9999999999998" dy="11">R3 100Ω</tspan></text><text x="1277.9999999999998" y="1914.6000000000001" dominant-baseline="central" fill="black" font-size="10" font-family="sans" text-anchor="middle"><tspan x="1277.9999999999998" dy="10">C7</tspan><tspan x="1277.9999999999998" dy="10">100nF</tspan></text><text x="1047.6" y="2116.6" dominant-baseline="hanging" fill="black" font-size="11" font-family="sans" text-anchor="middle"><tspan x="1047.6" dy="11">CC LED:</tspan></text><text x="1169.9999999999998" y="2136.4" dominant-baseline="ideographic" fill="black" font-size="11" font-family="sans" text-anchor="middle"><tspan x="1169.9999999999998" dy="11">R8 220Ω</tspan></text><text x="1313.9999999999998" y="2110.39" dominant-baseline="ideographic" fill="black" font-size="11" font-family="sans" text-anchor="middle"><tspan x="1313.9999999999998" dy="11">White</tspan></text><text x="1407.6" y="2291.6" dominant-baseline="central" fill="black" font-size="16" font-family="sans" text-anchor="middle"><tspan x="1407.6" dy="16">━━━ MIDI INDICATORS ━━━</tspan></text><text x="1511.9999999999998" y="2353.4" dominant-baseline="ideographic" fill="black" font-size="10" font-family="sans" text-anchor="middle"><tspan x="1511.9999999999998" dy="10">R9 220Ω</tspan></text><text x="1655.9999999999998" y="2327.39" dominant-baseline="ideographic" fill="black" font-size="10" font-family="sans" text-anchor="middle"><tspan x="1655.9999999999998" dy="10">MIDI OUT</tspan></text><text x="1511.9999999999998" y="2425.4" dominant-baseline="ideographic" fill="black" font-size="10" font-family="sans" text-anchor="middle"><tspan x="1511.9999999999998" dy="10">R10 220Ω</tspan></text><text x="1655.9999999999998" y="2399.39" dominant-baseline="ideographic" fill="black" font-size="10" font-family="sans" text-anchor="middle"><tspan x="1655.9999999999998" dy="10">MIDI IN</tspan></text><text x="1749.6" y="2549.6" dominant-baseline="central" fill="black" font-size="10" font-family="sans" text-anchor="middle"><tspan x="1749.6" dy="10">OPERATION: MCP4728 I2C DAC (0x60), 0-5V outputs | V-Trig: direct | S-Trig: NPN pulls to GND | RGB: GREEN=V-Trig, RED=S-Trig</tspan></text><circle cx="-6.613092715395707e-14" cy="360.0" r="2.6999999999999997" style="stroke:black;fill:black;stroke-width:2.0;stroke-dasharray:-;" /><text x="-6.613092715395707e-14" y="329.7" dominant-baseline="ideographic" fill="black" font-size="12" font-family="sans" text-anchor="middle"><tspan x="-6.613092715395707e-14" dy="12">CH_A</tspan><tspan x="-6.613092715395707e-14" dy="12">0-5V</tspan></text><circle cx="251.99999999999994" cy="360.0" r="2.6999999999999997" style="stroke:black;fill:black;stroke-width:2.0;stroke-dasharray:-;" /><circle cx="359.99999999999994" cy="360.0" r="2.6999999999999997" style="stroke:black;fill:black;stroke-width:2.0;stroke-dasharray:-;" /><text x="366.29999999999995" y="348.0" dominant-baseline="central" fill="black" font-size="12" font-family="sans" text-anchor="start"><tspan x="366.29999999999995" dy="12">CV OUT</tspan></text><circle cx="-1.1903566887712272e-13" cy="648.0" r="2.6999999999999997" style="stroke:black;fill:black;stroke-width:2.0;stroke-dasharray:-;" /><text x="-6.300000000000119" y="638.0" dominant-baseline="central" fill="black" font-size="10" font-family="sans" text-anchor="end"><tspan x="-6.300000000000119" dy="10">D12</tspan></text><circle cx="359.9999999999999" cy="900.0" r="2.6999999999999997" style="stroke:black;fill:black;stroke-width:2.0;stroke-dasharray:-;" /><text x="359.9999999999999" y="869.6999999999999" dominant-baseline="ideographic" fill="black" font-size="12" font-family="sans" text-anchor="middle"><tspan x="359.9999999999999" dy="12">CH_B</tspan><tspan x="359.9999999999999" dy="12">0-5V</tspan></text><circle cx="791.9999999999999" cy="900.0" r="2.6999999999999997" style="stroke:black;fill:black;stroke-width:2.0;stroke-dasharray:-;" /><text x="798.3" y="888.0" dominant-baseline="central" fill="black" font-size="12" font-family="sans" text-anchor="start"><tspan x="798.3" dy="12">TRIG OUT</tspan></text><circle cx="359.99999999999983" cy="1080.0" r="2.6999999999999997" style="stroke:black;fill:black;stroke-width:2.0;stroke-dasharray:-;" /><text x="353.69999999999976" y="1070.0" dominant-baseline="central" fill="black" font-size="10" font-family="sans" text-anchor="end"><tspan x="353.69999999999976" dy="10">D10</tspan></text><circle cx="765.0599999999997" cy="918.12" r="2.6999999999999997" style="stroke:black;fill:black;stroke-width:2.0;stroke-dasharray:-;" /><text x="771.3599999999997" y="908.12" dominant-baseline="central" fill="black" font-size="10" font-family="sans" text-anchor="start"><tspan x="771.3599999999997" dy="10">↑</tspan></text><circle cx="359.9999999999998" cy="1440.0" r="2.6999999999999997" style="stroke:black;fill:black;stroke-width:2.0;stroke-dasharray:-;" /><text x="353.6999999999997" y="1430.0" dominant-baseline="central" fill="black" font-size="10" font-family="sans" text-anchor="end"><tspan x="353.6999999999997" dy="10">A0</tspan></text><circle cx="359.9999999999998" cy="1512.0" r="2.6999999999999997" style="stroke:black;fill:black;stroke-width:2.0;stroke-dasharray:-;" /><text x="353.6999999999997" y="1502.0" dominant-baseline="central" fill="black" font-size="10" font-family="sans" text-anchor="end"><tspan x="353.6999999999997" dy="10">A1</tspan></text><circle cx="701.9999999999998" cy="1656.0" r="2.6999999999999997" style="stroke:black;fill:black;stroke-width:2.0;stroke-dasharray:-;" /><text x="695.6999999999997" y="1646.0" dominant-baseline="central" fill="black" font-size="10" font-family="sans" text-anchor="end"><tspan x="695.6999999999997" dy="10">A2</tspan></text><circle cx="1043.9999999999998" cy="1872.0" r="2.6999999999999997" style="stroke:black;fill:black;stroke-width:2.0;stroke-dasharray:-;" /><text x="1043.9999999999998" y="1841.7" dominant-baseline="ideographic" fill="black" font-size="12" font-family="sans" text-anchor="middle"><tspan x="1043.9999999999998" dy="12">CH_C</tspan><tspan x="1043.9999999999998" dy="12">0-5V</tspan></text><circle cx="1295.9999999999998" cy="1872.0" r="2.6999999999999997" style="stroke:black;fill:black;stroke-width:2.0;stroke-dasharray:-;" /><circle cx="1403.9999999999998" cy="1872.0" r="2.6999999999999997" style="stroke:black;fill:black;stroke-width:2.0;stroke-dasharray:-;" /><text x="1410.2999999999997" y="1860.0" dominant-baseline="central" fill="black" font-size="12" font-family="sans" text-anchor="start"><tspan x="1410.2999999999997" dy="12">CC OUT</tspan></text><circle cx="1043.9999999999998" cy="2160.0" r="2.6999999999999997" style="stroke:black;fill:black;stroke-width:2.0;stroke-dasharray:-;" /><text x="1037.6999999999998" y="2150.0" dominant-baseline="central" fill="black" font-size="10" font-family="sans" text-anchor="end"><tspan x="1037.6999999999998" dy="10">D25</tspan></text><circle cx="1403.9999999999998" cy="2376.0" r="2.6999999999999997" style="stroke:black;fill:black;stroke-width:2.0;stroke-dasharray:-;" /><text x="1397.6999999999998" y="2366.0" dominant-baseline="central" fill="black" font-size="10" font-family="sans" text-anchor="end"><tspan x="1397.6999999999998" dy="10">CAN_TX</tspan></text><circle cx="1403.9999999999998" cy="2448.0" r="2.6999999999999997" style="stroke:black;fill:black;stroke-width:2.0;stroke-dasharray:-;" /><text x="1397.6999999999998" y="2438.0" dominant-baseline="central" fill="black" font-size="10" font-family="sans" text-anchor="end"><tspan x="1397.6999999999998" dy="10">A5</tspan></text></svg>