<svg xmlns="http://www.w3.org/2000/svg" xmlns:xlink="http://www.w3.org/1999/xlink" xml:lang="en" height="763.24pt" width="1234.3400000000001pt" viewBox="-4.6 -33.6 1234.3400000000001 763.24"><polygon points="261.0,168.29999999999998 270.0,155.70000000000002 279.0,168.29999999999998 " style="stroke:black;fill:none;stroke-width:2.0;stroke-dasharray:-;stroke-linecap:round;stroke-linejoin:round;" /><polygon points="261.0,393.3 270.0,380.7 279.0,393.3 " style="stroke:black;fill:none;stroke-width:2.0;stroke-dasharray:-;stroke-linecap:round;stroke-linejoin:round;" /><polygon points="90.0,180.0 198.0,180.0 198.0,82.8 90.0,82.8 " style="stroke:black;fill:none;stroke-width:2.0;stroke-dasharray:-;stroke-linecap:round;stroke-linejoin:round;" /><polygon points="90.0,162.0 90.0,140.4 68.39999999999999,140.4 68.39999999999999,162.0 " style="stroke:black;fill:none;stroke-width:2.0;stroke-dasharray:-;stroke-linecap:round;stroke-linejoin:round;" /><polygon points="198.0,162.0 198.0,140.4 219.6,140.4 219.6,162.0 " style="stroke:black;fill:none;stroke-width:2.0;stroke-dasharray:-;stroke-linecap:round;stroke-linejoin:round;" /><polygon points="90.0,122.39999999999999 90.0,100.8 68.39999999999999,100.8 68.39999999999999,122.39999999999999 " style="stroke:black;fill:none;stroke-width:2.0;stroke-dasharray:-;stroke-linecap:round;stroke-linejoin:round;" /><polygon points="198.0,122.39999999999999 198.0,100.8 219.6,100.8 219.6,122.39999999999999 " style="stroke:black;fill:none;stroke-width:2.0;stroke-dasharray:-;stroke-linecap:round;stroke-linejoin:round;" /><polygon points="450.0,364.5 558.0,364.5 558.0,188.1 450.0,188.1 " style="stroke:black;fill:none;stroke-width:2.0;stroke-dasharray:-;stroke-linecap:round;stroke-linejoin:round;" /><polygon points="450.0,346.5 450.0,324.90000000000003 428.40000000000003,324.90000000000003 428.40000000000003,346.5 " style="stroke:black;fill:none;stroke-width:2.0;stroke-dasharray:-;stroke-linecap:round;stroke-linejoin:round;" /><polygon points="558.0,346.5 558.0,324.90000000000003 579.6,324.90000000000003 579.6,346.5 " style="stroke:black;fill:none;stroke-width:2.0;stroke-dasharray:-;stroke-linecap:round;stroke-linejoin:round;" /><polygon points="450.0,306.90000000000003 450.0,285.3 428.40000000000003,285.3 428.40000000000003,306.90000000000003 " style="stroke:black;fill:none;stroke-width:2.0;stroke-dasharray:-;stroke-linecap:round;stroke-linejoin:round;" /><polygon points="558.0,306.90000000000003 558.0,285.3 579.6,285.3 579.6,306.90000000000003 " style="stroke:black;fill:none;stroke-width:2.0;stroke-dasharray:-;stroke-linecap:round;stroke-linejoin:round;" /><polygon points="450.0,267.3 450.0,245.70000000000002 428.40000000000003,245.70000000000002 428.40000000000003,267.3 " style="stroke:black;fill:none;stroke-width:2.0;stroke-dasharray:-;stroke-linecap:round;stroke-linejoin:round;" /><polygon points="558.0,267.3 558.0,245.70000000000002 579.6,245.70000000000002 579.6,267.3 " style="stroke:black;fill:none;stroke-width:2.0;stroke-dasharray:-;stroke-linecap:round;stroke-linejoin:round;" /><polygon points="450.0,227.70000000000002 450.0,206.1 428.40000000000003,206.1 428.40000000000003,227.70000000000002 " style="stroke:black;fill:none;stroke-width:2.0;stroke-dasharray:-;stroke-linecap:round;stroke-linejoin:round;" /><polygon points="558.0,227.70000000000002 558.0,206.1 579.6,206.1 579.6,227.70000000000002 " style="stroke:black;fill:none;stroke-width:2.0;stroke-dasharray:-;stroke-linecap:round;stroke-linejoin:round;" /><polygon points="675.0,364.5 783.0,364.5 783.0,188.1 675.0,188.1 " style="stroke:black;fill:none;stroke-width:2.0;stroke-dasharray:-;stroke-linecap:round;stroke-linejoin:round;" /><polygon points="675.0,346.5 675.0,324.90000000000003 653.4,324.90000000000003 653.4,346.5 " style="stroke:black;fill:none;stroke-width:2.0;stroke-dasharray:-;stroke-linecap:round;stroke-linejoin:round;" /><polygon points="783.0,346.5 783.0,324.90000000000003 804.6,324.90000000000003 804.6,346.5 " style="stroke:black;fill:none;stroke-width:2.0;stroke-dasharray:-;stroke-linecap:round;stroke-linejoin:round;" /><polygon points="675.0,306.90000000000003 675.0,285.3 653.4,285.3 653.4,306.90000000000003 " style="stroke:black;fill:none;stroke-width:2.0;stroke-dasharray:-;stroke-linecap:round;stroke-linejoin:round;" /><polygon points="783.0,306.90000000000003 783.0,285.3 804.6,285.3 804.6,306.90000000000003 " style="stroke:black;fill:none;stroke-width:2.0;stroke-dasharray:-;stroke-linecap:round;stroke-linejoin:round;" /><polygon points="675.0,267.3 675.0,245.70000000000002 653.4,245.70000000000002 653.4,267.3 " style="stroke:black;fill:none;stroke-width:2.0;stroke-dasharray:-;stroke-linecap:round;stroke-linejoin:round;" /><polygon points="783.0,267.3 783.0,245.70000000000002 804.6,245.70000000000002 804.6,267.3 " style="stroke:black;fill:none;stroke-width:2.0;stroke-dasharray:-;stroke-linecap:round;stroke-linejoin:round;" /><polygon points="675.0,227.70000000000002 675.0,206.1 653.4,206.1 653.4,227.70000000000002 " style="stroke:black;fill:none;stroke-width:2.0;stroke-dasharray:-;stroke-linecap:round;stroke-linejoin:round;" /><polygon points="783.0,227.70000000000002 783.0,206.1 804.6,206.1 804.6,227.70000000000002 " style="stroke:black;fill:none;stroke-width:2.0;stroke-dasharray:-;stroke-linecap:round;stroke-linejoin:round;" /><polygon points="1028.7,220.5 1041.3,229.5 1028.7,238.5 " style="stroke:black;fill:none;stroke-width:2.0;stroke-dasharray:-;stroke-linecap:round;stroke-linejoin:round;" /><polygon points="1028.7,310.5 1041.3,319.5 1028.7,328.5 " style="stroke:black;fill:none;stroke-width:2.0;stroke-dasharray:-;stroke-linecap:round;stroke-linejoin:round;" /><polygon points="1028.7,400.5 1041.3,409.5 1028.7,418.5 " style="stroke:black;fill:none;stroke-width:2.0;stroke-dasharray:-;stroke-linecap:round;stroke-linejoin:round;" /><polygon points="1028.7,490.5 1041.3,499.5 1028.7,508.5 " style="stroke:black;fill:none;stroke-width:2.0;stroke-dasharray:-;stroke-linecap:round;stroke-linejoin:round;" /><circle cx="1009.8000000000001" cy="634.5" r="19.8" style="stroke:black;fill:none;stroke-width:2.0;stroke-dasharray:-;" /><path d="M 0.0,-0.0 L 540.0,-0.0 L 1080.0,-0.0" style="stroke:black;fill:none;stroke-width:2.0;stroke-dasharray:-;stroke-linecap:round;stroke-linejoin:round;" /><path d="M 1080.0,-0.0 L 1080.0,-14.4" style="stroke:black;fill:none;stroke-width:2.0;stroke-dasharray:-;stroke-linecap:round;stroke-linejoin:round;" /><path d="M 1080.0,-14.4 L 1073.25,-14.4" style="stroke:black;fill:none;stroke-width:2.0;stroke-dasharray:-;stroke-linecap:round;stroke-linejoin:round;" /><path d="M 1080.0,-14.4 L 1086.75,-14.4" style="stroke:black;fill:none;stroke-width:2.0;stroke-dasharray:-;stroke-linecap:round;stroke-linejoin:round;" /><path d="M 0.0,72.0 L 540.0,72.0 L 1080.0,72.0" style="stroke:black;fill:none;stroke-width:2.0;stroke-dasharray:-;stroke-linecap:round;stroke-linejoin:round;" /><path d="M 1080.0,72.0 L 1080.0,57.6" style="stroke:black;fill:none;stroke-width:2.0;stroke-dasharray:-;stroke-linecap:round;stroke-linejoin:round;" /><path d="M 1080.0,57.6 L 1073.25,57.6" style="stroke:black;fill:none;stroke-width:2.0;stroke-dasharray:-;stroke-linecap:round;stroke-linejoin:round;" /><path d="M 1080.0,57.6 L 1086.75,57.6" style="stroke:black;fill:none;stroke-width:2.0;stroke-dasharray:-;stroke-linecap:round;stroke-linejoin:round;" /><path d="M 90.0,207.0 L 117.0,207.0 L 120.0,198.0 L 126.0,216.0 L 132.0,198.0 L 138.0,216.0 L 144.0,198.0 L 149.99999999999997,216.0 L 153.0,207.0 L 180.0,207.0" style="stroke:black;fill:none;stroke-width:2.0;stroke-dasharray:-;stroke-linecap:round;stroke-linejoin:round;" /><path d="M 180.0,207.0 L 180.0,234.0 L 189.0,237.0 L 171.0,243.0 L 189.0,248.99999999999997 L 171.0,255.0 L 189.0,261.0 L 171.0,267.0 L 180.0,270.0 L 179.99999999999997,297.0" style="stroke:black;fill:none;stroke-width:2.0;stroke-dasharray:-;stroke-linecap:round;stroke-linejoin:round;" /><path d="M 180.0,207.0 L 225.0,207.0 L 270.0,207.0" style="stroke:black;fill:none;stroke-width:2.0;stroke-dasharray:-;stroke-linecap:round;stroke-linejoin:round;" /><path d="M 270.0,207.0 L 270.0,168.29999999999998 M 261.0,155.70000000000002 L 279.0,155.70000000000002 M 270.0,155.70000000000002 L 270.0,117.0" style="stroke:black;fill:none;stroke-width:2.0;stroke-dasharray:-;stroke-linecap:round;stroke-linejoin:round;" /><path d="M 270.0,117.0 L 270.0,94.5 L 270.0,72.0" style="stroke:black;fill:none;stroke-width:2.0;stroke-dasharray:-;stroke-linecap:round;stroke-linejoin:round;" /><path d="M 270.0,207.0 L 315.0,207.0 L 360.0,207.0" style="stroke:black;fill:none;stroke-width:2.0;stroke-dasharray:-;stroke-linecap:round;stroke-linejoin:round;" /><path d="M 90.0,432.0 L 117.0,432.0 L 120.0,423.0 L 126.0,441.0 L 132.0,423.0 L 138.0,441.0 L 144.0,423.0 L 149.99999999999997,441.0 L 153.0,432.0 L 180.0,432.0" style="stroke:black;fill:none;stroke-width:2.0;stroke-dasharray:-;stroke-linecap:round;stroke-linejoin:round;" /><path d="M 180.0,432.0 L 180.0,459.0 L 189.0,462.0 L 171.0,468.0 L 189.0,474.0 L 171.0,480.0 L 189.0,486.0 L 171.0,492.0 L 180.0,495.0 L 179.99999999999997,522.0" style="stroke:black;fill:none;stroke-width:2.0;stroke-dasharray:-;stroke-linecap:round;stroke-linejoin:round;" /><path d="M 180.0,432.0 L 225.0,432.0 L 270.0,432.0" style="stroke:black;fill:none;stroke-width:2.0;stroke-dasharray:-;stroke-linecap:round;stroke-linejoin:round;" /><path d="M 270.0,432.0 L 270.0,393.3 M 261.0,380.7 L 279.0,380.7 M 270.0,380.7 L 270.0,342.0" style="stroke:black;fill:none;stroke-width:2.0;stroke-dasharray:-;stroke-linecap:round;stroke-linejoin:round;" /><path d="M 270.0,342.0 L 270.0,207.0 L 270.00000000000006,72.0" style="stroke:black;fill:none;stroke-width:2.0;stroke-dasharray:-;stroke-linecap:round;stroke-linejoin:round;" /><path d="M 270.0,432.0 L 315.0,432.0 L 360.0,432.0" style="stroke:black;fill:none;stroke-width:2.0;stroke-dasharray:-;stroke-linecap:round;stroke-linejoin:round;" /><path d="M 133.20000000000002,82.8 L 133.22218975829637,83.4919583757917 L 133.28866785070895,84.18107334619266 L 133.3991611044965,84.86451318997482 L 133.55321547917848,85.53946950622267 L 133.75019793228478,86.2031687546551 L 133.98929902066297,86.85288365269724 L 134.26953622665388,87.48594438246963 L 134.58975799546738,88.09974956164251 L 134.9486484671681,88.69177693307392 L 135.34473288382608,89.25959372930514 L 135.77638364961336,89.80086666932411 L 136.24182701894455,90.31337154651766 L 136.73915038517777,90.79500236841339 L 137.26631013992568,91.24378001065472 L 137.82114007068057,91.65786034964711 L 138.40136026224633,92.03554184045774 L 139.00458646539897,92.3752725088284 L 139.62833989427813,92.67565632857077 L 140.27005741224988,92.93545895813742 L 140.92710206438485,93.15361281279593 L 141.5967739132718,93.3292214515637 L 142.2763211336395,93.46156326087606 L 142.96295132019702,93.55009441985135 L 143.65384296222612,93.59445113496743 L 144.34615703777388,93.59445113496743 L 145.03704867980298,93.55009441985135 L 145.7236788663605,93.46156326087606 L 146.40322608672818,93.3292214515637 L 147.07289793561515,93.15361281279593 L 147.72994258775012,92.93545895813742 L 148.37166010572187,92.67565632857077 L 148.99541353460103,92.3752725088284 L 149.59863973775367,92.03554184045774 L 150.17885992931943,91.65786034964712 L 150.73368986007432,91.24378001065472 L 151.26084961482223,90.79500236841339 L 151.75817298105545,90.31337154651766 L 152.22361635038664,89.80086666932411 L 152.65526711617395,89.25959372930514 L 153.05135153283186,88.69177693307392 L 153.41024200453262,88.09974956164253 L 153.73046377334614,87.48594438246963 L 154.01070097933703,86.85288365269724 L 154.2498020677152,86.2031687546551 L 154.44678452082152,85.53946950622269 L 154.60083889550353,84.86451318997482 L 154.71133214929105,84.18107334619266 L 154.77781024170363,83.4919583757917 L 154.79999999999998,82.8" style="stroke:black;fill:none;stroke-width:2.0;stroke-dasharray:-;stroke-linecap:round;stroke-linejoin:round;" /><path d="M 493.2,188.1 L 493.2221897582964,188.79195837579167 L 493.2886678507089,189.48107334619263 L 493.3991611044965,190.16451318997483 L 493.55321547917845,190.83946950622268 L 493.7501979322848,191.5031687546551 L 493.98929902066294,192.15288365269723 L 494.2695362266538,192.7859443824696 L 494.5897579954674,193.39974956164252 L 494.94864846716814,193.9917769330739 L 495.3447328838261,194.55959372930513 L 495.77638364961336,195.10086666932412 L 496.2418270189445,195.61337154651764 L 496.7391503851778,196.09500236841342 L 497.2663101399257,196.54378001065473 L 497.82114007068054,196.9578603496471 L 498.4013602622463,197.33554184045772 L 499.00458646539903,197.67527250882839 L 499.62833989427816,197.97565632857078 L 500.2700574122499,198.2354589581374 L 500.9271020643849,198.4536128127959 L 501.5967739132718,198.6292214515637 L 502.2763211336395,198.76156326087604 L 502.962951320197,198.85009441985133 L 503.6538429622261,198.8944511349674 L 504.3461570377739,198.8944511349674 L 505.037048679803,198.85009441985133 L 505.7236788663605,198.76156326087604 L 506.4032260867282,198.6292214515637 L 507.0728979356151,198.4536128127959 L 507.7299425877501,198.2354589581374 L 508.37166010572184,197.97565632857078 L 508.9954135346011,197.67527250882839 L 509.5986397377537,197.33554184045772 L 510.17885992931946,196.9578603496471 L 510.7336898600743,196.54378001065473 L 511.2608496148222,196.09500236841342 L 511.7581729810555,195.61337154651764 L 512.2236163503867,195.10086666932412 L 512.655267116174,194.55959372930513 L 513.0513515328319,193.9917769330739 L 513.4102420045326,193.39974956164252 L 513.7304637733462,192.7859443824696 L 514.010700979337,192.15288365269723 L 514.2498020677152,191.5031687546551 L 514.4467845208216,190.83946950622268 L 514.6008388955036,190.16451318997483 L 514.7113321492911,189.48107334619263 L 514.7778102417036,188.79195837579167 L 514.8000000000001,188.1" style="stroke:black;fill:none;stroke-width:2.0;stroke-dasharray:-;stroke-linecap:round;stroke-linejoin:round;" /><path d="M 718.1999999999999,188.1 L 718.2221897582964,188.79195837579167 L 718.2886678507089,189.48107334619263 L 718.3991611044966,190.16451318997483 L 718.5532154791786,190.83946950622268 L 718.7501979322848,191.5031687546551 L 718.989299020663,192.15288365269723 L 719.2695362266538,192.7859443824696 L 719.5897579954674,193.39974956164252 L 719.948648467168,193.9917769330739 L 720.344732883826,194.55959372930513 L 720.7763836496133,195.10086666932412 L 721.2418270189445,195.61337154651764 L 721.7391503851778,196.09500236841342 L 722.2663101399256,196.54378001065473 L 722.8211400706805,196.9578603496471 L 723.4013602622463,197.33554184045772 L 724.0045864653989,197.67527250882839 L 724.6283398942782,197.97565632857078 L 725.2700574122498,198.2354589581374 L 725.9271020643848,198.4536128127959 L 726.5967739132718,198.6292214515637 L 727.2763211336395,198.76156326087604 L 727.9629513201971,198.85009441985133 L 728.6538429622262,198.8944511349674 L 729.3461570377738,198.8944511349674 L 730.0370486798029,198.85009441985133 L 730.7236788663605,198.76156326087604 L 731.4032260867282,198.6292214515637 L 732.0728979356152,198.4536128127959 L 732.7299425877502,198.2354589581374 L 733.3716601057218,197.97565632857078 L 733.9954135346011,197.67527250882839 L 734.5986397377537,197.33554184045772 L 735.1788599293195,196.9578603496471 L 735.7336898600744,196.54378001065473 L 736.2608496148222,196.09500236841342 L 736.7581729810555,195.61337154651764 L 737.2236163503867,195.10086666932412 L 737.655267116174,194.55959372930513 L 738.051351532832,193.9917769330739 L 738.4102420045326,193.39974956164252 L 738.7304637733462,192.7859443824696 L 739.010700979337,192.15288365269723 L 739.2498020677152,191.5031687546551 L 739.4467845208214,190.83946950622268 L 739.6008388955034,190.16451318997483 L 739.7113321492911,189.48107334619263 L 739.7778102417036,188.79195837579167 L 739.8000000000001,188.1" style="stroke:black;fill:none;stroke-width:2.0;stroke-dasharray:-;stroke-linecap:round;stroke-linejoin:round;" /><path d="M 900.0,229.5 L 927.0,229.5 L 930.0,220.5 L 936.0,238.5 L 942.0,220.5 L 948.0,238.5 L 954.0,220.5 L 960.0,238.5 L 963.0,229.5 L 990.0,229.5" style="stroke:black;fill:none;stroke-width:2.0;stroke-dasharray:-;stroke-linecap:round;stroke-linejoin:round;" /><path d="M 990.0,229.5 L 1028.7,229.5 M 1041.3,220.5 L 1041.3,238.5 M 1041.3,229.5 L 1080.0,229.5" style="stroke:black;fill:none;stroke-width:2.0;stroke-dasharray:-;stroke-linecap:round;stroke-linejoin:round;" /><path d="M 1037.7,216.0 L 1043.1277996438307,206.5013506232961" style="stroke:black;fill:none;stroke-width:2.0;stroke-dasharray:-;stroke-linecap:round;stroke-linejoin:round;" /><path d="M 1045.7077221232864 201.9864862842489 L 1045.6283398931494 207.93023076576378 L 1040.6272593945125 205.07247048082843 Z" style="stroke:black;fill:black;stroke-linecap:butt;stroke-linejoin:miter;" /><path d="M 1029.6000000000001,216.0 L 1035.0277996438308,206.5013506232961" style="stroke:black;fill:none;stroke-width:2.0;stroke-dasharray:-;stroke-linecap:round;stroke-linejoin:round;" /><path d="M 1037.6077221232865 201.9864862842489 L 1037.5283398931495 207.93023076576378 L 1032.5272593945126 205.07247048082843 Z" style="stroke:black;fill:black;stroke-linecap:butt;stroke-linejoin:miter;" /><path d="M 1080.0,229.5 L 1125.0,229.5 L 1170.0,229.5" style="stroke:black;fill:none;stroke-width:2.0;stroke-dasharray:-;stroke-linecap:round;stroke-linejoin:round;" /><path d="M 900.0,319.5 L 927.0,319.5 L 930.0,310.5 L 936.0,328.5 L 942.0,310.5 L 948.0,328.5 L 954.0,310.5 L 960.0,328.5 L 963.0,319.5 L 990.0,319.5" style="stroke:black;fill:none;stroke-width:2.0;stroke-dasharray:-;stroke-linecap:round;stroke-linejoin:round;" /><path d="M 990.0,319.5 L 1028.7,319.5 M 1041.3,310.5 L 1041.3,328.5 M 1041.3,319.5 L 1080.0,319.5" style="stroke:black;fill:none;stroke-width:2.0;stroke-dasharray:-;stroke-linecap:round;stroke-linejoin:round;" /><path d="M 1037.7,306.0 L 1043.1277996438307,296.50135062329616" style="stroke:black;fill:none;stroke-width:2.0;stroke-dasharray:-;stroke-linecap:round;stroke-linejoin:round;" /><path d="M 1045.7077221232864 291.98648628424894 L 1045.6283398931494 297.93023076576384 L 1040.6272593945125 295.07247048082843 Z" style="stroke:black;fill:black;stroke-linecap:butt;stroke-linejoin:miter;" /><path d="M 1029.6000000000001,306.0 L 1035.0277996438308,296.50135062329616" style="stroke:black;fill:none;stroke-width:2.0;stroke-dasharray:-;stroke-linecap:round;stroke-linejoin:round;" /><path d="M 1037.6077221232865 291.98648628424894 L 1037.5283398931495 297.93023076576384 L 1032.5272593945126 295.07247048082843 Z" style="stroke:black;fill:black;stroke-linecap:butt;stroke-linejoin:miter;" /><path d="M 1080.0,319.5 L 1125.0,319.5 L 1170.0,319.5" style="stroke:black;fill:none;stroke-width:2.0;stroke-dasharray:-;stroke-linecap:round;stroke-linejoin:round;" /><path d="M 900.0,409.5 L 927.0,409.5 L 930.0,400.5 L 936.0,418.5 L 942.0,400.5 L 948.0,418.5 L 954.0,400.5 L 960.0,418.5 L 963.0,409.5 L 990.0,409.5" style="stroke:black;fill:none;stroke-width:2.0;stroke-dasharray:-;stroke-linecap:round;stroke-linejoin:round;" /><path d="M 990.0,409.5 L 1028.7,409.5 M 1041.3,400.5 L 1041.3,418.5 M 1041.3,409.5 L 1080.0,409.5" style="stroke:black;fill:none;stroke-width:2.0;stroke-dasharray:-;stroke-linecap:round;stroke-linejoin:round;" /><path d="M 1037.7,396.0 L 1043.1277996438307,386.50135062329616" style="stroke:black;fill:none;stroke-width:2.0;stroke-dasharray:-;stroke-linecap:round;stroke-linejoin:round;" /><path d="M 1045.7077221232864 381.98648628424894 L 1045.6283398931494 387.93023076576384 L 1040.6272593945125 385.07247048082843 Z" style="stroke:black;fill:black;stroke-linecap:butt;stroke-linejoin:miter;" /><path d="M 1029.6000000000001,396.0 L 1035.0277996438308,386.50135062329616" style="stroke:black;fill:none;stroke-width:2.0;stroke-dasharray:-;stroke-linecap:round;stroke-linejoin:round;" /><path d="M 1037.6077221232865 381.98648628424894 L 1037.5283398931495 387.93023076576384 L 1032.5272593945126 385.07247048082843 Z" style="stroke:black;fill:black;stroke-linecap:butt;stroke-linejoin:miter;" /><path d="M 1080.0,409.5 L 1125.0,409.5 L 1170.0,409.5" style="stroke:black;fill:none;stroke-width:2.0;stroke-dasharray:-;stroke-linecap:round;stroke-linejoin:round;" /><path d="M 900.0,499.5 L 927.0,499.5 L 930.0,490.5 L 936.0,508.5 L 942.0,490.5 L 948.0,508.5 L 954.0,490.5 L 960.0,508.5 L 963.0,499.5 L 990.0,499.5" style="stroke:black;fill:none;stroke-width:2.0;stroke-dasharray:-;stroke-linecap:round;stroke-linejoin:round;" /><path d="M 990.0,499.5 L 1028.7,499.5 M 1041.3,490.5 L 1041.3,508.5 M 1041.3,499.5 L 1080.0,499.5" style="stroke:black;fill:none;stroke-width:2.0;stroke-dasharray:-;stroke-linecap:round;stroke-linejoin:round;" /><path d="M 1037.7,486.0 L 1043.1277996438307,476.50135062329616" style="stroke:black;fill:none;stroke-width:2.0;stroke-dasharray:-;stroke-linecap:round;stroke-linejoin:round;" /><path d="M 1045.7077221232864 471.98648628424894 L 1045.6283398931494 477.93023076576384 L 1040.6272593945125 475.07247048082843 Z" style="stroke:black;fill:black;stroke-linecap:butt;stroke-linejoin:miter;" /><path d="M 1029.6000000000001,486.0 L 1035.0277996438308,476.50135062329616" style="stroke:black;fill:none;stroke-width:2.0;stroke-dasharray:-;stroke-linecap:round;stroke-linejoin:round;" /><path d="M 1037.6077221232865 471.98648628424894 L 1037.5283398931495 477.93023076576384 L 1032.5272593945126 475.07247048082843 Z" style="stroke:black;fill:black;stroke-linecap:butt;stroke-linejoin:miter;" /><path d="M 1080.0,499.5 L 1125.0,499.5 L 1170.0,499.5" style="stroke:black;fill:none;stroke-width:2.0;stroke-dasharray:-;stroke-linecap:round;stroke-linejoin:round;" /><path d="M 900.0,634.5 L 927.0,634.5 L 930.0,625.5 L 936.0,643.5 L 942.0,625.5 L 948.0,643.5 L 954.0,625.5 L 960.0,643.5 L 963.0,634.5 L 990.0,634.5" style="stroke:black;fill:none;stroke-width:2.0;stroke-dasharray:-;stroke-linecap:round;stroke-linejoin:round;" /><path d="M 990.0,634.5 L 1003.2,634.5" style="stroke:black;fill:none;stroke-width:2.0;stroke-dasharray:-;stroke-linecap:round;stroke-linejoin:round;" /><path d="M 1003.2,621.3 L 1003.2,647.7" style="stroke:black;fill:none;stroke-width:2.0;stroke-dasharray:-;stroke-linecap:round;stroke-linejoin:round;" /><path d="M 1003.2,627.9 L 1017.06,616.0200000000001 L 1017.06,609.4200000000001" style="stroke:black;fill:none;stroke-width:2.0;stroke-dasharray:-;stroke-linecap:round;stroke-linejoin:round;" /><path d="M 1003.2,641.1 L 1017.06,652.9799999999999 L 1017.06,659.5799999999999" style="stroke:black;fill:none;stroke-width:2.0;stroke-dasharray:-;stroke-linecap:round;stroke-linejoin:round;" /><path d="M 1003.2,641.1 L 1010.2266905787122,647.1228776388962" style="stroke:black;fill:none;stroke-width:2.0;stroke-dasharray:-;stroke-linecap:round;stroke-linejoin:round;" /><path d="M 1015.5414867952694 651.678417253088 L 1007.8838416342709 649.8562014074113 L 1012.5695395231538 644.3895538703812 Z" style="stroke:black;fill:black;stroke-linecap:butt;stroke-linejoin:miter;" /><path d="M 1017.06,609.4200000000001 L 1017.06,304.71000000000004 L 1017.06,-0.0" style="stroke:black;fill:none;stroke-width:2.0;stroke-dasharray:-;stroke-linecap:round;stroke-linejoin:round;" /><path d="M 1017.06,609.4200000000001 L 1017.06,655.71 L 1017.06,702.0" style="stroke:black;fill:none;stroke-width:2.0;stroke-dasharray:-;stroke-linecap:round;stroke-linejoin:round;" /><path d="M 1017.06,609.4200000000001 L 1084.56,609.4200000000001 L 1152.06,609.4200000000001" style="stroke:black;fill:none;stroke-width:2.0;stroke-dasharray:-;stroke-linecap:round;stroke-linejoin:round;" /><path d="M 0.0,702.0 L 540.0,702.0 L 1080.0,702.0" style="stroke:black;fill:none;stroke-width:2.0;stroke-dasharray:-;stroke-linecap:round;stroke-linejoin:round;" /><path d="M 1080.0,702.0 L 1080.0,716.4 L 1071.0,716.4 L 1089.0,716.4 M 1073.7,720.72 L 1086.3,720.72 M 1078.2,725.04 L 1081.8,725.04" style="stroke:black;fill:none;stroke-width:2.0;stroke-dasharray:-;stroke-linecap:round;stroke-linejoin:round;" /><path d="M 179.99999999999997,297.0 L 179.99999999999994,499.5 L 179.99999999999991,702.0" style="stroke:black;fill:none;stroke-width:2.0;stroke-dasharray:-;stroke-linecap:round;stroke-linejoin:round;" /><path d="M 179.99999999999997,522.0 L 179.99999999999994,612.0 L 179.99999999999994,702.0" style="stroke:black;fill:none;stroke-width:2.0;stroke-dasharray:-;stroke-linecap:round;stroke-linejoin:round;" /><text x="1080.0" y="-29.0" dominant-baseline="ideographic" fill="black" font-size="11" font-family="sans" text-anchor="middle"><tspan x="1080.0" dy="11">5V</tspan></text><text x="1080.0" y="43.0" dominant-baseline="ideographic" fill="black" font-size="11" font-family="sans" text-anchor="middle"><tspan x="1080.0" dy="11">3.3V</tspan></text><text x="22.5" y="196.0" dominant-baseline="central" fill="black" font-size="11" font-family="sans" text-anchor="middle"><tspan x="22.5" dy="11">+</tspan></text><text x="45.0" y="196.0" dominant-baseline="central" fill="black" font-size="11" font-family="sans" text-anchor="middle"><tspan x="45.0" dy="11">CV IN</tspan></text><text x="67.5" y="196.0" dominant-baseline="central" fill="black" font-size="11" font-family="sans" text-anchor="middle"><tspan x="67.5" dy="11">−</tspan></text><text x="135.0" y="172.4" dominant-baseline="ideographic" fill="black" font-size="11" font-family="sans" text-anchor="middle"><tspan x="135.0" dy="11">R1</tspan><tspan x="135.0" dy="11">10kΩ</tspan></text><text x="192.6" y="235.5" dominant-baseline="central" fill="black" font-size="11" font-family="sans" text-anchor="start"><tspan x="192.6" dy="11">R2</tspan><tspan x="192.6" dy="11">10kΩ</tspan></text><text x="257.40000000000003" y="145.5" dominant-baseline="central" fill="black" font-size="11" font-family="sans" text-anchor="end"><tspan x="257.40000000000003" dy="11">D1</tspan><tspan x="257.40000000000003" dy="11">BAT85</tspan></text><text x="22.5" y="421.0" dominant-baseline="central" fill="black" font-size="11" font-family="sans" text-anchor="middle"><tspan x="22.5" dy="11">+</tspan></text><text x="45.0" y="421.0" dominant-baseline="central" fill="black" font-size="11" font-family="sans" text-anchor="middle"><tspan x="45.0" dy="11">TRIG IN</tspan></text><text x="67.5" y="421.0" dominant-baseline="central" fill="black" font-size="11" font-family="sans" text-anchor="middle"><tspan x="67.5" dy="11">−</tspan></text><text x="135.0" y="397.40000000000003" dominant-baseline="ideographic" fill="black" font-size="11" font-family="sans" text-anchor="middle"><tspan x="135.0" dy="11">R4</tspan><tspan x="135.0" dy="11">10kΩ</tspan></text><text x="192.6" y="460.5" dominant-baseline="central" fill="black" font-size="11" font-family="sans" text-anchor="start"><tspan x="192.6" dy="11">R5</tspan><tspan x="192.6" dy="11">10kΩ</tspan></text><text x="257.40000000000003" y="370.5" dominant-baseline="central" fill="black" font-size="11" font-family="sans" text-anchor="end"><tspan x="257.40000000000003" dy="11">D2</tspan><tspan x="257.40000000000003" dy="11">BAT85</tspan></text><text x="79.2" y="141.20000000000002" dominant-baseline="central" fill="black" font-size="10" font-family="sans" text-anchor="middle"><tspan x="79.2" dy="10">2</tspan></text><text x="208.79999999999998" y="141.20000000000002" dominant-baseline="central" fill="black" font-size="10" font-family="sans" text-anchor="middle"><tspan x="208.79999999999998" dy="10">3</tspan></text><text x="79.2" y="101.6" dominant-baseline="central" fill="black" font-size="10" font-family="sans" text-anchor="middle"><tspan x="79.2" dy="10">1</tspan></text><text x="208.79999999999998" y="101.6" dominant-baseline="central" fill="black" font-size="10" font-family="sans" text-anchor="middle"><tspan x="208.79999999999998" dy="10">4</tspan></text><text x="144.0" y="59.19999999999999" dominant-baseline="ideographic" fill="black" font-size="10" font-family="sans" text-anchor="middle"><tspan x="144.0" dy="10">PowerBoost</tspan><tspan x="144.0" dy="10">5V</tspan></text><text x="439.2" y="325.7" dominant-baseline="central" fill="black" font-size="10" font-family="sans" text-anchor="middle"><tspan x="439.2" dy="10">4</tspan></text><text x="568.8000000000001" y="325.7" dominant-baseline="central" fill="black" font-size="10" font-family="sans" text-anchor="middle"><tspan x="568.8000000000001" dy="10">5</tspan></text><text x="439.2" y="286.09999999999997" dominant-baseline="central" fill="black" font-size="10" font-family="sans" text-anchor="middle"><tspan x="439.2" dy="10">3</tspan></text><text x="568.8000000000001" y="286.09999999999997" dominant-baseline="central" fill="black" font-size="10" font-family="sans" text-anchor="middle"><tspan x="568.8000000000001" dy="10">6</tspan></text><text x="439.2" y="246.5" dominant-baseline="central" fill="black" font-size="10" font-family="sans" text-anchor="middle"><tspan x="439.2" dy="10">2</tspan></text><text x="568.8000000000001" y="246.5" dominant-baseline="central" fill="black" font-size="10" font-family="sans" text-anchor="middle"><tspan x="568.8000000000001" dy="10">7</tspan></text><text x="439.2" y="206.9" dominant-baseline="central" fill="black" font-size="10" font-family="sans" text-anchor="middle"><tspan x="439.2" dy="10">1</tspan></text><text x="568.8000000000001" y="206.9" dominant-baseline="central" fill="black" font-size="10" font-family="sans" text-anchor="middle"><tspan x="568.8000000000001" dy="10">8</tspan></text><text x="504.0" y="174.5" dominant-baseline="ideographic" fill="black" font-size="10" font-family="sans" text-anchor="middle"><tspan x="504.0" dy="10">Feather M4</tspan></text><text x="664.1999999999999" y="325.7" dominant-baseline="central" fill="black" font-size="10" font-family="sans" text-anchor="middle"><tspan x="664.1999999999999" dy="10">4</tspan></text><text x="793.8000000000001" y="325.7" dominant-baseline="central" fill="black" font-size="10" font-family="sans" text-anchor="middle"><tspan x="793.8000000000001" dy="10">5</tspan></text><text x="664.1999999999999" y="286.09999999999997" dominant-baseline="central" fill="black" font-size="10" font-family="sans" text-anchor="middle"><tspan x="664.1999999999999" dy="10">3</tspan></text><text x="793.8000000000001" y="286.09999999999997" dominant-baseline="central" fill="black" font-size="10" font-family="sans" text-anchor="middle"><tspan x="793.8000000000001" dy="10">6</tspan></text><text x="664.1999999999999" y="246.5" dominant-baseline="central" fill="black" font-size="10" font-family="sans" text-anchor="middle"><tspan x="664.1999999999999" dy="10">2</tspan></text><text x="793.8000000000001" y="246.5" dominant-baseline="central" fill="black" font-size="10" font-family="sans" text-anchor="middle"><tspan x="793.8000000000001" dy="10">7</tspan></text><text x="664.1999999999999" y="206.9" dominant-baseline="central" fill="black" font-size="10" font-family="sans" text-anchor="middle"><tspan x="664.1999999999999" dy="10">1</tspan></text><text x="793.8000000000001" y="206.9" dominant-baseline="central" fill="black" font-size="10" font-family="sans" text-anchor="middle"><tspan x="793.8000000000001" dy="10">8</tspan></text><text x="729.0" y="164.5" dominant-baseline="ideographic" fill="black" font-size="10" font-family="sans" text-anchor="middle"><tspan x="729.0" dy="10">MCP4728</tspan><tspan x="729.0" dy="10">DAC</tspan></text><text x="945.0" y="194.9" dominant-baseline="ideographic" fill="black" font-size="11" font-family="sans" text-anchor="middle"><tspan x="945.0" dy="11">R6</tspan><tspan x="945.0" dy="11">100ohm</tspan></text><text x="1035.0" y="231.1" dominant-baseline="hanging" fill="black" font-size="11" font-family="sans" text-anchor="middle"><tspan x="1035.0" dy="11">LED1</tspan></text><text x="945.0" y="284.90000000000003" dominant-baseline="ideographic" fill="black" font-size="11" font-family="sans" text-anchor="middle"><tspan x="945.0" dy="11">R7</tspan><tspan x="945.0" dy="11">100ohm</tspan></text><text x="1035.0" y="321.09999999999997" dominant-baseline="hanging" fill="black" font-size="11" font-family="sans" text-anchor="middle"><tspan x="1035.0" dy="11">LED2</tspan></text><text x="945.0" y="374.90000000000003" dominant-baseline="ideographic" fill="black" font-size="11" font-family="sans" text-anchor="middle"><tspan x="945.0" dy="11">R8</tspan><tspan x="945.0" dy="11">100ohm</tspan></text><text x="1035.0" y="411.09999999999997" dominant-baseline="hanging" fill="black" font-size="11" font-family="sans" text-anchor="middle"><tspan x="1035.0" dy="11">LED3</tspan></text><text x="945.0" y="464.90000000000003" dominant-baseline="ideographic" fill="black" font-size="11" font-family="sans" text-anchor="middle"><tspan x="945.0" dy="11">R9</tspan><tspan x="945.0" dy="11">100ohm</tspan></text><text x="1035.0" y="501.1" dominant-baseline="hanging" fill="black" font-size="11" font-family="sans" text-anchor="middle"><tspan x="1035.0" dy="11">LED4</tspan></text><text x="945.0" y="599.9" dominant-baseline="ideographic" fill="black" font-size="11" font-family="sans" text-anchor="middle"><tspan x="945.0" dy="11">R10</tspan><tspan x="945.0" dy="11">10kohm</tspan></text><text x="1033.2" y="623.8" dominant-baseline="central" fill="black" font-size="11" font-family="sans" text-anchor="start"><tspan x="1033.2" dy="11">Q1 2N3904</tspan></text><circle cx="180.0" cy="207.0" r="2.6999999999999997" style="stroke:black;fill:black;stroke-width:2.0;stroke-dasharray:-;" /><circle cx="360.0" cy="207.0" r="2.6999999999999997" style="stroke:black;fill:white;stroke-width:2.0;stroke-dasharray:-;" /><text x="366.3" y="196.0" dominant-baseline="central" fill="black" font-size="11" font-family="sans" text-anchor="start"><tspan x="366.3" dy="11">M4 A3</tspan></text><circle cx="180.0" cy="432.0" r="2.6999999999999997" style="stroke:black;fill:black;stroke-width:2.0;stroke-dasharray:-;" /><circle cx="360.0" cy="432.0" r="2.6999999999999997" style="stroke:black;fill:white;stroke-width:2.0;stroke-dasharray:-;" /><text x="366.3" y="421.0" dominant-baseline="central" fill="black" font-size="11" font-family="sans" text-anchor="start"><tspan x="366.3" dy="11">M4 A4</tspan></text><circle cx="900.0" cy="229.5" r="2.6999999999999997" style="stroke:black;fill:black;stroke-width:2.0;stroke-dasharray:-;" /><text x="893.6999999999999" y="218.5" dominant-baseline="central" fill="black" font-size="11" font-family="sans" text-anchor="end"><tspan x="893.6999999999999" dy="11">VA</tspan></text><circle cx="1170.0" cy="229.5" r="2.6999999999999997" style="stroke:black;fill:white;stroke-width:2.0;stroke-dasharray:-;" /><text x="1176.3" y="218.5" dominant-baseline="central" fill="black" font-size="11" font-family="sans" text-anchor="start"><tspan x="1176.3" dy="11">CV OUT 1</tspan></text><circle cx="900.0" cy="319.5" r="2.6999999999999997" style="stroke:black;fill:black;stroke-width:2.0;stroke-dasharray:-;" /><text x="893.6999999999999" y="308.5" dominant-baseline="central" fill="black" font-size="11" font-family="sans" text-anchor="end"><tspan x="893.6999999999999" dy="11">VB</tspan></text><circle cx="1170.0" cy="319.5" r="2.6999999999999997" style="stroke:black;fill:white;stroke-width:2.0;stroke-dasharray:-;" /><text x="1176.3" y="308.5" dominant-baseline="central" fill="black" font-size="11" font-family="sans" text-anchor="start"><tspan x="1176.3" dy="11">CV OUT 2</tspan></text><circle cx="900.0" cy="409.5" r="2.6999999999999997" style="stroke:black;fill:black;stroke-width:2.0;stroke-dasharray:-;" /><text x="893.6999999999999" y="398.5" dominant-baseline="central" fill="black" font-size="11" font-family="sans" text-anchor="end"><tspan x="893.6999999999999" dy="11">VC</tspan></text><circle cx="1170.0" cy="409.5" r="2.6999999999999997" style="stroke:black;fill:white;stroke-width:2.0;stroke-dasharray:-;" /><text x="1176.3" y="398.5" dominant-baseline="central" fill="black" font-size="11" font-family="sans" text-anchor="start"><tspan x="1176.3" dy="11">CV OUT 3</tspan></text><circle cx="900.0" cy="499.5" r="2.6999999999999997" style="stroke:black;fill:black;stroke-width:2.0;stroke-dasharray:-;" /><text x="893.6999999999999" y="488.5" dominant-baseline="central" fill="black" font-size="11" font-family="sans" text-anchor="end"><tspan x="893.6999999999999" dy="11">VD</tspan></text><circle cx="1170.0" cy="499.5" r="2.6999999999999997" style="stroke:black;fill:white;stroke-width:2.0;stroke-dasharray:-;" /><text x="1176.3" y="488.5" dominant-baseline="central" fill="black" font-size="11" font-family="sans" text-anchor="start"><tspan x="1176.3" dy="11">CV OUT 4</tspan></text><circle cx="900.0" cy="634.5" r="2.6999999999999997" style="stroke:black;fill:black;stroke-width:2.0;stroke-dasharray:-;" /><text x="893.6999999999999" y="623.5" dominant-baseline="central" fill="black" font-size="11" font-family="sans" text-anchor="end"><tspan x="893.6999999999999" dy="11">D11</tspan></text><circle cx="1152.06" cy="609.4200000000001" r="2.6999999999999997" style="stroke:black;fill:white;stroke-width:2.0;stroke-dasharray:-;" /><text x="1158.36" y="598.4200000000001" dominant-baseline="central" fill="black" font-size="11" font-family="sans" text-anchor="start"><tspan x="1158.36" dy="11">S-TRIG OUT</tspan></text></svg>