<svg xmlns="http://www.w3.org/2000/svg" xmlns:xlink="http://www.w3.org/1999/xlink" xml:lang="en" height="762.24pt" width="1466.6000000000001pt" viewBox="-4.6 -32.6 1466.6000000000001 762.24"><polygon points="495.0,364.5 603.0,364.5 603.0,108.9 495.0,108.9 " style="stroke:black;fill:none;stroke-width:2.0;stroke-dasharray:-;stroke-linecap:round;stroke-linejoin:round;" /><polygon points="495.0,346.5 495.0,324.90000000000003 473.40000000000003,324.90000000000003 473.40000000000003,346.5 " style="stroke:black;fill:none;stroke-width:2.0;stroke-dasharray:-;stroke-linecap:round;stroke-linejoin:round;" /><polygon points="603.0,346.5 603.0,324.90000000000003 624.6,324.90000000000003 624.6,346.5 " style="stroke:black;fill:none;stroke-width:2.0;stroke-dasharray:-;stroke-linecap:round;stroke-linejoin:round;" /><polygon points="495.0,306.90000000000003 495.0,285.3 473.40000000000003,285.3 473.40000000000003,306.90000000000003 " style="stroke:black;fill:none;stroke-width:2.0;stroke-dasharray:-;stroke-linecap:round;stroke-linejoin:round;" /><polygon points="603.0,306.90000000000003 603.0,285.3 624.6,285.3 624.6,306.90000000000003 " style="stroke:black;fill:none;stroke-width:2.0;stroke-dasharray:-;stroke-linecap:round;stroke-linejoin:round;" /><polygon points="495.0,267.3 495.0,245.70000000000002 473.40000000000003,245.70000000000002 473.40000000000003,267.3 " style="stroke:black;fill:none;stroke-width:2.0;stroke-dasharray:-;stroke-linecap:round;stroke-linejoin:round;" /><polygon points="603.0,267.3 603.0,245.70000000000002 624.6,245.70000000000002 624.6,267.3 " style="stroke:black;fill:none;stroke-width:2.0;stroke-dasharray:-;stroke-linecap:round;stroke-linejoin:round;" /><polygon points="495.0,227.70000000000002 495.0,206.1 473.40000000000003,206.1 473.40000000000003,227.70000000000002 " style="stroke:black;fill:none;stroke-width:2.0;stroke-dasharray:-;stroke-linecap:round;stroke-linejoin:round;" /><polygon points="603.0,227.70000000000002 603.0,206.1 624.6,206.1 624.6,227.70000000000002 " style="stroke:black;fill:none;stroke-width:2.0;stroke-dasharray:-;stroke-linecap:round;stroke-linejoin:round;" /><polygon points="495.0,188.1 495.0,166.5 473.40000000000003,166.5 473.40000000000003,188.1 " style="stroke:black;fill:none;stroke-width:2.0;stroke-dasharray:-;stroke-linecap:round;stroke-linejoin:round;" /><polygon points="603.0,188.1 603.0,166.5 624.6,166.5 624.6,188.1 " style="stroke:black;fill:none;stroke-width:2.0;stroke-dasharray:-;stroke-linecap:round;stroke-linejoin:round;" /><polygon points="495.0,148.5 495.0,126.9 473.40000000000003,126.9 473.40000000000003,148.5 " style="stroke:black;fill:none;stroke-width:2.0;stroke-dasharray:-;stroke-linecap:round;stroke-linejoin:round;" /><polygon points="603.0,148.5 603.0,126.9 624.6,126.9 624.6,148.5 " style="stroke:black;fill:none;stroke-width:2.0;stroke-dasharray:-;stroke-linecap:round;stroke-linejoin:round;" /><polygon points="495.0,184.5 603.0,184.5 603.0,47.7 495.0,47.7 " style="stroke:black;fill:none;stroke-width:2.0;stroke-dasharray:-;stroke-linecap:round;stroke-linejoin:round;" /><polygon points="495.0,166.5 495.0,144.9 473.40000000000003,144.9 473.40000000000003,166.5 " style="stroke:black;fill:none;stroke-width:2.0;stroke-dasharray:-;stroke-linecap:round;stroke-linejoin:round;" /><polygon points="603.0,166.5 603.0,144.9 624.6,144.9 624.6,166.5 " style="stroke:black;fill:none;stroke-width:2.0;stroke-dasharray:-;stroke-linecap:round;stroke-linejoin:round;" /><polygon points="495.0,126.89999999999999 495.0,105.3 473.40000000000003,105.3 473.40000000000003,126.89999999999999 " style="stroke:black;fill:none;stroke-width:2.0;stroke-dasharray:-;stroke-linecap:round;stroke-linejoin:round;" /><polygon points="603.0,126.89999999999999 603.0,105.3 624.6,105.3 624.6,126.89999999999999 " style="stroke:black;fill:none;stroke-width:2.0;stroke-dasharray:-;stroke-linecap:round;stroke-linejoin:round;" /><polygon points="495.0,87.3 495.0,65.7 473.40000000000003,65.7 473.40000000000003,87.3 " style="stroke:black;fill:none;stroke-width:2.0;stroke-dasharray:-;stroke-linecap:round;stroke-linejoin:round;" /><polygon points="603.0,87.3 603.0,65.7 624.6,65.7 624.6,87.3 " style="stroke:black;fill:none;stroke-width:2.0;stroke-dasharray:-;stroke-linecap:round;stroke-linejoin:round;" /><polygon points="495.0,589.5 495.0,481.5 358.2,481.5 358.2,589.5 " style="stroke:black;fill:none;stroke-width:2.0;stroke-dasharray:-;stroke-linecap:round;stroke-linejoin:round;" /><polygon points="477.0,589.5 455.40000000000003,589.5 455.40000000000003,611.1 477.0,611.1 " style="stroke:black;fill:none;stroke-width:2.0;stroke-dasharray:-;stroke-linecap:round;stroke-linejoin:round;" /><polygon points="477.0,481.5 455.40000000000003,481.5 455.40000000000003,459.90000000000003 477.0,459.90000000000003 " style="stroke:black;fill:none;stroke-width:2.0;stroke-dasharray:-;stroke-linecap:round;stroke-linejoin:round;" /><polygon points="437.40000000000003,589.5 415.8,589.5 415.8,611.1 437.40000000000003,611.1 " style="stroke:black;fill:none;stroke-width:2.0;stroke-dasharray:-;stroke-linecap:round;stroke-linejoin:round;" /><polygon points="437.40000000000003,481.5 415.8,481.5 415.8,459.90000000000003 437.40000000000003,459.90000000000003 " style="stroke:black;fill:none;stroke-width:2.0;stroke-dasharray:-;stroke-linecap:round;stroke-linejoin:round;" /><polygon points="397.8,589.5 376.2,589.5 376.2,611.1 397.8,611.1 " style="stroke:black;fill:none;stroke-width:2.0;stroke-dasharray:-;stroke-linecap:round;stroke-linejoin:round;" /><polygon points="397.8,481.5 376.2,481.5 376.2,459.90000000000003 397.8,459.90000000000003 " style="stroke:black;fill:none;stroke-width:2.0;stroke-dasharray:-;stroke-linecap:round;stroke-linejoin:round;" /><polygon points="855.0,364.5 963.0,364.5 963.0,188.1 855.0,188.1 " style="stroke:black;fill:none;stroke-width:2.0;stroke-dasharray:-;stroke-linecap:round;stroke-linejoin:round;" /><polygon points="855.0,346.5 855.0,324.90000000000003 833.4,324.90000000000003 833.4,346.5 " style="stroke:black;fill:none;stroke-width:2.0;stroke-dasharray:-;stroke-linecap:round;stroke-linejoin:round;" /><polygon points="963.0,346.5 963.0,324.90000000000003 984.6,324.90000000000003 984.6,346.5 " style="stroke:black;fill:none;stroke-width:2.0;stroke-dasharray:-;stroke-linecap:round;stroke-linejoin:round;" /><polygon points="855.0,306.90000000000003 855.0,285.3 833.4,285.3 833.4,306.90000000000003 " style="stroke:black;fill:none;stroke-width:2.0;stroke-dasharray:-;stroke-linecap:round;stroke-linejoin:round;" /><polygon points="963.0,306.90000000000003 963.0,285.3 984.6,285.3 984.6,306.90000000000003 " style="stroke:black;fill:none;stroke-width:2.0;stroke-dasharray:-;stroke-linecap:round;stroke-linejoin:round;" /><polygon points="855.0,267.3 855.0,245.70000000000002 833.4,245.70000000000002 833.4,267.3 " style="stroke:black;fill:none;stroke-width:2.0;stroke-dasharray:-;stroke-linecap:round;stroke-linejoin:round;" /><polygon points="963.0,267.3 963.0,245.70000000000002 984.6,245.70000000000002 984.6,267.3 " style="stroke:black;fill:none;stroke-width:2.0;stroke-dasharray:-;stroke-linecap:round;stroke-linejoin:round;" /><polygon points="855.0,227.70000000000002 855.0,206.1 833.4,206.1 833.4,227.70000000000002 " style="stroke:black;fill:none;stroke-width:2.0;stroke-dasharray:-;stroke-linecap:round;stroke-linejoin:round;" /><polygon points="963.0,227.70000000000002 963.0,206.1 984.6,206.1 984.6,227.70000000000002 " style="stroke:black;fill:none;stroke-width:2.0;stroke-dasharray:-;stroke-linecap:round;stroke-linejoin:round;" /><circle cx="1099.8" cy="589.5" r="19.8" style="stroke:black;fill:none;stroke-width:2.0;stroke-dasharray:-;" /><path d="M 0.0,-0.0 L 720.0,-0.0 L 1440.0,-0.0" style="stroke:black;fill:none;stroke-width:2.0;stroke-dasharray:-;stroke-linecap:round;stroke-linejoin:round;" /><path d="M 1440.0,-0.0 L 1440.0,-14.4" style="stroke:black;fill:none;stroke-width:2.0;stroke-dasharray:-;stroke-linecap:round;stroke-linejoin:round;" /><path d="M 1440.0,-14.4 L 1433.25,-14.4" style="stroke:black;fill:none;stroke-width:2.0;stroke-dasharray:-;stroke-linecap:round;stroke-linejoin:round;" /><path d="M 1440.0,-14.4 L 1446.75,-14.4" style="stroke:black;fill:none;stroke-width:2.0;stroke-dasharray:-;stroke-linecap:round;stroke-linejoin:round;" /><path d="M 0.0,72.0 L 720.0,72.0 L 1440.0,72.0" style="stroke:black;fill:none;stroke-width:2.0;stroke-dasharray:-;stroke-linecap:round;stroke-linejoin:round;" /><path d="M 1440.0,72.0 L 1440.0,57.6" style="stroke:black;fill:none;stroke-width:2.0;stroke-dasharray:-;stroke-linecap:round;stroke-linejoin:round;" /><path d="M 1440.0,57.6 L 1433.25,57.6" style="stroke:black;fill:none;stroke-width:2.0;stroke-dasharray:-;stroke-linecap:round;stroke-linejoin:round;" /><path d="M 1440.0,57.6 L 1446.75,57.6" style="stroke:black;fill:none;stroke-width:2.0;stroke-dasharray:-;stroke-linecap:round;stroke-linejoin:round;" /><path d="M 90.0,252.0 L 117.0,252.0 L 120.0,243.0 L 126.0,261.0 L 132.0,243.0 L 138.0,261.0 L 144.0,243.0 L 149.99999999999997,261.0 L 153.0,252.0 L 180.0,252.0" style="stroke:black;fill:none;stroke-width:2.0;stroke-dasharray:-;stroke-linecap:round;stroke-linejoin:round;" /><path d="M 180.0,252.0 L 180.0,279.0 L 189.0,282.0 L 171.0,288.0 L 189.0,294.0 L 171.0,300.0 L 189.0,306.0 L 171.0,312.0 L 180.0,315.0 L 179.99999999999997,342.0" style="stroke:black;fill:none;stroke-width:2.0;stroke-dasharray:-;stroke-linecap:round;stroke-linejoin:round;" /><path d="M 180.0,252.0 L 247.5,252.0 L 315.0,252.0" style="stroke:black;fill:none;stroke-width:2.0;stroke-dasharray:-;stroke-linecap:round;stroke-linejoin:round;" /><path d="M 90.0,477.0 L 117.0,477.0 L 120.0,468.0 L 126.0,486.0 L 132.0,468.0 L 138.0,486.0 L 144.0,468.0 L 149.99999999999997,486.0 L 153.0,477.0 L 180.0,477.0" style="stroke:black;fill:none;stroke-width:2.0;stroke-dasharray:-;stroke-linecap:round;stroke-linejoin:round;" /><path d="M 180.0,477.0 L 180.0,504.0 L 189.0,507.0 L 171.0,513.0 L 189.0,519.0 L 171.0,525.0 L 189.0,531.0 L 171.0,537.0 L 180.0,540.0 L 179.99999999999997,567.0" style="stroke:black;fill:none;stroke-width:2.0;stroke-dasharray:-;stroke-linecap:round;stroke-linejoin:round;" /><path d="M 180.0,477.0 L 247.5,477.0 L 315.0,477.0" style="stroke:black;fill:none;stroke-width:2.0;stroke-dasharray:-;stroke-linecap:round;stroke-linejoin:round;" /><path d="M 538.1999999999999,108.9 L 538.2221897582964,109.5919583757917 L 538.2886678507089,110.28107334619267 L 538.3991611044964,110.96451318997484 L 538.5532154791784,111.6394695062227 L 538.7501979322848,112.30316875465512 L 538.989299020663,112.95288365269724 L 539.2695362266538,113.58594438246962 L 539.5897579954674,114.19974956164253 L 539.9486484671681,114.79177693307393 L 540.344732883826,115.35959372930515 L 540.7763836496133,115.90086666932413 L 541.2418270189445,116.41337154651765 L 541.7391503851778,116.89500236841343 L 542.2663101399257,117.34378001065474 L 542.8211400706805,117.75786034964713 L 543.4013602622464,118.13554184045775 L 544.004586465399,118.47527250882843 L 544.6283398942782,118.77565632857079 L 545.2700574122499,119.03545895813743 L 545.9271020643848,119.25361281279594 L 546.5967739132718,119.42922145156372 L 547.2763211336395,119.56156326087606 L 547.962951320197,119.65009441985136 L 548.6538429622261,119.69445113496744 L 549.3461570377739,119.69445113496744 L 550.037048679803,119.65009441985136 L 550.7236788663605,119.56156326087606 L 551.4032260867282,119.42922145156372 L 552.0728979356152,119.25361281279594 L 552.7299425877501,119.03545895813743 L 553.3716601057218,118.77565632857079 L 553.9954135346011,118.47527250882843 L 554.5986397377536,118.13554184045775 L 555.1788599293195,117.75786034964713 L 555.7336898600743,117.34378001065474 L 556.2608496148222,116.89500236841343 L 556.7581729810555,116.41337154651765 L 557.2236163503867,115.90086666932413 L 557.655267116174,115.35959372930515 L 558.0513515328319,114.79177693307393 L 558.4102420045326,114.19974956164253 L 558.7304637733462,113.58594438246962 L 559.010700979337,112.95288365269724 L 559.2498020677152,112.30316875465512 L 559.4467845208216,111.6394695062227 L 559.6008388955036,110.96451318997484 L 559.7113321492911,110.28107334619267 L 559.7778102417036,109.5919583757917 L 559.8000000000001,108.9" style="stroke:black;fill:none;stroke-width:2.0;stroke-dasharray:-;stroke-linecap:round;stroke-linejoin:round;" /><path d="M 538.1999999999999,47.7 L 538.2221897582964,48.39195837579171 L 538.2886678507089,49.081073346192674 L 538.3991611044964,49.76451318997482 L 538.5532154791784,50.43946950622268 L 538.7501979322848,51.103168754655115 L 538.989299020663,51.75288365269725 L 539.2695362266538,52.38594438246964 L 539.5897579954674,52.99974956164253 L 539.9486484671681,53.59177693307393 L 540.344732883826,54.15959372930514 L 540.7763836496133,54.70086666932413 L 541.2418270189445,55.21337154651766 L 541.7391503851778,55.69500236841341 L 542.2663101399257,56.14378001065472 L 542.8211400706805,56.55786034964712 L 543.4013602622464,56.935541840457745 L 544.004586465399,57.275272508828415 L 544.6283398942782,57.57565632857079 L 545.2700574122499,57.83545895813742 L 545.9271020643848,58.05361281279595 L 546.5967739132718,58.22922145156371 L 547.2763211336395,58.36156326087607 L 547.962951320197,58.450094419851354 L 548.6538429622261,58.49445113496744 L 549.3461570377739,58.49445113496744 L 550.037048679803,58.450094419851354 L 550.7236788663605,58.36156326087607 L 551.4032260867282,58.22922145156371 L 552.0728979356152,58.05361281279595 L 552.7299425877501,57.83545895813742 L 553.3716601057218,57.57565632857079 L 553.9954135346011,57.275272508828415 L 554.5986397377536,56.935541840457745 L 555.1788599293195,56.557860349647136 L 555.7336898600743,56.14378001065472 L 556.2608496148222,55.69500236841341 L 556.7581729810555,55.21337154651766 L 557.2236163503867,54.70086666932413 L 557.655267116174,54.15959372930514 L 558.0513515328319,53.59177693307393 L 558.4102420045326,52.999749561642545 L 558.7304637733462,52.38594438246964 L 559.010700979337,51.75288365269725 L 559.2498020677152,51.103168754655115 L 559.4467845208216,50.43946950622269 L 559.6008388955036,49.76451318997482 L 559.7113321492911,49.081073346192674 L 559.7778102417036,48.39195837579171 L 559.8000000000001,47.7" style="stroke:black;fill:none;stroke-width:2.0;stroke-dasharray:-;stroke-linecap:round;stroke-linejoin:round;" /><path d="M 495.0,229.5 L 495.0,150.75 L 495.0,72.0" style="stroke:black;fill:none;stroke-width:2.0;stroke-dasharray:-;stroke-linecap:round;stroke-linejoin:round;" /><path d="M 358.2,546.3000000000001 L 358.8919583757917,546.2778102417036 L 359.5810733461927,546.2113321492911 L 360.2645131899748,546.1008388955036 L 360.9394695062227,545.9467845208216 L 361.60316875465514,545.7498020677152 L 362.2528836526972,545.510700979337 L 362.88594438246963,545.2304637733462 L 363.49974956164255,544.9102420045326 L 364.0917769330739,544.5513515328319 L 364.65959372930513,544.155267116174 L 365.2008666693241,543.7236163503867 L 365.71337154651764,543.2581729810555 L 366.19500236841344,542.7608496148222 L 366.6437800106547,542.2336898600743 L 367.0578603496471,541.6788599293195 L 367.43554184045774,541.0986397377536 L 367.77527250882844,540.495413534601 L 368.0756563285708,539.8716601057218 L 368.33545895813745,539.2299425877501 L 368.55361281279596,538.5728979356152 L 368.7292214515637,537.9032260867282 L 368.86156326087604,537.2236788663605 L 368.9500944198513,536.537048679803 L 368.99445113496745,535.8461570377739 L 368.99445113496745,535.1538429622261 L 368.9500944198513,534.462951320197 L 368.86156326087604,533.7763211336395 L 368.7292214515637,533.0967739132718 L 368.55361281279596,532.4271020643848 L 368.33545895813745,531.7700574122499 L 368.0756563285708,531.1283398942782 L 367.77527250882844,530.5045864653989 L 367.43554184045774,529.9013602622463 L 367.0578603496471,529.3211400706805 L 366.6437800106547,528.7663101399257 L 366.19500236841344,528.2391503851778 L 365.71337154651764,527.7418270189445 L 365.2008666693241,527.2763836496133 L 364.65959372930513,526.844732883826 L 364.0917769330739,526.4486484671681 L 363.49974956164255,526.0897579954674 L 362.88594438246963,525.7695362266538 L 362.2528836526972,525.489299020663 L 361.60316875465514,525.2501979322848 L 360.9394695062227,525.0532154791784 L 360.2645131899748,524.8991611044964 L 359.5810733461927,524.7886678507089 L 358.8919583757917,524.7221897582964 L 358.2,524.6999999999999" style="stroke:black;fill:none;stroke-width:2.0;stroke-dasharray:-;stroke-linecap:round;stroke-linejoin:round;" /><path d="M 675.0,337.5 L 742.5,337.5 L 810.0,337.5" style="stroke:black;fill:none;stroke-width:2.0;stroke-dasharray:-;stroke-linecap:round;stroke-linejoin:round;" /><path d="M 675.0,391.5 L 742.5,391.5 L 810.0,391.5" style="stroke:black;fill:none;stroke-width:2.0;stroke-dasharray:-;stroke-linecap:round;stroke-linejoin:round;" /><path d="M 898.1999999999999,188.1 L 898.2221897582964,188.79195837579167 L 898.2886678507089,189.48107334619263 L 898.3991611044966,190.16451318997483 L 898.5532154791786,190.83946950622268 L 898.7501979322848,191.5031687546551 L 898.989299020663,192.15288365269723 L 899.2695362266538,192.7859443824696 L 899.5897579954674,193.39974956164252 L 899.948648467168,193.9917769330739 L 900.344732883826,194.55959372930513 L 900.7763836496133,195.10086666932412 L 901.2418270189445,195.61337154651764 L 901.7391503851778,196.09500236841342 L 902.2663101399256,196.54378001065473 L 902.8211400706805,196.9578603496471 L 903.4013602622463,197.33554184045772 L 904.0045864653989,197.67527250882839 L 904.6283398942782,197.97565632857078 L 905.2700574122498,198.2354589581374 L 905.9271020643848,198.4536128127959 L 906.5967739132718,198.6292214515637 L 907.2763211336395,198.76156326087604 L 907.9629513201971,198.85009441985133 L 908.6538429622262,198.8944511349674 L 909.3461570377738,198.8944511349674 L 910.0370486798029,198.85009441985133 L 910.7236788663605,198.76156326087604 L 911.4032260867282,198.6292214515637 L 912.0728979356152,198.4536128127959 L 912.7299425877502,198.2354589581374 L 913.3716601057218,197.97565632857078 L 913.9954135346011,197.67527250882839 L 914.5986397377537,197.33554184045772 L 915.1788599293195,196.9578603496471 L 915.7336898600744,196.54378001065473 L 916.2608496148222,196.09500236841342 L 916.7581729810555,195.61337154651764 L 917.2236163503867,195.10086666932412 L 917.655267116174,194.55959372930513 L 918.051351532832,193.9917769330739 L 918.4102420045326,193.39974956164252 L 918.7304637733462,192.7859443824696 L 919.010700979337,192.15288365269723 L 919.2498020677152,191.5031687546551 L 919.4467845208214,190.83946950622268 L 919.6008388955034,190.16451318997483 L 919.7113321492911,189.48107334619263 L 919.7778102417036,188.79195837579167 L 919.8000000000001,188.1" style="stroke:black;fill:none;stroke-width:2.0;stroke-dasharray:-;stroke-linecap:round;stroke-linejoin:round;" /><path d="M 855.0,292.5 L 855.0,146.25 L 855.0,-0.0" style="stroke:black;fill:none;stroke-width:2.0;stroke-dasharray:-;stroke-linecap:round;stroke-linejoin:round;" /><path d="M 1080.0,256.5 L 1107.0,256.5 L 1110.0,247.5 L 1116.0,265.5 L 1122.0,247.5 L 1128.0,265.5 L 1134.0,247.5 L 1140.0,265.5 L 1143.0,256.5 L 1170.0,256.5" style="stroke:black;fill:none;stroke-width:2.0;stroke-dasharray:-;stroke-linecap:round;stroke-linejoin:round;" /><path d="M 1170.0,256.5 L 1192.5,256.5 L 1215.0,256.5" style="stroke:black;fill:none;stroke-width:2.0;stroke-dasharray:-;stroke-linecap:round;stroke-linejoin:round;" /><path d="M 1080.0,328.5 L 1107.0,328.5 L 1110.0,319.5 L 1116.0,337.5 L 1122.0,319.5 L 1128.0,337.5 L 1134.0,319.5 L 1140.0,337.5 L 1143.0,328.5 L 1170.0,328.5" style="stroke:black;fill:none;stroke-width:2.0;stroke-dasharray:-;stroke-linecap:round;stroke-linejoin:round;" /><path d="M 1170.0,328.5 L 1192.5,328.5 L 1215.0,328.5" style="stroke:black;fill:none;stroke-width:2.0;stroke-dasharray:-;stroke-linecap:round;stroke-linejoin:round;" /><path d="M 1080.0,400.5 L 1107.0,400.5 L 1110.0,391.5 L 1116.0,409.5 L 1122.0,391.5 L 1128.0,409.5 L 1134.0,391.5 L 1140.0,409.5 L 1143.0,400.5 L 1170.0,400.5" style="stroke:black;fill:none;stroke-width:2.0;stroke-dasharray:-;stroke-linecap:round;stroke-linejoin:round;" /><path d="M 1170.0,400.5 L 1192.5,400.5 L 1215.0,400.5" style="stroke:black;fill:none;stroke-width:2.0;stroke-dasharray:-;stroke-linecap:round;stroke-linejoin:round;" /><path d="M 1080.0,472.5 L 1125.0,472.5 L 1170.0,472.5" style="stroke:black;fill:none;stroke-width:2.0;stroke-dasharray:-;stroke-linecap:round;stroke-linejoin:round;" /><path d="M 990.0,589.5 L 1017.0,589.5 L 1020.0,580.5 L 1026.0,598.5 L 1032.0,580.5 L 1038.0,598.5 L 1044.0,580.5 L 1050.0,598.5 L 1053.0,589.5 L 1080.0,589.5" style="stroke:black;fill:none;stroke-width:2.0;stroke-dasharray:-;stroke-linecap:round;stroke-linejoin:round;" /><path d="M 1080.0,589.5 L 1093.2,589.5" style="stroke:black;fill:none;stroke-width:2.0;stroke-dasharray:-;stroke-linecap:round;stroke-linejoin:round;" /><path d="M 1093.2,576.3 L 1093.2,602.7" style="stroke:black;fill:none;stroke-width:2.0;stroke-dasharray:-;stroke-linecap:round;stroke-linejoin:round;" /><path d="M 1093.2,582.9 L 1107.06,571.02 L 1107.06,564.42" style="stroke:black;fill:none;stroke-width:2.0;stroke-dasharray:-;stroke-linecap:round;stroke-linejoin:round;" /><path d="M 1093.2,596.1 L 1107.06,607.9799999999999 L 1107.06,614.5799999999999" style="stroke:black;fill:none;stroke-width:2.0;stroke-dasharray:-;stroke-linecap:round;stroke-linejoin:round;" /><path d="M 1093.2,596.1 L 1100.2266905787124,602.1228776388962" style="stroke:black;fill:none;stroke-width:2.0;stroke-dasharray:-;stroke-linecap:round;stroke-linejoin:round;" /><path d="M 1105.5414867952693 606.678417253088 L 1097.8838416342708 604.8562014074113 L 1102.5695395231537 599.3895538703812 Z" style="stroke:black;fill:black;stroke-linecap:butt;stroke-linejoin:miter;" /><path d="M 1107.06,564.42 L 1107.06,300.21000000000004 L 1098.06,297.21 L 1116.06,291.21000000000004 L 1098.06,285.21 L 1116.06,279.21 L 1098.06,273.21 L 1116.06,267.21 L 1107.06,264.21 L 1107.06,-6.394884621840902e-14" style="stroke:black;fill:none;stroke-width:2.0;stroke-dasharray:-;stroke-linecap:round;stroke-linejoin:round;" /><path d="M 1107.06,564.42 L 1107.06,633.21 L 1107.06,702.0" style="stroke:black;fill:none;stroke-width:2.0;stroke-dasharray:-;stroke-linecap:round;stroke-linejoin:round;" /><path d="M 1107.06,564.42 L 1174.56,564.42 L 1242.06,564.42" style="stroke:black;fill:none;stroke-width:2.0;stroke-dasharray:-;stroke-linecap:round;stroke-linejoin:round;" /><path d="M 0.0,702.0 L 720.0,702.0 L 1440.0,702.0" style="stroke:black;fill:none;stroke-width:2.0;stroke-dasharray:-;stroke-linecap:round;stroke-linejoin:round;" /><path d="M 1440.0,702.0 L 1440.0,716.4 L 1431.0,716.4 L 1449.0,716.4 M 1433.7,720.72 L 1446.3,720.72 M 1438.2,725.04 L 1441.8,725.04" style="stroke:black;fill:none;stroke-width:2.0;stroke-dasharray:-;stroke-linecap:round;stroke-linejoin:round;" /><path d="M 179.99999999999997,342.0 L 179.99999999999994,522.0 L 179.99999999999991,702.0" style="stroke:black;fill:none;stroke-width:2.0;stroke-dasharray:-;stroke-linecap:round;stroke-linejoin:round;" /><path d="M 179.99999999999997,567.0 L 179.99999999999997,634.5 L 179.99999999999994,702.0" style="stroke:black;fill:none;stroke-width:2.0;stroke-dasharray:-;stroke-linecap:round;stroke-linejoin:round;" /><text x="1440.0" y="-28.0" dominant-baseline="ideographic" fill="black" font-size="10" font-family="sans" text-anchor="middle"><tspan x="1440.0" dy="10">5V USB</tspan></text><text x="1440.0" y="44.0" dominant-baseline="ideographic" fill="black" font-size="10" font-family="sans" text-anchor="middle"><tspan x="1440.0" dy="10">3.3V</tspan></text><text x="22.5" y="242.0" dominant-baseline="central" fill="black" font-size="10" font-family="sans" text-anchor="middle"><tspan x="22.5" dy="10">+</tspan></text><text x="45.0" y="242.0" dominant-baseline="central" fill="black" font-size="10" font-family="sans" text-anchor="middle"><tspan x="45.0" dy="10">CV IN</tspan></text><text x="67.5" y="242.0" dominant-baseline="central" fill="black" font-size="10" font-family="sans" text-anchor="middle"><tspan x="67.5" dy="10">−</tspan></text><text x="135.0" y="219.4" dominant-baseline="ideographic" fill="black" font-size="10" font-family="sans" text-anchor="middle"><tspan x="135.0" dy="10">R1</tspan><tspan x="135.0" dy="10">10k</tspan></text><text x="192.6" y="282.0" dominant-baseline="central" fill="black" font-size="10" font-family="sans" text-anchor="start"><tspan x="192.6" dy="10">R2</tspan><tspan x="192.6" dy="10">10k</tspan></text><text x="22.5" y="467.0" dominant-baseline="central" fill="black" font-size="10" font-family="sans" text-anchor="middle"><tspan x="22.5" dy="10">+</tspan></text><text x="45.0" y="467.0" dominant-baseline="central" fill="black" font-size="10" font-family="sans" text-anchor="middle"><tspan x="45.0" dy="10">TRIG IN</tspan></text><text x="67.5" y="467.0" dominant-baseline="central" fill="black" font-size="10" font-family="sans" text-anchor="middle"><tspan x="67.5" dy="10">−</tspan></text><text x="135.0" y="444.40000000000003" dominant-baseline="ideographic" fill="black" font-size="10" font-family="sans" text-anchor="middle"><tspan x="135.0" dy="10">R4</tspan><tspan x="135.0" dy="10">10k</tspan></text><text x="192.6" y="507.0" dominant-baseline="central" fill="black" font-size="10" font-family="sans" text-anchor="start"><tspan x="192.6" dy="10">R5</tspan><tspan x="192.6" dy="10">10k</tspan></text><text x="484.2" y="325.7" dominant-baseline="central" fill="black" font-size="10" font-family="sans" text-anchor="middle"><tspan x="484.2" dy="10">6</tspan></text><text x="613.8000000000001" y="325.7" dominant-baseline="central" fill="black" font-size="10" font-family="sans" text-anchor="middle"><tspan x="613.8000000000001" dy="10">7</tspan></text><text x="484.2" y="286.09999999999997" dominant-baseline="central" fill="black" font-size="10" font-family="sans" text-anchor="middle"><tspan x="484.2" dy="10">5</tspan></text><text x="613.8000000000001" y="286.09999999999997" dominant-baseline="central" fill="black" font-size="10" font-family="sans" text-anchor="middle"><tspan x="613.8000000000001" dy="10">8</tspan></text><text x="484.2" y="246.5" dominant-baseline="central" fill="black" font-size="10" font-family="sans" text-anchor="middle"><tspan x="484.2" dy="10">4</tspan></text><text x="613.8000000000001" y="246.5" dominant-baseline="central" fill="black" font-size="10" font-family="sans" text-anchor="middle"><tspan x="613.8000000000001" dy="10">9</tspan></text><text x="484.2" y="206.9" dominant-baseline="central" fill="black" font-size="10" font-family="sans" text-anchor="middle"><tspan x="484.2" dy="10">3</tspan></text><text x="613.8000000000001" y="206.9" dominant-baseline="central" fill="black" font-size="10" font-family="sans" text-anchor="middle"><tspan x="613.8000000000001" dy="10">10</tspan></text><text x="484.2" y="167.29999999999998" dominant-baseline="central" fill="black" font-size="10" font-family="sans" text-anchor="middle"><tspan x="484.2" dy="10">2</tspan></text><text x="613.8000000000001" y="167.29999999999998" dominant-baseline="central" fill="black" font-size="10" font-family="sans" text-anchor="middle"><tspan x="613.8000000000001" dy="10">11</tspan></text><text x="484.2" y="127.70000000000002" dominant-baseline="central" fill="black" font-size="10" font-family="sans" text-anchor="middle"><tspan x="484.2" dy="10">1</tspan></text><text x="613.8000000000001" y="127.70000000000002" dominant-baseline="central" fill="black" font-size="10" font-family="sans" text-anchor="middle"><tspan x="613.8000000000001" dy="10">12</tspan></text><text x="549.0" y="83.30000000000003" dominant-baseline="ideographic" fill="black" font-size="11" font-family="sans" text-anchor="middle"><tspan x="549.0" dy="11">Feather M4</tspan><tspan x="549.0" dy="11">CAN</tspan></text><text x="484.2" y="145.70000000000002" dominant-baseline="central" fill="black" font-size="10" font-family="sans" text-anchor="middle"><tspan x="484.2" dy="10">3</tspan></text><text x="613.8000000000001" y="145.70000000000002" dominant-baseline="central" fill="black" font-size="10" font-family="sans" text-anchor="middle"><tspan x="613.8000000000001" dy="10">4</tspan></text><text x="484.2" y="106.1" dominant-baseline="central" fill="black" font-size="10" font-family="sans" text-anchor="middle"><tspan x="484.2" dy="10">2</tspan></text><text x="613.8000000000001" y="106.1" dominant-baseline="central" fill="black" font-size="10" font-family="sans" text-anchor="middle"><tspan x="613.8000000000001" dy="10">5</tspan></text><text x="484.2" y="66.5" dominant-baseline="central" fill="black" font-size="10" font-family="sans" text-anchor="middle"><tspan x="484.2" dy="10">1</tspan></text><text x="613.8000000000001" y="66.5" dominant-baseline="central" fill="black" font-size="10" font-family="sans" text-anchor="middle"><tspan x="613.8000000000001" dy="10">6</tspan></text><text x="549.0" y="24.1" dominant-baseline="ideographic" fill="black" font-size="10" font-family="sans" text-anchor="middle"><tspan x="549.0" dy="10">MIDI</tspan><tspan x="549.0" dy="10">FeatherWing</tspan></text><text x="466.2" y="590.3000000000001" dominant-baseline="central" fill="black" font-size="10" font-family="sans" text-anchor="middle"><tspan x="466.2" dy="10">3</tspan></text><text x="466.2" y="460.7" dominant-baseline="central" fill="black" font-size="10" font-family="sans" text-anchor="middle"><tspan x="466.2" dy="10">4</tspan></text><text x="426.59999999999997" y="590.3000000000001" dominant-baseline="central" fill="black" font-size="10" font-family="sans" text-anchor="middle"><tspan x="426.59999999999997" dy="10">2</tspan></text><text x="426.59999999999997" y="460.7" dominant-baseline="central" fill="black" font-size="10" font-family="sans" text-anchor="middle"><tspan x="426.59999999999997" dy="10">5</tspan></text><text x="387.0" y="590.3000000000001" dominant-baseline="central" fill="black" font-size="10" font-family="sans" text-anchor="middle"><tspan x="387.0" dy="10">1</tspan></text><text x="387.0" y="460.7" dominant-baseline="central" fill="black" font-size="10" font-family="sans" text-anchor="middle"><tspan x="387.0" dy="10">6</tspan></text><text x="354.59999999999997" y="520.5" dominant-baseline="central" fill="black" font-size="10" font-family="sans" text-anchor="end"><tspan x="354.59999999999997" dy="10">OLED</tspan><tspan x="354.59999999999997" dy="10">128x64</tspan></text><text x="742.5" y="323.90000000000003" dominant-baseline="ideographic" fill="black" font-size="10" font-family="sans" text-anchor="middle"><tspan x="742.5" dy="10">SDA</tspan></text><text x="742.5" y="385.09999999999997" dominant-baseline="hanging" fill="black" font-size="10" font-family="sans" text-anchor="middle"><tspan x="742.5" dy="10">SCL</tspan></text><text x="844.1999999999999" y="325.7" dominant-baseline="central" fill="black" font-size="10" font-family="sans" text-anchor="middle"><tspan x="844.1999999999999" dy="10">4</tspan></text><text x="973.8000000000001" y="325.7" dominant-baseline="central" fill="black" font-size="10" font-family="sans" text-anchor="middle"><tspan x="973.8000000000001" dy="10">5</tspan></text><text x="844.1999999999999" y="286.09999999999997" dominant-baseline="central" fill="black" font-size="10" font-family="sans" text-anchor="middle"><tspan x="844.1999999999999" dy="10">3</tspan></text><text x="973.8000000000001" y="286.09999999999997" dominant-baseline="central" fill="black" font-size="10" font-family="sans" text-anchor="middle"><tspan x="973.8000000000001" dy="10">6</tspan></text><text x="844.1999999999999" y="246.5" dominant-baseline="central" fill="black" font-size="10" font-family="sans" text-anchor="middle"><tspan x="844.1999999999999" dy="10">2</tspan></text><text x="973.8000000000001" y="246.5" dominant-baseline="central" fill="black" font-size="10" font-family="sans" text-anchor="middle"><tspan x="973.8000000000001" dy="10">7</tspan></text><text x="844.1999999999999" y="206.9" dominant-baseline="central" fill="black" font-size="10" font-family="sans" text-anchor="middle"><tspan x="844.1999999999999" dy="10">1</tspan></text><text x="973.8000000000001" y="206.9" dominant-baseline="central" fill="black" font-size="10" font-family="sans" text-anchor="middle"><tspan x="973.8000000000001" dy="10">8</tspan></text><text x="909.0" y="154.5" dominant-baseline="ideographic" fill="black" font-size="10" font-family="sans" text-anchor="middle"><tspan x="909.0" dy="10">MCP4728</tspan><tspan x="909.0" dy="10">DAC</tspan><tspan x="909.0" dy="10">0x60</tspan></text><text x="1125.0" y="233.9" dominant-baseline="ideographic" fill="black" font-size="10" font-family="sans" text-anchor="middle"><tspan x="1125.0" dy="10">100ohm</tspan></text><text x="1125.0" y="305.90000000000003" dominant-baseline="ideographic" fill="black" font-size="10" font-family="sans" text-anchor="middle"><tspan x="1125.0" dy="10">100ohm</tspan></text><text x="1125.0" y="377.90000000000003" dominant-baseline="ideographic" fill="black" font-size="10" font-family="sans" text-anchor="middle"><tspan x="1125.0" dy="10">100ohm</tspan></text><text x="1035.0" y="566.9" dominant-baseline="ideographic" fill="black" font-size="10" font-family="sans" text-anchor="middle"><tspan x="1035.0" dy="10">1k</tspan></text><text x="1123.2" y="579.8" dominant-baseline="central" fill="black" font-size="10" font-family="sans" text-anchor="start"><tspan x="1123.2" dy="10">Q1 2N3904</tspan></text><text x="1094.46" y="272.21" dominant-baseline="central" fill="black" font-size="10" font-family="sans" text-anchor="end"><tspan x="1094.46" dy="10">100ohm</tspan></text><text x="1440.0" y="688.4" dominant-baseline="ideographic" fill="black" font-size="10" font-family="sans" text-anchor="middle"><tspan x="1440.0" dy="10">GND</tspan></text><circle cx="180.0" cy="252.0" r="2.6999999999999997" style="stroke:black;fill:black;stroke-width:2.0;stroke-dasharray:-;" /><circle cx="315.0" cy="252.0" r="2.6999999999999997" style="stroke:black;fill:white;stroke-width:2.0;stroke-dasharray:-;" /><text x="321.3" y="242.0" dominant-baseline="central" fill="black" font-size="10" font-family="sans" text-anchor="start"><tspan x="321.3" dy="10">A3</tspan></text><circle cx="180.0" cy="477.0" r="2.6999999999999997" style="stroke:black;fill:black;stroke-width:2.0;stroke-dasharray:-;" /><circle cx="315.0" cy="477.0" r="2.6999999999999997" style="stroke:black;fill:white;stroke-width:2.0;stroke-dasharray:-;" /><text x="321.3" y="467.0" dominant-baseline="central" fill="black" font-size="10" font-family="sans" text-anchor="start"><tspan x="321.3" dy="10">A4</tspan></text><circle cx="1080.0" cy="256.5" r="2.6999999999999997" style="stroke:black;fill:black;stroke-width:2.0;stroke-dasharray:-;" /><text x="1073.7" y="246.5" dominant-baseline="central" fill="black" font-size="10" font-family="sans" text-anchor="end"><tspan x="1073.7" dy="10">VA</tspan></text><circle cx="1215.0" cy="256.5" r="2.6999999999999997" style="stroke:black;fill:white;stroke-width:2.0;stroke-dasharray:-;" /><text x="1221.3" y="246.5" dominant-baseline="central" fill="black" font-size="10" font-family="sans" text-anchor="start"><tspan x="1221.3" dy="10">CV OUT</tspan></text><circle cx="1080.0" cy="328.5" r="2.6999999999999997" style="stroke:black;fill:black;stroke-width:2.0;stroke-dasharray:-;" /><text x="1073.7" y="318.5" dominant-baseline="central" fill="black" font-size="10" font-family="sans" text-anchor="end"><tspan x="1073.7" dy="10">VB</tspan></text><circle cx="1215.0" cy="328.5" r="2.6999999999999997" style="stroke:black;fill:white;stroke-width:2.0;stroke-dasharray:-;" /><text x="1221.3" y="318.5" dominant-baseline="central" fill="black" font-size="10" font-family="sans" text-anchor="start"><tspan x="1221.3" dy="10">TRIG OUT</tspan></text><circle cx="1080.0" cy="400.5" r="2.6999999999999997" style="stroke:black;fill:black;stroke-width:2.0;stroke-dasharray:-;" /><text x="1073.7" y="390.5" dominant-baseline="central" fill="black" font-size="10" font-family="sans" text-anchor="end"><tspan x="1073.7" dy="10">VC</tspan></text><circle cx="1215.0" cy="400.5" r="2.6999999999999997" style="stroke:black;fill:white;stroke-width:2.0;stroke-dasharray:-;" /><text x="1221.3" y="390.5" dominant-baseline="central" fill="black" font-size="10" font-family="sans" text-anchor="start"><tspan x="1221.3" dy="10">CC OUT</tspan></text><circle cx="1080.0" cy="472.5" r="2.6999999999999997" style="stroke:black;fill:black;stroke-width:2.0;stroke-dasharray:-;" /><text x="1073.7" y="462.5" dominant-baseline="central" fill="black" font-size="10" font-family="sans" text-anchor="end"><tspan x="1073.7" dy="10">VD</tspan></text><circle cx="1170.0" cy="472.5" r="2.6999999999999997" style="stroke:black;fill:white;stroke-width:2.0;stroke-dasharray:-;" /><text x="1176.3" y="462.5" dominant-baseline="central" fill="black" font-size="10" font-family="sans" text-anchor="start"><tspan x="1176.3" dy="10">Future</tspan></text><circle cx="990.0" cy="589.5" r="2.6999999999999997" style="stroke:black;fill:black;stroke-width:2.0;stroke-dasharray:-;" /><text x="983.6999999999999" y="579.5" dominant-baseline="central" fill="black" font-size="10" font-family="sans" text-anchor="end"><tspan x="983.6999999999999" dy="10">D10</tspan></text><circle cx="1242.06" cy="564.42" r="2.6999999999999997" style="stroke:black;fill:white;stroke-width:2.0;stroke-dasharray:-;" /><text x="1248.36" y="554.42" dominant-baseline="central" fill="black" font-size="10" font-family="sans" text-anchor="start"><tspan x="1248.36" dy="10">S-TRIG OUT</tspan></text></svg>