<svg xmlns="http://www.w3.org/2000/svg" xmlns:xlink="http://www.w3.org/1999/xlink" xml:lang="en" height="622.2pt" width="450.51199999999994pt" viewBox="-121.78 -464.6 450.51199999999994 622.2"><polygon points="135.0,-380.7 144.0,-393.3 153.0,-380.7 " style="stroke:black;fill:none;stroke-width:2.0;stroke-dasharray:-;stroke-linecap:round;stroke-linejoin:round;" /><polygon points="135.0,-236.70000000000002 144.0,-249.29999999999998 153.0,-236.70000000000002 " style="stroke:black;fill:none;stroke-width:2.0;stroke-dasharray:-;stroke-linecap:round;stroke-linejoin:round;" /><polygon points="119.7,-81.0 132.29999999999998,-72.0 119.7,-63.0 " style="stroke:black;fill:none;stroke-width:2.0;stroke-dasharray:-;stroke-linecap:round;stroke-linejoin:round;" /><polygon points="119.7,-9.0 132.29999999999998,-0.0 119.7,9.0 " style="stroke:black;fill:none;stroke-width:2.0;stroke-dasharray:-;stroke-linecap:round;stroke-linejoin:round;" /><polygon points="119.7,63.0 132.29999999999998,72.0 119.7,81.0 " style="stroke:black;fill:none;stroke-width:2.0;stroke-dasharray:-;stroke-linecap:round;stroke-linejoin:round;" /><polygon points="119.7,135.0 132.29999999999998,144.0 119.7,153.0 " style="stroke:black;fill:none;stroke-width:2.0;stroke-dasharray:-;stroke-linecap:round;stroke-linejoin:round;" /><path d="M 0.0,-360.0 L 18.0,-360.0 L 21.0,-369.0 L 27.0,-351.0 L 33.0,-369.0 L 39.0,-351.0 L 45.0,-369.0 L 50.99999999999999,-351.0 L 54.0,-360.0 L 72.0,-360.0" style="stroke:black;fill:none;stroke-width:2.0;stroke-dasharray:-;stroke-linecap:round;stroke-linejoin:round;" /><path d="M 72.0,-360.0 L 90.0,-360.0 L 93.0,-369.0 L 99.0,-351.0 L 105.0,-369.0 L 110.99999999999999,-351.0 L 117.0,-369.0 L 123.0,-351.0 L 126.0,-360.0 L 144.0,-360.0" style="stroke:black;fill:none;stroke-width:2.0;stroke-dasharray:-;stroke-linecap:round;stroke-linejoin:round;" /><path d="M 144.0,-360.0 L 144.0,-380.7 M 135.0,-393.3 L 153.0,-393.3 M 144.0,-393.3 L 144.0,-414.0" style="stroke:black;fill:none;stroke-width:2.0;stroke-dasharray:-;stroke-linecap:round;stroke-linejoin:round;" /><path d="M 144.0,-414.0 L 144.0,-387.0 L 143.99999999999997,-360.0" style="stroke:black;fill:none;stroke-width:2.0;stroke-dasharray:-;stroke-linecap:round;stroke-linejoin:round;" /><path d="M 0.0,-216.0 L 18.0,-216.0 L 21.0,-225.0 L 27.0,-207.0 L 33.0,-225.0 L 39.0,-207.0 L 45.0,-225.0 L 50.99999999999999,-207.0 L 54.0,-216.0 L 72.0,-216.0" style="stroke:black;fill:none;stroke-width:2.0;stroke-dasharray:-;stroke-linecap:round;stroke-linejoin:round;" /><path d="M 72.0,-216.0 L 90.0,-216.0 L 93.0,-225.0 L 99.0,-207.0 L 105.0,-225.0 L 110.99999999999999,-207.0 L 117.0,-225.0 L 123.0,-207.0 L 126.0,-216.0 L 144.0,-216.0" style="stroke:black;fill:none;stroke-width:2.0;stroke-dasharray:-;stroke-linecap:round;stroke-linejoin:round;" /><path d="M 144.0,-216.0 L 144.0,-236.70000000000002 M 135.0,-249.29999999999998 L 153.0,-249.29999999999998 M 144.0,-249.29999999999998 L 144.0,-270.0" style="stroke:black;fill:none;stroke-width:2.0;stroke-dasharray:-;stroke-linecap:round;stroke-linejoin:round;" /><path d="M 144.0,-270.0 L 144.0,-243.0 L 143.99999999999997,-216.0" style="stroke:black;fill:none;stroke-width:2.0;stroke-dasharray:-;stroke-linecap:round;stroke-linejoin:round;" /><path d="M 0.0,-72.0 L 18.0,-72.0 L 21.0,-81.0 L 27.0,-63.0 L 33.0,-81.0 L 39.0,-63.0 L 45.0,-81.0 L 50.99999999999999,-63.0 L 54.0,-72.0 L 72.0,-72.0" style="stroke:black;fill:none;stroke-width:2.0;stroke-dasharray:-;stroke-linecap:round;stroke-linejoin:round;" /><path d="M 72.0,-72.0 L 119.7,-72.0 M 132.29999999999998,-81.0 L 132.29999999999998,-63.0 M 132.29999999999998,-72.0 L 180.0,-72.0" style="stroke:black;fill:none;stroke-width:2.0;stroke-dasharray:-;stroke-linecap:round;stroke-linejoin:round;" /><path d="M 128.70000000000002,-85.5 L 134.1277996438308,-94.9986493767039" style="stroke:black;fill:none;stroke-width:2.0;stroke-dasharray:-;stroke-linecap:round;stroke-linejoin:round;" /><path d="M 136.70772212328635 -99.51351371575109 L 136.62833989314925 -93.56976923423622 L 131.62725939451235 -96.42752951917157 Z" style="stroke:black;fill:black;stroke-linecap:butt;stroke-linejoin:miter;" /><path d="M 120.6,-85.5 L 126.0277996438308,-94.9986493767039" style="stroke:black;fill:none;stroke-width:2.0;stroke-dasharray:-;stroke-linecap:round;stroke-linejoin:round;" /><path d="M 128.60772212328632 -99.51351371575109 L 128.52833989314922 -93.56976923423622 L 123.52725939451234 -96.42752951917159 Z" style="stroke:black;fill:black;stroke-linecap:butt;stroke-linejoin:miter;" /><path d="M 180.0,-72.0 L 198.0,-72.0 L 216.0,-72.0" style="stroke:black;fill:none;stroke-width:2.0;stroke-dasharray:-;stroke-linecap:round;stroke-linejoin:round;" /><path d="M 0.0,-0.0 L 18.0,-0.0 L 21.0,-9.0 L 27.0,9.0 L 33.0,-9.0 L 39.0,9.0 L 45.0,-9.0 L 50.99999999999999,9.0 L 54.0,-0.0 L 72.0,-0.0" style="stroke:black;fill:none;stroke-width:2.0;stroke-dasharray:-;stroke-linecap:round;stroke-linejoin:round;" /><path d="M 72.0,-0.0 L 119.7,-0.0 M 132.29999999999998,-9.0 L 132.29999999999998,9.0 M 132.29999999999998,-0.0 L 180.0,-0.0" style="stroke:black;fill:none;stroke-width:2.0;stroke-dasharray:-;stroke-linecap:round;stroke-linejoin:round;" /><path d="M 128.70000000000002,-13.5 L 134.1277996438308,-22.99864937670389" style="stroke:black;fill:none;stroke-width:2.0;stroke-dasharray:-;stroke-linecap:round;stroke-linejoin:round;" /><path d="M 136.70772212328635 -27.51351371575108 L 136.62833989314925 -21.56976923423621 L 131.62725939451235 -24.427529519171575 Z" style="stroke:black;fill:black;stroke-linecap:butt;stroke-linejoin:miter;" /><path d="M 120.6,-13.5 L 126.0277996438308,-22.998649376703895" style="stroke:black;fill:none;stroke-width:2.0;stroke-dasharray:-;stroke-linecap:round;stroke-linejoin:round;" /><path d="M 128.60772212328632 -27.51351371575108 L 128.52833989314922 -21.56976923423621 L 123.52725939451234 -24.42752951917158 Z" style="stroke:black;fill:black;stroke-linecap:butt;stroke-linejoin:miter;" /><path d="M 180.0,-0.0 L 198.0,-0.0 L 216.0,-0.0" style="stroke:black;fill:none;stroke-width:2.0;stroke-dasharray:-;stroke-linecap:round;stroke-linejoin:round;" /><path d="M 0.0,72.0 L 18.0,72.0 L 21.0,63.0 L 27.0,81.0 L 33.0,63.0 L 39.0,81.0 L 45.0,63.0 L 50.99999999999999,81.0 L 54.0,72.0 L 72.0,72.0" style="stroke:black;fill:none;stroke-width:2.0;stroke-dasharray:-;stroke-linecap:round;stroke-linejoin:round;" /><path d="M 72.0,72.0 L 119.7,72.0 M 132.29999999999998,63.0 L 132.29999999999998,81.0 M 132.29999999999998,72.0 L 180.0,72.0" style="stroke:black;fill:none;stroke-width:2.0;stroke-dasharray:-;stroke-linecap:round;stroke-linejoin:round;" /><path d="M 128.70000000000002,58.5 L 134.1277996438308,49.00135062329611" style="stroke:black;fill:none;stroke-width:2.0;stroke-dasharray:-;stroke-linecap:round;stroke-linejoin:round;" /><path d="M 136.70772212328635 44.48648628424892 L 136.62833989314925 50.43023076576379 L 131.62725939451235 47.57247048082842 Z" style="stroke:black;fill:black;stroke-linecap:butt;stroke-linejoin:miter;" /><path d="M 120.6,58.5 L 126.0277996438308,49.001350623296105" style="stroke:black;fill:none;stroke-width:2.0;stroke-dasharray:-;stroke-linecap:round;stroke-linejoin:round;" /><path d="M 128.60772212328632 44.48648628424892 L 128.52833989314922 50.43023076576379 L 123.52725939451234 47.57247048082842 Z" style="stroke:black;fill:black;stroke-linecap:butt;stroke-linejoin:miter;" /><path d="M 180.0,72.0 L 198.0,72.0 L 216.0,72.0" style="stroke:black;fill:none;stroke-width:2.0;stroke-dasharray:-;stroke-linecap:round;stroke-linejoin:round;" /><path d="M 0.0,144.0 L 18.0,144.0 L 21.0,135.0 L 27.0,153.0 L 33.0,135.0 L 39.0,153.0 L 45.0,135.0 L 50.99999999999999,153.0 L 54.0,144.0 L 72.0,144.0" style="stroke:black;fill:none;stroke-width:2.0;stroke-dasharray:-;stroke-linecap:round;stroke-linejoin:round;" /><path d="M 72.0,144.0 L 119.7,144.0 M 132.29999999999998,135.0 L 132.29999999999998,153.0 M 132.29999999999998,144.0 L 180.0,144.0" style="stroke:black;fill:none;stroke-width:2.0;stroke-dasharray:-;stroke-linecap:round;stroke-linejoin:round;" /><path d="M 128.70000000000002,130.5 L 134.1277996438308,121.0013506232961" style="stroke:black;fill:none;stroke-width:2.0;stroke-dasharray:-;stroke-linecap:round;stroke-linejoin:round;" /><path d="M 136.70772212328635 116.48648628424891 L 136.62833989314925 122.43023076576378 L 131.62725939451235 119.57247048082843 Z" style="stroke:black;fill:black;stroke-linecap:butt;stroke-linejoin:miter;" /><path d="M 120.6,130.5 L 126.0277996438308,121.0013506232961" style="stroke:black;fill:none;stroke-width:2.0;stroke-dasharray:-;stroke-linecap:round;stroke-linejoin:round;" /><path d="M 128.60772212328632 116.48648628424891 L 128.52833989314922 122.43023076576378 L 123.52725939451234 119.57247048082841 Z" style="stroke:black;fill:black;stroke-linecap:butt;stroke-linejoin:miter;" /><path d="M 180.0,144.0 L 198.0,144.0 L 216.0,144.0" style="stroke:black;fill:none;stroke-width:2.0;stroke-dasharray:-;stroke-linecap:round;stroke-linejoin:round;" /><text x="36.0" y="-415.0" dominant-baseline="ideographic" fill="black" font-size="14.0" font-family="sans" text-anchor="middle"><tspan x="36.0" dy="14.0">R1</tspan><tspan x="36.0" dy="14.0">10kΩ</tspan></text><text x="108.0" y="-415.0" dominant-baseline="ideographic" fill="black" font-size="14.0" font-family="sans" text-anchor="middle"><tspan x="108.0" dy="14.0">R2</tspan><tspan x="108.0" dy="14.0">10kΩ</tspan></text><text x="144.0" y="-460.0" dominant-baseline="ideographic" fill="black" font-size="14.0" font-family="sans" text-anchor="middle"><tspan x="144.0" dy="14.0">D1</tspan><tspan x="144.0" dy="14.0">BAT85</tspan></text><text x="36.0" y="-271.0" dominant-baseline="ideographic" fill="black" font-size="14.0" font-family="sans" text-anchor="middle"><tspan x="36.0" dy="14.0">R4</tspan><tspan x="36.0" dy="14.0">10kΩ</tspan></text><text x="108.0" y="-271.0" dominant-baseline="ideographic" fill="black" font-size="14.0" font-family="sans" text-anchor="middle"><tspan x="108.0" dy="14.0">R5</tspan><tspan x="108.0" dy="14.0">10kΩ</tspan></text><text x="144.0" y="-316.0" dominant-baseline="ideographic" fill="black" font-size="14.0" font-family="sans" text-anchor="middle"><tspan x="144.0" dy="14.0">D2</tspan><tspan x="144.0" dy="14.0">BAT85</tspan></text><text x="36.0" y="-127.0" dominant-baseline="ideographic" fill="black" font-size="14.0" font-family="sans" text-anchor="middle"><tspan x="36.0" dy="14.0">R6</tspan><tspan x="36.0" dy="14.0">100Ω</tspan></text><text x="126.0" y="-139.01" dominant-baseline="ideographic" fill="black" font-size="14.0" font-family="sans" text-anchor="middle"><tspan x="126.0" dy="14.0">LED1</tspan></text><text x="36.0" y="-55.0" dominant-baseline="ideographic" fill="black" font-size="14.0" font-family="sans" text-anchor="middle"><tspan x="36.0" dy="14.0">R7</tspan><tspan x="36.0" dy="14.0">100Ω</tspan></text><text x="126.0" y="-67.01" dominant-baseline="ideographic" fill="black" font-size="14.0" font-family="sans" text-anchor="middle"><tspan x="126.0" dy="14.0">LED2</tspan></text><text x="36.0" y="17.0" dominant-baseline="ideographic" fill="black" font-size="14.0" font-family="sans" text-anchor="middle"><tspan x="36.0" dy="14.0">R8</tspan><tspan x="36.0" dy="14.0">100Ω</tspan></text><text x="126.0" y="4.989999999999995" dominant-baseline="ideographic" fill="black" font-size="14.0" font-family="sans" text-anchor="middle"><tspan x="126.0" dy="14.0">LED3</tspan></text><text x="36.0" y="89.0" dominant-baseline="ideographic" fill="black" font-size="14.0" font-family="sans" text-anchor="middle"><tspan x="36.0" dy="14.0">R9</tspan><tspan x="36.0" dy="14.0">100Ω</tspan></text><text x="126.0" y="76.99" dominant-baseline="ideographic" fill="black" font-size="14.0" font-family="sans" text-anchor="middle"><tspan x="126.0" dy="14.0">LED4</tspan></text><text x="183.6" y="-449.59999999999997" dominant-baseline="central" fill="black" font-size="14" font-family="sans" text-anchor="middle"><tspan x="183.6" dy="14">PRISME HARDWARE - COMPLETE CIRCUIT</tspan></text><text x="183.6" y="-416.79999999999995" dominant-baseline="central" fill="black" font-size="10" font-family="sans" text-anchor="middle"><tspan x="183.6" dy="10">Signal Flow: LEFT → RIGHT</tspan></text><circle cx="0.0" cy="-360.0" r="2.6999999999999997" style="stroke:black;fill:black;stroke-width:2.0;stroke-dasharray:-;" /><text x="-6.3" y="-374.0" dominant-baseline="central" fill="black" font-size="14.0" font-family="sans" text-anchor="end"><tspan x="-6.3" dy="14.0">CV IN</tspan></text><circle cx="143.99999999999997" cy="-360.0" r="2.6999999999999997" style="stroke:black;fill:black;stroke-width:2.0;stroke-dasharray:-;" /><text x="150.29999999999998" y="-374.0" dominant-baseline="central" fill="black" font-size="14.0" font-family="sans" text-anchor="start"><tspan x="150.29999999999998" dy="14.0">→ M4 A3</tspan></text><circle cx="0.0" cy="-216.0" r="2.6999999999999997" style="stroke:black;fill:black;stroke-width:2.0;stroke-dasharray:-;" /><text x="-6.3" y="-230.0" dominant-baseline="central" fill="black" font-size="14.0" font-family="sans" text-anchor="end"><tspan x="-6.3" dy="14.0">TRIG IN</tspan></text><circle cx="143.99999999999997" cy="-216.0" r="2.6999999999999997" style="stroke:black;fill:black;stroke-width:2.0;stroke-dasharray:-;" /><text x="150.29999999999998" y="-230.0" dominant-baseline="central" fill="black" font-size="14.0" font-family="sans" text-anchor="start"><tspan x="150.29999999999998" dy="14.0">→ M4 A4</tspan></text><circle cx="0.0" cy="-72.0" r="2.6999999999999997" style="stroke:black;fill:black;stroke-width:2.0;stroke-dasharray:-;" /><text x="-6.3" y="-86.0" dominant-baseline="central" fill="black" font-size="14.0" font-family="sans" text-anchor="end"><tspan x="-6.3" dy="14.0">M4 D4 → DAC VA</tspan></text><circle cx="216.0" cy="-72.0" r="2.6999999999999997" style="stroke:black;fill:black;stroke-width:2.0;stroke-dasharray:-;" /><text x="222.29999999999998" y="-86.0" dominant-baseline="central" fill="black" font-size="14.0" font-family="sans" text-anchor="start"><tspan x="222.29999999999998" dy="14.0">CV OUT 1</tspan></text><circle cx="0.0" cy="-0.0" r="2.6999999999999997" style="stroke:black;fill:black;stroke-width:2.0;stroke-dasharray:-;" /><text x="-6.3" y="-14.0" dominant-baseline="central" fill="black" font-size="14.0" font-family="sans" text-anchor="end"><tspan x="-6.3" dy="14.0">M4 D5 → DAC VB</tspan></text><circle cx="216.0" cy="-0.0" r="2.6999999999999997" style="stroke:black;fill:black;stroke-width:2.0;stroke-dasharray:-;" /><text x="222.29999999999998" y="-14.0" dominant-baseline="central" fill="black" font-size="14.0" font-family="sans" text-anchor="start"><tspan x="222.29999999999998" dy="14.0">CV OUT 2</tspan></text><circle cx="0.0" cy="72.0" r="2.6999999999999997" style="stroke:black;fill:black;stroke-width:2.0;stroke-dasharray:-;" /><text x="-6.3" y="58.0" dominant-baseline="central" fill="black" font-size="14.0" font-family="sans" text-anchor="end"><tspan x="-6.3" dy="14.0">M4 D6 → DAC VC</tspan></text><circle cx="216.0" cy="72.0" r="2.6999999999999997" style="stroke:black;fill:black;stroke-width:2.0;stroke-dasharray:-;" /><text x="222.29999999999998" y="58.0" dominant-baseline="central" fill="black" font-size="14.0" font-family="sans" text-anchor="start"><tspan x="222.29999999999998" dy="14.0">CV OUT 3</tspan></text><circle cx="0.0" cy="144.0" r="2.6999999999999997" style="stroke:black;fill:black;stroke-width:2.0;stroke-dasharray:-;" /><text x="-6.3" y="130.0" dominant-baseline="central" fill="black" font-size="14.0" font-family="sans" text-anchor="end"><tspan x="-6.3" dy="14.0">M4 D10 → DAC VD</tspan></text><circle cx="216.0" cy="144.0" r="2.6999999999999997" style="stroke:black;fill:black;stroke-width:2.0;stroke-dasharray:-;" /><text x="222.29999999999998" y="130.0" dominant-baseline="central" fill="black" font-size="14.0" font-family="sans" text-anchor="start"><tspan x="222.29999999999998" dy="14.0">CV OUT 4</tspan></text></svg>