<svg xmlns="http://www.w3.org/2000/svg" xmlns:xlink="http://www.w3.org/1999/xlink" xml:lang="en" height="268.24pt" width="407.1140000000001pt" viewBox="-4.6 -150.60000000000002 407.1140000000001 268.24"><polygon points="261.0,-38.699999999999996 270.0,-51.3 279.0,-38.699999999999996 " style="stroke:black;fill:none;stroke-width:2.0;stroke-dasharray:-;stroke-linecap:round;stroke-linejoin:round;" /><path d="M 90.0,-0.0 L 117.0,-0.0 L 120.0,-9.0 L 126.0,9.0 L 132.0,-9.0 L 138.0,9.0 L 144.0,-9.0 L 149.99999999999997,9.0 L 153.0,-0.0 L 180.0,-0.0" style="stroke:black;fill:none;stroke-width:2.0;stroke-dasharray:-;stroke-linecap:round;stroke-linejoin:round;" /><path d="M 180.0,-0.0 L 180.0,27.0 L 189.0,30.0 L 171.0,36.0 L 189.0,41.99999999999999 L 171.0,48.0 L 189.0,54.0 L 171.0,59.99999999999999 L 180.0,63.0 L 179.99999999999997,90.0" style="stroke:black;fill:none;stroke-width:2.0;stroke-dasharray:-;stroke-linecap:round;stroke-linejoin:round;" /><path d="M 179.99999999999997,90.0 L 179.99999999999997,104.39999999999999 L 170.99999999999997,104.39999999999999 L 188.99999999999997,104.39999999999999 M 173.7,108.72 L 186.29999999999995,108.72 M 178.2,113.04 L 181.79999999999995,113.04" style="stroke:black;fill:none;stroke-width:2.0;stroke-dasharray:-;stroke-linecap:round;stroke-linejoin:round;" /><path d="M 180.0,-0.0 L 225.0,-0.0 L 270.0,-0.0" style="stroke:black;fill:none;stroke-width:2.0;stroke-dasharray:-;stroke-linecap:round;stroke-linejoin:round;" /><path d="M 270.0,-0.0 L 270.0,-38.699999999999996 M 261.0,-51.3 L 279.0,-51.3 M 270.0,-51.3 L 270.0,-90.0" style="stroke:black;fill:none;stroke-width:2.0;stroke-dasharray:-;stroke-linecap:round;stroke-linejoin:round;" /><path d="M 270.0,-90.0 L 270.0,-103.5 L 270.0,-117.0" style="stroke:black;fill:none;stroke-width:2.0;stroke-dasharray:-;stroke-linecap:round;stroke-linejoin:round;" /><path d="M 270.0,-117.0 L 270.0,-131.4" style="stroke:black;fill:none;stroke-width:2.0;stroke-dasharray:-;stroke-linecap:round;stroke-linejoin:round;" /><path d="M 270.0,-131.4 L 263.25,-131.4" style="stroke:black;fill:none;stroke-width:2.0;stroke-dasharray:-;stroke-linecap:round;stroke-linejoin:round;" /><path d="M 270.0,-131.4 L 276.75,-131.4" style="stroke:black;fill:none;stroke-width:2.0;stroke-dasharray:-;stroke-linecap:round;stroke-linejoin:round;" /><path d="M 270.0,-0.0 L 315.0,-0.0 L 360.0,-0.0" style="stroke:black;fill:none;stroke-width:2.0;stroke-dasharray:-;stroke-linecap:round;stroke-linejoin:round;" /><path d="M 90.0,-0.0 L 89.99999999999999,45.0 L 89.99999999999999,90.0" style="stroke:black;fill:none;stroke-width:2.0;stroke-dasharray:-;stroke-linecap:round;stroke-linejoin:round;" /><path d="M 89.99999999999999,90.0 L 89.99999999999999,104.39999999999999 L 80.99999999999999,104.39999999999999 L 98.99999999999999,104.39999999999999 M 83.69999999999999,108.72 L 96.29999999999998,108.72 M 88.19999999999999,113.04 L 91.79999999999998,113.04" style="stroke:black;fill:none;stroke-width:2.0;stroke-dasharray:-;stroke-linecap:round;stroke-linejoin:round;" /><text x="22.5" y="-11.0" dominant-baseline="central" fill="black" font-size="11" font-family="sans" text-anchor="middle"><tspan x="22.5" dy="11">+</tspan></text><text x="45.0" y="-11.0" dominant-baseline="central" fill="black" font-size="11" font-family="sans" text-anchor="middle"><tspan x="45.0" dy="11">CV IN</tspan></text><text x="67.5" y="-11.0" dominant-baseline="central" fill="black" font-size="11" font-family="sans" text-anchor="middle"><tspan x="67.5" dy="11">−</tspan></text><text x="135.0" y="-34.6" dominant-baseline="ideographic" fill="black" font-size="11" font-family="sans" text-anchor="middle"><tspan x="135.0" dy="11">R1</tspan><tspan x="135.0" dy="11">10kΩ</tspan></text><text x="192.6" y="28.5" dominant-baseline="central" fill="black" font-size="11" font-family="sans" text-anchor="start"><tspan x="192.6" dy="11">R2</tspan><tspan x="192.6" dy="11">10kΩ</tspan></text><text x="257.40000000000003" y="-61.5" dominant-baseline="central" fill="black" font-size="11" font-family="sans" text-anchor="end"><tspan x="257.40000000000003" dy="11">D1</tspan><tspan x="257.40000000000003" dy="11">BAT85</tspan></text><text x="270.0" y="-146.0" dominant-baseline="ideographic" fill="black" font-size="11" font-family="sans" text-anchor="middle"><tspan x="270.0" dy="11">3.3V</tspan></text><circle cx="180.0" cy="-0.0" r="2.6999999999999997" style="stroke:black;fill:black;stroke-width:2.0;stroke-dasharray:-;" /><circle cx="360.0" cy="-0.0" r="2.6999999999999997" style="stroke:black;fill:white;stroke-width:2.0;stroke-dasharray:-;" /><text x="366.3" y="-11.0" dominant-baseline="central" fill="black" font-size="11" font-family="sans" text-anchor="start"><tspan x="366.3" dy="11">M4 A3</tspan></text></svg>