<svg xmlns="http://www.w3.org/2000/svg" xmlns:xlink="http://www.w3.org/1999/xlink" xml:lang="en" height="555.0pt" width="998.024pt" viewBox="-60.964 -656.0 998.024 555.0"><polygon points="135.0,-524.6999999999999 144.0,-537.3000000000001 153.0,-524.6999999999999 " style="stroke:black;fill:none;stroke-width:2.0;stroke-dasharray:-;stroke-linecap:round;stroke-linejoin:round;" /><polygon points="135.0,-416.7 144.0,-429.3 153.0,-416.7 " style="stroke:black;fill:none;stroke-width:2.0;stroke-dasharray:-;stroke-linecap:round;stroke-linejoin:round;" /><polygon points="468.0,-450.0 576.0,-450.0 576.0,-626.4 468.0,-626.4 " style="stroke:black;fill:none;stroke-width:2.0;stroke-dasharray:-;stroke-linecap:round;stroke-linejoin:round;" /><polygon points="468.0,-468.0 468.0,-489.59999999999997 446.40000000000003,-489.59999999999997 446.40000000000003,-468.0 " style="stroke:black;fill:none;stroke-width:2.0;stroke-dasharray:-;stroke-linecap:round;stroke-linejoin:round;" /><polygon points="576.0,-468.0 576.0,-489.59999999999997 597.6,-489.59999999999997 597.6,-468.0 " style="stroke:black;fill:none;stroke-width:2.0;stroke-dasharray:-;stroke-linecap:round;stroke-linejoin:round;" /><polygon points="468.0,-507.59999999999997 468.0,-529.1999999999999 446.40000000000003,-529.1999999999999 446.40000000000003,-507.59999999999997 " style="stroke:black;fill:none;stroke-width:2.0;stroke-dasharray:-;stroke-linecap:round;stroke-linejoin:round;" /><polygon points="576.0,-507.59999999999997 576.0,-529.1999999999999 597.6,-529.1999999999999 597.6,-507.59999999999997 " style="stroke:black;fill:none;stroke-width:2.0;stroke-dasharray:-;stroke-linecap:round;stroke-linejoin:round;" /><polygon points="468.0,-547.1999999999999 468.0,-568.8000000000001 446.40000000000003,-568.8000000000001 446.40000000000003,-547.1999999999999 " style="stroke:black;fill:none;stroke-width:2.0;stroke-dasharray:-;stroke-linecap:round;stroke-linejoin:round;" /><polygon points="576.0,-547.1999999999999 576.0,-568.8000000000001 597.6,-568.8000000000001 597.6,-547.1999999999999 " style="stroke:black;fill:none;stroke-width:2.0;stroke-dasharray:-;stroke-linecap:round;stroke-linejoin:round;" /><polygon points="468.0,-586.8000000000001 468.0,-608.4 446.40000000000003,-608.4 446.40000000000003,-586.8000000000001 " style="stroke:black;fill:none;stroke-width:2.0;stroke-dasharray:-;stroke-linecap:round;stroke-linejoin:round;" /><polygon points="576.0,-586.8000000000001 576.0,-608.4 597.6,-608.4 597.6,-586.8000000000001 " style="stroke:black;fill:none;stroke-width:2.0;stroke-dasharray:-;stroke-linecap:round;stroke-linejoin:round;" /><polygon points="468.0,-216.0 576.0,-216.0 576.0,-392.40000000000003 468.0,-392.40000000000003 " style="stroke:black;fill:none;stroke-width:2.0;stroke-dasharray:-;stroke-linecap:round;stroke-linejoin:round;" /><polygon points="468.0,-234.0 468.0,-255.6 446.40000000000003,-255.6 446.40000000000003,-234.0 " style="stroke:black;fill:none;stroke-width:2.0;stroke-dasharray:-;stroke-linecap:round;stroke-linejoin:round;" /><polygon points="576.0,-234.0 576.0,-255.6 597.6,-255.6 597.6,-234.0 " style="stroke:black;fill:none;stroke-width:2.0;stroke-dasharray:-;stroke-linecap:round;stroke-linejoin:round;" /><polygon points="468.0,-273.59999999999997 468.0,-295.2 446.40000000000003,-295.2 446.40000000000003,-273.59999999999997 " style="stroke:black;fill:none;stroke-width:2.0;stroke-dasharray:-;stroke-linecap:round;stroke-linejoin:round;" /><polygon points="576.0,-273.59999999999997 576.0,-295.2 597.6,-295.2 597.6,-273.59999999999997 " style="stroke:black;fill:none;stroke-width:2.0;stroke-dasharray:-;stroke-linecap:round;stroke-linejoin:round;" /><polygon points="468.0,-313.2 468.0,-334.8 446.40000000000003,-334.8 446.40000000000003,-313.2 " style="stroke:black;fill:none;stroke-width:2.0;stroke-dasharray:-;stroke-linecap:round;stroke-linejoin:round;" /><polygon points="576.0,-313.2 576.0,-334.8 597.6,-334.8 597.6,-313.2 " style="stroke:black;fill:none;stroke-width:2.0;stroke-dasharray:-;stroke-linecap:round;stroke-linejoin:round;" /><polygon points="468.0,-352.8 468.0,-374.40000000000003 446.40000000000003,-374.40000000000003 446.40000000000003,-352.8 " style="stroke:black;fill:none;stroke-width:2.0;stroke-dasharray:-;stroke-linecap:round;stroke-linejoin:round;" /><polygon points="576.0,-352.8 576.0,-374.40000000000003 597.6,-374.40000000000003 597.6,-352.8 " style="stroke:black;fill:none;stroke-width:2.0;stroke-dasharray:-;stroke-linecap:round;stroke-linejoin:round;" /><polygon points="767.6999999999999,-279.0 780.3000000000001,-270.0 767.6999999999999,-261.0 " style="stroke:black;fill:none;stroke-width:2.0;stroke-dasharray:-;stroke-linecap:round;stroke-linejoin:round;" /><polygon points="767.6999999999999,-243.0 780.3000000000001,-234.0 767.6999999999999,-225.0 " style="stroke:black;fill:none;stroke-width:2.0;stroke-dasharray:-;stroke-linecap:round;stroke-linejoin:round;" /><polygon points="767.6999999999999,-207.0 780.3000000000001,-198.0 767.6999999999999,-189.0 " style="stroke:black;fill:none;stroke-width:2.0;stroke-dasharray:-;stroke-linecap:round;stroke-linejoin:round;" /><polygon points="767.6999999999999,-171.0 780.3000000000001,-162.0 767.6999999999999,-153.0 " style="stroke:black;fill:none;stroke-width:2.0;stroke-dasharray:-;stroke-linecap:round;stroke-linejoin:round;" /><path d="M 0.0,-504.0 L 18.0,-504.0 L 21.0,-513.0 L 27.0,-495.0 L 33.0,-513.0 L 39.0,-495.0 L 45.0,-513.0 L 50.99999999999999,-495.0 L 54.0,-504.0 L 72.0,-504.0" style="stroke:black;fill:none;stroke-width:2.0;stroke-dasharray:-;stroke-linecap:round;stroke-linejoin:round;" /><path d="M 72.0,-504.0 L 90.0,-504.0 L 93.0,-513.0 L 99.0,-495.0 L 105.0,-513.0 L 110.99999999999999,-495.0 L 117.0,-513.0 L 123.0,-495.0 L 126.0,-504.0 L 144.0,-504.0" style="stroke:black;fill:none;stroke-width:2.0;stroke-dasharray:-;stroke-linecap:round;stroke-linejoin:round;" /><path d="M 144.0,-504.0 L 144.0,-524.6999999999999 M 135.0,-537.3000000000001 L 153.0,-537.3000000000001 M 144.0,-537.3000000000001 L 144.0,-558.0" style="stroke:black;fill:none;stroke-width:2.0;stroke-dasharray:-;stroke-linecap:round;stroke-linejoin:round;" /><path d="M 288.0,-504.0 L 324.0,-504.0 L 360.0,-504.0" style="stroke:black;fill:none;stroke-width:2.0;stroke-dasharray:-;stroke-linecap:round;stroke-linejoin:round;" /><path d="M 0.0,-396.0 L 18.0,-396.0 L 21.0,-405.0 L 27.0,-387.0 L 33.0,-405.0 L 39.0,-387.0 L 45.0,-405.0 L 50.99999999999999,-387.0 L 54.0,-396.0 L 72.0,-396.0" style="stroke:black;fill:none;stroke-width:2.0;stroke-dasharray:-;stroke-linecap:round;stroke-linejoin:round;" /><path d="M 72.0,-396.0 L 90.0,-396.0 L 93.0,-405.0 L 99.0,-387.0 L 105.0,-405.0 L 110.99999999999999,-387.0 L 117.0,-405.0 L 123.0,-387.0 L 126.0,-396.0 L 144.0,-396.0" style="stroke:black;fill:none;stroke-width:2.0;stroke-dasharray:-;stroke-linecap:round;stroke-linejoin:round;" /><path d="M 144.0,-396.0 L 144.0,-416.7 M 135.0,-429.3 L 153.0,-429.3 M 144.0,-429.3 L 144.0,-450.0" style="stroke:black;fill:none;stroke-width:2.0;stroke-dasharray:-;stroke-linecap:round;stroke-linejoin:round;" /><path d="M 288.0,-396.0 L 324.0,-396.0 L 360.0,-396.0" style="stroke:black;fill:none;stroke-width:2.0;stroke-dasharray:-;stroke-linecap:round;stroke-linejoin:round;" /><path d="M 511.2,-626.4 L 511.2221897582964,-625.7080416242082 L 511.2886678507089,-625.0189266538073 L 511.3991611044965,-624.3354868100251 L 511.55321547917845,-623.6605304937773 L 511.7501979322848,-622.9968312453449 L 511.98929902066294,-622.3471163473029 L 512.2695362266538,-621.7140556175303 L 512.5897579954674,-621.1002504383575 L 512.9486484671681,-620.5082230669261 L 513.344732883826,-619.9404062706948 L 513.7763836496133,-619.3991333306759 L 514.2418270189445,-618.8866284534824 L 514.7391503851778,-618.4049976315866 L 515.2663101399257,-617.9562199893452 L 515.8211400706805,-617.5421396503529 L 516.4013602622464,-617.1644581595423 L 517.004586465399,-616.8247274911715 L 517.6283398942782,-616.5243436714293 L 518.2700574122499,-616.2645410418627 L 518.9271020643848,-616.0463871872041 L 519.5967739132718,-615.8707785484363 L 520.2763211336395,-615.738436739124 L 520.962951320197,-615.6499055801487 L 521.6538429622261,-615.6055488650327 L 522.3461570377739,-615.6055488650327 L 523.037048679803,-615.6499055801487 L 523.7236788663605,-615.738436739124 L 524.4032260867282,-615.8707785484363 L 525.0728979356152,-616.0463871872041 L 525.7299425877501,-616.2645410418627 L 526.3716601057218,-616.5243436714293 L 526.9954135346011,-616.8247274911715 L 527.5986397377536,-617.1644581595423 L 528.1788599293195,-617.5421396503529 L 528.7336898600743,-617.9562199893452 L 529.2608496148222,-618.4049976315866 L 529.7581729810555,-618.8866284534824 L 530.2236163503867,-619.3991333306759 L 530.655267116174,-619.9404062706948 L 531.0513515328319,-620.5082230669261 L 531.4102420045326,-621.1002504383575 L 531.7304637733462,-621.7140556175303 L 532.010700979337,-622.3471163473029 L 532.2498020677152,-622.9968312453449 L 532.4467845208216,-623.6605304937773 L 532.6008388955036,-624.3354868100251 L 532.7113321492911,-625.0189266538073 L 532.7778102417036,-625.7080416242082 L 532.8000000000001,-626.4" style="stroke:black;fill:none;stroke-width:2.0;stroke-dasharray:-;stroke-linecap:round;stroke-linejoin:round;" /><path d="M 511.2,-392.40000000000003 L 511.2221897582964,-391.7080416242083 L 511.2886678507089,-391.01892665380734 L 511.3991611044965,-390.3354868100252 L 511.55321547917845,-389.66053049377734 L 511.7501979322848,-388.9968312453449 L 511.98929902066294,-388.3471163473028 L 512.2695362266538,-387.7140556175304 L 512.5897579954674,-387.1002504383575 L 512.9486484671681,-386.5082230669261 L 513.344732883826,-385.9404062706949 L 513.7763836496133,-385.3991333306759 L 514.2418270189445,-384.8866284534824 L 514.7391503851778,-384.40499763158664 L 515.2663101399257,-383.9562199893453 L 515.8211400706805,-383.54213965035285 L 516.4013602622464,-383.1644581595423 L 517.004586465399,-382.8247274911716 L 517.6283398942782,-382.5243436714293 L 518.2700574122499,-382.2645410418626 L 518.9271020643848,-382.0463871872041 L 519.5967739132718,-381.8707785484363 L 520.2763211336395,-381.738436739124 L 520.962951320197,-381.6499055801487 L 521.6538429622261,-381.6055488650326 L 522.3461570377739,-381.6055488650326 L 523.037048679803,-381.6499055801487 L 523.7236788663605,-381.738436739124 L 524.4032260867282,-381.8707785484363 L 525.0728979356152,-382.0463871872041 L 525.7299425877501,-382.2645410418626 L 526.3716601057218,-382.5243436714293 L 526.9954135346011,-382.8247274911716 L 527.5986397377536,-383.1644581595423 L 528.1788599293195,-383.54213965035285 L 528.7336898600743,-383.9562199893453 L 529.2608496148222,-384.40499763158664 L 529.7581729810555,-384.8866284534824 L 530.2236163503867,-385.3991333306759 L 530.655267116174,-385.9404062706949 L 531.0513515328319,-386.5082230669261 L 531.4102420045326,-387.1002504383575 L 531.7304637733462,-387.7140556175304 L 532.010700979337,-388.3471163473028 L 532.2498020677152,-388.9968312453449 L 532.4467845208216,-389.66053049377734 L 532.6008388955036,-390.3354868100252 L 532.7113321492911,-391.01892665380734 L 532.7778102417036,-391.7080416242083 L 532.8000000000001,-392.40000000000003" style="stroke:black;fill:none;stroke-width:2.0;stroke-dasharray:-;stroke-linecap:round;stroke-linejoin:round;" /><path d="M 648.0,-270.0 L 666.0,-270.0 L 669.0,-279.0 L 675.0,-261.0 L 681.0,-279.0 L 687.0,-261.0 L 693.0,-279.0 L 699.0,-261.0 L 702.0,-270.0 L 720.0,-270.0" style="stroke:black;fill:none;stroke-width:2.0;stroke-dasharray:-;stroke-linecap:round;stroke-linejoin:round;" /><path d="M 720.0,-270.0 L 767.6999999999999,-270.0 M 780.3000000000001,-279.0 L 780.3000000000001,-261.0 M 780.3000000000001,-270.0 L 828.0,-270.0" style="stroke:black;fill:none;stroke-width:2.0;stroke-dasharray:-;stroke-linecap:round;stroke-linejoin:round;" /><path d="M 776.6999999999999,-283.5 L 782.1277996438307,-292.99864937670384" style="stroke:black;fill:none;stroke-width:2.0;stroke-dasharray:-;stroke-linecap:round;stroke-linejoin:round;" /><path d="M 784.7077221232863 -297.51351371575106 L 784.6283398931492 -291.56976923423616 L 779.6272593945123 -294.42752951917157 Z" style="stroke:black;fill:black;stroke-linecap:butt;stroke-linejoin:miter;" /><path d="M 768.6,-283.5 L 774.0277996438308,-292.99864937670384" style="stroke:black;fill:none;stroke-width:2.0;stroke-dasharray:-;stroke-linecap:round;stroke-linejoin:round;" /><path d="M 776.6077221232864 -297.51351371575106 L 776.5283398931493 -291.56976923423616 L 771.5272593945124 -294.42752951917157 Z" style="stroke:black;fill:black;stroke-linecap:butt;stroke-linejoin:miter;" /><path d="M 828.0,-270.0 L 846.0,-270.0 L 864.0,-270.0" style="stroke:black;fill:none;stroke-width:2.0;stroke-dasharray:-;stroke-linecap:round;stroke-linejoin:round;" /><path d="M 648.0,-234.0 L 666.0,-234.0 L 669.0,-243.0 L 675.0,-225.0 L 681.0,-243.0 L 687.0,-225.0 L 693.0,-243.0 L 699.0,-225.0 L 702.0,-234.0 L 720.0,-234.0" style="stroke:black;fill:none;stroke-width:2.0;stroke-dasharray:-;stroke-linecap:round;stroke-linejoin:round;" /><path d="M 720.0,-234.0 L 767.6999999999999,-234.0 M 780.3000000000001,-243.0 L 780.3000000000001,-225.0 M 780.3000000000001,-234.0 L 828.0,-234.0" style="stroke:black;fill:none;stroke-width:2.0;stroke-dasharray:-;stroke-linecap:round;stroke-linejoin:round;" /><path d="M 776.6999999999999,-247.5 L 782.1277996438307,-256.9986493767039" style="stroke:black;fill:none;stroke-width:2.0;stroke-dasharray:-;stroke-linecap:round;stroke-linejoin:round;" /><path d="M 784.7077221232863 -261.51351371575106 L 784.6283398931492 -255.5697692342362 L 779.6272593945123 -258.42752951917157 Z" style="stroke:black;fill:black;stroke-linecap:butt;stroke-linejoin:miter;" /><path d="M 768.6,-247.5 L 774.0277996438308,-256.9986493767039" style="stroke:black;fill:none;stroke-width:2.0;stroke-dasharray:-;stroke-linecap:round;stroke-linejoin:round;" /><path d="M 776.6077221232864 -261.51351371575106 L 776.5283398931493 -255.5697692342362 L 771.5272593945124 -258.42752951917157 Z" style="stroke:black;fill:black;stroke-linecap:butt;stroke-linejoin:miter;" /><path d="M 828.0,-234.0 L 846.0,-234.0 L 864.0,-234.0" style="stroke:black;fill:none;stroke-width:2.0;stroke-dasharray:-;stroke-linecap:round;stroke-linejoin:round;" /><path d="M 648.0,-198.0 L 666.0,-198.0 L 669.0,-207.0 L 675.0,-189.0 L 681.0,-207.0 L 687.0,-189.0 L 693.0,-207.0 L 699.0,-189.0 L 702.0,-198.0 L 720.0,-198.0" style="stroke:black;fill:none;stroke-width:2.0;stroke-dasharray:-;stroke-linecap:round;stroke-linejoin:round;" /><path d="M 720.0,-198.0 L 767.6999999999999,-198.0 M 780.3000000000001,-207.0 L 780.3000000000001,-189.0 M 780.3000000000001,-198.0 L 828.0,-198.0" style="stroke:black;fill:none;stroke-width:2.0;stroke-dasharray:-;stroke-linecap:round;stroke-linejoin:round;" /><path d="M 776.6999999999999,-211.5 L 782.1277996438307,-220.9986493767039" style="stroke:black;fill:none;stroke-width:2.0;stroke-dasharray:-;stroke-linecap:round;stroke-linejoin:round;" /><path d="M 784.7077221232863 -225.5135137157511 L 784.6283398931492 -219.56976923423622 L 779.6272593945123 -222.42752951917157 Z" style="stroke:black;fill:black;stroke-linecap:butt;stroke-linejoin:miter;" /><path d="M 768.6,-211.5 L 774.0277996438308,-220.9986493767039" style="stroke:black;fill:none;stroke-width:2.0;stroke-dasharray:-;stroke-linecap:round;stroke-linejoin:round;" /><path d="M 776.6077221232864 -225.5135137157511 L 776.5283398931493 -219.56976923423622 L 771.5272593945124 -222.42752951917157 Z" style="stroke:black;fill:black;stroke-linecap:butt;stroke-linejoin:miter;" /><path d="M 828.0,-198.0 L 846.0,-198.0 L 864.0,-198.0" style="stroke:black;fill:none;stroke-width:2.0;stroke-dasharray:-;stroke-linecap:round;stroke-linejoin:round;" /><path d="M 648.0,-162.0 L 666.0,-162.0 L 669.0,-171.0 L 675.0,-153.0 L 681.0,-171.0 L 687.0,-153.0 L 693.0,-171.0 L 699.0,-153.0 L 702.0,-162.0 L 720.0,-162.0" style="stroke:black;fill:none;stroke-width:2.0;stroke-dasharray:-;stroke-linecap:round;stroke-linejoin:round;" /><path d="M 720.0,-162.0 L 767.6999999999999,-162.0 M 780.3000000000001,-171.0 L 780.3000000000001,-153.0 M 780.3000000000001,-162.0 L 828.0,-162.0" style="stroke:black;fill:none;stroke-width:2.0;stroke-dasharray:-;stroke-linecap:round;stroke-linejoin:round;" /><path d="M 776.6999999999999,-175.5 L 782.1277996438307,-184.9986493767039" style="stroke:black;fill:none;stroke-width:2.0;stroke-dasharray:-;stroke-linecap:round;stroke-linejoin:round;" /><path d="M 784.7077221232863 -189.5135137157511 L 784.6283398931492 -183.56976923423622 L 779.6272593945123 -186.42752951917157 Z" style="stroke:black;fill:black;stroke-linecap:butt;stroke-linejoin:miter;" /><path d="M 768.6,-175.5 L 774.0277996438308,-184.9986493767039" style="stroke:black;fill:none;stroke-width:2.0;stroke-dasharray:-;stroke-linecap:round;stroke-linejoin:round;" /><path d="M 776.6077221232864 -189.5135137157511 L 776.5283398931493 -183.56976923423622 L 771.5272593945124 -186.42752951917157 Z" style="stroke:black;fill:black;stroke-linecap:butt;stroke-linejoin:miter;" /><path d="M 828.0,-162.0 L 846.0,-162.0 L 864.0,-162.0" style="stroke:black;fill:none;stroke-width:2.0;stroke-dasharray:-;stroke-linecap:round;stroke-linejoin:round;" /><path d="M 468.0,-306.0 L 468.0,-279.0 L 468.0,-252.0" style="stroke:black;fill:none;stroke-width:2.0;stroke-dasharray:-;stroke-linecap:round;stroke-linejoin:round;" /><text x="36.0" y="-559.0" dominant-baseline="ideographic" fill="black" font-size="14.0" font-family="sans" text-anchor="middle"><tspan x="36.0" dy="14.0">R1</tspan><tspan x="36.0" dy="14.0">10kΩ</tspan></text><text x="108.0" y="-559.0" dominant-baseline="ideographic" fill="black" font-size="14.0" font-family="sans" text-anchor="middle"><tspan x="108.0" dy="14.0">R2</tspan><tspan x="108.0" dy="14.0">10kΩ</tspan></text><text x="144.0" y="-604.0" dominant-baseline="ideographic" fill="black" font-size="14.0" font-family="sans" text-anchor="middle"><tspan x="144.0" dy="14.0">D1</tspan><tspan x="144.0" dy="14.0">BAT85</tspan></text><text x="36.0" y="-451.0" dominant-baseline="ideographic" fill="black" font-size="14.0" font-family="sans" text-anchor="middle"><tspan x="36.0" dy="14.0">R4</tspan><tspan x="36.0" dy="14.0">10kΩ</tspan></text><text x="108.0" y="-451.0" dominant-baseline="ideographic" fill="black" font-size="14.0" font-family="sans" text-anchor="middle"><tspan x="108.0" dy="14.0">R5</tspan><tspan x="108.0" dy="14.0">10kΩ</tspan></text><text x="144.0" y="-496.0" dominant-baseline="ideographic" fill="black" font-size="14.0" font-family="sans" text-anchor="middle"><tspan x="144.0" dy="14.0">D2</tspan><tspan x="144.0" dy="14.0">BAT85</tspan></text><text x="183.6" y="-591.6" dominant-baseline="central" fill="black" font-size="12" font-family="sans" text-anchor="middle"><tspan x="183.6" dy="12">TOP BOARD: INPUT PROTECTION</tspan></text><text x="457.2" y="-488.8" dominant-baseline="central" fill="black" font-size="10" font-family="sans" text-anchor="middle"><tspan x="457.2" dy="10">4</tspan></text><text x="586.8000000000001" y="-488.8" dominant-baseline="central" fill="black" font-size="10" font-family="sans" text-anchor="middle"><tspan x="586.8000000000001" dy="10">5</tspan></text><text x="457.2" y="-528.4" dominant-baseline="central" fill="black" font-size="10" font-family="sans" text-anchor="middle"><tspan x="457.2" dy="10">3</tspan></text><text x="586.8000000000001" y="-528.4" dominant-baseline="central" fill="black" font-size="10" font-family="sans" text-anchor="middle"><tspan x="586.8000000000001" dy="10">6</tspan></text><text x="457.2" y="-568.0" dominant-baseline="central" fill="black" font-size="10" font-family="sans" text-anchor="middle"><tspan x="457.2" dy="10">2</tspan></text><text x="586.8000000000001" y="-568.0" dominant-baseline="central" fill="black" font-size="10" font-family="sans" text-anchor="middle"><tspan x="586.8000000000001" dy="10">7</tspan></text><text x="457.2" y="-607.6" dominant-baseline="central" fill="black" font-size="10" font-family="sans" text-anchor="middle"><tspan x="457.2" dy="10">1</tspan></text><text x="586.8000000000001" y="-607.6" dominant-baseline="central" fill="black" font-size="10" font-family="sans" text-anchor="middle"><tspan x="586.8000000000001" dy="10">8</tspan></text><text x="522.0" y="-641.0" dominant-baseline="ideographic" fill="black" font-size="11" font-family="sans" text-anchor="middle"><tspan x="522.0" dy="11">Feather M4 CAN</tspan></text><text x="457.2" y="-254.79999999999998" dominant-baseline="central" fill="black" font-size="10" font-family="sans" text-anchor="middle"><tspan x="457.2" dy="10">4</tspan></text><text x="586.8000000000001" y="-254.79999999999998" dominant-baseline="central" fill="black" font-size="10" font-family="sans" text-anchor="middle"><tspan x="586.8000000000001" dy="10">5</tspan></text><text x="457.2" y="-294.40000000000003" dominant-baseline="central" fill="black" font-size="10" font-family="sans" text-anchor="middle"><tspan x="457.2" dy="10">3</tspan></text><text x="586.8000000000001" y="-294.40000000000003" dominant-baseline="central" fill="black" font-size="10" font-family="sans" text-anchor="middle"><tspan x="586.8000000000001" dy="10">6</tspan></text><text x="457.2" y="-334.0" dominant-baseline="central" fill="black" font-size="10" font-family="sans" text-anchor="middle"><tspan x="457.2" dy="10">2</tspan></text><text x="586.8000000000001" y="-334.0" dominant-baseline="central" fill="black" font-size="10" font-family="sans" text-anchor="middle"><tspan x="586.8000000000001" dy="10">7</tspan></text><text x="457.2" y="-373.59999999999997" dominant-baseline="central" fill="black" font-size="10" font-family="sans" text-anchor="middle"><tspan x="457.2" dy="10">1</tspan></text><text x="586.8000000000001" y="-373.59999999999997" dominant-baseline="central" fill="black" font-size="10" font-family="sans" text-anchor="middle"><tspan x="586.8000000000001" dy="10">8</tspan></text><text x="522.0" y="-407.0" dominant-baseline="ideographic" fill="black" font-size="11" font-family="sans" text-anchor="middle"><tspan x="522.0" dy="11">MCP4728 DAC</tspan></text><text x="684.0" y="-325.0" dominant-baseline="ideographic" fill="black" font-size="14.0" font-family="sans" text-anchor="middle"><tspan x="684.0" dy="14.0">R6</tspan><tspan x="684.0" dy="14.0">100Ω</tspan></text><text x="774.0" y="-337.01" dominant-baseline="ideographic" fill="black" font-size="14.0" font-family="sans" text-anchor="middle"><tspan x="774.0" dy="14.0">LED1</tspan></text><text x="684.0" y="-289.0" dominant-baseline="ideographic" fill="black" font-size="14.0" font-family="sans" text-anchor="middle"><tspan x="684.0" dy="14.0">R7</tspan><tspan x="684.0" dy="14.0">100Ω</tspan></text><text x="774.0" y="-301.01" dominant-baseline="ideographic" fill="black" font-size="14.0" font-family="sans" text-anchor="middle"><tspan x="774.0" dy="14.0">LED2</tspan></text><text x="684.0" y="-253.0" dominant-baseline="ideographic" fill="black" font-size="14.0" font-family="sans" text-anchor="middle"><tspan x="684.0" dy="14.0">R8</tspan><tspan x="684.0" dy="14.0">100Ω</tspan></text><text x="774.0" y="-265.01" dominant-baseline="ideographic" fill="black" font-size="14.0" font-family="sans" text-anchor="middle"><tspan x="774.0" dy="14.0">LED3</tspan></text><text x="684.0" y="-217.0" dominant-baseline="ideographic" fill="black" font-size="14.0" font-family="sans" text-anchor="middle"><tspan x="684.0" dy="14.0">R9</tspan><tspan x="684.0" dy="14.0">100Ω</tspan></text><text x="774.0" y="-229.01" dominant-baseline="ideographic" fill="black" font-size="14.0" font-family="sans" text-anchor="middle"><tspan x="774.0" dy="14.0">LED4</tspan></text><text x="759.6" y="-123.60000000000001" dominant-baseline="central" fill="black" font-size="12" font-family="sans" text-anchor="middle"><tspan x="759.6" dy="12">BOTTOM BOARD: DAC + LED INDICATORS</tspan></text><text x="468.0" y="-325.8" dominant-baseline="ideographic" fill="black" font-size="9" font-family="sans" text-anchor="middle"><tspan x="468.0" dy="9">I2C</tspan></text><text x="471.59999999999997" y="-658.4" dominant-baseline="central" fill="black" font-size="14" font-family="sans" text-anchor="middle"><tspan x="471.59999999999997" dy="14">PRISME HARDWARE SYSTEM</tspan></text><circle cx="0.0" cy="-504.0" r="2.6999999999999997" style="stroke:black;fill:black;stroke-width:2.0;stroke-dasharray:-;" /><text x="-6.3" y="-518.0" dominant-baseline="central" fill="black" font-size="14.0" font-family="sans" text-anchor="end"><tspan x="-6.3" dy="14.0">CV IN</tspan></text><circle cx="360.0" cy="-504.0" r="2.6999999999999997" style="stroke:black;fill:black;stroke-width:2.0;stroke-dasharray:-;" /><text x="373.5" y="-518.0" dominant-baseline="central" fill="black" font-size="14.0" font-family="sans" text-anchor="start"><tspan x="373.5" dy="14.0">M4 A3</tspan></text><circle cx="0.0" cy="-396.0" r="2.6999999999999997" style="stroke:black;fill:black;stroke-width:2.0;stroke-dasharray:-;" /><text x="-6.3" y="-410.0" dominant-baseline="central" fill="black" font-size="14.0" font-family="sans" text-anchor="end"><tspan x="-6.3" dy="14.0">TRIG IN</tspan></text><circle cx="360.0" cy="-396.0" r="2.6999999999999997" style="stroke:black;fill:black;stroke-width:2.0;stroke-dasharray:-;" /><text x="373.5" y="-410.0" dominant-baseline="central" fill="black" font-size="14.0" font-family="sans" text-anchor="start"><tspan x="373.5" dy="14.0">M4 A4</tspan></text><circle cx="648.0" cy="-270.0" r="2.6999999999999997" style="stroke:black;fill:black;stroke-width:2.0;stroke-dasharray:-;" /><text x="634.5" y="-284.0" dominant-baseline="central" fill="black" font-size="14.0" font-family="sans" text-anchor="end"><tspan x="634.5" dy="14.0">VA</tspan></text><circle cx="864.0" cy="-270.0" r="2.6999999999999997" style="stroke:black;fill:black;stroke-width:2.0;stroke-dasharray:-;" /><text x="870.3000000000001" y="-284.0" dominant-baseline="central" fill="black" font-size="14.0" font-family="sans" text-anchor="start"><tspan x="870.3000000000001" dy="14.0">CV OUT 1</tspan></text><circle cx="648.0" cy="-234.0" r="2.6999999999999997" style="stroke:black;fill:black;stroke-width:2.0;stroke-dasharray:-;" /><text x="634.5" y="-248.0" dominant-baseline="central" fill="black" font-size="14.0" font-family="sans" text-anchor="end"><tspan x="634.5" dy="14.0">VB</tspan></text><circle cx="864.0" cy="-234.0" r="2.6999999999999997" style="stroke:black;fill:black;stroke-width:2.0;stroke-dasharray:-;" /><text x="870.3000000000001" y="-248.0" dominant-baseline="central" fill="black" font-size="14.0" font-family="sans" text-anchor="start"><tspan x="870.3000000000001" dy="14.0">CV OUT 2</tspan></text><circle cx="648.0" cy="-198.0" r="2.6999999999999997" style="stroke:black;fill:black;stroke-width:2.0;stroke-dasharray:-;" /><text x="634.5" y="-212.0" dominant-baseline="central" fill="black" font-size="14.0" font-family="sans" text-anchor="end"><tspan x="634.5" dy="14.0">VC</tspan></text><circle cx="864.0" cy="-198.0" r="2.6999999999999997" style="stroke:black;fill:black;stroke-width:2.0;stroke-dasharray:-;" /><text x="870.3000000000001" y="-212.0" dominant-baseline="central" fill="black" font-size="14.0" font-family="sans" text-anchor="start"><tspan x="870.3000000000001" dy="14.0">CV OUT 3</tspan></text><circle cx="648.0" cy="-162.0" r="2.6999999999999997" style="stroke:black;fill:black;stroke-width:2.0;stroke-dasharray:-;" /><text x="634.5" y="-176.0" dominant-baseline="central" fill="black" font-size="14.0" font-family="sans" text-anchor="end"><tspan x="634.5" dy="14.0">VD</tspan></text><circle cx="864.0" cy="-162.0" r="2.6999999999999997" style="stroke:black;fill:black;stroke-width:2.0;stroke-dasharray:-;" /><text x="870.3000000000001" y="-176.0" dominant-baseline="central" fill="black" font-size="14.0" font-family="sans" text-anchor="start"><tspan x="870.3000000000001" dy="14.0">CV OUT 4</tspan></text></svg>