<svg xmlns="http://www.w3.org/2000/svg" xmlns:xlink="http://www.w3.org/1999/xlink" xml:lang="en" height="420.24pt" width="782.3599999999999pt" viewBox="-4.6 -392.6 782.3599999999999 420.24"><polygon points="605.6999999999999,-279.0 618.3000000000001,-270.0 605.6999999999999,-261.0 " style="stroke:black;fill:none;stroke-width:2.0;stroke-dasharray:-;stroke-linecap:round;stroke-linejoin:round;" /><polygon points="605.6999999999999,-225.0 618.3000000000001,-216.0 605.6999999999999,-207.0 " style="stroke:black;fill:none;stroke-width:2.0;stroke-dasharray:-;stroke-linecap:round;stroke-linejoin:round;" /><polygon points="605.6999999999999,-171.0 618.3000000000001,-162.0 605.6999999999999,-153.0 " style="stroke:black;fill:none;stroke-width:2.0;stroke-dasharray:-;stroke-linecap:round;stroke-linejoin:round;" /><circle cx="595.8000000000001" cy="-72.0" r="19.8" style="stroke:black;fill:none;stroke-width:2.0;stroke-dasharray:-;" /><path d="M 0.0,-360.0 L 360.0,-360.0 L 720.0,-360.0" style="stroke:black;fill:none;stroke-width:2.0;stroke-dasharray:-;stroke-linecap:round;stroke-linejoin:round;" /><path d="M 720.0,-360.0 L 720.0,-374.40000000000003" style="stroke:black;fill:none;stroke-width:2.0;stroke-dasharray:-;stroke-linecap:round;stroke-linejoin:round;" /><path d="M 720.0,-374.40000000000003 L 713.25,-374.40000000000003" style="stroke:black;fill:none;stroke-width:2.0;stroke-dasharray:-;stroke-linecap:round;stroke-linejoin:round;" /><path d="M 720.0,-374.40000000000003 L 726.75,-374.40000000000003" style="stroke:black;fill:none;stroke-width:2.0;stroke-dasharray:-;stroke-linecap:round;stroke-linejoin:round;" /><path d="M 0.0,-324.0 L 360.0,-324.0 L 720.0,-324.0" style="stroke:black;fill:none;stroke-width:2.0;stroke-dasharray:-;stroke-linecap:round;stroke-linejoin:round;" /><path d="M 720.0,-324.0 L 720.0,-338.40000000000003" style="stroke:black;fill:none;stroke-width:2.0;stroke-dasharray:-;stroke-linecap:round;stroke-linejoin:round;" /><path d="M 720.0,-338.40000000000003 L 713.25,-338.40000000000003" style="stroke:black;fill:none;stroke-width:2.0;stroke-dasharray:-;stroke-linecap:round;stroke-linejoin:round;" /><path d="M 720.0,-338.40000000000003 L 726.75,-338.40000000000003" style="stroke:black;fill:none;stroke-width:2.0;stroke-dasharray:-;stroke-linecap:round;stroke-linejoin:round;" /><path d="M 72.0,-252.0 L 90.0,-252.0 L 93.0,-261.0 L 99.0,-243.0 L 105.0,-261.0 L 110.99999999999999,-243.0 L 117.0,-261.0 L 123.0,-243.0 L 126.0,-252.0 L 144.0,-252.0" style="stroke:black;fill:none;stroke-width:2.0;stroke-dasharray:-;stroke-linecap:round;stroke-linejoin:round;" /><path d="M 144.0,-252.0 L 144.0,-234.0 L 153.0,-231.0 L 135.0,-225.0 L 153.0,-219.0 L 135.0,-213.0 L 153.0,-207.0 L 134.99999999999997,-201.00000000000003 L 143.99999999999997,-198.0 L 143.99999999999997,-180.0" style="stroke:black;fill:none;stroke-width:2.0;stroke-dasharray:-;stroke-linecap:round;stroke-linejoin:round;" /><path d="M 144.0,-252.0 L 162.0,-252.0 L 180.0,-252.0" style="stroke:black;fill:none;stroke-width:2.0;stroke-dasharray:-;stroke-linecap:round;stroke-linejoin:round;" /><path d="M 72.0,-144.0 L 90.0,-144.0 L 93.0,-153.0 L 99.0,-135.0 L 105.0,-153.0 L 110.99999999999999,-135.0 L 117.0,-153.0 L 123.0,-135.0 L 126.0,-144.0 L 144.0,-144.0" style="stroke:black;fill:none;stroke-width:2.0;stroke-dasharray:-;stroke-linecap:round;stroke-linejoin:round;" /><path d="M 144.0,-144.0 L 144.0,-126.0 L 153.0,-123.0 L 135.0,-117.0 L 153.0,-111.0 L 135.0,-105.00000000000001 L 153.0,-99.0 L 134.99999999999997,-93.0 L 143.99999999999997,-90.0 L 143.99999999999997,-72.0" style="stroke:black;fill:none;stroke-width:2.0;stroke-dasharray:-;stroke-linecap:round;stroke-linejoin:round;" /><path d="M 144.0,-144.0 L 162.0,-144.0 L 180.0,-144.0" style="stroke:black;fill:none;stroke-width:2.0;stroke-dasharray:-;stroke-linecap:round;stroke-linejoin:round;" /><path d="M 504.0,-270.0 L 522.0,-270.0 L 525.0,-279.0 L 531.0,-261.0 L 537.0,-279.0 L 543.0,-261.0 L 549.0,-279.0 L 555.0,-261.0 L 558.0,-270.0 L 576.0,-270.0" style="stroke:black;fill:none;stroke-width:2.0;stroke-dasharray:-;stroke-linecap:round;stroke-linejoin:round;" /><path d="M 576.0,-270.0 L 605.6999999999999,-270.0 M 618.3000000000001,-279.0 L 618.3000000000001,-261.0 M 618.3000000000001,-270.0 L 648.0,-270.0" style="stroke:black;fill:none;stroke-width:2.0;stroke-dasharray:-;stroke-linecap:round;stroke-linejoin:round;" /><path d="M 614.6999999999999,-283.5 L 620.1277996438307,-292.99864937670384" style="stroke:black;fill:none;stroke-width:2.0;stroke-dasharray:-;stroke-linecap:round;stroke-linejoin:round;" /><path d="M 622.7077221232863 -297.51351371575106 L 622.6283398931492 -291.56976923423616 L 617.6272593945123 -294.42752951917157 Z" style="stroke:black;fill:black;stroke-linecap:butt;stroke-linejoin:miter;" /><path d="M 606.6,-283.5 L 612.0277996438308,-292.99864937670384" style="stroke:black;fill:none;stroke-width:2.0;stroke-dasharray:-;stroke-linecap:round;stroke-linejoin:round;" /><path d="M 614.6077221232864 -297.51351371575106 L 614.5283398931493 -291.56976923423616 L 609.5272593945124 -294.42752951917157 Z" style="stroke:black;fill:black;stroke-linecap:butt;stroke-linejoin:miter;" /><path d="M 648.0,-270.0 L 684.0,-270.0 L 720.0,-270.0" style="stroke:black;fill:none;stroke-width:2.0;stroke-dasharray:-;stroke-linecap:round;stroke-linejoin:round;" /><path d="M 504.0,-216.0 L 522.0,-216.0 L 525.0,-225.0 L 531.0,-207.0 L 537.0,-225.0 L 543.0,-207.0 L 549.0,-225.0 L 555.0,-207.0 L 558.0,-216.0 L 576.0,-216.0" style="stroke:black;fill:none;stroke-width:2.0;stroke-dasharray:-;stroke-linecap:round;stroke-linejoin:round;" /><path d="M 576.0,-216.0 L 605.6999999999999,-216.0 M 618.3000000000001,-225.0 L 618.3000000000001,-207.0 M 618.3000000000001,-216.0 L 648.0,-216.0" style="stroke:black;fill:none;stroke-width:2.0;stroke-dasharray:-;stroke-linecap:round;stroke-linejoin:round;" /><path d="M 614.6999999999999,-229.5 L 620.1277996438307,-238.9986493767039" style="stroke:black;fill:none;stroke-width:2.0;stroke-dasharray:-;stroke-linecap:round;stroke-linejoin:round;" /><path d="M 622.7077221232863 -243.5135137157511 L 622.6283398931492 -237.56976923423622 L 617.6272593945123 -240.42752951917157 Z" style="stroke:black;fill:black;stroke-linecap:butt;stroke-linejoin:miter;" /><path d="M 606.6,-229.5 L 612.0277996438308,-238.9986493767039" style="stroke:black;fill:none;stroke-width:2.0;stroke-dasharray:-;stroke-linecap:round;stroke-linejoin:round;" /><path d="M 614.6077221232864 -243.5135137157511 L 614.5283398931493 -237.56976923423622 L 609.5272593945124 -240.42752951917157 Z" style="stroke:black;fill:black;stroke-linecap:butt;stroke-linejoin:miter;" /><path d="M 648.0,-216.0 L 684.0,-216.0 L 720.0,-216.0" style="stroke:black;fill:none;stroke-width:2.0;stroke-dasharray:-;stroke-linecap:round;stroke-linejoin:round;" /><path d="M 504.0,-162.0 L 522.0,-162.0 L 525.0,-171.0 L 531.0,-153.0 L 537.0,-171.0 L 543.0,-153.0 L 549.0,-171.0 L 555.0,-153.0 L 558.0,-162.0 L 576.0,-162.0" style="stroke:black;fill:none;stroke-width:2.0;stroke-dasharray:-;stroke-linecap:round;stroke-linejoin:round;" /><path d="M 576.0,-162.0 L 605.6999999999999,-162.0 M 618.3000000000001,-171.0 L 618.3000000000001,-153.0 M 618.3000000000001,-162.0 L 648.0,-162.0" style="stroke:black;fill:none;stroke-width:2.0;stroke-dasharray:-;stroke-linecap:round;stroke-linejoin:round;" /><path d="M 614.6999999999999,-175.5 L 620.1277996438307,-184.9986493767039" style="stroke:black;fill:none;stroke-width:2.0;stroke-dasharray:-;stroke-linecap:round;stroke-linejoin:round;" /><path d="M 622.7077221232863 -189.5135137157511 L 622.6283398931492 -183.56976923423622 L 617.6272593945123 -186.42752951917157 Z" style="stroke:black;fill:black;stroke-linecap:butt;stroke-linejoin:miter;" /><path d="M 606.6,-175.5 L 612.0277996438308,-184.9986493767039" style="stroke:black;fill:none;stroke-width:2.0;stroke-dasharray:-;stroke-linecap:round;stroke-linejoin:round;" /><path d="M 614.6077221232864 -189.5135137157511 L 614.5283398931493 -183.56976923423622 L 609.5272593945124 -186.42752951917157 Z" style="stroke:black;fill:black;stroke-linecap:butt;stroke-linejoin:miter;" /><path d="M 648.0,-162.0 L 684.0,-162.0 L 720.0,-162.0" style="stroke:black;fill:none;stroke-width:2.0;stroke-dasharray:-;stroke-linecap:round;stroke-linejoin:round;" /><path d="M 504.0,-72.0 L 522.0,-72.0 L 525.0,-81.0 L 531.0,-63.0 L 537.0,-81.0 L 543.0,-63.0 L 549.0,-81.0 L 555.0,-63.0 L 558.0,-72.0 L 576.0,-72.0" style="stroke:black;fill:none;stroke-width:2.0;stroke-dasharray:-;stroke-linecap:round;stroke-linejoin:round;" /><path d="M 576.0,-72.0 L 589.2,-72.0" style="stroke:black;fill:none;stroke-width:2.0;stroke-dasharray:-;stroke-linecap:round;stroke-linejoin:round;" /><path d="M 589.2,-85.2 L 589.2,-58.8" style="stroke:black;fill:none;stroke-width:2.0;stroke-dasharray:-;stroke-linecap:round;stroke-linejoin:round;" /><path d="M 589.2,-78.6 L 603.06,-90.47999999999999 L 603.06,-97.08" style="stroke:black;fill:none;stroke-width:2.0;stroke-dasharray:-;stroke-linecap:round;stroke-linejoin:round;" /><path d="M 589.2,-65.4 L 603.06,-53.52 L 603.06,-46.919999999999995" style="stroke:black;fill:none;stroke-width:2.0;stroke-dasharray:-;stroke-linecap:round;stroke-linejoin:round;" /><path d="M 589.2,-65.4 L 596.2266905787122,-59.37712236110374" style="stroke:black;fill:none;stroke-width:2.0;stroke-dasharray:-;stroke-linecap:round;stroke-linejoin:round;" /><path d="M 601.5414867952694 -54.82158274691194 L 593.8838416342709 -56.643798592588674 L 598.5695395231538 -62.1104461296188 Z" style="stroke:black;fill:black;stroke-linecap:butt;stroke-linejoin:miter;" /><path d="M 603.06,-97.08 L 603.06,-228.53999999999996 L 603.06,-360.0" style="stroke:black;fill:none;stroke-width:2.0;stroke-dasharray:-;stroke-linecap:round;stroke-linejoin:round;" /><path d="M 603.06,-97.08 L 603.06,-61.080000000000005 L 603.06,-25.080000000000005" style="stroke:black;fill:none;stroke-width:2.0;stroke-dasharray:-;stroke-linecap:round;stroke-linejoin:round;" /><path d="M 576.0,-72.0 L 612.0,-72.0 L 648.0,-72.0" style="stroke:black;fill:none;stroke-width:2.0;stroke-dasharray:-;stroke-linecap:round;stroke-linejoin:round;" /><path d="M 0.0,-0.0 L 360.0,-0.0 L 720.0,-0.0" style="stroke:black;fill:none;stroke-width:2.0;stroke-dasharray:-;stroke-linecap:round;stroke-linejoin:round;" /><path d="M 720.0,-0.0 L 720.0,14.4 L 711.0,14.4 L 729.0,14.4 M 713.6999999999999,18.72 L 726.3000000000001,18.72 M 718.1999999999999,23.04 L 721.8000000000001,23.04" style="stroke:black;fill:none;stroke-width:2.0;stroke-dasharray:-;stroke-linecap:round;stroke-linejoin:round;" /><path d="M 143.99999999999997,-180.0 L 143.99999999999997,-90.0 L 143.99999999999994,-0.0" style="stroke:black;fill:none;stroke-width:2.0;stroke-dasharray:-;stroke-linecap:round;stroke-linejoin:round;" /><path d="M 143.99999999999997,-72.0 L 143.99999999999997,-36.0 L 143.99999999999997,-0.0" style="stroke:black;fill:none;stroke-width:2.0;stroke-dasharray:-;stroke-linecap:round;stroke-linejoin:round;" /><text x="720.0" y="-388.0" dominant-baseline="ideographic" fill="black" font-size="10" font-family="sans" text-anchor="middle"><tspan x="720.0" dy="10">5V</tspan></text><text x="720.0" y="-352.0" dominant-baseline="ideographic" fill="black" font-size="10" font-family="sans" text-anchor="middle"><tspan x="720.0" dy="10">3.3V</tspan></text><text x="18.0" y="-262.0" dominant-baseline="central" fill="black" font-size="10" font-family="sans" text-anchor="middle"><tspan x="18.0" dy="10">+</tspan></text><text x="36.0" y="-262.0" dominant-baseline="central" fill="black" font-size="10" font-family="sans" text-anchor="middle"><tspan x="36.0" dy="10">CV IN</tspan></text><text x="54.0" y="-262.0" dominant-baseline="central" fill="black" font-size="10" font-family="sans" text-anchor="middle"><tspan x="54.0" dy="10">−</tspan></text><text x="108.0" y="-274.59999999999997" dominant-baseline="ideographic" fill="black" font-size="10" font-family="sans" text-anchor="middle"><tspan x="108.0" dy="10">10k</tspan></text><text x="156.6" y="-226.0" dominant-baseline="central" fill="black" font-size="10" font-family="sans" text-anchor="start"><tspan x="156.6" dy="10">10k</tspan></text><text x="18.0" y="-154.0" dominant-baseline="central" fill="black" font-size="10" font-family="sans" text-anchor="middle"><tspan x="18.0" dy="10">+</tspan></text><text x="36.0" y="-154.0" dominant-baseline="central" fill="black" font-size="10" font-family="sans" text-anchor="middle"><tspan x="36.0" dy="10">TRIG IN</tspan></text><text x="54.0" y="-154.0" dominant-baseline="central" fill="black" font-size="10" font-family="sans" text-anchor="middle"><tspan x="54.0" dy="10">−</tspan></text><text x="108.0" y="-166.6" dominant-baseline="ideographic" fill="black" font-size="10" font-family="sans" text-anchor="middle"><tspan x="108.0" dy="10">10k</tspan></text><text x="156.6" y="-118.0" dominant-baseline="central" fill="black" font-size="10" font-family="sans" text-anchor="start"><tspan x="156.6" dy="10">10k</tspan></text><text x="540.0" y="-292.59999999999997" dominant-baseline="ideographic" fill="black" font-size="10" font-family="sans" text-anchor="middle"><tspan x="540.0" dy="10">100ohm</tspan></text><text x="540.0" y="-238.6" dominant-baseline="ideographic" fill="black" font-size="10" font-family="sans" text-anchor="middle"><tspan x="540.0" dy="10">100ohm</tspan></text><text x="540.0" y="-184.6" dominant-baseline="ideographic" fill="black" font-size="10" font-family="sans" text-anchor="middle"><tspan x="540.0" dy="10">100ohm</tspan></text><text x="540.0" y="-94.60000000000001" dominant-baseline="ideographic" fill="black" font-size="10" font-family="sans" text-anchor="middle"><tspan x="540.0" dy="10">1k</tspan></text><circle cx="144.0" cy="-252.0" r="2.6999999999999997" style="stroke:black;fill:black;stroke-width:2.0;stroke-dasharray:-;" /><circle cx="144.0" cy="-144.0" r="2.6999999999999997" style="stroke:black;fill:black;stroke-width:2.0;stroke-dasharray:-;" /><circle cx="720.0" cy="-270.0" r="2.6999999999999997" style="stroke:black;fill:white;stroke-width:2.0;stroke-dasharray:-;" /><text x="726.3000000000001" y="-280.0" dominant-baseline="central" fill="black" font-size="10" font-family="sans" text-anchor="start"><tspan x="726.3000000000001" dy="10">CV OUT</tspan></text><circle cx="720.0" cy="-216.0" r="2.6999999999999997" style="stroke:black;fill:white;stroke-width:2.0;stroke-dasharray:-;" /><text x="726.3000000000001" y="-226.0" dominant-baseline="central" fill="black" font-size="10" font-family="sans" text-anchor="start"><tspan x="726.3000000000001" dy="10">TRIG OUT</tspan></text><circle cx="720.0" cy="-162.0" r="2.6999999999999997" style="stroke:black;fill:white;stroke-width:2.0;stroke-dasharray:-;" /><text x="726.3000000000001" y="-172.0" dominant-baseline="central" fill="black" font-size="10" font-family="sans" text-anchor="start"><tspan x="726.3000000000001" dy="10">CC OUT</tspan></text><circle cx="648.0" cy="-72.0" r="2.6999999999999997" style="stroke:black;fill:white;stroke-width:2.0;stroke-dasharray:-;" /><text x="654.3000000000001" y="-82.0" dominant-baseline="central" fill="black" font-size="10" font-family="sans" text-anchor="start"><tspan x="654.3000000000001" dy="10">S-TRIG</tspan></text></svg>