<svg xmlns="http://www.w3.org/2000/svg" xmlns:xlink="http://www.w3.org/1999/xlink" xml:lang="en" height="1424.76pt" width="374.48pt" viewBox="-46.72 -27.2 374.48 1424.76"><polygon points="128.70000000000002,891.0 141.29999999999998,900.0 128.70000000000002,909.0 " style="stroke:black;fill:none;stroke-width:2.0;stroke-dasharray:-;stroke-linecap:round;stroke-linejoin:round;" /><polygon points="128.70000000000002,1026.0 141.29999999999998,1035.0 128.70000000000002,1044.0 " style="stroke:black;fill:none;stroke-width:2.0;stroke-dasharray:-;stroke-linecap:round;stroke-linejoin:round;" /><polygon points="128.70000000000002,1161.0 141.29999999999998,1170.0 128.70000000000002,1179.0 " style="stroke:black;fill:none;stroke-width:2.0;stroke-dasharray:-;stroke-linecap:round;stroke-linejoin:round;" /><circle cx="109.8" cy="1350.0" r="19.8" style="stroke:black;fill:none;stroke-width:2.0;stroke-dasharray:-;" /><path d="M 90.0,-0.0 L 117.0,-0.0 L 120.0,-9.0 L 126.0,9.0 L 132.0,-9.0 L 138.0,9.0 L 144.0,-9.0 L 149.99999999999997,9.0 L 153.0,-0.0 L 180.0,-0.0" style="stroke:black;fill:none;stroke-width:2.0;stroke-dasharray:-;stroke-linecap:round;stroke-linejoin:round;" /><path d="M 180.0,-0.0 L 180.0,27.0 L 189.0,30.0 L 171.0,36.0 L 189.0,41.99999999999999 L 171.0,48.0 L 189.0,54.0 L 171.0,59.99999999999999 L 180.0,63.0 L 179.99999999999997,90.0" style="stroke:black;fill:none;stroke-width:2.0;stroke-dasharray:-;stroke-linecap:round;stroke-linejoin:round;" /><path d="M 179.99999999999997,90.0 L 179.99999999999997,104.39999999999999 L 170.99999999999997,104.39999999999999 L 188.99999999999997,104.39999999999999 M 173.7,108.72 L 186.29999999999995,108.72 M 178.2,113.04 L 181.79999999999995,113.04" style="stroke:black;fill:none;stroke-width:2.0;stroke-dasharray:-;stroke-linecap:round;stroke-linejoin:round;" /><path d="M 180.0,-0.0 L 225.0,-0.0 L 270.0,-0.0" style="stroke:black;fill:none;stroke-width:2.0;stroke-dasharray:-;stroke-linecap:round;stroke-linejoin:round;" /><path d="M 90.0,-0.0 L 89.99999999999999,45.0 L 89.99999999999999,90.0" style="stroke:black;fill:none;stroke-width:2.0;stroke-dasharray:-;stroke-linecap:round;stroke-linejoin:round;" /><path d="M 89.99999999999999,90.0 L 89.99999999999999,104.39999999999999 L 80.99999999999999,104.39999999999999 L 98.99999999999999,104.39999999999999 M 83.69999999999999,108.72 L 96.29999999999998,108.72 M 88.19999999999999,113.04 L 91.79999999999998,113.04" style="stroke:black;fill:none;stroke-width:2.0;stroke-dasharray:-;stroke-linecap:round;stroke-linejoin:round;" /><path d="M -1.6532731788489267e-14,450.0 L 26.999999999999986,450.0 L 29.999999999999986,441.0 L 35.999999999999986,459.0 L 41.99999999999998,441.0 L 47.99999999999998,459.0 L 53.999999999999986,441.0 L 59.99999999999998,459.0 L 62.999999999999986,450.0 L 89.99999999999999,450.0" style="stroke:black;fill:none;stroke-width:2.0;stroke-dasharray:-;stroke-linecap:round;stroke-linejoin:round;" /><path d="M 89.99999999999999,450.0 L 89.99999999999999,477.0 L 98.99999999999999,480.0 L 80.99999999999999,486.0 L 98.99999999999997,492.0 L 80.99999999999997,498.0 L 98.99999999999997,504.0 L 80.99999999999997,510.0 L 89.99999999999997,513.0 L 89.99999999999997,540.0" style="stroke:black;fill:none;stroke-width:2.0;stroke-dasharray:-;stroke-linecap:round;stroke-linejoin:round;" /><path d="M 89.99999999999997,540.0 L 89.99999999999997,554.4 L 80.99999999999997,554.4 L 98.99999999999997,554.4 M 83.69999999999997,558.72 L 96.29999999999995,558.72 M 88.19999999999997,563.04 L 91.79999999999995,563.04" style="stroke:black;fill:none;stroke-width:2.0;stroke-dasharray:-;stroke-linecap:round;stroke-linejoin:round;" /><path d="M 89.99999999999999,450.0 L 134.99999999999997,450.0 L 180.0,450.0" style="stroke:black;fill:none;stroke-width:2.0;stroke-dasharray:-;stroke-linecap:round;stroke-linejoin:round;" /><path d="M -1.6532731788489267e-14,450.0 L -2.47990976827339e-14,495.0 L -3.3065463576978534e-14,540.0" style="stroke:black;fill:none;stroke-width:2.0;stroke-dasharray:-;stroke-linecap:round;stroke-linejoin:round;" /><path d="M -3.3065463576978534e-14,540.0 L -3.3065463576978534e-14,554.4 L -9.000000000000034,554.4 L 8.999999999999966,554.4 M -6.300000000000033,558.72 L 6.299999999999967,558.72 M -1.8000000000000331,563.04 L 1.7999999999999672,563.04" style="stroke:black;fill:none;stroke-width:2.0;stroke-dasharray:-;stroke-linecap:round;stroke-linejoin:round;" /><path d="M 0.0,900.0 L 27.0,900.0 L 30.0,891.0 L 36.0,909.0 L 41.99999999999999,891.0 L 48.0,909.0 L 54.0,891.0 L 59.99999999999999,909.0 L 63.0,900.0 L 90.0,900.0" style="stroke:black;fill:none;stroke-width:2.0;stroke-dasharray:-;stroke-linecap:round;stroke-linejoin:round;" /><path d="M 90.0,900.0 L 128.70000000000002,900.0 M 141.29999999999998,891.0 L 141.29999999999998,909.0 M 141.29999999999998,900.0 L 180.0,900.0" style="stroke:black;fill:none;stroke-width:2.0;stroke-dasharray:-;stroke-linecap:round;stroke-linejoin:round;" /><path d="M 137.70000000000002,886.5 L 143.1277996438308,877.0013506232962" style="stroke:black;fill:none;stroke-width:2.0;stroke-dasharray:-;stroke-linecap:round;stroke-linejoin:round;" /><path d="M 145.70772212328635 872.4864862842489 L 145.62833989314925 878.4302307657638 L 140.62725939451235 875.5724704808284 Z" style="stroke:black;fill:black;stroke-linecap:butt;stroke-linejoin:miter;" /><path d="M 129.6,886.5 L 135.0277996438308,877.0013506232962" style="stroke:black;fill:none;stroke-width:2.0;stroke-dasharray:-;stroke-linecap:round;stroke-linejoin:round;" /><path d="M 137.60772212328632 872.4864862842489 L 137.52833989314922 878.4302307657638 L 132.52725939451233 875.5724704808284 Z" style="stroke:black;fill:black;stroke-linecap:butt;stroke-linejoin:miter;" /><path d="M 180.0,900.0 L 225.0,900.0 L 270.0,900.0" style="stroke:black;fill:none;stroke-width:2.0;stroke-dasharray:-;stroke-linecap:round;stroke-linejoin:round;" /><path d="M 0.0,1035.0 L 27.0,1035.0 L 30.0,1026.0 L 36.0,1044.0 L 41.99999999999999,1026.0 L 48.0,1044.0 L 54.0,1026.0 L 59.99999999999999,1044.0 L 63.0,1035.0 L 90.0,1035.0" style="stroke:black;fill:none;stroke-width:2.0;stroke-dasharray:-;stroke-linecap:round;stroke-linejoin:round;" /><path d="M 90.0,1035.0 L 128.70000000000002,1035.0 M 141.29999999999998,1026.0 L 141.29999999999998,1044.0 M 141.29999999999998,1035.0 L 180.0,1035.0" style="stroke:black;fill:none;stroke-width:2.0;stroke-dasharray:-;stroke-linecap:round;stroke-linejoin:round;" /><path d="M 137.70000000000002,1021.5 L 143.1277996438308,1012.0013506232962" style="stroke:black;fill:none;stroke-width:2.0;stroke-dasharray:-;stroke-linecap:round;stroke-linejoin:round;" /><path d="M 145.70772212328635 1007.4864862842489 L 145.62833989314925 1013.4302307657638 L 140.62725939451235 1010.5724704808284 Z" style="stroke:black;fill:black;stroke-linecap:butt;stroke-linejoin:miter;" /><path d="M 129.6,1021.5 L 135.0277996438308,1012.0013506232962" style="stroke:black;fill:none;stroke-width:2.0;stroke-dasharray:-;stroke-linecap:round;stroke-linejoin:round;" /><path d="M 137.60772212328632 1007.4864862842489 L 137.52833989314922 1013.4302307657638 L 132.52725939451233 1010.5724704808284 Z" style="stroke:black;fill:black;stroke-linecap:butt;stroke-linejoin:miter;" /><path d="M 180.0,1035.0 L 225.0,1035.0 L 270.0,1035.0" style="stroke:black;fill:none;stroke-width:2.0;stroke-dasharray:-;stroke-linecap:round;stroke-linejoin:round;" /><path d="M 0.0,1170.0 L 27.0,1170.0 L 30.0,1161.0 L 36.0,1179.0 L 41.99999999999999,1161.0 L 48.0,1179.0 L 54.0,1161.0 L 59.99999999999999,1179.0 L 63.0,1170.0 L 90.0,1170.0" style="stroke:black;fill:none;stroke-width:2.0;stroke-dasharray:-;stroke-linecap:round;stroke-linejoin:round;" /><path d="M 90.0,1170.0 L 128.70000000000002,1170.0 M 141.29999999999998,1161.0 L 141.29999999999998,1179.0 M 141.29999999999998,1170.0 L 180.0,1170.0" style="stroke:black;fill:none;stroke-width:2.0;stroke-dasharray:-;stroke-linecap:round;stroke-linejoin:round;" /><path d="M 137.70000000000002,1156.5 L 143.1277996438308,1147.001350623296" style="stroke:black;fill:none;stroke-width:2.0;stroke-dasharray:-;stroke-linecap:round;stroke-linejoin:round;" /><path d="M 145.70772212328635 1142.486486284249 L 145.62833989314925 1148.4302307657638 L 140.62725939451235 1145.5724704808285 Z" style="stroke:black;fill:black;stroke-linecap:butt;stroke-linejoin:miter;" /><path d="M 129.6,1156.5 L 135.0277996438308,1147.001350623296" style="stroke:black;fill:none;stroke-width:2.0;stroke-dasharray:-;stroke-linecap:round;stroke-linejoin:round;" /><path d="M 137.60772212328632 1142.486486284249 L 137.52833989314922 1148.4302307657638 L 132.52725939451233 1145.5724704808285 Z" style="stroke:black;fill:black;stroke-linecap:butt;stroke-linejoin:miter;" /><path d="M 180.0,1170.0 L 225.0,1170.0 L 270.0,1170.0" style="stroke:black;fill:none;stroke-width:2.0;stroke-dasharray:-;stroke-linecap:round;stroke-linejoin:round;" /><path d="M 0.0,1350.0 L 27.0,1350.0 L 30.0,1341.0 L 36.0,1359.0 L 41.99999999999999,1341.0 L 48.0,1359.0 L 54.0,1341.0 L 59.99999999999999,1359.0 L 63.0,1350.0 L 90.0,1350.0" style="stroke:black;fill:none;stroke-width:2.0;stroke-dasharray:-;stroke-linecap:round;stroke-linejoin:round;" /><path d="M 90.0,1350.0 L 103.2,1350.0" style="stroke:black;fill:none;stroke-width:2.0;stroke-dasharray:-;stroke-linecap:round;stroke-linejoin:round;" /><path d="M 103.2,1336.8 L 103.2,1363.2" style="stroke:black;fill:none;stroke-width:2.0;stroke-dasharray:-;stroke-linecap:round;stroke-linejoin:round;" /><path d="M 103.2,1343.4 L 117.05999999999999,1331.52 L 117.05999999999999,1324.92" style="stroke:black;fill:none;stroke-width:2.0;stroke-dasharray:-;stroke-linecap:round;stroke-linejoin:round;" /><path d="M 103.2,1356.6 L 117.05999999999999,1368.48 L 117.05999999999999,1375.08" style="stroke:black;fill:none;stroke-width:2.0;stroke-dasharray:-;stroke-linecap:round;stroke-linejoin:round;" /><path d="M 103.2,1356.6 L 110.22669057871238,1362.6228776388964" style="stroke:black;fill:none;stroke-width:2.0;stroke-dasharray:-;stroke-linecap:round;stroke-linejoin:round;" /><path d="M 115.5414867952694 1367.1784172530881 L 107.88384163427085 1365.3562014074112 L 112.56953952315388 1359.8895538703812 Z" style="stroke:black;fill:black;stroke-linecap:butt;stroke-linejoin:miter;" /><path d="M 117.05999999999999,1324.92 L 117.05999999999999,1302.42 L 117.05999999999999,1279.92" style="stroke:black;fill:none;stroke-width:2.0;stroke-dasharray:-;stroke-linecap:round;stroke-linejoin:round;" /><path d="M 117.05999999999999,1279.92 L 117.05999999999999,1265.52" style="stroke:black;fill:none;stroke-width:2.0;stroke-dasharray:-;stroke-linecap:round;stroke-linejoin:round;" /><path d="M 117.05999999999999,1265.52 L 110.30999999999999,1265.52" style="stroke:black;fill:none;stroke-width:2.0;stroke-dasharray:-;stroke-linecap:round;stroke-linejoin:round;" /><path d="M 117.05999999999999,1265.52 L 123.80999999999999,1265.52" style="stroke:black;fill:none;stroke-width:2.0;stroke-dasharray:-;stroke-linecap:round;stroke-linejoin:round;" /><path d="M 117.05999999999999,1324.92 L 117.05999999999999,1347.42 L 117.05999999999997,1369.92" style="stroke:black;fill:none;stroke-width:2.0;stroke-dasharray:-;stroke-linecap:round;stroke-linejoin:round;" /><path d="M 117.05999999999997,1369.92 L 117.05999999999997,1384.32 L 108.05999999999997,1384.32 L 126.05999999999997,1384.32 M 110.75999999999999,1388.64 L 123.35999999999997,1388.64 M 115.25999999999999,1392.96 L 118.85999999999997,1392.96" style="stroke:black;fill:none;stroke-width:2.0;stroke-dasharray:-;stroke-linecap:round;stroke-linejoin:round;" /><path d="M 90.0,1350.0 L 157.5,1350.0 L 225.0,1350.0" style="stroke:black;fill:none;stroke-width:2.0;stroke-dasharray:-;stroke-linecap:round;stroke-linejoin:round;" /><text x="22.5" y="-10.0" dominant-baseline="central" fill="black" font-size="10" font-family="sans" text-anchor="middle"><tspan x="22.5" dy="10">+</tspan></text><text x="45.0" y="-10.0" dominant-baseline="central" fill="black" font-size="10" font-family="sans" text-anchor="middle"><tspan x="45.0" dy="10">CV IN</tspan></text><text x="67.5" y="-10.0" dominant-baseline="central" fill="black" font-size="10" font-family="sans" text-anchor="middle"><tspan x="67.5" dy="10">−</tspan></text><text x="135.0" y="-22.6" dominant-baseline="ideographic" fill="black" font-size="10" font-family="sans" text-anchor="middle"><tspan x="135.0" dy="10">R1 10k</tspan></text><text x="192.6" y="35.0" dominant-baseline="central" fill="black" font-size="10" font-family="sans" text-anchor="start"><tspan x="192.6" dy="10">R2 10k</tspan></text><text x="-4.133182947122317e-15" y="372.5" dominant-baseline="central" fill="black" font-size="10" font-family="sans" text-anchor="middle"><tspan x="-4.133182947122317e-15" dy="10">+</tspan></text><text x="-8.266365894244634e-15" y="395.0" dominant-baseline="central" fill="black" font-size="10" font-family="sans" text-anchor="middle"><tspan x="-8.266365894244634e-15" dy="10">TRIG IN</tspan></text><text x="-1.239954884136695e-14" y="417.5" dominant-baseline="central" fill="black" font-size="10" font-family="sans" text-anchor="middle"><tspan x="-1.239954884136695e-14" dy="10">−</tspan></text><text x="44.999999999999986" y="427.40000000000003" dominant-baseline="ideographic" fill="black" font-size="10" font-family="sans" text-anchor="middle"><tspan x="44.999999999999986" dy="10">R4 10k</tspan></text><text x="102.59999999999997" y="485.0" dominant-baseline="central" fill="black" font-size="10" font-family="sans" text-anchor="start"><tspan x="102.59999999999997" dy="10">R5 10k</tspan></text><text x="45.0" y="877.4" dominant-baseline="ideographic" fill="black" font-size="10" font-family="sans" text-anchor="middle"><tspan x="45.0" dy="10">R6 100ohm</tspan></text><text x="135.0" y="902.6" dominant-baseline="hanging" fill="black" font-size="10" font-family="sans" text-anchor="middle"><tspan x="135.0" dy="10">LED1</tspan></text><text x="45.0" y="1012.4" dominant-baseline="ideographic" fill="black" font-size="10" font-family="sans" text-anchor="middle"><tspan x="45.0" dy="10">R7 100ohm</tspan></text><text x="135.0" y="1037.6000000000001" dominant-baseline="hanging" fill="black" font-size="10" font-family="sans" text-anchor="middle"><tspan x="135.0" dy="10">LED2</tspan></text><text x="45.0" y="1147.3999999999999" dominant-baseline="ideographic" fill="black" font-size="10" font-family="sans" text-anchor="middle"><tspan x="45.0" dy="10">R8 100ohm</tspan></text><text x="135.0" y="1172.6000000000001" dominant-baseline="hanging" fill="black" font-size="10" font-family="sans" text-anchor="middle"><tspan x="135.0" dy="10">LED3</tspan></text><text x="45.0" y="1327.3999999999999" dominant-baseline="ideographic" fill="black" font-size="10" font-family="sans" text-anchor="middle"><tspan x="45.0" dy="10">R10 1k</tspan></text><text x="133.20000000000002" y="1340.3" dominant-baseline="central" fill="black" font-size="10" font-family="sans" text-anchor="start"><tspan x="133.20000000000002" dy="10">Q1</tspan></text><text x="117.05999999999999" y="1251.92" dominant-baseline="ideographic" fill="black" font-size="10" font-family="sans" text-anchor="middle"><tspan x="117.05999999999999" dy="10">5V</tspan></text><circle cx="180.0" cy="-0.0" r="2.6999999999999997" style="stroke:black;fill:black;stroke-width:2.0;stroke-dasharray:-;" /><circle cx="270.0" cy="-0.0" r="2.6999999999999997" style="stroke:black;fill:white;stroke-width:2.0;stroke-dasharray:-;" /><text x="276.3" y="-10.0" dominant-baseline="central" fill="black" font-size="10" font-family="sans" text-anchor="start"><tspan x="276.3" dy="10">→ M4 A3</tspan></text><circle cx="89.99999999999999" cy="450.0" r="2.6999999999999997" style="stroke:black;fill:black;stroke-width:2.0;stroke-dasharray:-;" /><circle cx="180.0" cy="450.0" r="2.6999999999999997" style="stroke:black;fill:white;stroke-width:2.0;stroke-dasharray:-;" /><text x="186.29999999999998" y="440.0" dominant-baseline="central" fill="black" font-size="10" font-family="sans" text-anchor="start"><tspan x="186.29999999999998" dy="10">→ M4 A4</tspan></text><circle cx="0.0" cy="900.0" r="2.6999999999999997" style="stroke:black;fill:black;stroke-width:2.0;stroke-dasharray:-;" /><text x="-6.3" y="890.0" dominant-baseline="central" fill="black" font-size="10" font-family="sans" text-anchor="end"><tspan x="-6.3" dy="10">DAC VA</tspan></text><circle cx="270.0" cy="900.0" r="2.6999999999999997" style="stroke:black;fill:white;stroke-width:2.0;stroke-dasharray:-;" /><text x="276.3" y="890.0" dominant-baseline="central" fill="black" font-size="10" font-family="sans" text-anchor="start"><tspan x="276.3" dy="10">CV OUT</tspan></text><circle cx="0.0" cy="1035.0" r="2.6999999999999997" style="stroke:black;fill:black;stroke-width:2.0;stroke-dasharray:-;" /><text x="-6.3" y="1025.0" dominant-baseline="central" fill="black" font-size="10" font-family="sans" text-anchor="end"><tspan x="-6.3" dy="10">DAC VB</tspan></text><circle cx="270.0" cy="1035.0" r="2.6999999999999997" style="stroke:black;fill:white;stroke-width:2.0;stroke-dasharray:-;" /><text x="276.3" y="1025.0" dominant-baseline="central" fill="black" font-size="10" font-family="sans" text-anchor="start"><tspan x="276.3" dy="10">TRIG OUT</tspan></text><circle cx="0.0" cy="1170.0" r="2.6999999999999997" style="stroke:black;fill:black;stroke-width:2.0;stroke-dasharray:-;" /><text x="-6.3" y="1160.0" dominant-baseline="central" fill="black" font-size="10" font-family="sans" text-anchor="end"><tspan x="-6.3" dy="10">DAC VC</tspan></text><circle cx="270.0" cy="1170.0" r="2.6999999999999997" style="stroke:black;fill:white;stroke-width:2.0;stroke-dasharray:-;" /><text x="276.3" y="1160.0" dominant-baseline="central" fill="black" font-size="10" font-family="sans" text-anchor="start"><tspan x="276.3" dy="10">CC OUT</tspan></text><circle cx="0.0" cy="1350.0" r="2.6999999999999997" style="stroke:black;fill:black;stroke-width:2.0;stroke-dasharray:-;" /><text x="-6.3" y="1340.0" dominant-baseline="central" fill="black" font-size="10" font-family="sans" text-anchor="end"><tspan x="-6.3" dy="10">M4 D10</tspan></text><circle cx="225.0" cy="1350.0" r="2.6999999999999997" style="stroke:black;fill:white;stroke-width:2.0;stroke-dasharray:-;" /><text x="231.29999999999998" y="1340.0" dominant-baseline="central" fill="black" font-size="10" font-family="sans" text-anchor="start"><tspan x="231.29999999999998" dy="10">S-TRIG OUT</tspan></text></svg>