<svg xmlns="http://www.w3.org/2000/svg" xmlns:xlink="http://www.w3.org/1999/xlink" xml:lang="en" height="262.20000000000005pt" width="965.468pt" viewBox="-60.964 -464.6 965.468 262.20000000000005"><polygon points="135.0,-380.7 144.0,-393.3 153.0,-380.7 " style="stroke:black;fill:none;stroke-width:2.0;stroke-dasharray:-;stroke-linecap:round;stroke-linejoin:round;" /><polygon points="135.0,-236.70000000000002 144.0,-249.29999999999998 153.0,-236.70000000000002 " style="stroke:black;fill:none;stroke-width:2.0;stroke-dasharray:-;stroke-linecap:round;stroke-linejoin:round;" /><polygon points="432.0,-288.0 540.0,-288.0 540.0,-385.2 432.0,-385.2 " style="stroke:black;fill:none;stroke-width:2.0;stroke-dasharray:-;stroke-linecap:round;stroke-linejoin:round;" /><polygon points="432.0,-306.0 432.0,-327.59999999999997 410.40000000000003,-327.59999999999997 410.40000000000003,-306.0 " style="stroke:black;fill:none;stroke-width:2.0;stroke-dasharray:-;stroke-linecap:round;stroke-linejoin:round;" /><polygon points="540.0,-306.0 540.0,-327.59999999999997 561.6,-327.59999999999997 561.6,-306.0 " style="stroke:black;fill:none;stroke-width:2.0;stroke-dasharray:-;stroke-linecap:round;stroke-linejoin:round;" /><polygon points="432.0,-345.59999999999997 432.0,-367.2 410.40000000000003,-367.2 410.40000000000003,-345.59999999999997 " style="stroke:black;fill:none;stroke-width:2.0;stroke-dasharray:-;stroke-linecap:round;stroke-linejoin:round;" /><polygon points="540.0,-345.59999999999997 540.0,-367.2 561.6,-367.2 561.6,-345.59999999999997 " style="stroke:black;fill:none;stroke-width:2.0;stroke-dasharray:-;stroke-linecap:round;stroke-linejoin:round;" /><polygon points="767.6999999999999,-369.0 780.3000000000001,-360.0 767.6999999999999,-351.0 " style="stroke:black;fill:none;stroke-width:2.0;stroke-dasharray:-;stroke-linecap:round;stroke-linejoin:round;" /><polygon points="767.6999999999999,-225.0 780.3000000000001,-216.0 767.6999999999999,-207.0 " style="stroke:black;fill:none;stroke-width:2.0;stroke-dasharray:-;stroke-linecap:round;stroke-linejoin:round;" /><path d="M 0.0,-360.0 L 18.0,-360.0 L 21.0,-369.0 L 27.0,-351.0 L 33.0,-369.0 L 39.0,-351.0 L 45.0,-369.0 L 50.99999999999999,-351.0 L 54.0,-360.0 L 72.0,-360.0" style="stroke:black;fill:none;stroke-width:2.0;stroke-dasharray:-;stroke-linecap:round;stroke-linejoin:round;" /><path d="M 72.0,-360.0 L 90.0,-360.0 L 93.0,-369.0 L 99.0,-351.0 L 105.0,-369.0 L 110.99999999999999,-351.0 L 117.0,-369.0 L 123.0,-351.0 L 126.0,-360.0 L 144.0,-360.0" style="stroke:black;fill:none;stroke-width:2.0;stroke-dasharray:-;stroke-linecap:round;stroke-linejoin:round;" /><path d="M 144.0,-360.0 L 144.0,-380.7 M 135.0,-393.3 L 153.0,-393.3 M 144.0,-393.3 L 144.0,-414.0" style="stroke:black;fill:none;stroke-width:2.0;stroke-dasharray:-;stroke-linecap:round;stroke-linejoin:round;" /><path d="M 288.0,-360.0 L 324.0,-360.0 L 360.0,-360.0" style="stroke:black;fill:none;stroke-width:2.0;stroke-dasharray:-;stroke-linecap:round;stroke-linejoin:round;" /><path d="M 0.0,-216.0 L 18.0,-216.0 L 21.0,-225.0 L 27.0,-207.0 L 33.0,-225.0 L 39.0,-207.0 L 45.0,-225.0 L 50.99999999999999,-207.0 L 54.0,-216.0 L 72.0,-216.0" style="stroke:black;fill:none;stroke-width:2.0;stroke-dasharray:-;stroke-linecap:round;stroke-linejoin:round;" /><path d="M 72.0,-216.0 L 90.0,-216.0 L 93.0,-225.0 L 99.0,-207.0 L 105.0,-225.0 L 110.99999999999999,-207.0 L 117.0,-225.0 L 123.0,-207.0 L 126.0,-216.0 L 144.0,-216.0" style="stroke:black;fill:none;stroke-width:2.0;stroke-dasharray:-;stroke-linecap:round;stroke-linejoin:round;" /><path d="M 144.0,-216.0 L 144.0,-236.70000000000002 M 135.0,-249.29999999999998 L 153.0,-249.29999999999998 M 144.0,-249.29999999999998 L 144.0,-270.0" style="stroke:black;fill:none;stroke-width:2.0;stroke-dasharray:-;stroke-linecap:round;stroke-linejoin:round;" /><path d="M 288.0,-216.0 L 324.0,-216.0 L 360.0,-216.0" style="stroke:black;fill:none;stroke-width:2.0;stroke-dasharray:-;stroke-linecap:round;stroke-linejoin:round;" /><path d="M 475.2,-385.2 L 475.2221897582964,-384.5080416242083 L 475.2886678507089,-383.81892665380735 L 475.3991611044965,-383.1354868100252 L 475.55321547917845,-382.46053049377736 L 475.7501979322848,-381.79683124534495 L 475.98929902066294,-381.14711634730276 L 476.2695362266538,-380.51405561753035 L 476.5897579954674,-379.9002504383575 L 476.94864846716814,-379.3082230669261 L 477.3447328838261,-378.74040627069485 L 477.77638364961336,-378.19913333067586 L 478.2418270189445,-377.68662845348234 L 478.7391503851778,-377.2049976315866 L 479.2663101399257,-376.7562199893453 L 479.82114007068054,-376.3421396503529 L 480.4013602622463,-375.9644581595423 L 481.00458646539903,-375.6247274911716 L 481.62833989427816,-375.32434367142923 L 482.2700574122499,-375.0645410418626 L 482.9271020643849,-374.8463871872041 L 483.5967739132718,-374.6707785484363 L 484.2763211336395,-374.53843673912394 L 484.962951320197,-374.44990558014865 L 485.6538429622261,-374.40554886503253 L 486.3461570377739,-374.40554886503253 L 487.037048679803,-374.44990558014865 L 487.7236788663605,-374.53843673912394 L 488.4032260867282,-374.6707785484363 L 489.0728979356151,-374.8463871872041 L 489.7299425877501,-375.0645410418626 L 490.37166010572184,-375.32434367142923 L 490.9954135346011,-375.6247274911716 L 491.5986397377537,-375.9644581595423 L 492.17885992931946,-376.3421396503529 L 492.7336898600743,-376.7562199893453 L 493.2608496148222,-377.2049976315866 L 493.7581729810555,-377.68662845348234 L 494.22361635038664,-378.19913333067586 L 494.6552671161739,-378.74040627069485 L 495.05135153283186,-379.3082230669261 L 495.4102420045326,-379.90025043835743 L 495.7304637733462,-380.51405561753035 L 496.01070097933706,-381.14711634730276 L 496.2498020677152,-381.79683124534495 L 496.44678452082155,-382.4605304937773 L 496.6008388955035,-383.1354868100252 L 496.7113321492911,-383.81892665380735 L 496.7778102417036,-384.5080416242083 L 496.8,-385.2" style="stroke:black;fill:none;stroke-width:2.0;stroke-dasharray:-;stroke-linecap:round;stroke-linejoin:round;" /><path d="M 648.0,-360.0 L 666.0,-360.0 L 669.0,-369.0 L 675.0,-351.0 L 681.0,-369.0 L 687.0,-351.0 L 693.0,-369.0 L 699.0,-351.0 L 702.0,-360.0 L 720.0,-360.0" style="stroke:black;fill:none;stroke-width:2.0;stroke-dasharray:-;stroke-linecap:round;stroke-linejoin:round;" /><path d="M 720.0,-360.0 L 767.6999999999999,-360.0 M 780.3000000000001,-369.0 L 780.3000000000001,-351.0 M 780.3000000000001,-360.0 L 828.0,-360.0" style="stroke:black;fill:none;stroke-width:2.0;stroke-dasharray:-;stroke-linecap:round;stroke-linejoin:round;" /><path d="M 776.6999999999999,-373.5 L 782.1277996438307,-382.99864937670384" style="stroke:black;fill:none;stroke-width:2.0;stroke-dasharray:-;stroke-linecap:round;stroke-linejoin:round;" /><path d="M 784.7077221232863 -387.51351371575106 L 784.6283398931492 -381.56976923423616 L 779.6272593945123 -384.42752951917157 Z" style="stroke:black;fill:black;stroke-linecap:butt;stroke-linejoin:miter;" /><path d="M 768.6,-373.5 L 774.0277996438308,-382.99864937670384" style="stroke:black;fill:none;stroke-width:2.0;stroke-dasharray:-;stroke-linecap:round;stroke-linejoin:round;" /><path d="M 776.6077221232864 -387.51351371575106 L 776.5283398931493 -381.56976923423616 L 771.5272593945124 -384.42752951917157 Z" style="stroke:black;fill:black;stroke-linecap:butt;stroke-linejoin:miter;" /><path d="M 648.0,-216.0 L 666.0,-216.0 L 669.0,-225.0 L 675.0,-207.0 L 681.0,-225.0 L 687.0,-207.0 L 693.0,-225.0 L 699.0,-207.0 L 702.0,-216.0 L 720.0,-216.0" style="stroke:black;fill:none;stroke-width:2.0;stroke-dasharray:-;stroke-linecap:round;stroke-linejoin:round;" /><path d="M 720.0,-216.0 L 767.6999999999999,-216.0 M 780.3000000000001,-225.0 L 780.3000000000001,-207.0 M 780.3000000000001,-216.0 L 828.0,-216.0" style="stroke:black;fill:none;stroke-width:2.0;stroke-dasharray:-;stroke-linecap:round;stroke-linejoin:round;" /><path d="M 776.6999999999999,-229.5 L 782.1277996438307,-238.9986493767039" style="stroke:black;fill:none;stroke-width:2.0;stroke-dasharray:-;stroke-linecap:round;stroke-linejoin:round;" /><path d="M 784.7077221232863 -243.5135137157511 L 784.6283398931492 -237.56976923423622 L 779.6272593945123 -240.42752951917157 Z" style="stroke:black;fill:black;stroke-linecap:butt;stroke-linejoin:miter;" /><path d="M 768.6,-229.5 L 774.0277996438308,-238.9986493767039" style="stroke:black;fill:none;stroke-width:2.0;stroke-dasharray:-;stroke-linecap:round;stroke-linejoin:round;" /><path d="M 776.6077221232864 -243.5135137157511 L 776.5283398931493 -237.56976923423622 L 771.5272593945124 -240.42752951917157 Z" style="stroke:black;fill:black;stroke-linecap:butt;stroke-linejoin:miter;" /><text x="36.0" y="-415.0" dominant-baseline="ideographic" fill="black" font-size="14.0" font-family="sans" text-anchor="middle"><tspan x="36.0" dy="14.0">R1</tspan><tspan x="36.0" dy="14.0">10kΩ</tspan></text><text x="108.0" y="-415.0" dominant-baseline="ideographic" fill="black" font-size="14.0" font-family="sans" text-anchor="middle"><tspan x="108.0" dy="14.0">R2</tspan><tspan x="108.0" dy="14.0">10kΩ</tspan></text><text x="144.0" y="-460.0" dominant-baseline="ideographic" fill="black" font-size="14.0" font-family="sans" text-anchor="middle"><tspan x="144.0" dy="14.0">D1</tspan><tspan x="144.0" dy="14.0">BAT85</tspan></text><text x="36.0" y="-271.0" dominant-baseline="ideographic" fill="black" font-size="14.0" font-family="sans" text-anchor="middle"><tspan x="36.0" dy="14.0">R4</tspan><tspan x="36.0" dy="14.0">10kΩ</tspan></text><text x="108.0" y="-271.0" dominant-baseline="ideographic" fill="black" font-size="14.0" font-family="sans" text-anchor="middle"><tspan x="108.0" dy="14.0">R5</tspan><tspan x="108.0" dy="14.0">10kΩ</tspan></text><text x="144.0" y="-316.0" dominant-baseline="ideographic" fill="black" font-size="14.0" font-family="sans" text-anchor="middle"><tspan x="144.0" dy="14.0">D2</tspan><tspan x="144.0" dy="14.0">BAT85</tspan></text><text x="421.2" y="-326.8" dominant-baseline="central" fill="black" font-size="10" font-family="sans" text-anchor="middle"><tspan x="421.2" dy="10">2</tspan></text><text x="550.8000000000001" y="-326.8" dominant-baseline="central" fill="black" font-size="10" font-family="sans" text-anchor="middle"><tspan x="550.8000000000001" dy="10">3</tspan></text><text x="421.2" y="-366.40000000000003" dominant-baseline="central" fill="black" font-size="10" font-family="sans" text-anchor="middle"><tspan x="421.2" dy="10">1</tspan></text><text x="550.8000000000001" y="-366.40000000000003" dominant-baseline="central" fill="black" font-size="10" font-family="sans" text-anchor="middle"><tspan x="550.8000000000001" dy="10">4</tspan></text><text x="486.0" y="-402.8" dominant-baseline="ideographic" fill="black" font-size="14" font-family="sans" text-anchor="middle"><tspan x="486.0" dy="14">M4</tspan></text><text x="684.0" y="-415.0" dominant-baseline="ideographic" fill="black" font-size="14.0" font-family="sans" text-anchor="middle"><tspan x="684.0" dy="14.0">R6</tspan><tspan x="684.0" dy="14.0">100Ω</tspan></text><text x="774.0" y="-427.01" dominant-baseline="ideographic" fill="black" font-size="14.0" font-family="sans" text-anchor="middle"><tspan x="774.0" dy="14.0">LED</tspan></text><text x="684.0" y="-271.0" dominant-baseline="ideographic" fill="black" font-size="14.0" font-family="sans" text-anchor="middle"><tspan x="684.0" dy="14.0">R7</tspan><tspan x="684.0" dy="14.0">100Ω</tspan></text><text x="774.0" y="-283.01" dominant-baseline="ideographic" fill="black" font-size="14.0" font-family="sans" text-anchor="middle"><tspan x="774.0" dy="14.0">LED</tspan></text><circle cx="0.0" cy="-360.0" r="2.6999999999999997" style="stroke:black;fill:black;stroke-width:2.0;stroke-dasharray:-;" /><text x="-6.3" y="-374.0" dominant-baseline="central" fill="black" font-size="14.0" font-family="sans" text-anchor="end"><tspan x="-6.3" dy="14.0">CV IN</tspan></text><circle cx="360.0" cy="-360.0" r="2.6999999999999997" style="stroke:black;fill:black;stroke-width:2.0;stroke-dasharray:-;" /><text x="366.3" y="-374.0" dominant-baseline="central" fill="black" font-size="14.0" font-family="sans" text-anchor="start"><tspan x="366.3" dy="14.0">To M4 A3</tspan></text><circle cx="0.0" cy="-216.0" r="2.6999999999999997" style="stroke:black;fill:black;stroke-width:2.0;stroke-dasharray:-;" /><text x="-6.3" y="-230.0" dominant-baseline="central" fill="black" font-size="14.0" font-family="sans" text-anchor="end"><tspan x="-6.3" dy="14.0">TRIG IN</tspan></text><circle cx="360.0" cy="-216.0" r="2.6999999999999997" style="stroke:black;fill:black;stroke-width:2.0;stroke-dasharray:-;" /><text x="366.3" y="-230.0" dominant-baseline="central" fill="black" font-size="14.0" font-family="sans" text-anchor="start"><tspan x="366.3" dy="14.0">To M4 A4</tspan></text><circle cx="828.0" cy="-360.0" r="2.6999999999999997" style="stroke:black;fill:black;stroke-width:2.0;stroke-dasharray:-;" /><text x="834.3000000000001" y="-374.0" dominant-baseline="central" fill="black" font-size="14.0" font-family="sans" text-anchor="start"><tspan x="834.3000000000001" dy="14.0">CV OUT</tspan></text><circle cx="828.0" cy="-216.0" r="2.6999999999999997" style="stroke:black;fill:black;stroke-width:2.0;stroke-dasharray:-;" /><text x="834.3000000000001" y="-230.0" dominant-baseline="central" fill="black" font-size="14.0" font-family="sans" text-anchor="start"><tspan x="834.3000000000001" dy="14.0">TRIG OUT</tspan></text></svg>