<svg xmlns="http://www.w3.org/2000/svg" xmlns:xlink="http://www.w3.org/1999/xlink" xml:lang="en" height="492.24pt" width="1279.76pt" viewBox="-4.6 -464.6 1279.76 492.24"><polygon points="450.0,-234.0 558.0,-234.0 558.0,-410.40000000000003 450.0,-410.40000000000003 " style="stroke:black;fill:none;stroke-width:2.0;stroke-dasharray:-;stroke-linecap:round;stroke-linejoin:round;" /><polygon points="450.0,-252.0 450.0,-273.59999999999997 428.40000000000003,-273.59999999999997 428.40000000000003,-252.0 " style="stroke:black;fill:none;stroke-width:2.0;stroke-dasharray:-;stroke-linecap:round;stroke-linejoin:round;" /><polygon points="558.0,-252.0 558.0,-273.59999999999997 579.6,-273.59999999999997 579.6,-252.0 " style="stroke:black;fill:none;stroke-width:2.0;stroke-dasharray:-;stroke-linecap:round;stroke-linejoin:round;" /><polygon points="450.0,-291.59999999999997 450.0,-313.2 428.40000000000003,-313.2 428.40000000000003,-291.59999999999997 " style="stroke:black;fill:none;stroke-width:2.0;stroke-dasharray:-;stroke-linecap:round;stroke-linejoin:round;" /><polygon points="558.0,-291.59999999999997 558.0,-313.2 579.6,-313.2 579.6,-291.59999999999997 " style="stroke:black;fill:none;stroke-width:2.0;stroke-dasharray:-;stroke-linecap:round;stroke-linejoin:round;" /><polygon points="450.0,-331.2 450.0,-352.8 428.40000000000003,-352.8 428.40000000000003,-331.2 " style="stroke:black;fill:none;stroke-width:2.0;stroke-dasharray:-;stroke-linecap:round;stroke-linejoin:round;" /><polygon points="558.0,-331.2 558.0,-352.8 579.6,-352.8 579.6,-331.2 " style="stroke:black;fill:none;stroke-width:2.0;stroke-dasharray:-;stroke-linecap:round;stroke-linejoin:round;" /><polygon points="450.0,-370.8 450.0,-392.40000000000003 428.40000000000003,-392.40000000000003 428.40000000000003,-370.8 " style="stroke:black;fill:none;stroke-width:2.0;stroke-dasharray:-;stroke-linecap:round;stroke-linejoin:round;" /><polygon points="558.0,-370.8 558.0,-392.40000000000003 579.6,-392.40000000000003 579.6,-370.8 " style="stroke:black;fill:none;stroke-width:2.0;stroke-dasharray:-;stroke-linecap:round;stroke-linejoin:round;" /><polygon points="576.0,-234.0 684.0,-234.0 684.0,-410.40000000000003 576.0,-410.40000000000003 " style="stroke:black;fill:none;stroke-width:2.0;stroke-dasharray:-;stroke-linecap:round;stroke-linejoin:round;" /><polygon points="576.0,-252.0 576.0,-273.59999999999997 554.4,-273.59999999999997 554.4,-252.0 " style="stroke:black;fill:none;stroke-width:2.0;stroke-dasharray:-;stroke-linecap:round;stroke-linejoin:round;" /><polygon points="684.0,-252.0 684.0,-273.59999999999997 705.6,-273.59999999999997 705.6,-252.0 " style="stroke:black;fill:none;stroke-width:2.0;stroke-dasharray:-;stroke-linecap:round;stroke-linejoin:round;" /><polygon points="576.0,-291.59999999999997 576.0,-313.2 554.4,-313.2 554.4,-291.59999999999997 " style="stroke:black;fill:none;stroke-width:2.0;stroke-dasharray:-;stroke-linecap:round;stroke-linejoin:round;" /><polygon points="684.0,-291.59999999999997 684.0,-313.2 705.6,-313.2 705.6,-291.59999999999997 " style="stroke:black;fill:none;stroke-width:2.0;stroke-dasharray:-;stroke-linecap:round;stroke-linejoin:round;" /><polygon points="576.0,-331.2 576.0,-352.8 554.4,-352.8 554.4,-331.2 " style="stroke:black;fill:none;stroke-width:2.0;stroke-dasharray:-;stroke-linecap:round;stroke-linejoin:round;" /><polygon points="684.0,-331.2 684.0,-352.8 705.6,-352.8 705.6,-331.2 " style="stroke:black;fill:none;stroke-width:2.0;stroke-dasharray:-;stroke-linecap:round;stroke-linejoin:round;" /><polygon points="576.0,-370.8 576.0,-392.40000000000003 554.4,-392.40000000000003 554.4,-370.8 " style="stroke:black;fill:none;stroke-width:2.0;stroke-dasharray:-;stroke-linecap:round;stroke-linejoin:round;" /><polygon points="684.0,-370.8 684.0,-392.40000000000003 705.6,-392.40000000000003 705.6,-370.8 " style="stroke:black;fill:none;stroke-width:2.0;stroke-dasharray:-;stroke-linecap:round;stroke-linejoin:round;" /><circle cx="577.8000000000001" cy="-72.0" r="19.8" style="stroke:black;fill:none;stroke-width:2.0;stroke-dasharray:-;" /><path d="M 0.0,-432.0 L 630.0,-432.0 L 1260.0,-432.0" style="stroke:black;fill:none;stroke-width:2.0;stroke-dasharray:-;stroke-linecap:round;stroke-linejoin:round;" /><path d="M 1260.0,-432.0 L 1260.0,-446.40000000000003" style="stroke:black;fill:none;stroke-width:2.0;stroke-dasharray:-;stroke-linecap:round;stroke-linejoin:round;" /><path d="M 1260.0,-446.40000000000003 L 1253.25,-446.40000000000003" style="stroke:black;fill:none;stroke-width:2.0;stroke-dasharray:-;stroke-linecap:round;stroke-linejoin:round;" /><path d="M 1260.0,-446.40000000000003 L 1266.75,-446.40000000000003" style="stroke:black;fill:none;stroke-width:2.0;stroke-dasharray:-;stroke-linecap:round;stroke-linejoin:round;" /><path d="M 0.0,-378.0 L 630.0,-378.0 L 1260.0,-378.0" style="stroke:black;fill:none;stroke-width:2.0;stroke-dasharray:-;stroke-linecap:round;stroke-linejoin:round;" /><path d="M 1260.0,-378.0 L 1260.0,-392.40000000000003" style="stroke:black;fill:none;stroke-width:2.0;stroke-dasharray:-;stroke-linecap:round;stroke-linejoin:round;" /><path d="M 1260.0,-392.40000000000003 L 1253.25,-392.40000000000003" style="stroke:black;fill:none;stroke-width:2.0;stroke-dasharray:-;stroke-linecap:round;stroke-linejoin:round;" /><path d="M 1260.0,-392.40000000000003 L 1266.75,-392.40000000000003" style="stroke:black;fill:none;stroke-width:2.0;stroke-dasharray:-;stroke-linecap:round;stroke-linejoin:round;" /><path d="M 90.0,-288.0 L 117.0,-288.0 L 120.0,-297.0 L 126.0,-279.0 L 132.0,-297.0 L 138.0,-279.0 L 144.0,-297.0 L 149.99999999999997,-279.0 L 153.0,-288.0 L 180.0,-288.0" style="stroke:black;fill:none;stroke-width:2.0;stroke-dasharray:-;stroke-linecap:round;stroke-linejoin:round;" /><path d="M 180.0,-288.0 L 180.0,-261.0 L 189.0,-258.0 L 171.0,-252.0 L 189.0,-246.00000000000003 L 171.0,-240.0 L 189.0,-234.0 L 171.0,-228.00000000000003 L 180.0,-225.0 L 179.99999999999997,-198.0" style="stroke:black;fill:none;stroke-width:2.0;stroke-dasharray:-;stroke-linecap:round;stroke-linejoin:round;" /><path d="M 180.0,-288.0 L 247.5,-288.0 L 315.0,-288.0" style="stroke:black;fill:none;stroke-width:2.0;stroke-dasharray:-;stroke-linecap:round;stroke-linejoin:round;" /><path d="M 90.0,-180.0 L 117.0,-180.0 L 120.0,-189.0 L 126.0,-171.0 L 132.0,-189.0 L 138.0,-171.0 L 144.0,-189.0 L 149.99999999999997,-171.0 L 153.0,-180.0 L 180.0,-180.0" style="stroke:black;fill:none;stroke-width:2.0;stroke-dasharray:-;stroke-linecap:round;stroke-linejoin:round;" /><path d="M 180.0,-180.0 L 180.0,-153.0 L 189.0,-150.0 L 171.0,-144.0 L 189.0,-138.0 L 171.0,-132.0 L 189.0,-126.0 L 171.0,-120.0 L 180.0,-117.0 L 179.99999999999997,-90.0" style="stroke:black;fill:none;stroke-width:2.0;stroke-dasharray:-;stroke-linecap:round;stroke-linejoin:round;" /><path d="M 180.0,-180.0 L 247.5,-180.0 L 315.0,-180.0" style="stroke:black;fill:none;stroke-width:2.0;stroke-dasharray:-;stroke-linecap:round;stroke-linejoin:round;" /><path d="M 493.2,-410.40000000000003 L 493.2221897582964,-409.7080416242083 L 493.2886678507089,-409.01892665380734 L 493.3991611044965,-408.3354868100252 L 493.55321547917845,-407.66053049377734 L 493.7501979322848,-406.9968312453449 L 493.98929902066294,-406.3471163473028 L 494.2695362266538,-405.7140556175304 L 494.5897579954674,-405.1002504383575 L 494.94864846716814,-404.5082230669261 L 495.3447328838261,-403.9404062706949 L 495.77638364961336,-403.3991333306759 L 496.2418270189445,-402.8866284534824 L 496.7391503851778,-402.40499763158664 L 497.2663101399257,-401.9562199893453 L 497.82114007068054,-401.54213965035285 L 498.4013602622463,-401.1644581595423 L 499.00458646539903,-400.8247274911716 L 499.62833989427816,-400.5243436714293 L 500.2700574122499,-400.2645410418626 L 500.9271020643849,-400.0463871872041 L 501.5967739132718,-399.8707785484363 L 502.2763211336395,-399.738436739124 L 502.962951320197,-399.6499055801487 L 503.6538429622261,-399.6055488650326 L 504.3461570377739,-399.6055488650326 L 505.037048679803,-399.6499055801487 L 505.7236788663605,-399.738436739124 L 506.4032260867282,-399.8707785484363 L 507.0728979356151,-400.0463871872041 L 507.7299425877501,-400.2645410418626 L 508.37166010572184,-400.5243436714293 L 508.9954135346011,-400.8247274911716 L 509.5986397377537,-401.1644581595423 L 510.17885992931946,-401.54213965035285 L 510.7336898600743,-401.9562199893453 L 511.2608496148222,-402.40499763158664 L 511.7581729810555,-402.8866284534824 L 512.2236163503867,-403.3991333306759 L 512.655267116174,-403.9404062706949 L 513.0513515328319,-404.5082230669261 L 513.4102420045326,-405.1002504383575 L 513.7304637733462,-405.7140556175304 L 514.010700979337,-406.3471163473028 L 514.2498020677152,-406.9968312453449 L 514.4467845208216,-407.66053049377734 L 514.6008388955036,-408.3354868100252 L 514.7113321492911,-409.01892665380734 L 514.7778102417036,-409.7080416242083 L 514.8000000000001,-410.40000000000003" style="stroke:black;fill:none;stroke-width:2.0;stroke-dasharray:-;stroke-linecap:round;stroke-linejoin:round;" /><path d="M 315.0,-288.0 L 373.5,-288.0 L 432.0,-288.0" style="stroke:black;fill:none;stroke-width:2.0;stroke-dasharray:-;stroke-linecap:round;stroke-linejoin:round;" /><path d="M 315.0,-180.0 L 373.5,-180.0 L 432.0,-180.0" style="stroke:black;fill:none;stroke-width:2.0;stroke-dasharray:-;stroke-linecap:round;stroke-linejoin:round;" /><path d="M 432.0,-270.0 L 432.0,-324.0 L 432.0,-378.0" style="stroke:black;fill:none;stroke-width:2.0;stroke-dasharray:-;stroke-linecap:round;stroke-linejoin:round;" /><path d="M 468.0,-270.0 L 468.0,-351.0 L 468.0,-432.0" style="stroke:black;fill:none;stroke-width:2.0;stroke-dasharray:-;stroke-linecap:round;stroke-linejoin:round;" /><path d="M 486.0,-244.79999999999998 L 558.0,-244.79999999999998 L 630.0,-244.79999999999998" style="stroke:black;fill:none;stroke-width:2.0;stroke-dasharray:-;stroke-linecap:round;stroke-linejoin:round;" /><path d="M 486.0,-223.20000000000002 L 558.0,-223.20000000000002 L 630.0,-223.20000000000002" style="stroke:black;fill:none;stroke-width:2.0;stroke-dasharray:-;stroke-linecap:round;stroke-linejoin:round;" /><path d="M 619.1999999999999,-410.40000000000003 L 619.2221897582964,-409.7080416242083 L 619.2886678507089,-409.01892665380734 L 619.3991611044966,-408.3354868100252 L 619.5532154791786,-407.66053049377734 L 619.7501979322848,-406.9968312453449 L 619.989299020663,-406.3471163473028 L 620.2695362266538,-405.7140556175304 L 620.5897579954674,-405.1002504383575 L 620.948648467168,-404.5082230669261 L 621.344732883826,-403.9404062706949 L 621.7763836496133,-403.3991333306759 L 622.2418270189445,-402.8866284534824 L 622.7391503851778,-402.40499763158664 L 623.2663101399256,-401.9562199893453 L 623.8211400706805,-401.54213965035285 L 624.4013602622463,-401.1644581595423 L 625.0045864653989,-400.8247274911716 L 625.6283398942782,-400.5243436714293 L 626.2700574122498,-400.2645410418626 L 626.9271020643848,-400.0463871872041 L 627.5967739132718,-399.8707785484363 L 628.2763211336395,-399.738436739124 L 628.9629513201971,-399.6499055801487 L 629.6538429622262,-399.6055488650326 L 630.3461570377738,-399.6055488650326 L 631.0370486798029,-399.6499055801487 L 631.7236788663605,-399.738436739124 L 632.4032260867282,-399.8707785484363 L 633.0728979356152,-400.0463871872041 L 633.7299425877502,-400.2645410418626 L 634.3716601057218,-400.5243436714293 L 634.9954135346011,-400.8247274911716 L 635.5986397377537,-401.1644581595423 L 636.1788599293195,-401.54213965035285 L 636.7336898600744,-401.9562199893453 L 637.2608496148222,-402.40499763158664 L 637.7581729810555,-402.8866284534824 L 638.2236163503867,-403.3991333306759 L 638.655267116174,-403.9404062706949 L 639.051351532832,-404.5082230669261 L 639.4102420045326,-405.1002504383575 L 639.7304637733462,-405.7140556175304 L 640.010700979337,-406.3471163473028 L 640.2498020677152,-406.9968312453449 L 640.4467845208214,-407.66053049377734 L 640.6008388955034,-408.3354868100252 L 640.7113321492911,-409.01892665380734 L 640.7778102417036,-409.7080416242083 L 640.8000000000001,-410.40000000000003" style="stroke:black;fill:none;stroke-width:2.0;stroke-dasharray:-;stroke-linecap:round;stroke-linejoin:round;" /><path d="M 558.0,-244.79999999999998 L 522.0,-244.79999999999998 L 486.0,-244.79999999999998" style="stroke:black;fill:none;stroke-width:2.0;stroke-dasharray:-;stroke-linecap:round;stroke-linejoin:round;" /><path d="M 558.0,-223.20000000000002 L 522.0,-223.20000000000002 L 486.0,-223.20000000000002" style="stroke:black;fill:none;stroke-width:2.0;stroke-dasharray:-;stroke-linecap:round;stroke-linejoin:round;" /><path d="M 576.0,-270.0 L 576.0,-351.0 L 576.0,-432.0" style="stroke:black;fill:none;stroke-width:2.0;stroke-dasharray:-;stroke-linecap:round;stroke-linejoin:round;" /><path d="M 603.0,-262.8 L 616.5,-262.8 L 630.0,-262.8" style="stroke:black;fill:none;stroke-width:2.0;stroke-dasharray:-;stroke-linecap:round;stroke-linejoin:round;" /><path d="M 630.0,-262.8 L 657.0,-262.8 L 660.0,-271.8 L 666.0,-253.79999999999998 L 672.0,-271.8 L 678.0,-253.79999999999998 L 684.0,-271.8 L 690.0,-253.79999999999998 L 693.0,-262.8 L 720.0,-262.8" style="stroke:black;fill:none;stroke-width:2.0;stroke-dasharray:-;stroke-linecap:round;stroke-linejoin:round;" /><path d="M 720.0,-262.8 L 765.0,-262.8 L 810.0,-262.8" style="stroke:black;fill:none;stroke-width:2.0;stroke-dasharray:-;stroke-linecap:round;stroke-linejoin:round;" /><path d="M 603.0,-244.79999999999998 L 616.5,-244.79999999999998 L 630.0,-244.79999999999998" style="stroke:black;fill:none;stroke-width:2.0;stroke-dasharray:-;stroke-linecap:round;stroke-linejoin:round;" /><path d="M 630.0,-244.79999999999998 L 657.0,-244.79999999999998 L 660.0,-253.79999999999998 L 666.0,-235.79999999999998 L 672.0,-253.79999999999998 L 678.0,-235.79999999999998 L 684.0,-253.79999999999998 L 690.0,-235.79999999999998 L 693.0,-244.79999999999998 L 720.0,-244.79999999999998" style="stroke:black;fill:none;stroke-width:2.0;stroke-dasharray:-;stroke-linecap:round;stroke-linejoin:round;" /><path d="M 720.0,-244.79999999999998 L 765.0,-244.79999999999998 L 810.0,-244.79999999999998" style="stroke:black;fill:none;stroke-width:2.0;stroke-dasharray:-;stroke-linecap:round;stroke-linejoin:round;" /><path d="M 603.0,-223.20000000000002 L 616.5,-223.20000000000002 L 630.0,-223.20000000000002" style="stroke:black;fill:none;stroke-width:2.0;stroke-dasharray:-;stroke-linecap:round;stroke-linejoin:round;" /><path d="M 630.0,-223.20000000000002 L 657.0,-223.20000000000002 L 660.0,-232.20000000000002 L 666.0,-214.20000000000002 L 672.0,-232.20000000000002 L 678.0,-214.20000000000002 L 684.0,-232.20000000000002 L 690.0,-214.20000000000002 L 693.0,-223.20000000000002 L 720.0,-223.20000000000002" style="stroke:black;fill:none;stroke-width:2.0;stroke-dasharray:-;stroke-linecap:round;stroke-linejoin:round;" /><path d="M 720.0,-223.20000000000002 L 765.0,-223.20000000000002 L 810.0,-223.20000000000002" style="stroke:black;fill:none;stroke-width:2.0;stroke-dasharray:-;stroke-linecap:round;stroke-linejoin:round;" /><path d="M 603.0,-205.20000000000002 L 616.5,-205.20000000000002 L 630.0,-205.20000000000002" style="stroke:black;fill:none;stroke-width:2.0;stroke-dasharray:-;stroke-linecap:round;stroke-linejoin:round;" /><path d="M 630.0,-205.20000000000002 L 720.0,-205.20000000000002 L 810.0,-205.20000000000002" style="stroke:black;fill:none;stroke-width:2.0;stroke-dasharray:-;stroke-linecap:round;stroke-linejoin:round;" /><path d="M 468.0,-180.0 L 468.0,-126.0 L 468.0,-72.0" style="stroke:black;fill:none;stroke-width:2.0;stroke-dasharray:-;stroke-linecap:round;stroke-linejoin:round;" /><path d="M 468.0,-72.0 L 495.0,-72.0 L 498.0,-81.0 L 504.0,-63.0 L 510.0,-81.0 L 516.0,-63.0 L 522.0,-81.0 L 528.0,-63.0 L 531.0,-72.0 L 558.0,-72.0" style="stroke:black;fill:none;stroke-width:2.0;stroke-dasharray:-;stroke-linecap:round;stroke-linejoin:round;" /><path d="M 558.0,-72.0 L 571.2,-72.0" style="stroke:black;fill:none;stroke-width:2.0;stroke-dasharray:-;stroke-linecap:round;stroke-linejoin:round;" /><path d="M 571.2,-85.2 L 571.2,-58.8" style="stroke:black;fill:none;stroke-width:2.0;stroke-dasharray:-;stroke-linecap:round;stroke-linejoin:round;" /><path d="M 571.2,-78.6 L 585.06,-90.47999999999999 L 585.06,-97.08" style="stroke:black;fill:none;stroke-width:2.0;stroke-dasharray:-;stroke-linecap:round;stroke-linejoin:round;" /><path d="M 571.2,-65.4 L 585.06,-53.52 L 585.06,-46.919999999999995" style="stroke:black;fill:none;stroke-width:2.0;stroke-dasharray:-;stroke-linecap:round;stroke-linejoin:round;" /><path d="M 571.2,-65.4 L 578.2266905787122,-59.37712236110374" style="stroke:black;fill:none;stroke-width:2.0;stroke-dasharray:-;stroke-linecap:round;stroke-linejoin:round;" /><path d="M 583.5414867952694 -54.82158274691194 L 575.8838416342709 -56.643798592588674 L 580.5695395231538 -62.1104461296188 Z" style="stroke:black;fill:black;stroke-linecap:butt;stroke-linejoin:miter;" /><path d="M 585.06,-97.08 L 585.06,-264.53999999999996 L 585.06,-432.0" style="stroke:black;fill:none;stroke-width:2.0;stroke-dasharray:-;stroke-linecap:round;stroke-linejoin:round;" /><path d="M 585.06,-97.08 L 585.06,-48.54 L 585.06,-0.0" style="stroke:black;fill:none;stroke-width:2.0;stroke-dasharray:-;stroke-linecap:round;stroke-linejoin:round;" /><path d="M 585.06,-97.08 L 630.06,-97.08 L 675.06,-97.08" style="stroke:black;fill:none;stroke-width:2.0;stroke-dasharray:-;stroke-linecap:round;stroke-linejoin:round;" /><path d="M 0.0,-0.0 L 630.0,-0.0 L 1260.0,-0.0" style="stroke:black;fill:none;stroke-width:2.0;stroke-dasharray:-;stroke-linecap:round;stroke-linejoin:round;" /><path d="M 1260.0,-0.0 L 1260.0,14.4 L 1251.0,14.4 L 1269.0,14.4 M 1253.7,18.72 L 1266.3,18.72 M 1258.2,23.04 L 1261.8,23.04" style="stroke:black;fill:none;stroke-width:2.0;stroke-dasharray:-;stroke-linecap:round;stroke-linejoin:round;" /><path d="M 179.99999999999997,-198.0 L 179.99999999999994,-99.0 L 179.99999999999994,-0.0" style="stroke:black;fill:none;stroke-width:2.0;stroke-dasharray:-;stroke-linecap:round;stroke-linejoin:round;" /><path d="M 179.99999999999997,-90.0 L 179.99999999999997,-45.0 L 179.99999999999994,-0.0" style="stroke:black;fill:none;stroke-width:2.0;stroke-dasharray:-;stroke-linecap:round;stroke-linejoin:round;" /><path d="M 450.0,-180.0 L 450.0,-90.0 L 449.99999999999994,-0.0" style="stroke:black;fill:none;stroke-width:2.0;stroke-dasharray:-;stroke-linecap:round;stroke-linejoin:round;" /><path d="M 576.0,-189.0 L 576.0,-94.5 L 575.9999999999999,-0.0" style="stroke:black;fill:none;stroke-width:2.0;stroke-dasharray:-;stroke-linecap:round;stroke-linejoin:round;" /><text x="1260.0" y="-460.0" dominant-baseline="ideographic" fill="black" font-size="10" font-family="sans" text-anchor="middle"><tspan x="1260.0" dy="10">5V</tspan></text><text x="1260.0" y="-406.0" dominant-baseline="ideographic" fill="black" font-size="10" font-family="sans" text-anchor="middle"><tspan x="1260.0" dy="10">3.3V</tspan></text><text x="22.5" y="-298.0" dominant-baseline="central" fill="black" font-size="10" font-family="sans" text-anchor="middle"><tspan x="22.5" dy="10">+</tspan></text><text x="45.0" y="-298.0" dominant-baseline="central" fill="black" font-size="10" font-family="sans" text-anchor="middle"><tspan x="45.0" dy="10">CV IN</tspan></text><text x="67.5" y="-298.0" dominant-baseline="central" fill="black" font-size="10" font-family="sans" text-anchor="middle"><tspan x="67.5" dy="10">−</tspan></text><text x="135.0" y="-310.59999999999997" dominant-baseline="ideographic" fill="black" font-size="10" font-family="sans" text-anchor="middle"><tspan x="135.0" dy="10">R1 10k</tspan></text><text x="192.6" y="-253.0" dominant-baseline="central" fill="black" font-size="10" font-family="sans" text-anchor="start"><tspan x="192.6" dy="10">R2 10k</tspan></text><text x="22.5" y="-190.0" dominant-baseline="central" fill="black" font-size="10" font-family="sans" text-anchor="middle"><tspan x="22.5" dy="10">+</tspan></text><text x="45.0" y="-190.0" dominant-baseline="central" fill="black" font-size="10" font-family="sans" text-anchor="middle"><tspan x="45.0" dy="10">TRIG IN</tspan></text><text x="67.5" y="-190.0" dominant-baseline="central" fill="black" font-size="10" font-family="sans" text-anchor="middle"><tspan x="67.5" dy="10">−</tspan></text><text x="135.0" y="-202.6" dominant-baseline="ideographic" fill="black" font-size="10" font-family="sans" text-anchor="middle"><tspan x="135.0" dy="10">R4 10k</tspan></text><text x="192.6" y="-145.0" dominant-baseline="central" fill="black" font-size="10" font-family="sans" text-anchor="start"><tspan x="192.6" dy="10">R5 10k</tspan></text><text x="439.2" y="-272.8" dominant-baseline="central" fill="black" font-size="10" font-family="sans" text-anchor="middle"><tspan x="439.2" dy="10">4</tspan></text><text x="568.8000000000001" y="-272.8" dominant-baseline="central" fill="black" font-size="10" font-family="sans" text-anchor="middle"><tspan x="568.8000000000001" dy="10">5</tspan></text><text x="439.2" y="-312.40000000000003" dominant-baseline="central" fill="black" font-size="10" font-family="sans" text-anchor="middle"><tspan x="439.2" dy="10">3</tspan></text><text x="568.8000000000001" y="-312.40000000000003" dominant-baseline="central" fill="black" font-size="10" font-family="sans" text-anchor="middle"><tspan x="568.8000000000001" dy="10">6</tspan></text><text x="439.2" y="-352.0" dominant-baseline="central" fill="black" font-size="10" font-family="sans" text-anchor="middle"><tspan x="439.2" dy="10">2</tspan></text><text x="568.8000000000001" y="-352.0" dominant-baseline="central" fill="black" font-size="10" font-family="sans" text-anchor="middle"><tspan x="568.8000000000001" dy="10">7</tspan></text><text x="439.2" y="-391.59999999999997" dominant-baseline="central" fill="black" font-size="10" font-family="sans" text-anchor="middle"><tspan x="439.2" dy="10">1</tspan></text><text x="568.8000000000001" y="-391.59999999999997" dominant-baseline="central" fill="black" font-size="10" font-family="sans" text-anchor="middle"><tspan x="568.8000000000001" dy="10">8</tspan></text><text x="504.0" y="-425.0" dominant-baseline="ideographic" fill="black" font-size="11" font-family="sans" text-anchor="middle"><tspan x="504.0" dy="11">M4</tspan></text><text x="373.5" y="-299.59999999999997" dominant-baseline="ideographic" fill="black" font-size="8" font-family="sans" text-anchor="middle"><tspan x="373.5" dy="8">A3</tspan></text><text x="373.5" y="-191.6" dominant-baseline="ideographic" fill="black" font-size="8" font-family="sans" text-anchor="middle"><tspan x="373.5" dy="8">A4</tspan></text><text x="432.0" y="-274.40000000000003" dominant-baseline="hanging" fill="black" font-size="8" font-family="sans" text-anchor="middle"><tspan x="432.0" dy="8">3V3</tspan></text><text x="468.0" y="-443.59999999999997" dominant-baseline="ideographic" fill="black" font-size="8" font-family="sans" text-anchor="middle"><tspan x="468.0" dy="8">USB</tspan></text><text x="565.1999999999999" y="-272.8" dominant-baseline="central" fill="black" font-size="10" font-family="sans" text-anchor="middle"><tspan x="565.1999999999999" dy="10">4</tspan></text><text x="694.8000000000001" y="-272.8" dominant-baseline="central" fill="black" font-size="10" font-family="sans" text-anchor="middle"><tspan x="694.8000000000001" dy="10">5</tspan></text><text x="565.1999999999999" y="-312.40000000000003" dominant-baseline="central" fill="black" font-size="10" font-family="sans" text-anchor="middle"><tspan x="565.1999999999999" dy="10">3</tspan></text><text x="694.8000000000001" y="-312.40000000000003" dominant-baseline="central" fill="black" font-size="10" font-family="sans" text-anchor="middle"><tspan x="694.8000000000001" dy="10">6</tspan></text><text x="565.1999999999999" y="-352.0" dominant-baseline="central" fill="black" font-size="10" font-family="sans" text-anchor="middle"><tspan x="565.1999999999999" dy="10">2</tspan></text><text x="694.8000000000001" y="-352.0" dominant-baseline="central" fill="black" font-size="10" font-family="sans" text-anchor="middle"><tspan x="694.8000000000001" dy="10">7</tspan></text><text x="565.1999999999999" y="-391.59999999999997" dominant-baseline="central" fill="black" font-size="10" font-family="sans" text-anchor="middle"><tspan x="565.1999999999999" dy="10">1</tspan></text><text x="694.8000000000001" y="-391.59999999999997" dominant-baseline="central" fill="black" font-size="10" font-family="sans" text-anchor="middle"><tspan x="694.8000000000001" dy="10">8</tspan></text><text x="630.0" y="-432.0" dominant-baseline="ideographic" fill="black" font-size="9" font-family="sans" text-anchor="middle"><tspan x="630.0" dy="9">MCP4728</tspan><tspan x="630.0" dy="9">DAC</tspan></text><circle cx="486.0" cy="-244.79999999999998" r="2.6999999999999997" style="stroke:black;fill:black;stroke-width:2.0;stroke-dasharray:-;" /><circle cx="486.0" cy="-223.20000000000002" r="2.6999999999999997" style="stroke:black;fill:black;stroke-width:2.0;stroke-dasharray:-;" /><text x="576.0" y="-443.59999999999997" dominant-baseline="ideographic" fill="black" font-size="8" font-family="sans" text-anchor="middle"><tspan x="576.0" dy="8">VDD</tspan></text><text x="616.5" y="-274.4" dominant-baseline="ideographic" fill="black" font-size="8" font-family="sans" text-anchor="middle"><tspan x="616.5" dy="8">VA</tspan></text><text x="675.0" y="-283.4" dominant-baseline="ideographic" fill="black" font-size="8" font-family="sans" text-anchor="middle"><tspan x="675.0" dy="8">100ohm</tspan></text><text x="616.5" y="-256.4" dominant-baseline="ideographic" fill="black" font-size="8" font-family="sans" text-anchor="middle"><tspan x="616.5" dy="8">VB</tspan></text><text x="675.0" y="-265.4" dominant-baseline="ideographic" fill="black" font-size="8" font-family="sans" text-anchor="middle"><tspan x="675.0" dy="8">100ohm</tspan></text><text x="616.5" y="-227.60000000000002" dominant-baseline="hanging" fill="black" font-size="8" font-family="sans" text-anchor="middle"><tspan x="616.5" dy="8">VC</tspan></text><text x="675.0" y="-243.79999999999998" dominant-baseline="ideographic" fill="black" font-size="8" font-family="sans" text-anchor="middle"><tspan x="675.0" dy="8">100ohm</tspan></text><text x="616.5" y="-209.60000000000002" dominant-baseline="hanging" fill="black" font-size="8" font-family="sans" text-anchor="middle"><tspan x="616.5" dy="8">VD</tspan></text><text x="468.0" y="-76.39999999999999" dominant-baseline="hanging" fill="black" font-size="8" font-family="sans" text-anchor="middle"><tspan x="468.0" dy="8">D10</tspan></text><text x="513.0" y="-92.60000000000001" dominant-baseline="ideographic" fill="black" font-size="8" font-family="sans" text-anchor="middle"><tspan x="513.0" dy="8">1k</tspan></text><text x="601.1999999999999" y="-79.7" dominant-baseline="central" fill="black" font-size="8" font-family="sans" text-anchor="start"><tspan x="601.1999999999999" dy="8">Q1</tspan></text><circle cx="180.0" cy="-288.0" r="2.6999999999999997" style="stroke:black;fill:black;stroke-width:2.0;stroke-dasharray:-;" /><circle cx="180.0" cy="-180.0" r="2.6999999999999997" style="stroke:black;fill:black;stroke-width:2.0;stroke-dasharray:-;" /><circle cx="630.0" cy="-244.79999999999998" r="2.6999999999999997" style="stroke:black;fill:black;stroke-width:2.0;stroke-dasharray:-;" /><text x="630.0" y="-259.1" dominant-baseline="ideographic" fill="black" font-size="8" font-family="sans" text-anchor="middle"><tspan x="630.0" dy="8">SDA</tspan></text><circle cx="630.0" cy="-223.20000000000002" r="2.6999999999999997" style="stroke:black;fill:black;stroke-width:2.0;stroke-dasharray:-;" /><text x="630.0" y="-224.9" dominant-baseline="hanging" fill="black" font-size="8" font-family="sans" text-anchor="middle"><tspan x="630.0" dy="8">SCL</tspan></text><circle cx="810.0" cy="-262.8" r="2.6999999999999997" style="stroke:black;fill:white;stroke-width:2.0;stroke-dasharray:-;" /><text x="816.3000000000001" y="-272.8" dominant-baseline="central" fill="black" font-size="10" font-family="sans" text-anchor="start"><tspan x="816.3000000000001" dy="10">CV OUT</tspan></text><circle cx="810.0" cy="-244.79999999999998" r="2.6999999999999997" style="stroke:black;fill:white;stroke-width:2.0;stroke-dasharray:-;" /><text x="816.3000000000001" y="-254.79999999999998" dominant-baseline="central" fill="black" font-size="10" font-family="sans" text-anchor="start"><tspan x="816.3000000000001" dy="10">TRIG OUT</tspan></text><circle cx="810.0" cy="-223.20000000000002" r="2.6999999999999997" style="stroke:black;fill:white;stroke-width:2.0;stroke-dasharray:-;" /><text x="816.3000000000001" y="-233.20000000000002" dominant-baseline="central" fill="black" font-size="10" font-family="sans" text-anchor="start"><tspan x="816.3000000000001" dy="10">CC OUT</tspan></text><circle cx="810.0" cy="-205.20000000000002" r="2.6999999999999997" style="stroke:black;fill:white;stroke-width:2.0;stroke-dasharray:-;" /><text x="816.3000000000001" y="-215.20000000000002" dominant-baseline="central" fill="black" font-size="10" font-family="sans" text-anchor="start"><tspan x="816.3000000000001" dy="10">Future</tspan></text><circle cx="675.06" cy="-97.08" r="2.6999999999999997" style="stroke:black;fill:white;stroke-width:2.0;stroke-dasharray:-;" /><text x="681.36" y="-107.08" dominant-baseline="central" fill="black" font-size="10" font-family="sans" text-anchor="start"><tspan x="681.36" dy="10">S-TRIG</tspan></text></svg>