<svg xmlns="http://www.w3.org/2000/svg" xmlns:xlink="http://www.w3.org/1999/xlink" xml:lang="en" height="718.24pt" width="426.78200000000004pt" viewBox="-24.268000000000008 -150.60000000000002 426.78200000000004 718.24"><polygon points="261.0,-38.699999999999996 270.0,-51.3 279.0,-38.699999999999996 " style="stroke:black;fill:none;stroke-width:2.0;stroke-dasharray:-;stroke-linecap:round;stroke-linejoin:round;" /><polygon points="171.0,411.3 180.0,398.7 189.0,411.3 " style="stroke:black;fill:none;stroke-width:2.0;stroke-dasharray:-;stroke-linecap:round;stroke-linejoin:round;" /><path d="M 90.0,-0.0 L 117.0,-0.0 L 120.0,-9.0 L 126.0,9.0 L 132.0,-9.0 L 138.0,9.0 L 144.0,-9.0 L 149.99999999999997,9.0 L 153.0,-0.0 L 180.0,-0.0" style="stroke:black;fill:none;stroke-width:2.0;stroke-dasharray:-;stroke-linecap:round;stroke-linejoin:round;" /><path d="M 180.0,-0.0 L 180.0,27.0 L 189.0,30.0 L 171.0,36.0 L 189.0,41.99999999999999 L 171.0,48.0 L 189.0,54.0 L 171.0,59.99999999999999 L 180.0,63.0 L 179.99999999999997,90.0" style="stroke:black;fill:none;stroke-width:2.0;stroke-dasharray:-;stroke-linecap:round;stroke-linejoin:round;" /><path d="M 179.99999999999997,90.0 L 179.99999999999997,104.39999999999999 L 170.99999999999997,104.39999999999999 L 188.99999999999997,104.39999999999999 M 173.7,108.72 L 186.29999999999995,108.72 M 178.2,113.04 L 181.79999999999995,113.04" style="stroke:black;fill:none;stroke-width:2.0;stroke-dasharray:-;stroke-linecap:round;stroke-linejoin:round;" /><path d="M 180.0,-0.0 L 225.0,-0.0 L 270.0,-0.0" style="stroke:black;fill:none;stroke-width:2.0;stroke-dasharray:-;stroke-linecap:round;stroke-linejoin:round;" /><path d="M 270.0,-0.0 L 270.0,-38.699999999999996 M 261.0,-51.3 L 279.0,-51.3 M 270.0,-51.3 L 270.0,-90.0" style="stroke:black;fill:none;stroke-width:2.0;stroke-dasharray:-;stroke-linecap:round;stroke-linejoin:round;" /><path d="M 270.0,-90.0 L 270.0,-103.5 L 270.0,-117.0" style="stroke:black;fill:none;stroke-width:2.0;stroke-dasharray:-;stroke-linecap:round;stroke-linejoin:round;" /><path d="M 270.0,-117.0 L 270.0,-131.4" style="stroke:black;fill:none;stroke-width:2.0;stroke-dasharray:-;stroke-linecap:round;stroke-linejoin:round;" /><path d="M 270.0,-131.4 L 263.25,-131.4" style="stroke:black;fill:none;stroke-width:2.0;stroke-dasharray:-;stroke-linecap:round;stroke-linejoin:round;" /><path d="M 270.0,-131.4 L 276.75,-131.4" style="stroke:black;fill:none;stroke-width:2.0;stroke-dasharray:-;stroke-linecap:round;stroke-linejoin:round;" /><path d="M 270.0,-0.0 L 315.0,-0.0 L 360.0,-0.0" style="stroke:black;fill:none;stroke-width:2.0;stroke-dasharray:-;stroke-linecap:round;stroke-linejoin:round;" /><path d="M 90.0,-0.0 L 89.99999999999999,45.0 L 89.99999999999999,90.0" style="stroke:black;fill:none;stroke-width:2.0;stroke-dasharray:-;stroke-linecap:round;stroke-linejoin:round;" /><path d="M 89.99999999999999,90.0 L 89.99999999999999,104.39999999999999 L 80.99999999999999,104.39999999999999 L 98.99999999999999,104.39999999999999 M 83.69999999999999,108.72 L 96.29999999999998,108.72 M 88.19999999999999,113.04 L 91.79999999999998,113.04" style="stroke:black;fill:none;stroke-width:2.0;stroke-dasharray:-;stroke-linecap:round;stroke-linejoin:round;" /><path d="M -1.6532731788489267e-14,450.0 L 26.999999999999986,450.0 L 29.999999999999986,441.0 L 35.999999999999986,459.0 L 41.99999999999998,441.0 L 47.99999999999998,459.0 L 53.999999999999986,441.0 L 59.99999999999998,459.0 L 62.999999999999986,450.0 L 89.99999999999999,450.0" style="stroke:black;fill:none;stroke-width:2.0;stroke-dasharray:-;stroke-linecap:round;stroke-linejoin:round;" /><path d="M 89.99999999999999,450.0 L 89.99999999999999,477.0 L 98.99999999999999,480.0 L 80.99999999999999,486.0 L 98.99999999999997,492.0 L 80.99999999999997,498.0 L 98.99999999999997,504.0 L 80.99999999999997,510.0 L 89.99999999999997,513.0 L 89.99999999999997,540.0" style="stroke:black;fill:none;stroke-width:2.0;stroke-dasharray:-;stroke-linecap:round;stroke-linejoin:round;" /><path d="M 89.99999999999997,540.0 L 89.99999999999997,554.4 L 80.99999999999997,554.4 L 98.99999999999997,554.4 M 83.69999999999997,558.72 L 96.29999999999995,558.72 M 88.19999999999997,563.04 L 91.79999999999995,563.04" style="stroke:black;fill:none;stroke-width:2.0;stroke-dasharray:-;stroke-linecap:round;stroke-linejoin:round;" /><path d="M 89.99999999999999,450.0 L 134.99999999999997,450.0 L 180.0,450.0" style="stroke:black;fill:none;stroke-width:2.0;stroke-dasharray:-;stroke-linecap:round;stroke-linejoin:round;" /><path d="M 180.0,450.0 L 180.0,411.3 M 171.0,398.7 L 189.0,398.7 M 180.0,398.7 L 180.0,360.0" style="stroke:black;fill:none;stroke-width:2.0;stroke-dasharray:-;stroke-linecap:round;stroke-linejoin:round;" /><path d="M 180.0,360.0 L 180.0,346.5 L 180.0,333.0" style="stroke:black;fill:none;stroke-width:2.0;stroke-dasharray:-;stroke-linecap:round;stroke-linejoin:round;" /><path d="M 180.0,333.0 L 180.0,318.59999999999997" style="stroke:black;fill:none;stroke-width:2.0;stroke-dasharray:-;stroke-linecap:round;stroke-linejoin:round;" /><path d="M 180.0,318.59999999999997 L 173.25,318.59999999999997" style="stroke:black;fill:none;stroke-width:2.0;stroke-dasharray:-;stroke-linecap:round;stroke-linejoin:round;" /><path d="M 180.0,318.59999999999997 L 186.75,318.59999999999997" style="stroke:black;fill:none;stroke-width:2.0;stroke-dasharray:-;stroke-linecap:round;stroke-linejoin:round;" /><path d="M 180.0,450.0 L 225.0,450.0 L 270.0,450.0" style="stroke:black;fill:none;stroke-width:2.0;stroke-dasharray:-;stroke-linecap:round;stroke-linejoin:round;" /><path d="M -1.6532731788489267e-14,450.0 L -2.47990976827339e-14,495.0 L -3.3065463576978534e-14,540.0" style="stroke:black;fill:none;stroke-width:2.0;stroke-dasharray:-;stroke-linecap:round;stroke-linejoin:round;" /><path d="M -3.3065463576978534e-14,540.0 L -3.3065463576978534e-14,554.4 L -9.000000000000034,554.4 L 8.999999999999966,554.4 M -6.300000000000033,558.72 L 6.299999999999967,558.72 M -1.8000000000000331,563.04 L 1.7999999999999672,563.04" style="stroke:black;fill:none;stroke-width:2.0;stroke-dasharray:-;stroke-linecap:round;stroke-linejoin:round;" /><text x="22.5" y="-11.0" dominant-baseline="central" fill="black" font-size="11" font-family="sans" text-anchor="middle"><tspan x="22.5" dy="11">+</tspan></text><text x="45.0" y="-11.0" dominant-baseline="central" fill="black" font-size="11" font-family="sans" text-anchor="middle"><tspan x="45.0" dy="11">CV IN</tspan></text><text x="67.5" y="-11.0" dominant-baseline="central" fill="black" font-size="11" font-family="sans" text-anchor="middle"><tspan x="67.5" dy="11">−</tspan></text><text x="135.0" y="-34.6" dominant-baseline="ideographic" fill="black" font-size="11" font-family="sans" text-anchor="middle"><tspan x="135.0" dy="11">R1</tspan><tspan x="135.0" dy="11">10kΩ</tspan></text><text x="192.6" y="28.5" dominant-baseline="central" fill="black" font-size="11" font-family="sans" text-anchor="start"><tspan x="192.6" dy="11">R2</tspan><tspan x="192.6" dy="11">10kΩ</tspan></text><text x="257.40000000000003" y="-61.5" dominant-baseline="central" fill="black" font-size="11" font-family="sans" text-anchor="end"><tspan x="257.40000000000003" dy="11">D1</tspan><tspan x="257.40000000000003" dy="11">BAT85</tspan></text><text x="270.0" y="-146.0" dominant-baseline="ideographic" fill="black" font-size="11" font-family="sans" text-anchor="middle"><tspan x="270.0" dy="11">3.3V</tspan></text><text x="-4.133182947122317e-15" y="371.5" dominant-baseline="central" fill="black" font-size="11" font-family="sans" text-anchor="middle"><tspan x="-4.133182947122317e-15" dy="11">+</tspan></text><text x="-8.266365894244634e-15" y="394.0" dominant-baseline="central" fill="black" font-size="11" font-family="sans" text-anchor="middle"><tspan x="-8.266365894244634e-15" dy="11">TRIG IN</tspan></text><text x="-1.239954884136695e-14" y="416.5" dominant-baseline="central" fill="black" font-size="11" font-family="sans" text-anchor="middle"><tspan x="-1.239954884136695e-14" dy="11">−</tspan></text><text x="44.999999999999986" y="415.40000000000003" dominant-baseline="ideographic" fill="black" font-size="11" font-family="sans" text-anchor="middle"><tspan x="44.999999999999986" dy="11">R4</tspan><tspan x="44.999999999999986" dy="11">10kΩ</tspan></text><text x="102.59999999999997" y="478.5" dominant-baseline="central" fill="black" font-size="11" font-family="sans" text-anchor="start"><tspan x="102.59999999999997" dy="11">R5</tspan><tspan x="102.59999999999997" dy="11">10kΩ</tspan></text><text x="167.4" y="388.5" dominant-baseline="central" fill="black" font-size="11" font-family="sans" text-anchor="end"><tspan x="167.4" dy="11">D2</tspan><tspan x="167.4" dy="11">BAT85</tspan></text><text x="180.0" y="304.0" dominant-baseline="ideographic" fill="black" font-size="11" font-family="sans" text-anchor="middle"><tspan x="180.0" dy="11">3.3V</tspan></text><circle cx="180.0" cy="-0.0" r="2.6999999999999997" style="stroke:black;fill:black;stroke-width:2.0;stroke-dasharray:-;" /><circle cx="360.0" cy="-0.0" r="2.6999999999999997" style="stroke:black;fill:white;stroke-width:2.0;stroke-dasharray:-;" /><text x="366.3" y="-11.0" dominant-baseline="central" fill="black" font-size="11" font-family="sans" text-anchor="start"><tspan x="366.3" dy="11">M4 A3</tspan></text><circle cx="89.99999999999999" cy="450.0" r="2.6999999999999997" style="stroke:black;fill:black;stroke-width:2.0;stroke-dasharray:-;" /><circle cx="270.0" cy="450.0" r="2.6999999999999997" style="stroke:black;fill:white;stroke-width:2.0;stroke-dasharray:-;" /><text x="276.3" y="439.0" dominant-baseline="central" fill="black" font-size="11" font-family="sans" text-anchor="start"><tspan x="276.3" dy="11">M4 A4</tspan></text></svg>