<svg xmlns="http://www.w3.org/2000/svg" xmlns:xlink="http://www.w3.org/1999/xlink" xml:lang="en" height="556.24pt" width="560.816pt" viewBox="-4.6 -33.6 560.816 556.24"><polygon points="261.0,96.3 270.0,83.7 279.0,96.3 " style="stroke:black;fill:none;stroke-width:2.0;stroke-dasharray:-;stroke-linecap:round;stroke-linejoin:round;" /><polygon points="261.0,321.3 270.0,308.7 279.0,321.3 " style="stroke:black;fill:none;stroke-width:2.0;stroke-dasharray:-;stroke-linecap:round;stroke-linejoin:round;" /><path d="M 0.0,-0.0 L 270.0,-0.0 L 540.0,-0.0" style="stroke:black;fill:none;stroke-width:2.0;stroke-dasharray:-;stroke-linecap:round;stroke-linejoin:round;" /><path d="M 540.0,-0.0 L 540.0,-14.4" style="stroke:black;fill:none;stroke-width:2.0;stroke-dasharray:-;stroke-linecap:round;stroke-linejoin:round;" /><path d="M 540.0,-14.4 L 533.25,-14.4" style="stroke:black;fill:none;stroke-width:2.0;stroke-dasharray:-;stroke-linecap:round;stroke-linejoin:round;" /><path d="M 540.0,-14.4 L 546.75,-14.4" style="stroke:black;fill:none;stroke-width:2.0;stroke-dasharray:-;stroke-linecap:round;stroke-linejoin:round;" /><path d="M 90.0,135.0 L 117.0,135.0 L 120.0,126.0 L 126.0,144.0 L 132.0,126.0 L 138.0,144.0 L 144.0,126.0 L 149.99999999999997,144.0 L 153.0,135.0 L 180.0,135.0" style="stroke:black;fill:none;stroke-width:2.0;stroke-dasharray:-;stroke-linecap:round;stroke-linejoin:round;" /><path d="M 180.0,135.0 L 180.0,162.0 L 189.0,165.0 L 171.0,171.0 L 189.0,176.99999999999997 L 171.0,183.0 L 189.0,189.0 L 171.0,194.99999999999997 L 180.0,198.0 L 179.99999999999997,225.0" style="stroke:black;fill:none;stroke-width:2.0;stroke-dasharray:-;stroke-linecap:round;stroke-linejoin:round;" /><path d="M 180.0,135.0 L 225.0,135.0 L 270.0,135.0" style="stroke:black;fill:none;stroke-width:2.0;stroke-dasharray:-;stroke-linecap:round;stroke-linejoin:round;" /><path d="M 270.0,135.0 L 270.0,96.3 M 261.0,83.7 L 279.0,83.7 M 270.0,83.7 L 270.0,45.0" style="stroke:black;fill:none;stroke-width:2.0;stroke-dasharray:-;stroke-linecap:round;stroke-linejoin:round;" /><path d="M 270.0,45.0 L 270.0,22.5 L 270.0,-0.0" style="stroke:black;fill:none;stroke-width:2.0;stroke-dasharray:-;stroke-linecap:round;stroke-linejoin:round;" /><path d="M 270.0,135.0 L 315.0,135.0 L 360.0,135.0" style="stroke:black;fill:none;stroke-width:2.0;stroke-dasharray:-;stroke-linecap:round;stroke-linejoin:round;" /><path d="M 90.0,360.0 L 117.0,360.0 L 120.0,351.0 L 126.0,369.0 L 132.0,351.0 L 138.0,369.0 L 144.0,351.0 L 149.99999999999997,369.0 L 153.0,360.0 L 180.0,360.0" style="stroke:black;fill:none;stroke-width:2.0;stroke-dasharray:-;stroke-linecap:round;stroke-linejoin:round;" /><path d="M 180.0,360.0 L 180.0,387.0 L 189.0,390.0 L 171.0,396.0 L 189.0,402.0 L 171.0,408.0 L 189.0,414.0 L 171.0,420.0 L 180.0,423.0 L 179.99999999999997,450.0" style="stroke:black;fill:none;stroke-width:2.0;stroke-dasharray:-;stroke-linecap:round;stroke-linejoin:round;" /><path d="M 180.0,360.0 L 225.0,360.0 L 270.0,360.0" style="stroke:black;fill:none;stroke-width:2.0;stroke-dasharray:-;stroke-linecap:round;stroke-linejoin:round;" /><path d="M 270.0,360.0 L 270.0,321.3 M 261.0,308.7 L 279.0,308.7 M 270.0,308.7 L 270.0,270.0" style="stroke:black;fill:none;stroke-width:2.0;stroke-dasharray:-;stroke-linecap:round;stroke-linejoin:round;" /><path d="M 270.0,270.0 L 270.0,135.0 L 270.00000000000006,-0.0" style="stroke:black;fill:none;stroke-width:2.0;stroke-dasharray:-;stroke-linecap:round;stroke-linejoin:round;" /><path d="M 270.0,360.0 L 315.0,360.0 L 360.0,360.0" style="stroke:black;fill:none;stroke-width:2.0;stroke-dasharray:-;stroke-linecap:round;stroke-linejoin:round;" /><path d="M 0.0,495.0 L 270.0,495.0 L 540.0,495.0" style="stroke:black;fill:none;stroke-width:2.0;stroke-dasharray:-;stroke-linecap:round;stroke-linejoin:round;" /><path d="M 540.0,495.0 L 540.0,509.40000000000003 L 531.0,509.40000000000003 L 549.0,509.40000000000003 M 533.6999999999999,513.72 L 546.3000000000001,513.72 M 538.1999999999999,518.04 L 541.8000000000001,518.04" style="stroke:black;fill:none;stroke-width:2.0;stroke-dasharray:-;stroke-linecap:round;stroke-linejoin:round;" /><path d="M 179.99999999999997,225.0 L 179.99999999999994,360.0 L 179.99999999999991,495.0" style="stroke:black;fill:none;stroke-width:2.0;stroke-dasharray:-;stroke-linecap:round;stroke-linejoin:round;" /><path d="M 179.99999999999997,450.0 L 179.99999999999997,472.5 L 179.99999999999997,495.0" style="stroke:black;fill:none;stroke-width:2.0;stroke-dasharray:-;stroke-linecap:round;stroke-linejoin:round;" /><text x="540.0" y="-29.0" dominant-baseline="ideographic" fill="black" font-size="11" font-family="sans" text-anchor="middle"><tspan x="540.0" dy="11">3.3V</tspan></text><text x="22.5" y="124.0" dominant-baseline="central" fill="black" font-size="11" font-family="sans" text-anchor="middle"><tspan x="22.5" dy="11">+</tspan></text><text x="45.0" y="124.0" dominant-baseline="central" fill="black" font-size="11" font-family="sans" text-anchor="middle"><tspan x="45.0" dy="11">CV IN</tspan></text><text x="67.5" y="124.0" dominant-baseline="central" fill="black" font-size="11" font-family="sans" text-anchor="middle"><tspan x="67.5" dy="11">−</tspan></text><text x="135.0" y="100.39999999999999" dominant-baseline="ideographic" fill="black" font-size="11" font-family="sans" text-anchor="middle"><tspan x="135.0" dy="11">R1</tspan><tspan x="135.0" dy="11">10kΩ</tspan></text><text x="192.6" y="163.5" dominant-baseline="central" fill="black" font-size="11" font-family="sans" text-anchor="start"><tspan x="192.6" dy="11">R2</tspan><tspan x="192.6" dy="11">10kΩ</tspan></text><text x="257.40000000000003" y="73.5" dominant-baseline="central" fill="black" font-size="11" font-family="sans" text-anchor="end"><tspan x="257.40000000000003" dy="11">D1</tspan><tspan x="257.40000000000003" dy="11">BAT85</tspan></text><text x="22.5" y="349.0" dominant-baseline="central" fill="black" font-size="11" font-family="sans" text-anchor="middle"><tspan x="22.5" dy="11">+</tspan></text><text x="45.0" y="349.0" dominant-baseline="central" fill="black" font-size="11" font-family="sans" text-anchor="middle"><tspan x="45.0" dy="11">TRIG IN</tspan></text><text x="67.5" y="349.0" dominant-baseline="central" fill="black" font-size="11" font-family="sans" text-anchor="middle"><tspan x="67.5" dy="11">−</tspan></text><text x="135.0" y="325.40000000000003" dominant-baseline="ideographic" fill="black" font-size="11" font-family="sans" text-anchor="middle"><tspan x="135.0" dy="11">R4</tspan><tspan x="135.0" dy="11">10kΩ</tspan></text><text x="192.6" y="388.5" dominant-baseline="central" fill="black" font-size="11" font-family="sans" text-anchor="start"><tspan x="192.6" dy="11">R5</tspan><tspan x="192.6" dy="11">10kΩ</tspan></text><text x="257.40000000000003" y="298.5" dominant-baseline="central" fill="black" font-size="11" font-family="sans" text-anchor="end"><tspan x="257.40000000000003" dy="11">D2</tspan><tspan x="257.40000000000003" dy="11">BAT85</tspan></text><circle cx="180.0" cy="135.0" r="2.6999999999999997" style="stroke:black;fill:black;stroke-width:2.0;stroke-dasharray:-;" /><circle cx="360.0" cy="135.0" r="2.6999999999999997" style="stroke:black;fill:white;stroke-width:2.0;stroke-dasharray:-;" /><text x="366.3" y="124.0" dominant-baseline="central" fill="black" font-size="11" font-family="sans" text-anchor="start"><tspan x="366.3" dy="11">M4 A3</tspan></text><circle cx="180.0" cy="360.0" r="2.6999999999999997" style="stroke:black;fill:black;stroke-width:2.0;stroke-dasharray:-;" /><circle cx="360.0" cy="360.0" r="2.6999999999999997" style="stroke:black;fill:white;stroke-width:2.0;stroke-dasharray:-;" /><text x="366.3" y="349.0" dominant-baseline="central" fill="black" font-size="11" font-family="sans" text-anchor="start"><tspan x="366.3" dy="11">M4 A4</tspan></text></svg>