<svg xmlns="http://www.w3.org/2000/svg" xmlns:xlink="http://www.w3.org/1999/xlink" xml:lang="en" height="747.4000000000001pt" width="411.296pt" viewBox="-35.51199999999999 -375.2 411.296 747.4000000000001"><polygon points="63.0,-119.7 72.0,-132.29999999999998 81.0,-119.7 " style="stroke:black;fill:none;stroke-width:2.0;stroke-dasharray:-;stroke-linecap:round;stroke-linejoin:round;" /><polygon points="8.999999999999982,8.100000000000003 -2.0335260099841795e-14,20.7 -9.000000000000018,8.1 " style="stroke:black;fill:none;stroke-width:2.0;stroke-dasharray:-;stroke-linecap:round;stroke-linejoin:round;" /><polygon points="63.0,78.3 72.0,65.7 81.0,78.3 " style="stroke:black;fill:none;stroke-width:2.0;stroke-dasharray:-;stroke-linecap:round;stroke-linejoin:round;" /><polygon points="8.999999999999982,206.1 -2.0335260099841795e-14,218.70000000000002 -9.000000000000018,206.1 " style="stroke:black;fill:none;stroke-width:2.0;stroke-dasharray:-;stroke-linecap:round;stroke-linejoin:round;" /><path d="M 72.0,-252.0 L 72.0,-266.40000000000003" style="stroke:black;fill:none;stroke-width:2.0;stroke-dasharray:-;stroke-linecap:round;stroke-linejoin:round;" /><path d="M 72.0,-266.40000000000003 L 65.25,-266.40000000000003" style="stroke:black;fill:none;stroke-width:2.0;stroke-dasharray:-;stroke-linecap:round;stroke-linejoin:round;" /><path d="M 72.0,-266.40000000000003 L 78.75,-266.40000000000003" style="stroke:black;fill:none;stroke-width:2.0;stroke-dasharray:-;stroke-linecap:round;stroke-linejoin:round;" /><path d="M 72.0,-252.0 L 72.0,-243.0 L 72.0,-234.0" style="stroke:black;fill:none;stroke-width:2.0;stroke-dasharray:-;stroke-linecap:round;stroke-linejoin:round;" /><path d="M 72.0,-234.0 L 72.0,-219.24 M 81.0,-219.24 L 63.0,-219.24 M 81.0,-212.76 L 63.0,-212.76 M 72.0,-212.76 L 71.99999999999999,-198.0" style="stroke:black;fill:none;stroke-width:2.0;stroke-dasharray:-;stroke-linecap:round;stroke-linejoin:round;" /><path d="M 71.99999999999999,-198.0 L 71.99999999999999,-189.0 L 71.99999999999999,-180.0" style="stroke:black;fill:none;stroke-width:2.0;stroke-dasharray:-;stroke-linecap:round;stroke-linejoin:round;" /><path d="M 71.99999999999999,-180.0 L 71.99999999999999,-165.6 L 62.99999999999999,-165.6 L 81.0,-165.6 M 65.69999999999999,-161.28000000000003 L 78.3,-161.28000000000003 M 70.19999999999999,-156.96 L 73.8,-156.96" style="stroke:black;fill:none;stroke-width:2.0;stroke-dasharray:-;stroke-linecap:round;stroke-linejoin:round;" /><path d="M 72.0,-234.0 L 90.0,-234.0 L 108.0,-234.0" style="stroke:black;fill:none;stroke-width:2.0;stroke-dasharray:-;stroke-linecap:round;stroke-linejoin:round;" /><path d="M 108.0,-234.0 L 108.0,-219.24 M 117.0,-219.24 L 99.0,-219.24 M 117.0,-212.76 L 99.0,-212.76 M 108.0,-212.76 L 108.0,-198.0" style="stroke:black;fill:none;stroke-width:2.0;stroke-dasharray:-;stroke-linecap:round;stroke-linejoin:round;" /><path d="M 108.0,-198.0 L 108.0,-189.0 L 108.0,-180.0" style="stroke:black;fill:none;stroke-width:2.0;stroke-dasharray:-;stroke-linecap:round;stroke-linejoin:round;" /><path d="M 108.0,-180.0 L 108.0,-165.6 L 99.0,-165.6 L 117.0,-165.6 M 101.7,-161.28000000000003 L 114.3,-161.28000000000003 M 106.2,-156.96 L 109.8,-156.96" style="stroke:black;fill:none;stroke-width:2.0;stroke-dasharray:-;stroke-linecap:round;stroke-linejoin:round;" /><path d="M 288.0,-252.0 L 288.0,-266.40000000000003" style="stroke:black;fill:none;stroke-width:2.0;stroke-dasharray:-;stroke-linecap:round;stroke-linejoin:round;" /><path d="M 288.0,-266.40000000000003 L 281.25,-266.40000000000003" style="stroke:black;fill:none;stroke-width:2.0;stroke-dasharray:-;stroke-linecap:round;stroke-linejoin:round;" /><path d="M 288.0,-266.40000000000003 L 294.75,-266.40000000000003" style="stroke:black;fill:none;stroke-width:2.0;stroke-dasharray:-;stroke-linecap:round;stroke-linejoin:round;" /><path d="M 288.0,-252.0 L 288.0,-243.0 L 288.0,-234.0" style="stroke:black;fill:none;stroke-width:2.0;stroke-dasharray:-;stroke-linecap:round;stroke-linejoin:round;" /><path d="M 288.0,-234.0 L 288.0,-219.24 M 297.0,-219.24 L 279.0,-219.24 M 297.0,-212.76 L 279.0,-212.76 M 288.0,-212.76 L 288.0,-198.0" style="stroke:black;fill:none;stroke-width:2.0;stroke-dasharray:-;stroke-linecap:round;stroke-linejoin:round;" /><path d="M 288.0,-198.0 L 288.0,-189.0 L 288.0,-180.0" style="stroke:black;fill:none;stroke-width:2.0;stroke-dasharray:-;stroke-linecap:round;stroke-linejoin:round;" /><path d="M 288.0,-180.0 L 288.0,-165.6 L 279.0,-165.6 L 297.0,-165.6 M 281.7,-161.28000000000003 L 294.3,-161.28000000000003 M 286.2,-156.96 L 289.8,-156.96" style="stroke:black;fill:none;stroke-width:2.0;stroke-dasharray:-;stroke-linecap:round;stroke-linejoin:round;" /><path d="M 288.0,-234.0 L 306.0,-234.0 L 324.0,-234.0" style="stroke:black;fill:none;stroke-width:2.0;stroke-dasharray:-;stroke-linecap:round;stroke-linejoin:round;" /><path d="M 324.0,-234.0 L 324.0,-219.24 M 333.0,-219.24 L 315.0,-219.24 M 333.0,-212.76 L 315.0,-212.76 M 324.0,-212.76 L 324.0,-198.0" style="stroke:black;fill:none;stroke-width:2.0;stroke-dasharray:-;stroke-linecap:round;stroke-linejoin:round;" /><path d="M 324.0,-198.0 L 324.0,-189.0 L 324.0,-180.0" style="stroke:black;fill:none;stroke-width:2.0;stroke-dasharray:-;stroke-linecap:round;stroke-linejoin:round;" /><path d="M 324.0,-180.0 L 324.0,-165.6 L 315.0,-165.6 L 333.0,-165.6 M 317.7,-161.28000000000003 L 330.3,-161.28000000000003 M 322.2,-156.96 L 325.8,-156.96" style="stroke:black;fill:none;stroke-width:2.0;stroke-dasharray:-;stroke-linecap:round;stroke-linejoin:round;" /><path d="M 0.0,-90.0 L 9.0,-90.0 L 18.0,-90.0" style="stroke:black;fill:none;stroke-width:2.0;stroke-dasharray:-;stroke-linecap:round;stroke-linejoin:round;" /><path d="M 18.0,-90.0 L 27.0,-90.0 L 29.999999999999996,-99.0 L 36.0,-81.0 L 41.99999999999999,-99.0 L 48.0,-81.0 L 54.0,-99.0 L 59.99999999999999,-81.0 L 63.0,-90.0 L 72.0,-90.0" style="stroke:black;fill:none;stroke-width:2.0;stroke-dasharray:-;stroke-linecap:round;stroke-linejoin:round;" /><path d="M 72.0,-90.0 L 108.0,-90.0 L 144.0,-90.0" style="stroke:black;fill:none;stroke-width:2.0;stroke-dasharray:-;stroke-linecap:round;stroke-linejoin:round;" /><path d="M 72.0,-90.0 L 72.0,-81.0 L 72.0,-72.0" style="stroke:black;fill:none;stroke-width:2.0;stroke-dasharray:-;stroke-linecap:round;stroke-linejoin:round;" /><path d="M 72.0,-72.0 L 81.0,-69.0 L 63.0,-63.0 L 81.0,-57.0 L 63.0,-51.0 L 81.0,-45.0 L 62.99999999999999,-39.00000000000001 L 71.99999999999999,-36.0" style="stroke:black;fill:none;stroke-width:2.0;stroke-dasharray:-;stroke-linecap:round;stroke-linejoin:round;" /><path d="M 71.99999999999999,-36.0 L 71.99999999999999,-30.599999999999998 L 71.99999999999999,-25.2" style="stroke:black;fill:none;stroke-width:2.0;stroke-dasharray:-;stroke-linecap:round;stroke-linejoin:round;" /><path d="M 71.99999999999999,-25.2 L 71.99999999999999,-10.799999999999997 L 62.99999999999999,-10.799999999999997 L 81.0,-10.799999999999997 M 65.69999999999999,-6.479999999999998 L 78.3,-6.479999999999998 M 70.19999999999999,-2.159999999999998 L 73.8,-2.159999999999998" style="stroke:black;fill:none;stroke-width:2.0;stroke-dasharray:-;stroke-linecap:round;stroke-linejoin:round;" /><path d="M 72.0,-90.0 L 72.0,-99.0 L 72.0,-108.0" style="stroke:black;fill:none;stroke-width:2.0;stroke-dasharray:-;stroke-linecap:round;stroke-linejoin:round;" /><path d="M 72.0,-108.0 L 72.0,-119.7 M 63.0,-132.29999999999998 L 81.0,-132.29999999999998 M 72.0,-132.29999999999998 L 72.0,-144.0" style="stroke:black;fill:none;stroke-width:2.0;stroke-dasharray:-;stroke-linecap:round;stroke-linejoin:round;" /><path d="M 72.0,-144.0 L 72.0,-149.4 L 72.0,-154.79999999999998" style="stroke:black;fill:none;stroke-width:2.0;stroke-dasharray:-;stroke-linecap:round;stroke-linejoin:round;" /><path d="M 72.0,-154.79999999999998 L 72.0,-169.20000000000002" style="stroke:black;fill:none;stroke-width:2.0;stroke-dasharray:-;stroke-linecap:round;stroke-linejoin:round;" /><path d="M 72.0,-169.20000000000002 L 65.25,-169.20000000000002" style="stroke:black;fill:none;stroke-width:2.0;stroke-dasharray:-;stroke-linecap:round;stroke-linejoin:round;" /><path d="M 72.0,-169.20000000000002 L 78.75,-169.20000000000002" style="stroke:black;fill:none;stroke-width:2.0;stroke-dasharray:-;stroke-linecap:round;stroke-linejoin:round;" /><path d="M 54.0,-90.0 L 54.0,-81.0 L 54.0,-72.0" style="stroke:black;fill:none;stroke-width:2.0;stroke-dasharray:-;stroke-linecap:round;stroke-linejoin:round;" /><path d="M 54.0,-72.0 L 54.0,-57.239999999999995 M 63.0,-57.239999999999995 L 45.0,-57.24 M 63.0,-50.76 L 45.0,-50.76 M 54.0,-50.76 L 53.99999999999999,-36.0" style="stroke:black;fill:none;stroke-width:2.0;stroke-dasharray:-;stroke-linecap:round;stroke-linejoin:round;" /><path d="M 53.99999999999999,-36.0 L 53.99999999999999,-30.599999999999998 L 53.99999999999999,-25.2" style="stroke:black;fill:none;stroke-width:2.0;stroke-dasharray:-;stroke-linecap:round;stroke-linejoin:round;" /><path d="M 53.99999999999999,-25.2 L 53.99999999999999,-10.799999999999997 L 44.99999999999999,-10.799999999999997 L 62.99999999999999,-10.799999999999997 M 47.69999999999999,-6.479999999999998 L 60.3,-6.479999999999998 M 52.19999999999999,-2.159999999999998 L 55.8,-2.159999999999998" style="stroke:black;fill:none;stroke-width:2.0;stroke-dasharray:-;stroke-linecap:round;stroke-linejoin:round;" /><path d="M 0.0,-90.0 L -4.9598195365467806e-15,-63.0 L -9.919639073093561e-15,-36.0" style="stroke:black;fill:none;stroke-width:2.0;stroke-dasharray:-;stroke-linecap:round;stroke-linejoin:round;" /><path d="M -9.919639073093561e-15,-36.0 L 8.99999999999999,-33.0 L -9.000000000000012,-27.0 L 8.999999999999988,-20.999999999999996 L -9.000000000000014,-15.000000000000004 L 8.999999999999986,-9.0 L -9.000000000000016,-3.0000000000000013 L -1.6532731788489267e-14,-0.0" style="stroke:black;fill:none;stroke-width:2.0;stroke-dasharray:-;stroke-linecap:round;stroke-linejoin:round;" /><path d="M -1.6532731788489267e-14,-0.0 L -1.8020677649453302e-14,8.100000000000001 M 8.999999999999979,20.7 L -9.00000000000002,20.7 M -2.0335260099841795e-14,20.7 L -2.182320596080583e-14,28.8" style="stroke:black;fill:none;stroke-width:2.0;stroke-dasharray:-;stroke-linecap:round;stroke-linejoin:round;" /><path d="M 13.49999999999998,17.1 L 22.998649376703874,22.5277996438308" style="stroke:black;fill:none;stroke-width:2.0;stroke-dasharray:-;stroke-linecap:round;stroke-linejoin:round;" /><path d="M 27.51351371575106 25.10772212328634 L 21.56976923423619 25.028339893149244 L 24.427529519171554 20.027259394512363 Z" style="stroke:black;fill:black;stroke-linecap:butt;stroke-linejoin:miter;" /><path d="M 13.499999999999982,9.000000000000004 L 22.998649376703874,14.4277996438308" style="stroke:black;fill:none;stroke-width:2.0;stroke-dasharray:-;stroke-linecap:round;stroke-linejoin:round;" /><path d="M 27.51351371575106 17.007722123286335 L 21.56976923423619 16.928339893149243 L 24.427529519171554 11.927259394512356 Z" style="stroke:black;fill:black;stroke-linecap:butt;stroke-linejoin:miter;" /><path d="M -2.182320596080583e-14,28.8 L -2.2815169868115188e-14,34.2 L -2.3807133775424544e-14,39.6" style="stroke:black;fill:none;stroke-width:2.0;stroke-dasharray:-;stroke-linecap:round;stroke-linejoin:round;" /><path d="M -2.3807133775424544e-14,39.6 L -2.3807133775424544e-14,54.0 L -9.000000000000025,54.0 L 8.999999999999975,54.0 M -6.300000000000024,58.32000000000001 L 6.299999999999976,58.32000000000001 M -1.8000000000000238,62.64000000000001 L 1.7999999999999763,62.64000000000001" style="stroke:black;fill:none;stroke-width:2.0;stroke-dasharray:-;stroke-linecap:round;stroke-linejoin:round;" /><path d="M 0.0,-90.0 L -1.1572912251942487e-14,-27.0 L -2.3145824503884975e-14,36.0" style="stroke:black;fill:none;stroke-width:2.0;stroke-dasharray:-;stroke-linecap:round;stroke-linejoin:round;" /><path d="M -2.3145824503884975e-14,36.0 L -2.413778841119433e-14,41.4 L -2.5129752318503688e-14,46.800000000000004" style="stroke:black;fill:none;stroke-width:2.0;stroke-dasharray:-;stroke-linecap:round;stroke-linejoin:round;" /><path d="M -2.5129752318503688e-14,46.800000000000004 L -2.5129752318503688e-14,61.2 L -9.000000000000027,61.2 L 8.999999999999975,61.2 M -6.300000000000025,65.52 L 6.299999999999975,65.52 M -1.8000000000000254,69.84 L 1.799999999999975,69.84" style="stroke:black;fill:none;stroke-width:2.0;stroke-dasharray:-;stroke-linecap:round;stroke-linejoin:round;" /><path d="M 0.0,108.0 L 9.0,108.0 L 18.0,108.0" style="stroke:black;fill:none;stroke-width:2.0;stroke-dasharray:-;stroke-linecap:round;stroke-linejoin:round;" /><path d="M 18.0,108.0 L 27.0,108.0 L 29.999999999999996,99.0 L 36.0,117.0 L 41.99999999999999,99.0 L 48.0,117.0 L 54.0,99.0 L 59.99999999999999,117.0 L 63.0,108.0 L 72.0,108.0" style="stroke:black;fill:none;stroke-width:2.0;stroke-dasharray:-;stroke-linecap:round;stroke-linejoin:round;" /><path d="M 72.0,108.0 L 108.0,108.0 L 144.0,108.0" style="stroke:black;fill:none;stroke-width:2.0;stroke-dasharray:-;stroke-linecap:round;stroke-linejoin:round;" /><path d="M 72.0,108.0 L 72.0,117.0 L 72.0,126.0" style="stroke:black;fill:none;stroke-width:2.0;stroke-dasharray:-;stroke-linecap:round;stroke-linejoin:round;" /><path d="M 72.0,126.0 L 81.0,129.0 L 63.0,135.0 L 81.0,141.0 L 63.0,147.0 L 81.0,153.0 L 62.99999999999999,159.0 L 71.99999999999999,162.0" style="stroke:black;fill:none;stroke-width:2.0;stroke-dasharray:-;stroke-linecap:round;stroke-linejoin:round;" /><path d="M 71.99999999999999,162.0 L 71.99999999999999,167.4 L 71.99999999999999,172.79999999999998" style="stroke:black;fill:none;stroke-width:2.0;stroke-dasharray:-;stroke-linecap:round;stroke-linejoin:round;" /><path d="M 71.99999999999999,172.79999999999998 L 71.99999999999999,187.20000000000002 L 62.99999999999999,187.20000000000002 L 81.0,187.20000000000002 M 65.69999999999999,191.52 L 78.3,191.52 M 70.19999999999999,195.83999999999997 L 73.8,195.83999999999997" style="stroke:black;fill:none;stroke-width:2.0;stroke-dasharray:-;stroke-linecap:round;stroke-linejoin:round;" /><path d="M 72.0,108.0 L 72.0,99.0 L 72.0,90.0" style="stroke:black;fill:none;stroke-width:2.0;stroke-dasharray:-;stroke-linecap:round;stroke-linejoin:round;" /><path d="M 72.0,90.0 L 72.0,78.3 M 63.0,65.7 L 81.0,65.7 M 72.0,65.7 L 72.0,54.0" style="stroke:black;fill:none;stroke-width:2.0;stroke-dasharray:-;stroke-linecap:round;stroke-linejoin:round;" /><path d="M 72.0,54.0 L 72.0,48.6 L 72.0,43.199999999999996" style="stroke:black;fill:none;stroke-width:2.0;stroke-dasharray:-;stroke-linecap:round;stroke-linejoin:round;" /><path d="M 72.0,43.199999999999996 L 72.0,28.799999999999997" style="stroke:black;fill:none;stroke-width:2.0;stroke-dasharray:-;stroke-linecap:round;stroke-linejoin:round;" /><path d="M 72.0,28.799999999999997 L 65.25,28.799999999999997" style="stroke:black;fill:none;stroke-width:2.0;stroke-dasharray:-;stroke-linecap:round;stroke-linejoin:round;" /><path d="M 72.0,28.799999999999997 L 78.75,28.799999999999997" style="stroke:black;fill:none;stroke-width:2.0;stroke-dasharray:-;stroke-linecap:round;stroke-linejoin:round;" /><path d="M 54.0,108.0 L 54.0,117.0 L 54.0,126.0" style="stroke:black;fill:none;stroke-width:2.0;stroke-dasharray:-;stroke-linecap:round;stroke-linejoin:round;" /><path d="M 54.0,126.0 L 54.0,140.76 M 63.0,140.76 L 45.0,140.76 M 63.0,147.24 L 45.0,147.24 M 54.0,147.24 L 53.99999999999999,162.0" style="stroke:black;fill:none;stroke-width:2.0;stroke-dasharray:-;stroke-linecap:round;stroke-linejoin:round;" /><path d="M 53.99999999999999,162.0 L 53.99999999999999,167.4 L 53.99999999999999,172.79999999999998" style="stroke:black;fill:none;stroke-width:2.0;stroke-dasharray:-;stroke-linecap:round;stroke-linejoin:round;" /><path d="M 53.99999999999999,172.79999999999998 L 53.99999999999999,187.20000000000002 L 44.99999999999999,187.20000000000002 L 62.99999999999999,187.20000000000002 M 47.69999999999999,191.52 L 60.3,191.52 M 52.19999999999999,195.83999999999997 L 55.8,195.83999999999997" style="stroke:black;fill:none;stroke-width:2.0;stroke-dasharray:-;stroke-linecap:round;stroke-linejoin:round;" /><path d="M 0.0,108.0 L -4.9598195365467806e-15,135.0 L -9.919639073093561e-15,162.0" style="stroke:black;fill:none;stroke-width:2.0;stroke-dasharray:-;stroke-linecap:round;stroke-linejoin:round;" /><path d="M -9.919639073093561e-15,162.0 L 8.99999999999999,165.0 L -9.000000000000012,171.0 L 8.999999999999988,177.0 L -9.000000000000014,183.0 L 8.999999999999986,189.0 L -9.000000000000016,195.0 L -1.6532731788489267e-14,198.0" style="stroke:black;fill:none;stroke-width:2.0;stroke-dasharray:-;stroke-linecap:round;stroke-linejoin:round;" /><path d="M -1.6532731788489267e-14,198.0 L -1.8020677649453302e-14,206.1 M 8.999999999999979,218.70000000000002 L -9.00000000000002,218.70000000000002 M -2.0335260099841795e-14,218.70000000000002 L -2.182320596080583e-14,226.79999999999998" style="stroke:black;fill:none;stroke-width:2.0;stroke-dasharray:-;stroke-linecap:round;stroke-linejoin:round;" /><path d="M 13.49999999999998,215.1 L 22.998649376703877,220.5277996438308" style="stroke:black;fill:none;stroke-width:2.0;stroke-dasharray:-;stroke-linecap:round;stroke-linejoin:round;" /><path d="M 27.513513715751063 223.10772212328635 L 21.56976923423619 223.02833989314925 L 24.42752951917156 218.02725939451236 Z" style="stroke:black;fill:black;stroke-linecap:butt;stroke-linejoin:miter;" /><path d="M 13.499999999999982,207.0 L 22.998649376703874,212.42779964383078" style="stroke:black;fill:none;stroke-width:2.0;stroke-dasharray:-;stroke-linecap:round;stroke-linejoin:round;" /><path d="M 27.51351371575106 215.00772212328633 L 21.56976923423619 214.92833989314923 L 24.427529519171554 209.92725939451233 Z" style="stroke:black;fill:black;stroke-linecap:butt;stroke-linejoin:miter;" /><path d="M -2.182320596080583e-14,226.79999999999998 L -2.2815169868115188e-14,232.20000000000002 L -2.3807133775424544e-14,237.6" style="stroke:black;fill:none;stroke-width:2.0;stroke-dasharray:-;stroke-linecap:round;stroke-linejoin:round;" /><path d="M -2.3807133775424544e-14,237.6 L -2.3807133775424544e-14,252.0 L -9.000000000000025,252.0 L 8.999999999999975,252.0 M -6.300000000000024,256.32 L 6.299999999999976,256.32 M -1.8000000000000238,260.64 L 1.7999999999999763,260.64" style="stroke:black;fill:none;stroke-width:2.0;stroke-dasharray:-;stroke-linecap:round;stroke-linejoin:round;" /><path d="M 0.0,108.0 L -1.1572912251942487e-14,171.0 L -2.3145824503884975e-14,234.0" style="stroke:black;fill:none;stroke-width:2.0;stroke-dasharray:-;stroke-linecap:round;stroke-linejoin:round;" /><path d="M -2.3145824503884975e-14,234.0 L -2.413778841119433e-14,239.4 L -2.5129752318503688e-14,244.79999999999998" style="stroke:black;fill:none;stroke-width:2.0;stroke-dasharray:-;stroke-linecap:round;stroke-linejoin:round;" /><path d="M -2.5129752318503688e-14,244.79999999999998 L -2.5129752318503688e-14,259.2 L -9.000000000000027,259.2 L 8.999999999999975,259.2 M -6.300000000000025,263.52 L 6.299999999999975,263.52 M -1.8000000000000254,267.84 L 1.799999999999975,267.84" style="stroke:black;fill:none;stroke-width:2.0;stroke-dasharray:-;stroke-linecap:round;stroke-linejoin:round;" /><text x="3.6" y="-377.59999999999997" dominant-baseline="central" fill="black" font-size="14" font-family="sans" text-anchor="start"><tspan x="3.6" dy="14">PRISME TOP BOARD - INPUT CIRCUITS</tspan></text><text x="3.6" y="-355.59999999999997" dominant-baseline="central" fill="black" font-size="10" font-family="sans" text-anchor="start"><tspan x="3.6" dy="10">Session 25 - Actual Design (No Fiction)</tspan></text><text x="3.6" y="-335.59999999999997" dominant-baseline="central" fill="black" font-size="8" font-family="sans" text-anchor="start"><tspan x="3.6" dy="8">Date: 2025-11-03</tspan></text><text x="3.6" y="-303.59999999999997" dominant-baseline="central" fill="black" font-size="12" font-family="bold" text-anchor="start"><tspan x="3.6" dy="12">POWER DISTRIBUTION</tspan></text><text x="3.6" y="-265.6" dominant-baseline="central" fill="black" font-size="10" font-family="sans" text-anchor="start"><tspan x="3.6" dy="10">5V Rail:</tspan></text><text x="72.0" y="-286.0" dominant-baseline="ideographic" fill="black" font-size="8" font-family="sans" text-anchor="middle"><tspan x="72.0" dy="8">5V</tspan><tspan x="72.0" dy="8">(from M4)</tspan></text><text x="72.0" y="-258.6" dominant-baseline="ideographic" fill="black" font-size="7" font-family="sans" text-anchor="middle"><tspan x="72.0" dy="7">C11</tspan><tspan x="72.0" dy="7">10uF</tspan><tspan x="72.0" dy="7">Electrolytic</tspan></text><text x="108.0" y="-258.6" dominant-baseline="ideographic" fill="black" font-size="7" font-family="sans" text-anchor="middle"><tspan x="108.0" dy="7">C12</tspan><tspan x="108.0" dy="7">0.1uF</tspan><tspan x="108.0" dy="7">Ceramic</tspan></text><text x="219.6" y="-258.4" dominant-baseline="central" fill="black" font-size="10" font-family="sans" text-anchor="start"><tspan x="219.6" dy="10">3.3V Rail:</tspan></text><text x="288.0" y="-286.0" dominant-baseline="ideographic" fill="black" font-size="8" font-family="sans" text-anchor="middle"><tspan x="288.0" dy="8">3.3V</tspan><tspan x="288.0" dy="8">(from M4)</tspan></text><text x="288.0" y="-258.6" dominant-baseline="ideographic" fill="black" font-size="7" font-family="sans" text-anchor="middle"><tspan x="288.0" dy="7">C13</tspan><tspan x="288.0" dy="7">10uF</tspan><tspan x="288.0" dy="7">Electrolytic</tspan></text><text x="324.0" y="-258.6" dominant-baseline="ideographic" fill="black" font-size="7" font-family="sans" text-anchor="middle"><tspan x="324.0" dy="7">C14</tspan><tspan x="324.0" dy="7">0.1uF</tspan><tspan x="324.0" dy="7">Ceramic</tspan></text><text x="219.6" y="-183.4" dominant-baseline="central" fill="black" font-size="7" font-family="sans" text-anchor="start"><tspan x="219.6" dy="7">Powers: Input LEDs, BAT85 clamps</tspan></text><text x="3.5999999999999996" y="-134.39999999999998" dominant-baseline="central" fill="black" font-size="12" font-family="bold" text-anchor="start"><tspan x="3.5999999999999996" dy="12">CV IN - Channel A3</tspan></text><text x="45.0" y="-116.60000000000001" dominant-baseline="ideographic" fill="black" font-size="7" font-family="sans" text-anchor="middle"><tspan x="45.0" dy="7">R1</tspan><tspan x="45.0" dy="7">10k ohm</tspan></text><text x="72.0" y="-89.60000000000001" dominant-baseline="ideographic" fill="black" font-size="7" font-family="sans" text-anchor="middle"><tspan x="72.0" dy="7">R2</tspan><tspan x="72.0" dy="7">10k ohm</tspan></text><text x="72.0" y="-111.39999999999999" dominant-baseline="hanging" fill="black" font-size="7" font-family="sans" text-anchor="middle"><tspan x="72.0" dy="7">D1</tspan><tspan x="72.0" dy="7">BAT85</tspan><tspan x="72.0" dy="7">Schottky</tspan></text><text x="72.0" y="-179.79999999999998" dominant-baseline="ideographic" fill="black" font-size="7" font-family="sans" text-anchor="middle"><tspan x="72.0" dy="7">3.3V</tspan></text><text x="53.99999999999999" y="-38.4" dominant-baseline="hanging" fill="black" font-size="6" font-family="sans" text-anchor="middle"><tspan x="53.99999999999999" dy="6">C15</tspan><tspan x="53.99999999999999" dy="6">100nF</tspan><tspan x="53.99999999999999" dy="6">(optional)</tspan></text><text x="-1.719404106002884e-14" y="-3.399999999999997" dominant-baseline="hanging" fill="black" font-size="7" font-family="sans" text-anchor="middle"><tspan x="-1.719404106002884e-14" dy="7">R3</tspan><tspan x="-1.719404106002884e-14" dy="7">1k ohm</tspan></text><text x="13.004999999999978" y="25.4" dominant-baseline="hanging" fill="black" font-size="7" font-family="sans" text-anchor="middle"><tspan x="13.004999999999978" dy="7">LED1</tspan><tspan x="13.004999999999978" dy="7">White</tspan></text><text x="3.5999999999999996" y="63.60000000000001" dominant-baseline="central" fill="black" font-size="12" font-family="bold" text-anchor="start"><tspan x="3.5999999999999996" dy="12">TRIG IN - Channel A4</tspan></text><text x="45.0" y="81.39999999999999" dominant-baseline="ideographic" fill="black" font-size="7" font-family="sans" text-anchor="middle"><tspan x="45.0" dy="7">R4</tspan><tspan x="45.0" dy="7">10k ohm</tspan></text><text x="72.0" y="108.39999999999999" dominant-baseline="ideographic" fill="black" font-size="7" font-family="sans" text-anchor="middle"><tspan x="72.0" dy="7">R5</tspan><tspan x="72.0" dy="7">10k ohm</tspan></text><text x="72.0" y="86.60000000000001" dominant-baseline="hanging" fill="black" font-size="7" font-family="sans" text-anchor="middle"><tspan x="72.0" dy="7">D2</tspan><tspan x="72.0" dy="7">BAT85</tspan><tspan x="72.0" dy="7">Schottky</tspan></text><text x="72.0" y="18.2" dominant-baseline="ideographic" fill="black" font-size="7" font-family="sans" text-anchor="middle"><tspan x="72.0" dy="7">3.3V</tspan></text><text x="53.99999999999999" y="159.6" dominant-baseline="hanging" fill="black" font-size="6" font-family="sans" text-anchor="middle"><tspan x="53.99999999999999" dy="6">C16</tspan><tspan x="53.99999999999999" dy="6">100nF</tspan><tspan x="53.99999999999999" dy="6">(optional)</tspan></text><text x="-1.719404106002884e-14" y="194.6" dominant-baseline="hanging" fill="black" font-size="7" font-family="sans" text-anchor="middle"><tspan x="-1.719404106002884e-14" dy="7">R6</tspan><tspan x="-1.719404106002884e-14" dy="7">330 ohm</tspan></text><text x="13.004999999999978" y="223.4" dominant-baseline="hanging" fill="black" font-size="7" font-family="sans" text-anchor="middle"><tspan x="13.004999999999978" dy="7">LED2</tspan><tspan x="13.004999999999978" dy="7">RGB</tspan></text><text x="219.6" y="65.60000000000001" dominant-baseline="central" fill="black" font-size="10" font-family="bold" text-anchor="start"><tspan x="219.6" dy="10">CONNECTIONS TO M4</tspan></text><text x="219.6" y="85.60000000000001" dominant-baseline="central" fill="black" font-size="8" font-family="sans" text-anchor="start"><tspan x="219.6" dy="8">Pin A3 &lt;- CV IN (via divider)</tspan></text><text x="219.6" y="103.60000000000001" dominant-baseline="central" fill="black" font-size="8" font-family="sans" text-anchor="start"><tspan x="219.6" dy="8">Pin A4 &lt;- TRIG IN (via divider)</tspan></text><text x="219.6" y="121.6" dominant-baseline="central" fill="black" font-size="8" font-family="sans" text-anchor="start"><tspan x="219.6" dy="8">Pin D4 -&gt; CV IN LED (white)</tspan></text><text x="219.6" y="139.6" dominant-baseline="central" fill="black" font-size="8" font-family="sans" text-anchor="start"><tspan x="219.6" dy="8">Pin D11 -&gt; TRIG IN LED R (RGB)</tspan></text><text x="219.6" y="157.6" dominant-baseline="central" fill="black" font-size="8" font-family="sans" text-anchor="start"><tspan x="219.6" dy="8">Pin D23 -&gt; TRIG IN LED G (RGB)</tspan></text><text x="219.6" y="175.6" dominant-baseline="central" fill="black" font-size="8" font-family="sans" text-anchor="start"><tspan x="219.6" dy="8">Pin D24 -&gt; TRIG IN LED B (RGB)</tspan></text><text x="3.5999999999999996" y="245.6" dominant-baseline="central" fill="black" font-size="10" font-family="bold" text-anchor="start"><tspan x="3.5999999999999996" dy="10">DESIGN NOTES:</tspan></text><text x="3.5999999999999996" y="265.59999999999997" dominant-baseline="central" fill="black" font-size="8" font-family="sans" text-anchor="start"><tspan x="3.5999999999999996" dy="8">1. Voltage dividers scale 5V input to 2.5V (safe for 3.3V ADC)</tspan></text><text x="3.5999999999999996" y="283.59999999999997" dominant-baseline="central" fill="black" font-size="8" font-family="sans" text-anchor="start"><tspan x="3.5999999999999996" dy="8">2. BAT85 diodes clamp voltage spikes to 3.7V max (100% safe)</tspan></text><text x="3.5999999999999996" y="301.59999999999997" dominant-baseline="central" fill="black" font-size="8" font-family="sans" text-anchor="start"><tspan x="3.5999999999999996" dy="8">3. 100nF smoothing caps are OPTIONAL (filter cable noise)</tspan></text><text x="3.5999999999999996" y="319.59999999999997" dominant-baseline="central" fill="black" font-size="8" font-family="sans" text-anchor="start"><tspan x="3.5999999999999996" dy="8">4. Both 5V and 3.3V rails require decoupling (C11-C14)</tspan></text><text x="3.5999999999999996" y="337.59999999999997" dominant-baseline="central" fill="black" font-size="8" font-family="sans" text-anchor="start"><tspan x="3.5999999999999996" dy="8">5. BAT85 cathode (banded end) connects to 3.3V rail</tspan></text><text x="3.5999999999999996" y="355.59999999999997" dominant-baseline="central" fill="black" font-size="8" font-family="sans" text-anchor="start"><tspan x="3.5999999999999996" dy="8">6. Current limiting resistors for LEDs (1k-330 ohm typical)</tspan></text><text x="219.6" y="245.6" dominant-baseline="central" fill="black" font-size="10" font-family="bold" text-anchor="start"><tspan x="219.6" dy="10">PROTECTION ANALYSIS:</tspan></text><text x="219.6" y="265.59999999999997" dominant-baseline="central" fill="black" font-size="8" font-family="sans" text-anchor="start"><tspan x="219.6" dy="8">Without BAT85: Safe up to 6.6V (60%)</tspan></text><text x="219.6" y="283.59999999999997" dominant-baseline="central" fill="black" font-size="8" font-family="sans" text-anchor="start"><tspan x="219.6" dy="8">With BAT85: Safe up to 40V+ (100%)</tspan></text><text x="219.6" y="301.59999999999997" dominant-baseline="central" fill="black" font-size="8" font-family="sans" text-anchor="start"><tspan x="219.6" dy="8">M4 ADC max: 3.3V nominal, 3.6V absolute</tspan></text><text x="219.6" y="319.59999999999997" dominant-baseline="central" fill="black" font-size="8" font-family="sans" text-anchor="start"><tspan x="219.6" dy="8">BAT85 clamp: 3.3V + 0.4V = 3.7V max</tspan></text><circle cx="0.0" cy="-90.0" r="2.6999999999999997" style="stroke:black;fill:black;stroke-width:2.0;stroke-dasharray:-;" /><text x="0.0" y="-112.3" dominant-baseline="ideographic" fill="black" font-size="8" font-family="sans" text-anchor="end"><tspan x="0.0" dy="8">CV IN</tspan><tspan x="0.0" dy="8">Jack TIP</tspan></text><circle cx="72.0" cy="-90.0" r="2.6999999999999997" style="stroke:black;fill:black;stroke-width:2.0;stroke-dasharray:-;" /><text x="72.0" y="-103.3" dominant-baseline="ideographic" fill="black" font-size="7" font-family="sans" text-anchor="middle"><tspan x="72.0" dy="7">TAP</tspan></text><circle cx="144.0" cy="-90.0" r="2.6999999999999997" style="stroke:black;fill:black;stroke-width:2.0;stroke-dasharray:-;" /><text x="144.0" y="-112.3" dominant-baseline="ideographic" fill="black" font-size="8" font-family="sans" text-anchor="start"><tspan x="144.0" dy="8">To M4</tspan><tspan x="144.0" dy="8">Pin A3</tspan></text><circle cx="-2.3145824503884975e-14" cy="36.0" r="2.6999999999999997" style="stroke:black;fill:black;stroke-width:2.0;stroke-dasharray:-;" /><text x="-2.3145824503884975e-14" y="15.7" dominant-baseline="ideographic" fill="black" font-size="7" font-family="sans" text-anchor="end"><tspan x="-2.3145824503884975e-14" dy="7">Jack</tspan><tspan x="-2.3145824503884975e-14" dy="7">SLEEVE</tspan></text><circle cx="0.0" cy="108.0" r="2.6999999999999997" style="stroke:black;fill:black;stroke-width:2.0;stroke-dasharray:-;" /><text x="0.0" y="85.7" dominant-baseline="ideographic" fill="black" font-size="8" font-family="sans" text-anchor="end"><tspan x="0.0" dy="8">TRIG IN</tspan><tspan x="0.0" dy="8">Jack TIP</tspan></text><circle cx="72.0" cy="108.0" r="2.6999999999999997" style="stroke:black;fill:black;stroke-width:2.0;stroke-dasharray:-;" /><text x="72.0" y="94.7" dominant-baseline="ideographic" fill="black" font-size="7" font-family="sans" text-anchor="middle"><tspan x="72.0" dy="7">TAP</tspan></text><circle cx="144.0" cy="108.0" r="2.6999999999999997" style="stroke:black;fill:black;stroke-width:2.0;stroke-dasharray:-;" /><text x="144.0" y="85.7" dominant-baseline="ideographic" fill="black" font-size="8" font-family="sans" text-anchor="start"><tspan x="144.0" dy="8">To M4</tspan><tspan x="144.0" dy="8">Pin A4</tspan></text><circle cx="-2.3145824503884975e-14" cy="234.0" r="2.6999999999999997" style="stroke:black;fill:black;stroke-width:2.0;stroke-dasharray:-;" /><text x="-2.3145824503884975e-14" y="213.70000000000002" dominant-baseline="ideographic" fill="black" font-size="7" font-family="sans" text-anchor="end"><tspan x="-2.3145824503884975e-14" dy="7">Jack</tspan><tspan x="-2.3145824503884975e-14" dy="7">SLEEVE</tspan></text></svg>