<svg xmlns="http://www.w3.org/2000/svg" xmlns:xlink="http://www.w3.org/1999/xlink" xml:lang="en" height="3144.9pt" width="1710.197pt" viewBox="-276.64 -18.2 1710.197 3144.9"><polygon points="494.9999999999998,1541.7 485.9999999999998,1554.3 476.9999999999998,1541.7 " style="stroke:black;fill:none;stroke-width:2.0;stroke-dasharray:-;stroke-linecap:round;stroke-linejoin:round;" /><polygon points="461.69999999999965,1881.0 474.2999999999996,1890.0 461.69999999999965,1899.0 " style="stroke:black;fill:none;stroke-width:2.0;stroke-dasharray:-;stroke-linecap:round;stroke-linejoin:round;" /><polygon points="854.9999999999998,2261.7000000000003 845.9999999999998,2274.2999999999997 836.9999999999998,2261.7000000000003 " style="stroke:black;fill:none;stroke-width:2.0;stroke-dasharray:-;stroke-linecap:round;stroke-linejoin:round;" /><polygon points="803.6999999999996,2601.0 816.2999999999996,2610.0 803.6999999999996,2619.0 " style="stroke:black;fill:none;stroke-width:2.0;stroke-dasharray:-;stroke-linecap:round;stroke-linejoin:round;" /><polygon points="803.6999999999996,2673.0 816.2999999999996,2682.0 803.6999999999996,2691.0 " style="stroke:black;fill:none;stroke-width:2.0;stroke-dasharray:-;stroke-linecap:round;stroke-linejoin:round;" /><polygon points="1145.6999999999996,2817.0 1158.2999999999997,2826.0 1145.6999999999996,2835.0 " style="stroke:black;fill:none;stroke-width:2.0;stroke-dasharray:-;stroke-linecap:round;stroke-linejoin:round;" /><path d="M -2.050058741772669e-13,1116.0 L 26.999999999999797,1116.0 L 53.999999999999794,1116.0" style="stroke:black;fill:none;stroke-width:2.0;stroke-dasharray:-;stroke-linecap:round;stroke-linejoin:round;" /><path d="M 53.999999999999794,1116.0 L 104.75999999999978,1116.0 M 104.75999999999978,1107.0 L 104.75999999999978,1125.0 M 111.23999999999978,1107.0 L 111.23999999999978,1125.0 M 111.23999999999978,1116.0 L 161.9999999999998,1116.0" style="stroke:black;fill:none;stroke-width:2.0;stroke-dasharray:-;stroke-linecap:round;stroke-linejoin:round;" /><path d="M 161.9999999999998,1116.0 L 179.9999999999998,1116.0 L 197.9999999999998,1116.0" style="stroke:black;fill:none;stroke-width:2.0;stroke-dasharray:-;stroke-linecap:round;stroke-linejoin:round;" /><path d="M 197.9999999999998,1116.0 L 197.9999999999998,1130.3999999999999 L 188.9999999999998,1130.3999999999999 L 206.9999999999998,1130.3999999999999 M 191.69999999999982,1134.72 L 204.2999999999998,1134.72 M 196.19999999999982,1139.04 L 199.7999999999998,1139.04" style="stroke:black;fill:none;stroke-width:2.0;stroke-dasharray:-;stroke-linecap:round;stroke-linejoin:round;" /><path d="M -2.1492551325036046e-13,1170.0 L 26.999999999999783,1170.0 L 53.99999999999979,1170.0" style="stroke:black;fill:none;stroke-width:2.0;stroke-dasharray:-;stroke-linecap:round;stroke-linejoin:round;" /><path d="M 53.99999999999979,1170.0 L 104.75999999999978,1170.0 M 104.75999999999978,1161.0 L 104.75999999999978,1179.0 M 111.23999999999977,1161.0 L 111.23999999999977,1179.0 M 111.23999999999977,1170.0 L 161.99999999999977,1170.0" style="stroke:black;fill:none;stroke-width:2.0;stroke-dasharray:-;stroke-linecap:round;stroke-linejoin:round;" /><path d="M 161.99999999999977,1170.0 L 179.99999999999977,1170.0 L 197.99999999999977,1170.0" style="stroke:black;fill:none;stroke-width:2.0;stroke-dasharray:-;stroke-linecap:round;stroke-linejoin:round;" /><path d="M 197.99999999999977,1170.0 L 197.99999999999977,1184.3999999999999 L 188.99999999999977,1184.3999999999999 L 206.99999999999977,1184.3999999999999 M 191.6999999999998,1188.72 L 204.29999999999978,1188.72 M 196.1999999999998,1193.04 L 199.79999999999978,1193.04" style="stroke:black;fill:none;stroke-width:2.0;stroke-dasharray:-;stroke-linecap:round;stroke-linejoin:round;" /><path d="M 197.99999999999974,1458.0 L 233.99999999999974,1458.0 L 269.9999999999998,1458.0" style="stroke:black;fill:none;stroke-width:2.0;stroke-dasharray:-;stroke-linecap:round;stroke-linejoin:round;" /><path d="M 269.9999999999998,1458.0 L 305.9999999999998,1458.0 L 308.9999999999998,1449.0 L 314.9999999999998,1467.0 L 320.9999999999997,1449.0 L 326.9999999999998,1467.0 L 332.9999999999998,1449.0 L 338.9999999999997,1467.0 L 341.9999999999998,1458.0 L 377.9999999999998,1458.0" style="stroke:black;fill:none;stroke-width:2.0;stroke-dasharray:-;stroke-linecap:round;stroke-linejoin:round;" /><path d="M 377.9999999999998,1458.0 L 395.9999999999998,1458.0 L 413.9999999999998,1458.0" style="stroke:black;fill:none;stroke-width:2.0;stroke-dasharray:-;stroke-linecap:round;stroke-linejoin:round;" /><path d="M 413.9999999999998,1458.0 L 413.9999999999998,1476.0 L 413.9999999999998,1494.0" style="stroke:black;fill:none;stroke-width:2.0;stroke-dasharray:-;stroke-linecap:round;stroke-linejoin:round;" /><path d="M 413.9999999999998,1494.0 L 413.9999999999998,1530.0 L 422.9999999999998,1533.0 L 404.9999999999998,1539.0 L 422.9999999999998,1545.0 L 404.9999999999998,1551.0 L 422.9999999999998,1557.0 L 404.9999999999998,1563.0 L 413.9999999999998,1566.0 L 413.9999999999998,1602.0" style="stroke:black;fill:none;stroke-width:2.0;stroke-dasharray:-;stroke-linecap:round;stroke-linejoin:round;" /><path d="M 413.9999999999998,1602.0 L 413.9999999999998,1620.0 L 413.9999999999998,1638.0" style="stroke:black;fill:none;stroke-width:2.0;stroke-dasharray:-;stroke-linecap:round;stroke-linejoin:round;" /><path d="M 413.9999999999998,1638.0 L 413.9999999999998,1652.3999999999999 L 404.9999999999998,1652.3999999999999 L 422.9999999999998,1652.3999999999999 M 407.6999999999997,1656.72 L 420.2999999999998,1656.72 M 412.1999999999997,1661.04 L 415.7999999999998,1661.04" style="stroke:black;fill:none;stroke-width:2.0;stroke-dasharray:-;stroke-linecap:round;stroke-linejoin:round;" /><path d="M 413.9999999999998,1458.0 L 449.9999999999998,1458.0 L 485.9999999999998,1458.0" style="stroke:black;fill:none;stroke-width:2.0;stroke-dasharray:-;stroke-linecap:round;stroke-linejoin:round;" /><path d="M 485.9999999999998,1458.0 L 485.9999999999998,1476.0 L 485.9999999999998,1494.0" style="stroke:black;fill:none;stroke-width:2.0;stroke-dasharray:-;stroke-linecap:round;stroke-linejoin:round;" /><path d="M 485.9999999999998,1494.0 L 485.9999999999998,1541.7 M 494.9999999999998,1554.3 L 476.9999999999998,1554.3 M 485.9999999999998,1554.3 L 485.9999999999998,1602.0" style="stroke:black;fill:none;stroke-width:2.0;stroke-dasharray:-;stroke-linecap:round;stroke-linejoin:round;" /><path d="M 485.9999999999998,1602.0 L 485.9999999999998,1611.0 L 485.9999999999998,1620.0" style="stroke:black;fill:none;stroke-width:2.0;stroke-dasharray:-;stroke-linecap:round;stroke-linejoin:round;" /><path d="M 485.9999999999998,1458.0 L 521.9999999999998,1458.0 L 557.9999999999998,1458.0" style="stroke:black;fill:none;stroke-width:2.0;stroke-dasharray:-;stroke-linecap:round;stroke-linejoin:round;" /><path d="M 557.9999999999998,1458.0 L 557.9999999999998,1476.0 L 557.9999999999998,1494.0" style="stroke:black;fill:none;stroke-width:2.0;stroke-dasharray:-;stroke-linecap:round;stroke-linejoin:round;" /><path d="M 557.9999999999998,1494.0 L 557.9999999999998,1544.7599999999998 M 566.9999999999998,1544.7599999999998 L 548.9999999999998,1544.7599999999998 M 566.9999999999998,1551.2400000000002 L 548.9999999999998,1551.2400000000002 M 557.9999999999998,1551.2400000000002 L 557.9999999999998,1602.0" style="stroke:black;fill:none;stroke-width:2.0;stroke-dasharray:-;stroke-linecap:round;stroke-linejoin:round;" /><path d="M 557.9999999999998,1602.0 L 557.9999999999998,1620.0 L 557.9999999999998,1638.0" style="stroke:black;fill:none;stroke-width:2.0;stroke-dasharray:-;stroke-linecap:round;stroke-linejoin:round;" /><path d="M 557.9999999999998,1638.0 L 557.9999999999998,1652.3999999999999 L 548.9999999999998,1652.3999999999999 L 566.9999999999998,1652.3999999999999 M 551.6999999999997,1656.72 L 564.2999999999997,1656.72 M 556.1999999999997,1661.04 L 559.7999999999997,1661.04" style="stroke:black;fill:none;stroke-width:2.0;stroke-dasharray:-;stroke-linecap:round;stroke-linejoin:round;" /><path d="M 557.9999999999998,1458.0 L 593.9999999999998,1458.0 L 629.9999999999998,1458.0" style="stroke:black;fill:none;stroke-width:2.0;stroke-dasharray:-;stroke-linecap:round;stroke-linejoin:round;" /><path d="M 629.9999999999998,1458.0 L 629.9999999999998,1476.0 L 629.9999999999998,1494.0" style="stroke:black;fill:none;stroke-width:2.0;stroke-dasharray:-;stroke-linecap:round;stroke-linejoin:round;" /><path d="M 629.9999999999998,1494.0 L 629.9999999999998,1544.7599999999998 M 638.9999999999998,1544.7599999999998 L 620.9999999999998,1544.7599999999998 M 638.9999999999998,1551.2400000000002 L 620.9999999999998,1551.2400000000002 M 629.9999999999998,1551.2400000000002 L 629.9999999999998,1602.0" style="stroke:black;fill:none;stroke-width:2.0;stroke-dasharray:-;stroke-linecap:round;stroke-linejoin:round;" /><path d="M 629.9999999999998,1602.0 L 629.9999999999998,1620.0 L 629.9999999999998,1638.0" style="stroke:black;fill:none;stroke-width:2.0;stroke-dasharray:-;stroke-linecap:round;stroke-linejoin:round;" /><path d="M 629.9999999999998,1638.0 L 629.9999999999998,1652.3999999999999 L 620.9999999999998,1652.3999999999999 L 638.9999999999998,1652.3999999999999 M 623.6999999999997,1656.72 L 636.2999999999997,1656.72 M 628.1999999999997,1661.04 L 631.7999999999997,1661.04" style="stroke:black;fill:none;stroke-width:2.0;stroke-dasharray:-;stroke-linecap:round;stroke-linejoin:round;" /><path d="M 629.9999999999998,1458.0 L 665.9999999999998,1458.0 L 701.9999999999998,1458.0" style="stroke:black;fill:none;stroke-width:2.0;stroke-dasharray:-;stroke-linecap:round;stroke-linejoin:round;" /><path d="M 197.9999999999997,1890.0 L 233.9999999999997,1890.0 L 269.99999999999966,1890.0" style="stroke:black;fill:none;stroke-width:2.0;stroke-dasharray:-;stroke-linecap:round;stroke-linejoin:round;" /><path d="M 269.99999999999966,1890.0 L 305.99999999999966,1890.0 L 308.9999999999997,1881.0 L 314.99999999999966,1899.0 L 320.99999999999966,1881.0 L 326.9999999999997,1899.0 L 332.99999999999966,1881.0 L 338.99999999999966,1899.0 L 341.99999999999966,1890.0 L 377.99999999999966,1890.0" style="stroke:black;fill:none;stroke-width:2.0;stroke-dasharray:-;stroke-linecap:round;stroke-linejoin:round;" /><path d="M 377.99999999999966,1890.0 L 395.99999999999966,1890.0 L 413.99999999999966,1890.0" style="stroke:black;fill:none;stroke-width:2.0;stroke-dasharray:-;stroke-linecap:round;stroke-linejoin:round;" /><path d="M 413.99999999999966,1890.0 L 461.69999999999965,1890.0 M 474.2999999999996,1881.0 L 474.2999999999996,1899.0 M 474.2999999999996,1890.0 L 521.9999999999997,1890.0" style="stroke:black;fill:none;stroke-width:2.0;stroke-dasharray:-;stroke-linecap:round;stroke-linejoin:round;" /><path d="M 470.69999999999965,1876.5 L 476.12779964383043,1867.001350623296" style="stroke:black;fill:none;stroke-width:2.0;stroke-dasharray:-;stroke-linecap:round;stroke-linejoin:round;" /><path d="M 478.707722123286 1862.486486284249 L 478.6283398931489 1868.4302307657638 L 473.627259394512 1865.5724704808285 Z" style="stroke:black;fill:black;stroke-linecap:butt;stroke-linejoin:miter;" /><path d="M 462.5999999999997,1876.5 L 468.02779964383046,1867.001350623296" style="stroke:black;fill:none;stroke-width:2.0;stroke-dasharray:-;stroke-linecap:round;stroke-linejoin:round;" /><path d="M 470.607722123286 1862.486486284249 L 470.52833989314894 1868.4302307657638 L 465.52725939451204 1865.5724704808285 Z" style="stroke:black;fill:black;stroke-linecap:butt;stroke-linejoin:miter;" /><path d="M 521.9999999999997,1890.0 L 539.9999999999997,1890.0 L 557.9999999999997,1890.0" style="stroke:black;fill:none;stroke-width:2.0;stroke-dasharray:-;stroke-linecap:round;stroke-linejoin:round;" /><path d="M 557.9999999999997,1890.0 L 557.9999999999997,1904.3999999999999 L 548.9999999999997,1904.3999999999999 L 566.9999999999997,1904.3999999999999 M 551.6999999999997,1908.72 L 564.2999999999997,1908.72 M 556.1999999999997,1913.04 L 559.7999999999997,1913.04" style="stroke:black;fill:none;stroke-width:2.0;stroke-dasharray:-;stroke-linecap:round;stroke-linejoin:round;" /><path d="M 557.9999999999997,2178.0 L 593.9999999999998,2178.0 L 629.9999999999998,2178.0" style="stroke:black;fill:none;stroke-width:2.0;stroke-dasharray:-;stroke-linecap:round;stroke-linejoin:round;" /><path d="M 629.9999999999998,2178.0 L 665.9999999999998,2178.0 L 668.9999999999997,2169.0 L 674.9999999999998,2187.0 L 680.9999999999998,2169.0 L 686.9999999999997,2187.0 L 692.9999999999998,2169.0 L 698.9999999999998,2187.0 L 701.9999999999998,2178.0 L 737.9999999999998,2178.0" style="stroke:black;fill:none;stroke-width:2.0;stroke-dasharray:-;stroke-linecap:round;stroke-linejoin:round;" /><path d="M 737.9999999999998,2178.0 L 755.9999999999998,2178.0 L 773.9999999999998,2178.0" style="stroke:black;fill:none;stroke-width:2.0;stroke-dasharray:-;stroke-linecap:round;stroke-linejoin:round;" /><path d="M 773.9999999999998,2178.0 L 773.9999999999998,2196.0 L 773.9999999999998,2214.0" style="stroke:black;fill:none;stroke-width:2.0;stroke-dasharray:-;stroke-linecap:round;stroke-linejoin:round;" /><path d="M 773.9999999999998,2214.0 L 773.9999999999998,2250.0 L 782.9999999999998,2253.0 L 764.9999999999998,2259.0 L 782.9999999999998,2265.0 L 764.9999999999998,2271.0 L 782.9999999999998,2277.0 L 764.9999999999998,2283.0 L 773.9999999999998,2286.0 L 773.9999999999998,2322.0" style="stroke:black;fill:none;stroke-width:2.0;stroke-dasharray:-;stroke-linecap:round;stroke-linejoin:round;" /><path d="M 773.9999999999998,2322.0 L 773.9999999999998,2340.0 L 773.9999999999998,2358.0" style="stroke:black;fill:none;stroke-width:2.0;stroke-dasharray:-;stroke-linecap:round;stroke-linejoin:round;" /><path d="M 773.9999999999998,2358.0 L 773.9999999999998,2372.4 L 764.9999999999998,2372.4 L 782.9999999999998,2372.4 M 767.6999999999997,2376.72 L 780.2999999999997,2376.72 M 772.1999999999997,2381.04 L 775.7999999999997,2381.04" style="stroke:black;fill:none;stroke-width:2.0;stroke-dasharray:-;stroke-linecap:round;stroke-linejoin:round;" /><path d="M 773.9999999999998,2178.0 L 809.9999999999998,2178.0 L 845.9999999999998,2178.0" style="stroke:black;fill:none;stroke-width:2.0;stroke-dasharray:-;stroke-linecap:round;stroke-linejoin:round;" /><path d="M 845.9999999999998,2178.0 L 845.9999999999998,2196.0 L 845.9999999999998,2214.0" style="stroke:black;fill:none;stroke-width:2.0;stroke-dasharray:-;stroke-linecap:round;stroke-linejoin:round;" /><path d="M 845.9999999999998,2214.0 L 845.9999999999998,2261.7000000000003 M 854.9999999999998,2274.2999999999997 L 836.9999999999998,2274.2999999999997 M 845.9999999999998,2274.2999999999997 L 845.9999999999998,2322.0" style="stroke:black;fill:none;stroke-width:2.0;stroke-dasharray:-;stroke-linecap:round;stroke-linejoin:round;" /><path d="M 845.9999999999998,2322.0 L 845.9999999999998,2331.0 L 845.9999999999998,2340.0" style="stroke:black;fill:none;stroke-width:2.0;stroke-dasharray:-;stroke-linecap:round;stroke-linejoin:round;" /><path d="M 845.9999999999998,2178.0 L 881.9999999999998,2178.0 L 917.9999999999998,2178.0" style="stroke:black;fill:none;stroke-width:2.0;stroke-dasharray:-;stroke-linecap:round;stroke-linejoin:round;" /><path d="M 917.9999999999998,2178.0 L 917.9999999999998,2196.0 L 917.9999999999998,2214.0" style="stroke:black;fill:none;stroke-width:2.0;stroke-dasharray:-;stroke-linecap:round;stroke-linejoin:round;" /><path d="M 917.9999999999998,2214.0 L 917.9999999999998,2264.7599999999998 M 926.9999999999998,2264.7599999999998 L 908.9999999999998,2264.7599999999998 M 926.9999999999998,2271.2400000000002 L 908.9999999999998,2271.2400000000002 M 917.9999999999998,2271.2400000000002 L 917.9999999999998,2322.0" style="stroke:black;fill:none;stroke-width:2.0;stroke-dasharray:-;stroke-linecap:round;stroke-linejoin:round;" /><path d="M 917.9999999999998,2322.0 L 917.9999999999998,2340.0 L 917.9999999999998,2358.0" style="stroke:black;fill:none;stroke-width:2.0;stroke-dasharray:-;stroke-linecap:round;stroke-linejoin:round;" /><path d="M 917.9999999999998,2358.0 L 917.9999999999998,2372.4 L 908.9999999999998,2372.4 L 926.9999999999998,2372.4 M 911.6999999999997,2376.72 L 924.2999999999997,2376.72 M 916.1999999999997,2381.04 L 919.7999999999997,2381.04" style="stroke:black;fill:none;stroke-width:2.0;stroke-dasharray:-;stroke-linecap:round;stroke-linejoin:round;" /><path d="M 917.9999999999998,2178.0 L 953.9999999999998,2178.0 L 989.9999999999998,2178.0" style="stroke:black;fill:none;stroke-width:2.0;stroke-dasharray:-;stroke-linecap:round;stroke-linejoin:round;" /><path d="M 557.9999999999997,2610.0 L 584.9999999999997,2610.0 L 611.9999999999997,2610.0" style="stroke:black;fill:none;stroke-width:2.0;stroke-dasharray:-;stroke-linecap:round;stroke-linejoin:round;" /><path d="M 611.9999999999997,2610.0 L 647.9999999999997,2610.0 L 650.9999999999995,2601.0 L 656.9999999999997,2619.0 L 662.9999999999997,2601.0 L 668.9999999999995,2619.0 L 674.9999999999997,2601.0 L 680.9999999999997,2619.0 L 683.9999999999997,2610.0 L 719.9999999999997,2610.0" style="stroke:black;fill:none;stroke-width:2.0;stroke-dasharray:-;stroke-linecap:round;stroke-linejoin:round;" /><path d="M 719.9999999999997,2610.0 L 737.9999999999997,2610.0 L 755.9999999999997,2610.0" style="stroke:black;fill:none;stroke-width:2.0;stroke-dasharray:-;stroke-linecap:round;stroke-linejoin:round;" /><path d="M 755.9999999999997,2610.0 L 803.6999999999996,2610.0 M 816.2999999999996,2601.0 L 816.2999999999996,2619.0 M 816.2999999999996,2610.0 L 863.9999999999997,2610.0" style="stroke:black;fill:none;stroke-width:2.0;stroke-dasharray:-;stroke-linecap:round;stroke-linejoin:round;" /><path d="M 812.6999999999996,2596.5 L 818.1277996438304,2587.001350623296" style="stroke:black;fill:none;stroke-width:2.0;stroke-dasharray:-;stroke-linecap:round;stroke-linejoin:round;" /><path d="M 820.707722123286 2582.4864862842487 L 820.6283398931489 2588.430230765764 L 815.627259394512 2585.5724704808285 Z" style="stroke:black;fill:black;stroke-linecap:butt;stroke-linejoin:miter;" /><path d="M 804.5999999999997,2596.5 L 810.0277996438305,2587.001350623296" style="stroke:black;fill:none;stroke-width:2.0;stroke-dasharray:-;stroke-linecap:round;stroke-linejoin:round;" /><path d="M 812.6077221232861 2582.4864862842487 L 812.528339893149 2588.430230765764 L 807.527259394512 2585.5724704808285 Z" style="stroke:black;fill:black;stroke-linecap:butt;stroke-linejoin:miter;" /><path d="M 863.9999999999997,2610.0 L 881.9999999999997,2610.0 L 899.9999999999997,2610.0" style="stroke:black;fill:none;stroke-width:2.0;stroke-dasharray:-;stroke-linecap:round;stroke-linejoin:round;" /><path d="M 899.9999999999997,2610.0 L 899.9999999999997,2624.4 L 890.9999999999997,2624.4 L 908.9999999999997,2624.4 M 893.6999999999996,2628.72 L 906.2999999999996,2628.72 M 898.1999999999996,2633.04 L 901.7999999999996,2633.04" style="stroke:black;fill:none;stroke-width:2.0;stroke-dasharray:-;stroke-linecap:round;stroke-linejoin:round;" /><path d="M 557.9999999999997,2682.0 L 584.9999999999997,2682.0 L 611.9999999999997,2682.0" style="stroke:black;fill:none;stroke-width:2.0;stroke-dasharray:-;stroke-linecap:round;stroke-linejoin:round;" /><path d="M 611.9999999999997,2682.0 L 647.9999999999997,2682.0 L 650.9999999999995,2673.0 L 656.9999999999997,2691.0 L 662.9999999999997,2673.0 L 668.9999999999995,2691.0 L 674.9999999999997,2673.0 L 680.9999999999997,2691.0 L 683.9999999999997,2682.0 L 719.9999999999997,2682.0" style="stroke:black;fill:none;stroke-width:2.0;stroke-dasharray:-;stroke-linecap:round;stroke-linejoin:round;" /><path d="M 719.9999999999997,2682.0 L 737.9999999999997,2682.0 L 755.9999999999997,2682.0" style="stroke:black;fill:none;stroke-width:2.0;stroke-dasharray:-;stroke-linecap:round;stroke-linejoin:round;" /><path d="M 755.9999999999997,2682.0 L 803.6999999999996,2682.0 M 816.2999999999996,2673.0 L 816.2999999999996,2691.0 M 816.2999999999996,2682.0 L 863.9999999999997,2682.0" style="stroke:black;fill:none;stroke-width:2.0;stroke-dasharray:-;stroke-linecap:round;stroke-linejoin:round;" /><path d="M 812.6999999999996,2668.5 L 818.1277996438304,2659.001350623296" style="stroke:black;fill:none;stroke-width:2.0;stroke-dasharray:-;stroke-linecap:round;stroke-linejoin:round;" /><path d="M 820.707722123286 2654.4864862842487 L 820.6283398931489 2660.430230765764 L 815.627259394512 2657.5724704808285 Z" style="stroke:black;fill:black;stroke-linecap:butt;stroke-linejoin:miter;" /><path d="M 804.5999999999997,2668.5 L 810.0277996438305,2659.001350623296" style="stroke:black;fill:none;stroke-width:2.0;stroke-dasharray:-;stroke-linecap:round;stroke-linejoin:round;" /><path d="M 812.6077221232861 2654.4864862842487 L 812.528339893149 2660.430230765764 L 807.527259394512 2657.5724704808285 Z" style="stroke:black;fill:black;stroke-linecap:butt;stroke-linejoin:miter;" /><path d="M 863.9999999999997,2682.0 L 881.9999999999997,2682.0 L 899.9999999999997,2682.0" style="stroke:black;fill:none;stroke-width:2.0;stroke-dasharray:-;stroke-linecap:round;stroke-linejoin:round;" /><path d="M 899.9999999999997,2682.0 L 899.9999999999997,2696.4 L 890.9999999999997,2696.4 L 908.9999999999997,2696.4 M 893.6999999999996,2700.72 L 906.2999999999996,2700.72 M 898.1999999999996,2705.04 L 901.7999999999996,2705.04" style="stroke:black;fill:none;stroke-width:2.0;stroke-dasharray:-;stroke-linecap:round;stroke-linejoin:round;" /><path d="M 899.9999999999997,2826.0 L 926.9999999999997,2826.0 L 953.9999999999997,2826.0" style="stroke:black;fill:none;stroke-width:2.0;stroke-dasharray:-;stroke-linecap:round;stroke-linejoin:round;" /><path d="M 953.9999999999997,2826.0 L 989.9999999999997,2826.0 L 992.9999999999995,2817.0 L 998.9999999999997,2835.0 L 1004.9999999999997,2817.0 L 1010.9999999999995,2835.0 L 1016.9999999999997,2817.0 L 1022.9999999999997,2835.0 L 1025.9999999999995,2826.0 L 1061.9999999999995,2826.0" style="stroke:black;fill:none;stroke-width:2.0;stroke-dasharray:-;stroke-linecap:round;stroke-linejoin:round;" /><path d="M 1061.9999999999995,2826.0 L 1079.9999999999995,2826.0 L 1097.9999999999995,2826.0" style="stroke:black;fill:none;stroke-width:2.0;stroke-dasharray:-;stroke-linecap:round;stroke-linejoin:round;" /><path d="M 1097.9999999999995,2826.0 L 1145.6999999999996,2826.0 M 1158.2999999999997,2817.0 L 1158.2999999999997,2835.0 M 1158.2999999999997,2826.0 L 1205.9999999999995,2826.0" style="stroke:black;fill:none;stroke-width:2.0;stroke-dasharray:-;stroke-linecap:round;stroke-linejoin:round;" /><path d="M 1154.6999999999996,2812.5 L 1160.1277996438303,2803.001350623296" style="stroke:black;fill:none;stroke-width:2.0;stroke-dasharray:-;stroke-linecap:round;stroke-linejoin:round;" /><path d="M 1162.707722123286 2798.4864862842487 L 1162.628339893149 2804.430230765764 L 1157.627259394512 2801.5724704808285 Z" style="stroke:black;fill:black;stroke-linecap:butt;stroke-linejoin:miter;" /><path d="M 1146.5999999999997,2812.5 L 1152.0277996438303,2803.001350623296" style="stroke:black;fill:none;stroke-width:2.0;stroke-dasharray:-;stroke-linecap:round;stroke-linejoin:round;" /><path d="M 1154.6077221232858 2798.4864862842487 L 1154.5283398931488 2804.430230765764 L 1149.527259394512 2801.5724704808285 Z" style="stroke:black;fill:black;stroke-linecap:butt;stroke-linejoin:miter;" /><path d="M 1205.9999999999995,2826.0 L 1223.9999999999995,2826.0 L 1241.9999999999995,2826.0" style="stroke:black;fill:none;stroke-width:2.0;stroke-dasharray:-;stroke-linecap:round;stroke-linejoin:round;" /><path d="M 1241.9999999999995,2826.0 L 1241.9999999999995,2840.4 L 1232.9999999999995,2840.4 L 1250.9999999999995,2840.4 M 1235.6999999999996,2844.72 L 1248.2999999999993,2844.72 M 1240.1999999999996,2849.04 L 1243.7999999999993,2849.04" style="stroke:black;fill:none;stroke-width:2.0;stroke-dasharray:-;stroke-linecap:round;stroke-linejoin:round;" /><text x="3.6" y="-23.6" dominant-baseline="central" fill="black" font-size="20" font-family="sans" text-anchor="middle"><tspan x="3.6" dy="20">PRISME TOP BOARD (INPUT BOARD) - Complete Schematic</tspan></text><text x="3.5999999999999868" y="65.60000000000001" dominant-baseline="central" fill="black" font-size="10" font-family="sans" text-anchor="middle"><tspan x="3.5999999999999868" dy="10">Board: 90mm × 55mm custom-cut ElectroCookie protoboard | Position: Middle layer</tspan></text><text x="3.59999999999996" y="203.6" dominant-baseline="central" fill="black" font-size="16" font-family="sans" text-anchor="middle"><tspan x="3.59999999999996" dy="16">------ MAIN CONTROLLER STACK ------</tspan></text><text x="3.599999999999947" y="281.59999999999997" dominant-baseline="central" fill="black" font-size="10" font-family="sans" text-anchor="middle"><tspan x="3.599999999999947" dy="10">+─────────────────────────────────+</tspan></text><text x="3.59999999999994" y="316.59999999999997" dominant-baseline="central" fill="black" font-size="11" font-family="sans" text-anchor="middle"><tspan x="3.59999999999994" dy="11">|  OLED FeatherWing 128×64       |</tspan></text><text x="3.599999999999934" y="353.59999999999997" dominant-baseline="central" fill="black" font-size="10" font-family="sans" text-anchor="middle"><tspan x="3.599999999999934" dy="10">|  (SH1107 driver, I2C 0x3C)     |</tspan></text><text x="3.599999999999927" y="389.59999999999997" dominant-baseline="central" fill="black" font-size="10" font-family="sans" text-anchor="middle"><tspan x="3.599999999999927" dy="10">|  Buttons: A(D5), B(D6), C(D9)  |</tspan></text><text x="3.59999999999992" y="425.59999999999997" dominant-baseline="central" fill="black" font-size="10" font-family="sans" text-anchor="middle"><tspan x="3.59999999999992" dy="10">+─────────────────────────────────+</tspan></text><text x="3.599999999999914" y="462.59999999999997" dominant-baseline="central" fill="black" font-size="9" font-family="sans" text-anchor="middle"><tspan x="3.599999999999914" dy="9">         UPDOWN Stacking Headers</tspan></text><text x="3.5999999999999073" y="497.59999999999997" dominant-baseline="central" fill="black" font-size="10" font-family="sans" text-anchor="middle"><tspan x="3.5999999999999073" dy="10">+─────────────────────────────────+</tspan></text><text x="3.5999999999999" y="532.6" dominant-baseline="central" fill="black" font-size="11" font-family="sans" text-anchor="middle"><tspan x="3.5999999999999" dy="11">|  Feather M4 CAN Express        |</tspan></text><text x="3.599999999999894" y="569.6" dominant-baseline="central" fill="black" font-size="10" font-family="sans" text-anchor="middle"><tspan x="3.599999999999894" dy="10">|  ATSAMD51, 120MHz, 192KB RAM   |</tspan></text><text x="3.5999999999998873" y="605.6" dominant-baseline="central" fill="black" font-size="10" font-family="sans" text-anchor="middle"><tspan x="3.5999999999998873" dy="10">|  CircuitPython 10.0.3          |</tspan></text><text x="3.5999999999998806" y="641.6" dominant-baseline="central" fill="black" font-size="10" font-family="sans" text-anchor="middle"><tspan x="3.5999999999998806" dy="10">+─────────────────────────────────+</tspan></text><text x="3.5999999999998744" y="676.6" dominant-baseline="central" fill="black" font-size="11" font-family="sans" text-anchor="middle"><tspan x="3.5999999999998744" dy="11">Key Connections:</tspan></text><text x="3.5999999999998673" y="714.6" dominant-baseline="central" fill="black" font-size="9" font-family="sans" text-anchor="middle"><tspan x="3.5999999999998673" dy="9">I2C: D21(SDA), D22(SCL) -&gt; OLED + MCP4728</tspan></text><text x="3.5999999999998606" y="750.6" dominant-baseline="central" fill="black" font-size="9" font-family="sans" text-anchor="middle"><tspan x="3.5999999999998606" dy="9">MIDI: D0(RX), D1(TX) -&gt; Bottom board</tspan></text><text x="3.5999999999998544" y="786.6" dominant-baseline="central" fill="black" font-size="9" font-family="sans" text-anchor="middle"><tspan x="3.5999999999998544" dy="9">ADC: A3(TRIG), A4(CV) &lt;- Input circuits</tspan></text><text x="3.5999999999998478" y="822.6" dominant-baseline="central" fill="black" font-size="9" font-family="sans" text-anchor="middle"><tspan x="3.5999999999998478" dy="9">GPIO: D4-D25, A0-A5 -&gt; LEDs, S-Trig</tspan></text><text x="3.5999999999998145" y="995.6" dominant-baseline="central" fill="black" font-size="16" font-family="sans" text-anchor="middle"><tspan x="3.5999999999998145" dy="16">------ POWER DISTRIBUTION ------</tspan></text><text x="3.5999999999998016" y="1072.6000000000001" dominant-baseline="central" fill="black" font-size="11" font-family="sans" text-anchor="middle"><tspan x="3.5999999999998016" dy="11">5V Rail (from headers):</tspan></text><text x="107.99999999999979" y="1093.3999999999999" dominant-baseline="ideographic" fill="black" font-size="10" font-family="sans" text-anchor="middle"><tspan x="107.99999999999979" dy="10">C11 10uF</tspan></text><text x="107.99999999999977" y="1147.3999999999999" dominant-baseline="ideographic" fill="black" font-size="10" font-family="sans" text-anchor="middle"><tspan x="107.99999999999977" dy="10">C12 0.1uF</tspan></text><text x="201.59999999999974" y="1301.6000000000001" dominant-baseline="central" fill="black" font-size="16" font-family="sans" text-anchor="middle"><tspan x="201.59999999999974" dy="16">------ CV INPUT PROTECTION (Rear Jack -&gt; A4 ADC) ------</tspan></text><text x="201.59999999999974" y="1379.6000000000001" dominant-baseline="central" fill="black" font-size="10" font-family="sans" text-anchor="middle"><tspan x="201.59999999999974" dy="10">Purpose: Scale 0-5V input -&gt; 0-2.62V safe for 3.3V ADC | BAT85 clamp protects from overvoltage</tspan></text><text x="323.9999999999998" y="1434.3999999999999" dominant-baseline="ideographic" fill="black" font-size="11" font-family="sans" text-anchor="middle"><tspan x="323.9999999999998" dy="11">R14 10kΩ</tspan></text><text x="395.9999999999998" y="1500.6000000000001" dominant-baseline="central" fill="black" font-size="10" font-family="sans" text-anchor="middle"><tspan x="395.9999999999998" dy="10">R15</tspan><tspan x="395.9999999999998" dy="10">10kΩ</tspan></text><text x="467.9999999999998" y="1500.6000000000001" dominant-baseline="central" fill="black" font-size="10" font-family="sans" text-anchor="middle"><tspan x="467.9999999999998" dy="10">D2</tspan><tspan x="467.9999999999998" dy="10">BAT85</tspan></text><text x="539.9999999999998" y="1500.6000000000001" dominant-baseline="central" fill="black" font-size="10" font-family="sans" text-anchor="middle"><tspan x="539.9999999999998" dy="10">C3</tspan><tspan x="539.9999999999998" dy="10">100nF</tspan></text><text x="611.9999999999998" y="1500.6000000000001" dominant-baseline="central" fill="black" font-size="10" font-family="sans" text-anchor="middle"><tspan x="611.9999999999998" dy="10">C4</tspan><tspan x="611.9999999999998" dy="10">10nF</tspan></text><text x="201.59999999999968" y="1846.6000000000001" dominant-baseline="central" fill="black" font-size="11" font-family="sans" text-anchor="middle"><tspan x="201.59999999999968" dy="11">CV Activity LED (rear panel, 7mm right of jack):</tspan></text><text x="323.99999999999966" y="1866.3999999999999" dominant-baseline="ideographic" fill="black" font-size="11" font-family="sans" text-anchor="middle"><tspan x="323.99999999999966" dy="11">R18 150Ω</tspan></text><text x="467.99999999999966" y="1840.39" dominant-baseline="ideographic" fill="black" font-size="11" font-family="sans" text-anchor="middle"><tspan x="467.99999999999966" dy="11">White 3mm</tspan></text><text x="561.5999999999997" y="2021.6000000000001" dominant-baseline="central" fill="black" font-size="16" font-family="sans" text-anchor="middle"><tspan x="561.5999999999997" dy="16">------ TRIG INPUT PROTECTION (Rear Jack -&gt; A3 ADC) ------</tspan></text><text x="561.5999999999997" y="2099.6" dominant-baseline="central" fill="black" font-size="10" font-family="sans" text-anchor="middle"><tspan x="561.5999999999997" dy="10">Purpose: Identical to CV input | Scale 0-5V input -&gt; 0-2.62V safe for 3.3V ADC</tspan></text><text x="683.9999999999998" y="2154.4" dominant-baseline="ideographic" fill="black" font-size="11" font-family="sans" text-anchor="middle"><tspan x="683.9999999999998" dy="11">R16 10kΩ</tspan></text><text x="755.9999999999998" y="2220.6" dominant-baseline="central" fill="black" font-size="10" font-family="sans" text-anchor="middle"><tspan x="755.9999999999998" dy="10">R17</tspan><tspan x="755.9999999999998" dy="10">10kΩ</tspan></text><text x="827.9999999999998" y="2220.6" dominant-baseline="central" fill="black" font-size="10" font-family="sans" text-anchor="middle"><tspan x="827.9999999999998" dy="10">D3</tspan><tspan x="827.9999999999998" dy="10">BAT85</tspan></text><text x="899.9999999999998" y="2220.6" dominant-baseline="central" fill="black" font-size="10" font-family="sans" text-anchor="middle"><tspan x="899.9999999999998" dy="10">C5</tspan><tspan x="899.9999999999998" dy="10">100nF</tspan></text><text x="561.5999999999996" y="2566.6" dominant-baseline="central" fill="black" font-size="11" font-family="sans" text-anchor="middle"><tspan x="561.5999999999996" dy="11">TRIG Mode/Activity RGB LED (rear panel, 7mm right of jack):</tspan></text><text x="665.9999999999997" y="2587.4" dominant-baseline="ideographic" fill="black" font-size="10" font-family="sans" text-anchor="middle"><tspan x="665.9999999999997" dy="10">R19 150Ω</tspan></text><text x="809.9999999999997" y="2561.39" dominant-baseline="ideographic" fill="black" font-size="10" font-family="sans" text-anchor="middle"><tspan x="809.9999999999997" dy="10">RED</tspan></text><text x="665.9999999999997" y="2659.4" dominant-baseline="ideographic" fill="black" font-size="10" font-family="sans" text-anchor="middle"><tspan x="665.9999999999997" dy="10">R20 150Ω</tspan></text><text x="809.9999999999997" y="2633.39" dominant-baseline="ideographic" fill="black" font-size="10" font-family="sans" text-anchor="middle"><tspan x="809.9999999999997" dy="10">GREEN</tspan></text><text x="1007.9999999999997" y="2803.4" dominant-baseline="ideographic" fill="black" font-size="10" font-family="sans" text-anchor="middle"><tspan x="1007.9999999999997" dy="10">R21 150Ω</tspan></text><text x="1151.9999999999995" y="2777.39" dominant-baseline="ideographic" fill="black" font-size="10" font-family="sans" text-anchor="middle"><tspan x="1151.9999999999995" dy="10">BLUE</tspan></text><text x="1245.5999999999995" y="2926.6" dominant-baseline="central" fill="black" font-size="11" font-family="sans" text-anchor="middle"><tspan x="1245.5999999999995" dy="11">NOTES:</tspan></text><text x="1245.5999999999995" y="2964.6" dominant-baseline="central" fill="black" font-size="9" font-family="sans" text-anchor="middle"><tspan x="1245.5999999999995" dy="9">• Voltage dividers (R14-R15, R16-R17) scale 5V -&gt; 2.62V for safe ADC operation</tspan></text><text x="1245.5999999999995" y="3000.6" dominant-baseline="central" fill="black" font-size="9" font-family="sans" text-anchor="middle"><tspan x="1245.5999999999995" dy="9">• BAT85 Schottky diodes clamp overvoltage to 3.3V (protection from &gt;5V inputs)</tspan></text><text x="1245.5999999999995" y="3036.6" dominant-baseline="central" fill="black" font-size="9" font-family="sans" text-anchor="middle"><tspan x="1245.5999999999995" dy="9">• Dual-stage RC filtering (100nF + 10nF) removes high-frequency noise and RF interference</tspan></text><text x="1245.5999999999995" y="3072.6" dominant-baseline="central" fill="black" font-size="9" font-family="sans" text-anchor="middle"><tspan x="1245.5999999999995" dy="9">• RGB LED: GREEN = V-Trig mode | RED = S-Trig mode | Activity = brightness</tspan></text><text x="1245.5999999999995" y="3108.6" dominant-baseline="central" fill="black" font-size="9" font-family="sans" text-anchor="middle"><tspan x="1245.5999999999995" dy="9">• All decoupling caps close to power pins: C11 (bulk), C12 (bypass)</tspan></text><circle cx="-2.050058741772669e-13" cy="1116.0" r="2.6999999999999997" style="stroke:black;fill:black;stroke-width:2.0;stroke-dasharray:-;" /><text x="-6.300000000000204" y="1105.0" dominant-baseline="central" fill="black" font-size="11" font-family="sans" text-anchor="end"><tspan x="-6.300000000000204" dy="11">5V</tspan></text><circle cx="-2.1492551325036046e-13" cy="1170.0" r="2.6999999999999997" style="stroke:black;fill:black;stroke-width:2.0;stroke-dasharray:-;" /><text x="-6.300000000000215" y="1159.0" dominant-baseline="central" fill="black" font-size="11" font-family="sans" text-anchor="end"><tspan x="-6.300000000000215" dy="11">5V</tspan></text><circle cx="197.99999999999974" cy="1458.0" r="2.6999999999999997" style="stroke:black;fill:black;stroke-width:2.0;stroke-dasharray:-;" /><text x="197.99999999999974" y="1415.7" dominant-baseline="ideographic" fill="black" font-size="12" font-family="sans" text-anchor="middle"><tspan x="197.99999999999974" dy="12">CV IN</tspan><tspan x="197.99999999999974" dy="12">Jack</tspan><tspan x="197.99999999999974" dy="12">0-5V</tspan></text><circle cx="413.9999999999998" cy="1458.0" r="2.6999999999999997" style="stroke:black;fill:black;stroke-width:2.0;stroke-dasharray:-;" /><circle cx="485.9999999999998" cy="1458.0" r="2.6999999999999997" style="stroke:black;fill:black;stroke-width:2.0;stroke-dasharray:-;" /><text x="485.9999999999998" y="1431.7" dominant-baseline="ideographic" fill="black" font-size="10" font-family="sans" text-anchor="middle"><tspan x="485.9999999999998" dy="10">2.62V</tspan><tspan x="485.9999999999998" dy="10">max</tspan></text><circle cx="485.9999999999998" cy="1620.0" r="2.6999999999999997" style="stroke:black;fill:black;stroke-width:2.0;stroke-dasharray:-;" /><text x="479.6999999999997" y="1610.0" dominant-baseline="central" fill="black" font-size="10" font-family="sans" text-anchor="end"><tspan x="479.6999999999997" dy="10">3.3V</tspan></text><circle cx="557.9999999999998" cy="1458.0" r="2.6999999999999997" style="stroke:black;fill:black;stroke-width:2.0;stroke-dasharray:-;" /><circle cx="629.9999999999998" cy="1458.0" r="2.6999999999999997" style="stroke:black;fill:black;stroke-width:2.0;stroke-dasharray:-;" /><circle cx="701.9999999999998" cy="1458.0" r="2.6999999999999997" style="stroke:black;fill:black;stroke-width:2.0;stroke-dasharray:-;" /><text x="708.2999999999997" y="1440.0" dominant-baseline="central" fill="black" font-size="12" font-family="sans" text-anchor="start"><tspan x="708.2999999999997" dy="12">-&gt; A4</tspan><tspan x="708.2999999999997" dy="12">ADC</tspan></text><circle cx="197.9999999999997" cy="1890.0" r="2.6999999999999997" style="stroke:black;fill:black;stroke-width:2.0;stroke-dasharray:-;" /><text x="191.69999999999968" y="1879.0" dominant-baseline="central" fill="black" font-size="11" font-family="sans" text-anchor="end"><tspan x="191.69999999999968" dy="11">D5</tspan></text><circle cx="557.9999999999997" cy="2178.0" r="2.6999999999999997" style="stroke:black;fill:black;stroke-width:2.0;stroke-dasharray:-;" /><text x="557.9999999999997" y="2135.7000000000003" dominant-baseline="ideographic" fill="black" font-size="12" font-family="sans" text-anchor="middle"><tspan x="557.9999999999997" dy="12">TRIG IN</tspan><tspan x="557.9999999999997" dy="12">Jack</tspan><tspan x="557.9999999999997" dy="12">0-5V</tspan></text><circle cx="773.9999999999998" cy="2178.0" r="2.6999999999999997" style="stroke:black;fill:black;stroke-width:2.0;stroke-dasharray:-;" /><circle cx="845.9999999999998" cy="2178.0" r="2.6999999999999997" style="stroke:black;fill:black;stroke-width:2.0;stroke-dasharray:-;" /><text x="845.9999999999998" y="2151.7000000000003" dominant-baseline="ideographic" fill="black" font-size="10" font-family="sans" text-anchor="middle"><tspan x="845.9999999999998" dy="10">2.62V</tspan><tspan x="845.9999999999998" dy="10">max</tspan></text><circle cx="845.9999999999998" cy="2340.0" r="2.6999999999999997" style="stroke:black;fill:black;stroke-width:2.0;stroke-dasharray:-;" /><text x="839.6999999999997" y="2330.0" dominant-baseline="central" fill="black" font-size="10" font-family="sans" text-anchor="end"><tspan x="839.6999999999997" dy="10">3.3V</tspan></text><circle cx="917.9999999999998" cy="2178.0" r="2.6999999999999997" style="stroke:black;fill:black;stroke-width:2.0;stroke-dasharray:-;" /><circle cx="989.9999999999998" cy="2178.0" r="2.6999999999999997" style="stroke:black;fill:black;stroke-width:2.0;stroke-dasharray:-;" /><text x="996.2999999999997" y="2160.0" dominant-baseline="central" fill="black" font-size="12" font-family="sans" text-anchor="start"><tspan x="996.2999999999997" dy="12">-&gt; A3</tspan><tspan x="996.2999999999997" dy="12">ADC</tspan></text><circle cx="557.9999999999997" cy="2610.0" r="2.6999999999999997" style="stroke:black;fill:black;stroke-width:2.0;stroke-dasharray:-;" /><text x="551.6999999999996" y="2600.0" dominant-baseline="central" fill="black" font-size="10" font-family="sans" text-anchor="end"><tspan x="551.6999999999996" dy="10">D6 (RED)</tspan></text><circle cx="557.9999999999997" cy="2682.0" r="2.6999999999999997" style="stroke:black;fill:black;stroke-width:2.0;stroke-dasharray:-;" /><text x="551.6999999999996" y="2672.0" dominant-baseline="central" fill="black" font-size="10" font-family="sans" text-anchor="end"><tspan x="551.6999999999996" dy="10">D9 (GRN)</tspan></text><circle cx="899.9999999999997" cy="2826.0" r="2.6999999999999997" style="stroke:black;fill:black;stroke-width:2.0;stroke-dasharray:-;" /><text x="893.6999999999996" y="2816.0" dominant-baseline="central" fill="black" font-size="10" font-family="sans" text-anchor="end"><tspan x="893.6999999999996" dy="10">D11 (BLU)</tspan></text></svg>