<svg xmlns="http://www.w3.org/2000/svg" xmlns:xlink="http://www.w3.org/1999/xlink" xml:lang="en" height="720.6999999999999pt" width="640.7839999999999pt" viewBox="-1.0 -1050.5 640.7839999999999 720.6999999999999"><polygon points="99.0,-857.6999999999999 108.0,-870.3000000000001 117.0,-857.6999999999999 " style="stroke:black;fill:none;stroke-width:2.0;stroke-dasharray:-;stroke-linecap:round;stroke-linejoin:round;" /><polygon points="99.0,-677.6999999999999 108.0,-690.3000000000001 117.0,-677.6999999999999 " style="stroke:black;fill:none;stroke-width:2.0;stroke-dasharray:-;stroke-linecap:round;stroke-linejoin:round;" /><polygon points="488.7,-826.1999999999999 501.3,-817.1999999999999 488.7,-808.1999999999999 " style="stroke:black;fill:none;stroke-width:2.0;stroke-dasharray:-;stroke-linecap:round;stroke-linejoin:round;" /><polygon points="470.7,-783.0 483.3,-774.0 470.7,-765.0 " style="stroke:black;fill:none;stroke-width:2.0;stroke-dasharray:-;stroke-linecap:round;stroke-linejoin:round;" /><polygon points="470.7,-754.1999999999999 483.3,-745.1999999999999 470.7,-736.1999999999999 " style="stroke:black;fill:none;stroke-width:2.0;stroke-dasharray:-;stroke-linecap:round;stroke-linejoin:round;" /><polygon points="470.7,-725.4 483.3,-716.4 470.7,-707.4 " style="stroke:black;fill:none;stroke-width:2.0;stroke-dasharray:-;stroke-linecap:round;stroke-linejoin:round;" /><circle cx="505.8" cy="-648.0" r="19.8" style="stroke:black;fill:none;stroke-width:2.0;stroke-dasharray:-;" /><path d="M 288.0,-792.0 L 378.0,-792.0 L 378.0,-914.4 L 288.0,-914.4 L 288.0,-792.0" style="stroke:black;fill:none;stroke-width:2.0;stroke-dasharray:-;stroke-linecap:round;stroke-linejoin:round;" /><path d="M 288.0,-842.4 L 270.0,-842.4" style="stroke:black;fill:none;stroke-width:2.0;stroke-dasharray:-;stroke-linecap:round;stroke-linejoin:round;" /><path d="M 288.0,-864.0 L 270.0,-864.0" style="stroke:black;fill:none;stroke-width:2.0;stroke-dasharray:-;stroke-linecap:round;stroke-linejoin:round;" /><path d="M 378.0,-810.0 L 396.0,-810.0" style="stroke:black;fill:none;stroke-width:2.0;stroke-dasharray:-;stroke-linecap:round;stroke-linejoin:round;" /><path d="M 378.0,-831.6 L 396.0,-831.6" style="stroke:black;fill:none;stroke-width:2.0;stroke-dasharray:-;stroke-linecap:round;stroke-linejoin:round;" /><path d="M 378.0,-853.1999999999999 L 396.0,-853.1999999999999" style="stroke:black;fill:none;stroke-width:2.0;stroke-dasharray:-;stroke-linecap:round;stroke-linejoin:round;" /><path d="M 378.0,-874.8000000000001 L 396.0,-874.8000000000001" style="stroke:black;fill:none;stroke-width:2.0;stroke-dasharray:-;stroke-linecap:round;stroke-linejoin:round;" /><path d="M 378.0,-896.4 L 396.0,-896.4" style="stroke:black;fill:none;stroke-width:2.0;stroke-dasharray:-;stroke-linecap:round;stroke-linejoin:round;" /><path d="M 322.2,-914.4 L 322.2,-932.4" style="stroke:black;fill:none;stroke-width:2.0;stroke-dasharray:-;stroke-linecap:round;stroke-linejoin:round;" /><path d="M 343.8,-914.4 L 343.8,-932.4" style="stroke:black;fill:none;stroke-width:2.0;stroke-dasharray:-;stroke-linecap:round;stroke-linejoin:round;" /><path d="M 322.2,-792.0 L 322.2,-774.0" style="stroke:black;fill:none;stroke-width:2.0;stroke-dasharray:-;stroke-linecap:round;stroke-linejoin:round;" /><path d="M 343.8,-792.0 L 343.8,-774.0" style="stroke:black;fill:none;stroke-width:2.0;stroke-dasharray:-;stroke-linecap:round;stroke-linejoin:round;" /><path d="M 36.0,-828.0 L 36.0,-813.6 L 27.0,-813.6 L 45.0,-813.6 M 29.7,-809.28 L 42.300000000000004,-809.28 M 34.199999999999996,-804.96 L 37.800000000000004,-804.96" style="stroke:black;fill:none;stroke-width:2.0;stroke-dasharray:-;stroke-linecap:round;stroke-linejoin:round;" /><path d="M 36.0,-828.0 L 54.0,-828.0 L 57.00000000000001,-837.0 L 63.0,-819.0 L 69.0,-837.0 L 74.99999999999999,-819.0 L 81.0,-837.0 L 87.0,-819.0 L 90.0,-828.0 L 108.0,-828.0" style="stroke:black;fill:none;stroke-width:2.0;stroke-dasharray:-;stroke-linecap:round;stroke-linejoin:round;" /><path d="M 108.0,-828.0 L 108.0,-810.0 L 117.0,-807.0 L 99.0,-801.0 L 117.0,-795.0 L 99.0,-789.0 L 117.0,-783.0 L 98.99999999999999,-777.0 L 107.99999999999999,-774.0 L 107.99999999999999,-756.0" style="stroke:black;fill:none;stroke-width:2.0;stroke-dasharray:-;stroke-linecap:round;stroke-linejoin:round;" /><path d="M 107.99999999999999,-756.0 L 107.99999999999999,-741.6 L 98.99999999999999,-741.6 L 116.99999999999999,-741.6 M 101.69999999999999,-737.28 L 114.29999999999998,-737.28 M 106.19999999999999,-732.96 L 109.79999999999998,-732.96" style="stroke:black;fill:none;stroke-width:2.0;stroke-dasharray:-;stroke-linecap:round;stroke-linejoin:round;" /><path d="M 108.0,-828.0 L 108.0,-857.6999999999999 M 99.0,-870.3000000000001 L 117.0,-870.3000000000001 M 108.0,-870.3000000000001 L 108.0,-900.0" style="stroke:black;fill:none;stroke-width:2.0;stroke-dasharray:-;stroke-linecap:round;stroke-linejoin:round;" /><path d="M 108.0,-900.0 L 108.0,-914.4" style="stroke:black;fill:none;stroke-width:2.0;stroke-dasharray:-;stroke-linecap:round;stroke-linejoin:round;" /><path d="M 108.0,-914.4 L 101.25,-914.4" style="stroke:black;fill:none;stroke-width:2.0;stroke-dasharray:-;stroke-linecap:round;stroke-linejoin:round;" /><path d="M 108.0,-914.4 L 114.75,-914.4" style="stroke:black;fill:none;stroke-width:2.0;stroke-dasharray:-;stroke-linecap:round;stroke-linejoin:round;" /><path d="M 108.0,-828.0 L 162.0,-828.0 L 216.0,-828.0" style="stroke:black;fill:none;stroke-width:2.0;stroke-dasharray:-;stroke-linecap:round;stroke-linejoin:round;" /><path d="M 216.0,-828.0 L 216.0,-822.6 L 216.0,-817.1999999999999" style="stroke:black;fill:none;stroke-width:2.0;stroke-dasharray:-;stroke-linecap:round;stroke-linejoin:round;" /><path d="M 36.0,-648.0 L 36.0,-633.6 L 27.0,-633.6 L 45.0,-633.6 M 29.7,-629.28 L 42.300000000000004,-629.28 M 34.199999999999996,-624.96 L 37.800000000000004,-624.96" style="stroke:black;fill:none;stroke-width:2.0;stroke-dasharray:-;stroke-linecap:round;stroke-linejoin:round;" /><path d="M 36.0,-648.0 L 54.0,-648.0 L 57.00000000000001,-657.0 L 63.0,-639.0 L 69.0,-657.0 L 74.99999999999999,-639.0 L 81.0,-657.0 L 87.0,-639.0 L 90.0,-648.0 L 108.0,-648.0" style="stroke:black;fill:none;stroke-width:2.0;stroke-dasharray:-;stroke-linecap:round;stroke-linejoin:round;" /><path d="M 108.0,-648.0 L 108.0,-630.0 L 117.0,-627.0 L 99.0,-621.0 L 117.0,-615.0 L 99.0,-609.0 L 117.0,-603.0 L 98.99999999999999,-597.0 L 107.99999999999999,-594.0 L 107.99999999999999,-576.0" style="stroke:black;fill:none;stroke-width:2.0;stroke-dasharray:-;stroke-linecap:round;stroke-linejoin:round;" /><path d="M 107.99999999999999,-576.0 L 107.99999999999999,-561.6 L 98.99999999999999,-561.6 L 116.99999999999999,-561.6 M 101.69999999999999,-557.28 L 114.29999999999998,-557.28 M 106.19999999999999,-552.96 L 109.79999999999998,-552.96" style="stroke:black;fill:none;stroke-width:2.0;stroke-dasharray:-;stroke-linecap:round;stroke-linejoin:round;" /><path d="M 108.0,-648.0 L 108.0,-677.6999999999999 M 99.0,-690.3000000000001 L 117.0,-690.3000000000001 M 108.0,-690.3000000000001 L 108.0,-720.0" style="stroke:black;fill:none;stroke-width:2.0;stroke-dasharray:-;stroke-linecap:round;stroke-linejoin:round;" /><path d="M 108.0,-720.0 L 108.0,-734.4" style="stroke:black;fill:none;stroke-width:2.0;stroke-dasharray:-;stroke-linecap:round;stroke-linejoin:round;" /><path d="M 108.0,-734.4 L 101.25,-734.4" style="stroke:black;fill:none;stroke-width:2.0;stroke-dasharray:-;stroke-linecap:round;stroke-linejoin:round;" /><path d="M 108.0,-734.4 L 114.75,-734.4" style="stroke:black;fill:none;stroke-width:2.0;stroke-dasharray:-;stroke-linecap:round;stroke-linejoin:round;" /><path d="M 108.0,-648.0 L 162.0,-648.0 L 216.0,-648.0" style="stroke:black;fill:none;stroke-width:2.0;stroke-dasharray:-;stroke-linecap:round;stroke-linejoin:round;" /><path d="M 216.0,-648.0" style="stroke:black;fill:none;stroke-width:2.0;stroke-dasharray:-;stroke-linecap:round;stroke-linejoin:round;" /><path d="M 180.0,-972.0 L 179.99999999999997,-882.0 L 270.0,-882.0 L 270.0,-972.0 L 180.0,-972.0" style="stroke:black;fill:none;stroke-width:2.0;stroke-dasharray:-;stroke-linecap:round;stroke-linejoin:round;" /><path d="M 180.0,-937.8000000000001 L 162.0,-937.8000000000001" style="stroke:black;fill:none;stroke-width:2.0;stroke-dasharray:-;stroke-linecap:round;stroke-linejoin:round;" /><path d="M 180.0,-916.1999999999999 L 162.0,-916.1999999999999" style="stroke:black;fill:none;stroke-width:2.0;stroke-dasharray:-;stroke-linecap:round;stroke-linejoin:round;" /><path d="M 171.0,-936.0 L 171.0,-909.0 L 171.0,-882.0" style="stroke:black;fill:none;stroke-width:2.0;stroke-dasharray:-;stroke-linecap:round;stroke-linejoin:round;" /><path d="M 171.0,-882.0 L 193.5,-882.0 L 216.0,-882.0" style="stroke:black;fill:none;stroke-width:2.0;stroke-dasharray:-;stroke-linecap:round;stroke-linejoin:round;" /><path d="M 216.0,-882.0" style="stroke:black;fill:none;stroke-width:2.0;stroke-dasharray:-;stroke-linecap:round;stroke-linejoin:round;" /><path d="M 189.0,-936.0 L 189.0,-918.0 L 189.0,-900.0" style="stroke:black;fill:none;stroke-width:2.0;stroke-dasharray:-;stroke-linecap:round;stroke-linejoin:round;" /><path d="M 189.0,-900.0 L 202.5,-900.0 L 216.0,-900.0" style="stroke:black;fill:none;stroke-width:2.0;stroke-dasharray:-;stroke-linecap:round;stroke-linejoin:round;" /><path d="M 216.0,-900.0 L 216.0,-887.4 L 216.0,-874.8000000000001" style="stroke:black;fill:none;stroke-width:2.0;stroke-dasharray:-;stroke-linecap:round;stroke-linejoin:round;" /><path d="M 396.0,-972.0 L 396.0,-882.0 L 486.0,-882.0 L 486.0,-972.0 L 396.0,-972.0" style="stroke:black;fill:none;stroke-width:2.0;stroke-dasharray:-;stroke-linecap:round;stroke-linejoin:round;" /><path d="M 441.0,-972.0 L 441.0,-990.0" style="stroke:black;fill:none;stroke-width:2.0;stroke-dasharray:-;stroke-linecap:round;stroke-linejoin:round;" /><path d="M 419.40000000000003,-882.0 L 419.4,-864.0" style="stroke:black;fill:none;stroke-width:2.0;stroke-dasharray:-;stroke-linecap:round;stroke-linejoin:round;" /><path d="M 441.0,-882.0 L 441.0,-864.0" style="stroke:black;fill:none;stroke-width:2.0;stroke-dasharray:-;stroke-linecap:round;stroke-linejoin:round;" /><path d="M 462.59999999999997,-882.0 L 462.59999999999997,-864.0" style="stroke:black;fill:none;stroke-width:2.0;stroke-dasharray:-;stroke-linecap:round;stroke-linejoin:round;" /><path d="M 396.0,-937.8000000000001 L 378.0,-937.8000000000001" style="stroke:black;fill:none;stroke-width:2.0;stroke-dasharray:-;stroke-linecap:round;stroke-linejoin:round;" /><path d="M 396.0,-916.1999999999999 L 378.0,-916.1999999999999" style="stroke:black;fill:none;stroke-width:2.0;stroke-dasharray:-;stroke-linecap:round;stroke-linejoin:round;" /><path d="M 360.0,-997.1999999999999 L 351.0,-997.1999999999999 L 342.0,-997.1999999999999" style="stroke:black;fill:none;stroke-width:2.0;stroke-dasharray:-;stroke-linecap:round;stroke-linejoin:round;" /><path d="M 342.0,-997.1999999999999 L 342.0,-1011.5999999999999" style="stroke:black;fill:none;stroke-width:2.0;stroke-dasharray:-;stroke-linecap:round;stroke-linejoin:round;" /><path d="M 342.0,-1011.5999999999999 L 335.25,-1011.5999999999999" style="stroke:black;fill:none;stroke-width:2.0;stroke-dasharray:-;stroke-linecap:round;stroke-linejoin:round;" /><path d="M 342.0,-1011.5999999999999 L 348.75,-1011.5999999999999" style="stroke:black;fill:none;stroke-width:2.0;stroke-dasharray:-;stroke-linecap:round;stroke-linejoin:round;" /><path d="M 387.0,-936.0 L 387.0,-909.0 L 387.0,-882.0" style="stroke:black;fill:none;stroke-width:2.0;stroke-dasharray:-;stroke-linecap:round;stroke-linejoin:round;" /><path d="M 387.0,-882.0 L 279.0,-882.0 L 171.0,-882.0" style="stroke:black;fill:none;stroke-width:2.0;stroke-dasharray:-;stroke-linecap:round;stroke-linejoin:round;" /><path d="M 405.0,-936.0 L 405.0,-918.0 L 405.0,-900.0" style="stroke:black;fill:none;stroke-width:2.0;stroke-dasharray:-;stroke-linecap:round;stroke-linejoin:round;" /><path d="M 405.0,-900.0 L 297.0,-900.0 L 189.0,-900.0" style="stroke:black;fill:none;stroke-width:2.0;stroke-dasharray:-;stroke-linecap:round;stroke-linejoin:round;" /><path d="M 216.0,-612.0 L 243.0,-612.0 L 270.0,-612.0" style="stroke:black;fill:none;stroke-width:2.0;stroke-dasharray:-;stroke-linecap:round;stroke-linejoin:round;" /><path d="M 270.0,-612.0 L 270.0,-648.0 L 270.0,-684.0" style="stroke:black;fill:none;stroke-width:2.0;stroke-dasharray:-;stroke-linecap:round;stroke-linejoin:round;" /><path d="M 216.0,-594.0 L 252.0,-594.0 L 288.0,-594.0" style="stroke:black;fill:none;stroke-width:2.0;stroke-dasharray:-;stroke-linecap:round;stroke-linejoin:round;" /><path d="M 288.0,-594.0 L 288.0,-626.4 L 288.0,-658.8000000000001" style="stroke:black;fill:none;stroke-width:2.0;stroke-dasharray:-;stroke-linecap:round;stroke-linejoin:round;" /><path d="M 360.0,-817.1999999999999 L 378.0,-817.1999999999999 L 396.0,-817.1999999999999" style="stroke:black;fill:none;stroke-width:2.0;stroke-dasharray:-;stroke-linecap:round;stroke-linejoin:round;" /><path d="M 396.0,-817.1999999999999" style="stroke:black;fill:none;stroke-width:2.0;stroke-dasharray:-;stroke-linecap:round;stroke-linejoin:round;" /><path d="M 396.0,-817.1999999999999 L 414.0,-817.1999999999999 L 417.0,-826.1999999999999 L 423.0,-808.1999999999999 L 429.0,-826.1999999999999 L 435.0,-808.1999999999999 L 441.0,-826.1999999999999 L 447.0,-808.1999999999999 L 450.0,-817.1999999999999 L 468.0,-817.1999999999999" style="stroke:black;fill:none;stroke-width:2.0;stroke-dasharray:-;stroke-linecap:round;stroke-linejoin:round;" /><path d="M 468.0,-817.1999999999999 L 488.7,-817.1999999999999 M 501.3,-826.1999999999999 L 501.3,-808.1999999999999 M 501.3,-817.1999999999999 L 522.0,-817.1999999999999" style="stroke:black;fill:none;stroke-width:2.0;stroke-dasharray:-;stroke-linecap:round;stroke-linejoin:round;" /><path d="M 497.7,-830.6999999999999 L 503.12779964383077,-840.1986493767039" style="stroke:black;fill:none;stroke-width:2.0;stroke-dasharray:-;stroke-linecap:round;stroke-linejoin:round;" /><path d="M 505.7077221232863 -844.713513715751 L 505.62833989314925 -838.7697692342362 L 500.62725939451235 -841.6275295191715 Z" style="stroke:black;fill:black;stroke-linecap:butt;stroke-linejoin:miter;" /><path d="M 489.59999999999997,-830.6999999999999 L 495.02779964383075,-840.1986493767039" style="stroke:black;fill:none;stroke-width:2.0;stroke-dasharray:-;stroke-linecap:round;stroke-linejoin:round;" /><path d="M 497.6077221232863 -844.713513715751 L 497.5283398931492 -838.7697692342362 L 492.5272593945123 -841.6275295191715 Z" style="stroke:black;fill:black;stroke-linecap:butt;stroke-linejoin:miter;" /><path d="M 522.0,-817.1999999999999 L 522.0,-802.8000000000001 L 513.0,-802.8000000000001 L 531.0,-802.8000000000001 M 515.6999999999999,-798.48 L 528.3000000000001,-798.48 M 520.1999999999999,-794.16 L 523.8000000000001,-794.16" style="stroke:black;fill:none;stroke-width:2.0;stroke-dasharray:-;stroke-linecap:round;stroke-linejoin:round;" /><path d="M 360.0,-792.0 L 369.0,-792.0 L 378.0,-792.0" style="stroke:black;fill:none;stroke-width:2.0;stroke-dasharray:-;stroke-linecap:round;stroke-linejoin:round;" /><path d="M 378.0,-792.0 L 378.0,-783.0 L 378.0,-774.0" style="stroke:black;fill:none;stroke-width:2.0;stroke-dasharray:-;stroke-linecap:round;stroke-linejoin:round;" /><path d="M 378.0,-774.0 L 396.0,-774.0 L 399.0,-783.0 L 405.0,-765.0 L 411.0,-783.0 L 417.0,-765.0 L 423.0,-783.0 L 429.0,-765.0 L 432.0,-774.0 L 450.0,-774.0" style="stroke:black;fill:none;stroke-width:2.0;stroke-dasharray:-;stroke-linecap:round;stroke-linejoin:round;" /><path d="M 450.0,-774.0 L 470.7,-774.0 M 483.3,-783.0 L 483.3,-765.0 M 483.3,-774.0 L 504.0,-774.0" style="stroke:black;fill:none;stroke-width:2.0;stroke-dasharray:-;stroke-linecap:round;stroke-linejoin:round;" /><path d="M 479.7,-787.5 L 485.12779964383077,-796.9986493767038" style="stroke:black;fill:none;stroke-width:2.0;stroke-dasharray:-;stroke-linecap:round;stroke-linejoin:round;" /><path d="M 487.7077221232863 -801.5135137157511 L 487.62833989314925 -795.5697692342362 L 482.62725939451235 -798.4275295191716 Z" style="stroke:black;fill:black;stroke-linecap:butt;stroke-linejoin:miter;" /><path d="M 471.59999999999997,-787.5 L 477.02779964383075,-796.9986493767038" style="stroke:black;fill:none;stroke-width:2.0;stroke-dasharray:-;stroke-linecap:round;stroke-linejoin:round;" /><path d="M 479.6077221232863 -801.5135137157511 L 479.5283398931492 -795.5697692342362 L 474.5272593945123 -798.4275295191716 Z" style="stroke:black;fill:black;stroke-linecap:butt;stroke-linejoin:miter;" /><path d="M 504.0,-774.0 L 504.0,-759.6 L 495.0,-759.6 L 513.0,-759.6 M 497.7,-755.28 L 510.3,-755.28 M 502.2,-750.96 L 505.8,-750.96" style="stroke:black;fill:none;stroke-width:2.0;stroke-dasharray:-;stroke-linecap:round;stroke-linejoin:round;" /><path d="M 360.0,-766.8000000000001 L 369.0,-766.8000000000001 L 378.0,-766.8000000000001" style="stroke:black;fill:none;stroke-width:2.0;stroke-dasharray:-;stroke-linecap:round;stroke-linejoin:round;" /><path d="M 378.0,-766.8000000000001 L 378.0,-756.0 L 378.0,-745.1999999999999" style="stroke:black;fill:none;stroke-width:2.0;stroke-dasharray:-;stroke-linecap:round;stroke-linejoin:round;" /><path d="M 378.0,-745.1999999999999 L 396.0,-745.1999999999999 L 399.0,-754.1999999999999 L 405.0,-736.1999999999999 L 411.0,-754.1999999999999 L 417.0,-736.1999999999999 L 423.0,-754.1999999999999 L 429.0,-736.1999999999999 L 432.0,-745.1999999999999 L 450.0,-745.1999999999999" style="stroke:black;fill:none;stroke-width:2.0;stroke-dasharray:-;stroke-linecap:round;stroke-linejoin:round;" /><path d="M 450.0,-745.1999999999999 L 470.7,-745.1999999999999 M 483.3,-754.1999999999999 L 483.3,-736.1999999999999 M 483.3,-745.1999999999999 L 504.0,-745.1999999999999" style="stroke:black;fill:none;stroke-width:2.0;stroke-dasharray:-;stroke-linecap:round;stroke-linejoin:round;" /><path d="M 479.7,-758.6999999999999 L 485.12779964383077,-768.1986493767039" style="stroke:black;fill:none;stroke-width:2.0;stroke-dasharray:-;stroke-linecap:round;stroke-linejoin:round;" /><path d="M 487.7077221232863 -772.713513715751 L 487.62833989314925 -766.7697692342362 L 482.62725939451235 -769.6275295191715 Z" style="stroke:black;fill:black;stroke-linecap:butt;stroke-linejoin:miter;" /><path d="M 471.59999999999997,-758.6999999999999 L 477.02779964383075,-768.1986493767039" style="stroke:black;fill:none;stroke-width:2.0;stroke-dasharray:-;stroke-linecap:round;stroke-linejoin:round;" /><path d="M 479.6077221232863 -772.713513715751 L 479.5283398931492 -766.7697692342362 L 474.5272593945123 -769.6275295191715 Z" style="stroke:black;fill:black;stroke-linecap:butt;stroke-linejoin:miter;" /><path d="M 504.0,-745.1999999999999 L 504.0,-730.8000000000001 L 495.0,-730.8000000000001 L 513.0,-730.8000000000001 M 497.7,-726.48 L 510.3,-726.48 M 502.2,-722.16 L 505.8,-722.16" style="stroke:black;fill:none;stroke-width:2.0;stroke-dasharray:-;stroke-linecap:round;stroke-linejoin:round;" /><path d="M 360.0,-741.6 L 369.0,-741.6 L 378.0,-741.6" style="stroke:black;fill:none;stroke-width:2.0;stroke-dasharray:-;stroke-linecap:round;stroke-linejoin:round;" /><path d="M 378.0,-741.6 L 378.0,-729.0 L 378.0,-716.4" style="stroke:black;fill:none;stroke-width:2.0;stroke-dasharray:-;stroke-linecap:round;stroke-linejoin:round;" /><path d="M 378.0,-716.4 L 396.0,-716.4 L 399.0,-725.4 L 405.0,-707.4 L 411.0,-725.4 L 417.0,-707.4 L 423.0,-725.4 L 429.0,-707.4 L 432.0,-716.4 L 450.0,-716.4" style="stroke:black;fill:none;stroke-width:2.0;stroke-dasharray:-;stroke-linecap:round;stroke-linejoin:round;" /><path d="M 450.0,-716.4 L 470.7,-716.4 M 483.3,-725.4 L 483.3,-707.4 M 483.3,-716.4 L 504.0,-716.4" style="stroke:black;fill:none;stroke-width:2.0;stroke-dasharray:-;stroke-linecap:round;stroke-linejoin:round;" /><path d="M 479.7,-729.9 L 485.12779964383077,-739.3986493767038" style="stroke:black;fill:none;stroke-width:2.0;stroke-dasharray:-;stroke-linecap:round;stroke-linejoin:round;" /><path d="M 487.7077221232863 -743.913513715751 L 487.62833989314925 -737.9697692342362 L 482.62725939451235 -740.8275295191715 Z" style="stroke:black;fill:black;stroke-linecap:butt;stroke-linejoin:miter;" /><path d="M 471.59999999999997,-729.9 L 477.02779964383075,-739.3986493767038" style="stroke:black;fill:none;stroke-width:2.0;stroke-dasharray:-;stroke-linecap:round;stroke-linejoin:round;" /><path d="M 479.6077221232863 -743.913513715751 L 479.5283398931492 -737.9697692342362 L 474.5272593945123 -740.8275295191715 Z" style="stroke:black;fill:black;stroke-linecap:butt;stroke-linejoin:miter;" /><path d="M 504.0,-716.4 L 504.0,-702.0 L 495.0,-702.0 L 513.0,-702.0 M 497.7,-697.68 L 510.3,-697.68 M 502.2,-693.3599999999999 L 505.8,-693.3599999999999" style="stroke:black;fill:none;stroke-width:2.0;stroke-dasharray:-;stroke-linecap:round;stroke-linejoin:round;" /><path d="M 432.0,-1009.8000000000001 L 468.0,-1009.8000000000001 L 504.0,-1009.8000000000001" style="stroke:black;fill:none;stroke-width:2.0;stroke-dasharray:-;stroke-linecap:round;stroke-linejoin:round;" /><path d="M 504.0,-1009.8000000000001 L 522.0,-1009.8000000000001 L 525.0,-1018.8000000000001 L 531.0,-1000.8000000000001 L 537.0,-1018.8000000000001 L 543.0,-1000.8000000000001 L 549.0,-1018.8000000000001 L 555.0,-1000.8000000000001 L 558.0,-1009.8000000000001 L 576.0,-1009.8000000000001" style="stroke:black;fill:none;stroke-width:2.0;stroke-dasharray:-;stroke-linecap:round;stroke-linejoin:round;" /><path d="M 576.0,-1009.8000000000001 L 576.0,-995.4000000000001 L 567.0,-995.4000000000001 L 585.0,-995.4000000000001 M 569.6999999999999,-991.08 L 582.3000000000001,-991.08 M 574.1999999999999,-986.76 L 577.8000000000001,-986.76" style="stroke:black;fill:none;stroke-width:2.0;stroke-dasharray:-;stroke-linecap:round;stroke-linejoin:round;" /><path d="M 432.0,-984.6 L 468.0,-984.6 L 504.0,-984.6" style="stroke:black;fill:none;stroke-width:2.0;stroke-dasharray:-;stroke-linecap:round;stroke-linejoin:round;" /><path d="M 504.0,-984.6 L 522.0,-984.6 L 525.0,-993.6 L 531.0,-975.6 L 537.0,-993.6 L 543.0,-975.6 L 549.0,-993.6 L 555.0,-975.6 L 558.0,-984.6 L 576.0,-984.6" style="stroke:black;fill:none;stroke-width:2.0;stroke-dasharray:-;stroke-linecap:round;stroke-linejoin:round;" /><path d="M 576.0,-984.6 L 576.0,-970.2 L 567.0,-970.2 L 585.0,-970.2 M 569.6999999999999,-965.8800000000001 L 582.3000000000001,-965.8800000000001 M 574.1999999999999,-961.5600000000001 L 577.8000000000001,-961.5600000000001" style="stroke:black;fill:none;stroke-width:2.0;stroke-dasharray:-;stroke-linecap:round;stroke-linejoin:round;" /><path d="M 432.0,-959.4 L 468.0,-959.4 L 504.0,-959.4" style="stroke:black;fill:none;stroke-width:2.0;stroke-dasharray:-;stroke-linecap:round;stroke-linejoin:round;" /><path d="M 504.0,-959.4 L 522.0,-959.4 L 525.0,-968.4 L 531.0,-950.4 L 537.0,-968.4 L 543.0,-950.4 L 549.0,-968.4 L 555.0,-950.4 L 558.0,-959.4 L 576.0,-959.4" style="stroke:black;fill:none;stroke-width:2.0;stroke-dasharray:-;stroke-linecap:round;stroke-linejoin:round;" /><path d="M 576.0,-959.4 L 576.0,-945.0 L 567.0,-945.0 L 585.0,-945.0 M 569.6999999999999,-940.68 L 582.3000000000001,-940.68 M 574.1999999999999,-936.3599999999999 L 577.8000000000001,-936.3599999999999" style="stroke:black;fill:none;stroke-width:2.0;stroke-dasharray:-;stroke-linecap:round;stroke-linejoin:round;" /><path d="M 360.0,-792.0 L 396.0,-792.0 L 432.0,-792.0" style="stroke:black;fill:none;stroke-width:2.0;stroke-dasharray:-;stroke-linecap:round;stroke-linejoin:round;" /><path d="M 432.0,-792.0 L 432.0,-720.0 L 432.0,-648.0" style="stroke:black;fill:none;stroke-width:2.0;stroke-dasharray:-;stroke-linecap:round;stroke-linejoin:round;" /><path d="M 432.0,-648.0 L 441.0,-648.0 L 444.0,-657.0 L 450.0,-639.0 L 456.0,-657.0 L 462.0,-639.0 L 468.0,-657.0 L 474.0,-639.0 L 477.0,-648.0 L 486.0,-648.0" style="stroke:black;fill:none;stroke-width:2.0;stroke-dasharray:-;stroke-linecap:round;stroke-linejoin:round;" /><path d="M 486.0,-648.0 L 499.20000000000005,-648.0" style="stroke:black;fill:none;stroke-width:2.0;stroke-dasharray:-;stroke-linecap:round;stroke-linejoin:round;" /><path d="M 499.20000000000005,-661.2 L 499.20000000000005,-634.8" style="stroke:black;fill:none;stroke-width:2.0;stroke-dasharray:-;stroke-linecap:round;stroke-linejoin:round;" /><path d="M 499.20000000000005,-654.6 L 513.0600000000001,-666.4799999999999 L 513.0600000000001,-673.0799999999999" style="stroke:black;fill:none;stroke-width:2.0;stroke-dasharray:-;stroke-linecap:round;stroke-linejoin:round;" /><path d="M 499.20000000000005,-641.4 L 513.0600000000001,-629.5200000000001 L 513.0600000000001,-622.9200000000001" style="stroke:black;fill:none;stroke-width:2.0;stroke-dasharray:-;stroke-linecap:round;stroke-linejoin:round;" /><path d="M 499.20000000000005,-641.4 L 506.22669057871235,-635.3771223611038" style="stroke:black;fill:none;stroke-width:2.0;stroke-dasharray:-;stroke-linecap:round;stroke-linejoin:round;" /><path d="M 511.54148679526946 -630.821582746912 L 503.8838416342709 -632.6437985925887 L 508.5695395231538 -638.1104461296188 Z" style="stroke:black;fill:black;stroke-linecap:butt;stroke-linejoin:miter;" /><path d="M 523.86,-694.6800000000001 L 523.86,-703.6800000000001 L 523.86,-712.6800000000001" style="stroke:black;fill:none;stroke-width:2.0;stroke-dasharray:-;stroke-linecap:round;stroke-linejoin:round;" /><path d="M 523.86,-712.6800000000001 L 523.86,-721.6800000000001 L 514.86,-724.68 L 532.86,-730.6800000000001 L 514.86,-736.6800000000001 L 532.86,-742.68 L 514.86,-748.6800000000001 L 532.86,-754.6800000000001 L 523.86,-757.6800000000001 L 523.86,-766.6800000000001" style="stroke:black;fill:none;stroke-width:2.0;stroke-dasharray:-;stroke-linecap:round;stroke-linejoin:round;" /><path d="M 523.86,-651.4799999999999 L 523.86,-642.4799999999999 L 523.86,-633.4799999999999" style="stroke:black;fill:none;stroke-width:2.0;stroke-dasharray:-;stroke-linecap:round;stroke-linejoin:round;" /><path d="M 523.86,-633.4799999999999 L 523.86,-619.0799999999999 L 514.86,-619.0799999999999 L 532.86,-619.0799999999999 M 517.5600000000001,-614.7599999999999 L 530.1600000000001,-614.7599999999999 M 522.0600000000001,-610.4399999999998 L 525.6600000000001,-610.4399999999998" style="stroke:black;fill:none;stroke-width:2.0;stroke-dasharray:-;stroke-linecap:round;stroke-linejoin:round;" /><path d="M 72.0,-486.0 L 72.0,-500.40000000000003" style="stroke:black;fill:none;stroke-width:2.0;stroke-dasharray:-;stroke-linecap:round;stroke-linejoin:round;" /><path d="M 72.0,-500.40000000000003 L 65.25,-500.40000000000003" style="stroke:black;fill:none;stroke-width:2.0;stroke-dasharray:-;stroke-linecap:round;stroke-linejoin:round;" /><path d="M 72.0,-500.40000000000003 L 78.75,-500.40000000000003" style="stroke:black;fill:none;stroke-width:2.0;stroke-dasharray:-;stroke-linecap:round;stroke-linejoin:round;" /><path d="M 144.0,-486.0 L 144.0,-500.40000000000003" style="stroke:black;fill:none;stroke-width:2.0;stroke-dasharray:-;stroke-linecap:round;stroke-linejoin:round;" /><path d="M 144.0,-500.40000000000003 L 137.25,-500.40000000000003" style="stroke:black;fill:none;stroke-width:2.0;stroke-dasharray:-;stroke-linecap:round;stroke-linejoin:round;" /><path d="M 144.0,-500.40000000000003 L 150.75,-500.40000000000003" style="stroke:black;fill:none;stroke-width:2.0;stroke-dasharray:-;stroke-linecap:round;stroke-linejoin:round;" /><path d="M 234.0,-486.0 L 234.0,-471.59999999999997 L 225.0,-471.59999999999997 L 243.0,-471.59999999999997 M 227.70000000000002,-467.28000000000003 L 240.29999999999998,-467.28000000000003 M 232.20000000000002,-462.96 L 235.79999999999998,-462.96" style="stroke:black;fill:none;stroke-width:2.0;stroke-dasharray:-;stroke-linecap:round;stroke-linejoin:round;" /><text x="3.6" y="-1027.6" dominant-baseline="central" fill="black" font-size="16" font-family="bold" text-anchor="start"><tspan x="3.6" dy="16">PRISME COMPLETE HARDWARE SCHEMATIC</tspan></text><text x="291.59999999999997" y="-952.6" dominant-baseline="central" fill="black" font-size="13" font-family="bold" text-anchor="middle"><tspan x="291.59999999999997" dy="13">FEATHER M4 CAN EXPRESS</tspan></text><text x="285.3" y="-856.1" dominant-baseline="ideographic" fill="black" font-size="11" font-family="sans" text-anchor="end"><tspan x="285.3" dy="11">1</tspan></text><text x="293.40000000000003" y="-856.4" dominant-baseline="central" fill="black" font-size="14" font-family="sans" text-anchor="start"><tspan x="293.40000000000003" dy="14">A3</tspan></text><text x="285.3" y="-877.6999999999999" dominant-baseline="ideographic" fill="black" font-size="11" font-family="sans" text-anchor="end"><tspan x="285.3" dy="11">2</tspan></text><text x="293.40000000000003" y="-878.0" dominant-baseline="central" fill="black" font-size="14" font-family="sans" text-anchor="start"><tspan x="293.40000000000003" dy="14">A4</tspan></text><text x="380.7" y="-823.6999999999999" dominant-baseline="ideographic" fill="black" font-size="11" font-family="sans" text-anchor="start"><tspan x="380.7" dy="11">3</tspan></text><text x="372.59999999999997" y="-824.0" dominant-baseline="central" fill="black" font-size="14" font-family="sans" text-anchor="end"><tspan x="372.59999999999997" dy="14">D4</tspan></text><text x="380.7" y="-845.3000000000001" dominant-baseline="ideographic" fill="black" font-size="11" font-family="sans" text-anchor="start"><tspan x="380.7" dy="11">4</tspan></text><text x="372.59999999999997" y="-845.6" dominant-baseline="central" fill="black" font-size="14" font-family="sans" text-anchor="end"><tspan x="372.59999999999997" dy="14">D10</tspan></text><text x="380.7" y="-866.9" dominant-baseline="ideographic" fill="black" font-size="11" font-family="sans" text-anchor="start"><tspan x="380.7" dy="11">5</tspan></text><text x="372.59999999999997" y="-867.1999999999999" dominant-baseline="central" fill="black" font-size="14" font-family="sans" text-anchor="end"><tspan x="372.59999999999997" dy="14">D11</tspan></text><text x="380.7" y="-888.5" dominant-baseline="ideographic" fill="black" font-size="11" font-family="sans" text-anchor="start"><tspan x="380.7" dy="11">6</tspan></text><text x="372.59999999999997" y="-888.8000000000001" dominant-baseline="central" fill="black" font-size="14" font-family="sans" text-anchor="end"><tspan x="372.59999999999997" dy="14">D23</tspan></text><text x="380.7" y="-910.1" dominant-baseline="ideographic" fill="black" font-size="11" font-family="sans" text-anchor="start"><tspan x="380.7" dy="11">7</tspan></text><text x="372.59999999999997" y="-910.4" dominant-baseline="central" fill="black" font-size="14" font-family="sans" text-anchor="end"><tspan x="372.59999999999997" dy="14">D24</tspan></text><text x="324.90000000000003" y="-928.1" dominant-baseline="ideographic" fill="black" font-size="11" font-family="sans" text-anchor="start"><tspan x="324.90000000000003" dy="11">8</tspan></text><text x="322.2" y="-923.0" dominant-baseline="hanging" fill="black" font-size="14" font-family="sans" text-anchor="middle"><tspan x="322.2" dy="14">SDA</tspan></text><text x="346.5" y="-928.1" dominant-baseline="ideographic" fill="black" font-size="11" font-family="sans" text-anchor="start"><tspan x="346.5" dy="11">9</tspan></text><text x="343.8" y="-923.0" dominant-baseline="hanging" fill="black" font-size="14" font-family="sans" text-anchor="middle"><tspan x="343.8" dy="14">SCL</tspan></text><text x="324.90000000000003" y="-800.3000000000001" dominant-baseline="hanging" fill="black" font-size="11" font-family="sans" text-anchor="start"><tspan x="324.90000000000003" dy="11">10</tspan></text><text x="322.2" y="-811.4" dominant-baseline="ideographic" fill="black" font-size="14" font-family="sans" text-anchor="middle"><tspan x="322.2" dy="14">RX</tspan></text><text x="346.5" y="-800.3000000000001" dominant-baseline="hanging" fill="black" font-size="11" font-family="sans" text-anchor="start"><tspan x="346.5" dy="11">11</tspan></text><text x="343.8" y="-811.4" dominant-baseline="ideographic" fill="black" font-size="14" font-family="sans" text-anchor="middle"><tspan x="343.8" dy="14">TX</tspan></text><text x="336.59999999999997" y="-867.8000000000001" dominant-baseline="central" fill="black" font-size="11" font-family="sans" text-anchor="middle"><tspan x="336.59999999999997" dy="11">M4</tspan></text><text x="3.6" y="-879.6" dominant-baseline="central" fill="black" font-size="12" font-family="bold" text-anchor="start"><tspan x="3.6" dy="12">CV IN</tspan></text><text x="72.0" y="-858.6" dominant-baseline="ideographic" fill="black" font-size="9" font-family="sans" text-anchor="middle"><tspan x="72.0" dy="9">R1</tspan><tspan x="72.0" dy="9">10kΩ</tspan></text><text x="108.0" y="-849.6" dominant-baseline="ideographic" fill="black" font-size="9" font-family="sans" text-anchor="middle"><tspan x="108.0" dy="9">R2</tspan><tspan x="108.0" dy="9">10kΩ</tspan></text><text x="108.0" y="-833.4" dominant-baseline="hanging" fill="black" font-size="9" font-family="sans" text-anchor="middle"><tspan x="108.0" dy="9">D1</tspan><tspan x="108.0" dy="9">BAT85</tspan></text><text x="108.0" y="-927.0" dominant-baseline="ideographic" fill="black" font-size="9" font-family="sans" text-anchor="middle"><tspan x="108.0" dy="9">3.3V</tspan></text><text x="3.5999999999999996" y="-692.4" dominant-baseline="central" fill="black" font-size="12" font-family="bold" text-anchor="start"><tspan x="3.5999999999999996" dy="12">TRIG IN</tspan></text><text x="72.0" y="-678.6" dominant-baseline="ideographic" fill="black" font-size="9" font-family="sans" text-anchor="middle"><tspan x="72.0" dy="9">R4</tspan><tspan x="72.0" dy="9">10kΩ</tspan></text><text x="108.0" y="-669.6" dominant-baseline="ideographic" fill="black" font-size="9" font-family="sans" text-anchor="middle"><tspan x="108.0" dy="9">R5</tspan><tspan x="108.0" dy="9">10kΩ</tspan></text><text x="108.0" y="-653.4" dominant-baseline="hanging" fill="black" font-size="9" font-family="sans" text-anchor="middle"><tspan x="108.0" dy="9">D2</tspan><tspan x="108.0" dy="9">BAT85</tspan></text><text x="108.0" y="-747.0" dominant-baseline="ideographic" fill="black" font-size="9" font-family="sans" text-anchor="middle"><tspan x="108.0" dy="9">3.3V</tspan></text><text x="183.6" y="-1051.3999999999999" dominant-baseline="central" fill="black" font-size="11" font-family="bold" text-anchor="middle"><tspan x="183.6" dy="11">I2C BUS</tspan></text><text x="177.29999999999998" y="-946.1" dominant-baseline="hanging" fill="black" font-size="11" font-family="sans" text-anchor="start"><tspan x="177.29999999999998" dy="11">1</tspan></text><text x="185.39999999999998" y="-951.8000000000001" dominant-baseline="ideographic" fill="black" font-size="14" font-family="sans" text-anchor="middle"><tspan x="185.39999999999998" dy="14">SDA</tspan></text><text x="177.29999999999998" y="-924.5" dominant-baseline="hanging" fill="black" font-size="11" font-family="sans" text-anchor="start"><tspan x="177.29999999999998" dy="11">2</tspan></text><text x="185.39999999999998" y="-930.1999999999999" dominant-baseline="ideographic" fill="black" font-size="14" font-family="sans" text-anchor="middle"><tspan x="185.39999999999998" dy="14">SCL</tspan></text><text x="228.6" y="-936.9" dominant-baseline="central" fill="black" font-size="9" font-family="sans" text-anchor="middle"><tspan x="228.6" dy="9">OLED</tspan><tspan x="228.6" dy="9">0x3C</tspan></text><text x="443.7" y="-985.6999999999999" dominant-baseline="ideographic" fill="black" font-size="11" font-family="sans" text-anchor="end"><tspan x="443.7" dy="11">1</tspan></text><text x="441.0" y="-980.6" dominant-baseline="central" fill="black" font-size="14" font-family="sans" text-anchor="start"><tspan x="441.0" dy="14">VDD</tspan></text><text x="422.09999999999997" y="-890.3000000000001" dominant-baseline="ideographic" fill="black" font-size="11" font-family="sans" text-anchor="start"><tspan x="422.09999999999997" dy="11">4</tspan></text><text x="419.40000000000003" y="-901.4" dominant-baseline="central" fill="black" font-size="14" font-family="sans" text-anchor="end"><tspan x="419.40000000000003" dy="14">VA</tspan></text><text x="443.7" y="-890.3000000000001" dominant-baseline="ideographic" fill="black" font-size="11" font-family="sans" text-anchor="start"><tspan x="443.7" dy="11">5</tspan></text><text x="441.0" y="-901.4" dominant-baseline="central" fill="black" font-size="14" font-family="sans" text-anchor="end"><tspan x="441.0" dy="14">VB</tspan></text><text x="465.29999999999995" y="-890.3000000000001" dominant-baseline="ideographic" fill="black" font-size="11" font-family="sans" text-anchor="start"><tspan x="465.29999999999995" dy="11">6</tspan></text><text x="462.59999999999997" y="-901.4" dominant-baseline="central" fill="black" font-size="14" font-family="sans" text-anchor="end"><tspan x="462.59999999999997" dy="14">VC</tspan></text><text x="393.29999999999995" y="-946.1" dominant-baseline="hanging" fill="black" font-size="11" font-family="sans" text-anchor="start"><tspan x="393.29999999999995" dy="11">2</tspan></text><text x="401.40000000000003" y="-951.8000000000001" dominant-baseline="ideographic" fill="black" font-size="14" font-family="sans" text-anchor="middle"><tspan x="401.40000000000003" dy="14">SDA</tspan></text><text x="393.29999999999995" y="-924.5" dominant-baseline="hanging" fill="black" font-size="11" font-family="sans" text-anchor="start"><tspan x="393.29999999999995" dy="11">3</tspan></text><text x="401.40000000000003" y="-930.1999999999999" dominant-baseline="ideographic" fill="black" font-size="14" font-family="sans" text-anchor="middle"><tspan x="401.40000000000003" dy="14">SCL</tspan></text><text x="444.59999999999997" y="-936.9" dominant-baseline="central" fill="black" font-size="9" font-family="sans" text-anchor="middle"><tspan x="444.59999999999997" dy="9">DAC</tspan><tspan x="444.59999999999997" dy="9">0x60</tspan></text><text x="342.0" y="-1024.1999999999998" dominant-baseline="ideographic" fill="black" font-size="9" font-family="sans" text-anchor="middle"><tspan x="342.0" dy="9">5V</tspan></text><text x="284.40000000000003" y="-655.4" dominant-baseline="central" fill="black" font-size="11" font-family="bold" text-anchor="middle"><tspan x="284.40000000000003" dy="11">MIDI I/O</tspan></text><text x="536.4" y="-879.6" dominant-baseline="central" fill="black" font-size="12" font-family="bold" text-anchor="start"><tspan x="536.4" dy="12">INDICATORS</tspan></text><text x="432.0" y="-838.8000000000001" dominant-baseline="ideographic" fill="black" font-size="9" font-family="sans" text-anchor="middle"><tspan x="432.0" dy="9">1kΩ</tspan></text><text x="495.0" y="-813.5999999999999" dominant-baseline="hanging" fill="black" font-size="9" font-family="sans" text-anchor="middle"><tspan x="495.0" dy="9">CV</tspan></text><text x="414.0" y="-795.6" dominant-baseline="ideographic" fill="black" font-size="9" font-family="sans" text-anchor="middle"><tspan x="414.0" dy="9">330Ω</tspan></text><text x="477.0" y="-770.4" dominant-baseline="hanging" fill="black" font-size="9" font-family="sans" text-anchor="middle"><tspan x="477.0" dy="9">R</tspan></text><text x="414.0" y="-766.8000000000001" dominant-baseline="ideographic" fill="black" font-size="9" font-family="sans" text-anchor="middle"><tspan x="414.0" dy="9">330Ω</tspan></text><text x="477.0" y="-741.5999999999999" dominant-baseline="hanging" fill="black" font-size="9" font-family="sans" text-anchor="middle"><tspan x="477.0" dy="9">G</tspan></text><text x="414.0" y="-738.0" dominant-baseline="ideographic" fill="black" font-size="9" font-family="sans" text-anchor="middle"><tspan x="414.0" dy="9">330Ω</tspan></text><text x="477.0" y="-712.8" dominant-baseline="hanging" fill="black" font-size="9" font-family="sans" text-anchor="middle"><tspan x="477.0" dy="9">B</tspan></text><text x="543.6" y="-1023.6" dominant-baseline="central" fill="black" font-size="12" font-family="bold" text-anchor="start"><tspan x="543.6" dy="12">CV OUTPUTS</tspan></text><text x="540.0" y="-1040.4" dominant-baseline="ideographic" fill="black" font-size="9" font-family="sans" text-anchor="middle"><tspan x="540.0" dy="9">R6</tspan><tspan x="540.0" dy="9">100Ω</tspan></text><text x="540.0" y="-1015.2" dominant-baseline="ideographic" fill="black" font-size="9" font-family="sans" text-anchor="middle"><tspan x="540.0" dy="9">R7</tspan><tspan x="540.0" dy="9">100Ω</tspan></text><text x="540.0" y="-990.0" dominant-baseline="ideographic" fill="black" font-size="9" font-family="sans" text-anchor="middle"><tspan x="540.0" dy="9">R10</tspan><tspan x="540.0" dy="9">100Ω</tspan></text><text x="543.6" y="-699.6" dominant-baseline="central" fill="black" font-size="12" font-family="bold" text-anchor="start"><tspan x="543.6" dy="12">S-TRIG OUTPUT</tspan></text><text x="459.0" y="-678.6" dominant-baseline="ideographic" fill="black" font-size="9" font-family="sans" text-anchor="middle"><tspan x="459.0" dy="9">R8</tspan><tspan x="459.0" dy="9">1kΩ</tspan></text><text x="505.8" y="-627.72" dominant-baseline="hanging" fill="black" font-size="9" font-family="sans" text-anchor="middle"><tspan x="505.8" dy="9">Q1</tspan><tspan x="505.8" dy="9">2N3904</tspan></text><text x="523.86" y="-788.2800000000001" dominant-baseline="ideographic" fill="black" font-size="9" font-family="sans" text-anchor="middle"><tspan x="523.86" dy="9">R9</tspan><tspan x="523.86" dy="9">100Ω</tspan></text><text x="3.5999999999999996" y="-511.40000000000003" dominant-baseline="central" fill="black" font-size="11" font-family="bold" text-anchor="start"><tspan x="3.5999999999999996" dy="11">POWER:</tspan></text><text x="72.0" y="-513.0" dominant-baseline="ideographic" fill="black" font-size="9" font-family="sans" text-anchor="middle"><tspan x="72.0" dy="9">5V (USB)</tspan></text><text x="144.0" y="-513.0" dominant-baseline="ideographic" fill="black" font-size="9" font-family="sans" text-anchor="middle"><tspan x="144.0" dy="9">3.3V (M4)</tspan></text><text x="234.0" y="-498.59999999999997" dominant-baseline="ideographic" fill="black" font-size="9" font-family="sans" text-anchor="middle"><tspan x="234.0" dy="9">GND</tspan></text><text x="3.5999999999999996" y="-439.40000000000003" dominant-baseline="central" fill="black" font-size="11" font-family="bold" text-anchor="start"><tspan x="3.5999999999999996" dy="11">SPECIFICATIONS:</tspan></text><text x="3.5999999999999996" y="-418.40000000000003" dominant-baseline="central" fill="black" font-size="8" font-family="sans" text-anchor="start"><tspan x="3.5999999999999996" dy="8">• Input Protection: 10kΩ divider + BAT85 clamp = 0-40V+ safe</tspan></text><text x="3.5999999999999996" y="-400.40000000000003" dominant-baseline="central" fill="black" font-size="8" font-family="sans" text-anchor="start"><tspan x="3.5999999999999996" dy="8">• CV/TRIG Output: 0-5V, 1V/octave, 12-bit (MCP4728)</tspan></text><text x="3.5999999999999996" y="-382.40000000000003" dominant-baseline="central" fill="black" font-size="8" font-family="sans" text-anchor="start"><tspan x="3.5999999999999996" dy="8">• I2C Bus: OLED Wing (0x3C), MCP4728 DAC (0x60)</tspan></text><text x="3.5999999999999996" y="-364.40000000000003" dominant-baseline="central" fill="black" font-size="8" font-family="sans" text-anchor="start"><tspan x="3.5999999999999996" dy="8">• Output Protection: 100Ω series resistors on all CV outputs</tspan></text><text x="3.5999999999999996" y="-346.40000000000003" dominant-baseline="central" fill="black" font-size="8" font-family="sans" text-anchor="start"><tspan x="3.5999999999999996" dy="8">• Dual Trigger: V-Trig (0-5V from DAC) + S-Trig (switch to GND)</tspan></text><circle cx="36.0" cy="-828.0" r="2.6999999999999997" style="stroke:black;fill:black;stroke-width:2.0;stroke-dasharray:-;" /><text x="36.0" y="-843.3000000000001" dominant-baseline="ideographic" fill="black" font-size="9" font-family="sans" text-anchor="end"><tspan x="36.0" dy="9">Jack</tspan></text><circle cx="108.0" cy="-828.0" r="2.6999999999999997" style="stroke:black;fill:black;stroke-width:2.0;stroke-dasharray:-;" /><text x="108.0" y="-842.3000000000001" dominant-baseline="ideographic" fill="black" font-size="8" font-family="sans" text-anchor="middle"><tspan x="108.0" dy="8">CV</tspan></text><circle cx="36.0" cy="-648.0" r="2.6999999999999997" style="stroke:black;fill:black;stroke-width:2.0;stroke-dasharray:-;" /><text x="36.0" y="-663.3000000000001" dominant-baseline="ideographic" fill="black" font-size="9" font-family="sans" text-anchor="end"><tspan x="36.0" dy="9">Jack</tspan></text><circle cx="108.0" cy="-648.0" r="2.6999999999999997" style="stroke:black;fill:black;stroke-width:2.0;stroke-dasharray:-;" /><text x="108.0" y="-662.3000000000001" dominant-baseline="ideographic" fill="black" font-size="8" font-family="sans" text-anchor="middle"><tspan x="108.0" dy="8">TRIG</tspan></text><circle cx="171.0" cy="-882.0" r="2.6999999999999997" style="stroke:black;fill:black;stroke-width:2.0;stroke-dasharray:-;" /><circle cx="189.0" cy="-900.0" r="2.6999999999999997" style="stroke:black;fill:black;stroke-width:2.0;stroke-dasharray:-;" /><circle cx="387.0" cy="-882.0" r="2.6999999999999997" style="stroke:black;fill:black;stroke-width:2.0;stroke-dasharray:-;" /><circle cx="405.0" cy="-900.0" r="2.6999999999999997" style="stroke:black;fill:black;stroke-width:2.0;stroke-dasharray:-;" /><circle cx="216.0" cy="-612.0" r="2.6999999999999997" style="stroke:black;fill:black;stroke-width:2.0;stroke-dasharray:-;" /><text x="216.0" y="-627.3000000000001" dominant-baseline="ideographic" fill="black" font-size="9" font-family="sans" text-anchor="end"><tspan x="216.0" dy="9">MIDI IN</tspan></text><circle cx="216.0" cy="-594.0" r="2.6999999999999997" style="stroke:black;fill:black;stroke-width:2.0;stroke-dasharray:-;" /><text x="216.0" y="-609.3000000000001" dominant-baseline="ideographic" fill="black" font-size="9" font-family="sans" text-anchor="end"><tspan x="216.0" dy="9">MIDI OUT</tspan></text><circle cx="576.0" cy="-1009.8000000000001" r="2.6999999999999997" style="stroke:black;fill:black;stroke-width:2.0;stroke-dasharray:-;" /><text x="576.0" y="-1025.1" dominant-baseline="ideographic" fill="black" font-size="9" font-family="sans" text-anchor="start"><tspan x="576.0" dy="9">CV OUT</tspan></text><circle cx="576.0" cy="-984.6" r="2.6999999999999997" style="stroke:black;fill:black;stroke-width:2.0;stroke-dasharray:-;" /><text x="576.0" y="-999.9000000000001" dominant-baseline="ideographic" fill="black" font-size="9" font-family="sans" text-anchor="start"><tspan x="576.0" dy="9">TRIG V</tspan></text><circle cx="576.0" cy="-959.4" r="2.6999999999999997" style="stroke:black;fill:black;stroke-width:2.0;stroke-dasharray:-;" /><text x="576.0" y="-974.6999999999999" dominant-baseline="ideographic" fill="black" font-size="9" font-family="sans" text-anchor="start"><tspan x="576.0" dy="9">CC OUT</tspan></text><circle cx="523.86" cy="-766.6800000000001" r="2.6999999999999997" style="stroke:black;fill:black;stroke-width:2.0;stroke-dasharray:-;" /><text x="523.86" y="-781.98" dominant-baseline="ideographic" fill="black" font-size="9" font-family="sans" text-anchor="start"><tspan x="523.86" dy="9">TRIG S</tspan></text></svg>