<svg xmlns="http://www.w3.org/2000/svg" xmlns:xlink="http://www.w3.org/1999/xlink" xml:lang="en" height="1100.2pt" width="641.756pt" viewBox="-13.6 -699.2 641.756 1100.2"><polygon points="524.6999999999999,-369.0 537.3000000000001,-360.0 524.6999999999999,-351.0 " style="stroke:black;fill:none;stroke-width:2.0;stroke-dasharray:-;stroke-linecap:round;stroke-linejoin:round;" /><polygon points="524.6999999999999,-297.0 537.3000000000001,-288.0 524.6999999999999,-279.0 " style="stroke:black;fill:none;stroke-width:2.0;stroke-dasharray:-;stroke-linecap:round;stroke-linejoin:round;" /><polygon points="560.6999999999999,-178.20000000000002 573.3000000000001,-169.20000000000002 560.6999999999999,-160.20000000000002 " style="stroke:black;fill:none;stroke-width:2.0;stroke-dasharray:-;stroke-linecap:round;stroke-linejoin:round;" /><polygon points="560.6999999999999,-135.0 573.3000000000001,-126.0 560.6999999999999,-117.0 " style="stroke:black;fill:none;stroke-width:2.0;stroke-dasharray:-;stroke-linecap:round;stroke-linejoin:round;" /><polygon points="560.6999999999999,-70.2 573.3000000000001,-61.199999999999996 560.6999999999999,-52.199999999999996 " style="stroke:black;fill:none;stroke-width:2.0;stroke-dasharray:-;stroke-linecap:round;stroke-linejoin:round;" /><polygon points="542.6999999999999,1.7999999999999996 555.3000000000001,10.799999999999999 542.6999999999999,19.8 " style="stroke:black;fill:none;stroke-width:2.0;stroke-dasharray:-;stroke-linecap:round;stroke-linejoin:round;" /><polygon points="542.6999999999999,48.6 555.3000000000001,57.6 542.6999999999999,66.60000000000001 " style="stroke:black;fill:none;stroke-width:2.0;stroke-dasharray:-;stroke-linecap:round;stroke-linejoin:round;" /><path d="M 0.0,-540.0 L 36.0,-540.0 L 72.0,-540.0" style="stroke:black;fill:none;stroke-width:2.0;stroke-dasharray:-;stroke-linecap:round;stroke-linejoin:round;" /><path d="M 0.0,-504.0 L 0.0,-489.59999999999997 L -9.0,-489.59999999999997 L 9.0,-489.59999999999997 M -6.3,-485.28000000000003 L 6.3,-485.28000000000003 M -1.8,-480.96 L 1.8,-480.96" style="stroke:black;fill:none;stroke-width:2.0;stroke-dasharray:-;stroke-linecap:round;stroke-linejoin:round;" /><path d="M 180.0,-540.0 L 270.0,-540.0 L 360.0,-540.0" style="stroke:black;fill:none;stroke-width:2.0;stroke-dasharray:-;stroke-linecap:round;stroke-linejoin:round;" /><path d="M 360.0,-540.0 L 360.0,-378.0 L 360.0,-216.0" style="stroke:black;fill:none;stroke-width:2.0;stroke-dasharray:-;stroke-linecap:round;stroke-linejoin:round;" /><path d="M 360.0,-216.0 L 270.0,-216.0 L 180.0,-216.00000000000003" style="stroke:black;fill:none;stroke-width:2.0;stroke-dasharray:-;stroke-linecap:round;stroke-linejoin:round;" /><path d="M 180.0,-216.0 L 180.0,-378.0 L 180.00000000000003,-540.0" style="stroke:black;fill:none;stroke-width:2.0;stroke-dasharray:-;stroke-linecap:round;stroke-linejoin:round;" /><path d="M 72.0,-540.0 L 126.0,-540.0 L 180.0,-540.0" style="stroke:black;fill:none;stroke-width:2.0;stroke-dasharray:-;stroke-linecap:round;stroke-linejoin:round;" /><path d="M 72.0,-504.0 L 126.0,-504.0 L 180.0,-504.0" style="stroke:black;fill:none;stroke-width:2.0;stroke-dasharray:-;stroke-linecap:round;stroke-linejoin:round;" /><path d="M 396.0,-360.0 L 414.0,-360.0 L 432.0,-360.0" style="stroke:black;fill:none;stroke-width:2.0;stroke-dasharray:-;stroke-linecap:round;stroke-linejoin:round;" /><path d="M 432.0,-360.0 L 441.0,-357.0 L 423.0,-351.0 L 441.0,-345.0 L 423.0,-339.0 L 441.0,-333.0 L 423.0,-327.0 L 432.0,-324.0" style="stroke:black;fill:none;stroke-width:2.0;stroke-dasharray:-;stroke-linecap:round;stroke-linejoin:round;" /><path d="M 432.0,-324.0 L 432.0,-309.59999999999997 L 423.0,-309.59999999999997 L 441.0,-309.59999999999997 M 425.7,-305.28000000000003 L 438.3,-305.28000000000003 M 430.2,-300.96 L 433.8,-300.96" style="stroke:black;fill:none;stroke-width:2.0;stroke-dasharray:-;stroke-linecap:round;stroke-linejoin:round;" /><path d="M 432.0,-360.0 L 450.0,-360.0 L 468.0,-360.0" style="stroke:black;fill:none;stroke-width:2.0;stroke-dasharray:-;stroke-linecap:round;stroke-linejoin:round;" /><path d="M 468.0,-360.0 L 477.0,-360.0 L 486.0,-360.0" style="stroke:black;fill:none;stroke-width:2.0;stroke-dasharray:-;stroke-linecap:round;stroke-linejoin:round;" /><path d="M 486.0,-360.0 L 489.0,-369.0 L 495.0,-351.0 L 501.0,-369.0 L 507.0,-351.0 L 513.0,-369.0 L 519.0,-351.0 L 522.0,-360.0" style="stroke:black;fill:none;stroke-width:2.0;stroke-dasharray:-;stroke-linecap:round;stroke-linejoin:round;" /><path d="M 522.0,-360.0 L 524.6999999999999,-360.0 M 537.3000000000001,-369.0 L 537.3000000000001,-351.0 M 537.3000000000001,-360.0 L 540.0,-360.0" style="stroke:black;fill:none;stroke-width:2.0;stroke-dasharray:-;stroke-linecap:round;stroke-linejoin:round;" /><path d="M 533.6999999999999,-373.5 L 539.1277996438307,-382.99864937670384" style="stroke:black;fill:none;stroke-width:2.0;stroke-dasharray:-;stroke-linecap:round;stroke-linejoin:round;" /><path d="M 541.7077221232863 -387.51351371575106 L 541.6283398931492 -381.56976923423616 L 536.6272593945123 -384.42752951917157 Z" style="stroke:black;fill:black;stroke-linecap:butt;stroke-linejoin:miter;" /><path d="M 525.6,-373.5 L 531.0277996438308,-382.99864937670384" style="stroke:black;fill:none;stroke-width:2.0;stroke-dasharray:-;stroke-linecap:round;stroke-linejoin:round;" /><path d="M 533.6077221232864 -387.51351371575106 L 533.5283398931493 -381.56976923423616 L 528.5272593945124 -384.42752951917157 Z" style="stroke:black;fill:black;stroke-linecap:butt;stroke-linejoin:miter;" /><path d="M 396.0,-288.0 L 414.0,-288.0 L 432.0,-288.0" style="stroke:black;fill:none;stroke-width:2.0;stroke-dasharray:-;stroke-linecap:round;stroke-linejoin:round;" /><path d="M 432.0,-288.0 L 441.0,-285.0 L 423.0,-279.0 L 441.0,-273.0 L 423.0,-267.0 L 441.0,-261.0 L 423.0,-255.0 L 432.0,-252.0" style="stroke:black;fill:none;stroke-width:2.0;stroke-dasharray:-;stroke-linecap:round;stroke-linejoin:round;" /><path d="M 432.0,-252.0 L 432.0,-237.6 L 423.0,-237.6 L 441.0,-237.6 M 425.7,-233.28000000000003 L 438.3,-233.28000000000003 M 430.2,-228.96 L 433.8,-228.96" style="stroke:black;fill:none;stroke-width:2.0;stroke-dasharray:-;stroke-linecap:round;stroke-linejoin:round;" /><path d="M 432.0,-288.0 L 450.0,-288.0 L 468.0,-288.0" style="stroke:black;fill:none;stroke-width:2.0;stroke-dasharray:-;stroke-linecap:round;stroke-linejoin:round;" /><path d="M 468.0,-288.0 L 477.0,-288.0 L 486.0,-288.0" style="stroke:black;fill:none;stroke-width:2.0;stroke-dasharray:-;stroke-linecap:round;stroke-linejoin:round;" /><path d="M 486.0,-288.0 L 489.0,-297.0 L 495.0,-279.0 L 501.0,-297.0 L 507.0,-279.0 L 513.0,-297.0 L 519.0,-279.0 L 522.0,-288.0" style="stroke:black;fill:none;stroke-width:2.0;stroke-dasharray:-;stroke-linecap:round;stroke-linejoin:round;" /><path d="M 522.0,-288.0 L 524.6999999999999,-288.0 M 537.3000000000001,-297.0 L 537.3000000000001,-279.0 M 537.3000000000001,-288.0 L 540.0,-288.0" style="stroke:black;fill:none;stroke-width:2.0;stroke-dasharray:-;stroke-linecap:round;stroke-linejoin:round;" /><path d="M 533.6999999999999,-301.5 L 539.1277996438307,-310.99864937670384" style="stroke:black;fill:none;stroke-width:2.0;stroke-dasharray:-;stroke-linecap:round;stroke-linejoin:round;" /><path d="M 541.7077221232863 -315.51351371575106 L 541.6283398931492 -309.56976923423616 L 536.6272593945123 -312.42752951917157 Z" style="stroke:black;fill:black;stroke-linecap:butt;stroke-linejoin:miter;" /><path d="M 525.6,-301.5 L 531.0277996438308,-310.99864937670384" style="stroke:black;fill:none;stroke-width:2.0;stroke-dasharray:-;stroke-linecap:round;stroke-linejoin:round;" /><path d="M 533.6077221232864 -315.51351371575106 L 533.5283398931493 -309.56976923423616 L 528.5272593945124 -312.42752951917157 Z" style="stroke:black;fill:black;stroke-linecap:butt;stroke-linejoin:miter;" /><path d="M 396.0,-169.20000000000002 L 414.0,-169.20000000000002 L 432.0,-169.20000000000002" style="stroke:black;fill:none;stroke-width:2.0;stroke-dasharray:-;stroke-linecap:round;stroke-linejoin:round;" /><path d="M 432.0,-169.20000000000002 L 435.0,-178.20000000000002 L 441.0,-160.20000000000002 L 447.0,-178.20000000000002 L 453.0,-160.20000000000002 L 459.0,-178.20000000000002 L 465.0,-160.20000000000002 L 468.0,-169.20000000000002" style="stroke:black;fill:none;stroke-width:2.0;stroke-dasharray:-;stroke-linecap:round;stroke-linejoin:round;" /><path d="M 468.0,-169.20000000000002 L 477.0,-169.20000000000002 L 486.0,-169.20000000000002" style="stroke:black;fill:none;stroke-width:2.0;stroke-dasharray:-;stroke-linecap:round;stroke-linejoin:round;" /><path d="M 504.0,-169.20000000000002 L 513.0,-169.20000000000002 L 522.0,-169.20000000000002" style="stroke:black;fill:none;stroke-width:2.0;stroke-dasharray:-;stroke-linecap:round;stroke-linejoin:round;" /><path d="M 522.0,-169.20000000000002 L 525.0,-178.20000000000002 L 531.0,-160.20000000000002 L 537.0,-178.20000000000002 L 543.0,-160.20000000000002 L 549.0,-178.20000000000002 L 555.0,-160.20000000000002 L 558.0,-169.20000000000002" style="stroke:black;fill:none;stroke-width:2.0;stroke-dasharray:-;stroke-linecap:round;stroke-linejoin:round;" /><path d="M 558.0,-169.20000000000002 L 560.6999999999999,-169.20000000000002 M 573.3000000000001,-178.20000000000002 L 573.3000000000001,-160.20000000000002 M 573.3000000000001,-169.20000000000002 L 576.0,-169.20000000000002" style="stroke:black;fill:none;stroke-width:2.0;stroke-dasharray:-;stroke-linecap:round;stroke-linejoin:round;" /><path d="M 569.6999999999999,-182.70000000000002 L 575.1277996438307,-192.1986493767039" style="stroke:black;fill:none;stroke-width:2.0;stroke-dasharray:-;stroke-linecap:round;stroke-linejoin:round;" /><path d="M 577.7077221232863 -196.7135137157511 L 577.6283398931492 -190.76976923423624 L 572.6272593945123 -193.6275295191716 Z" style="stroke:black;fill:black;stroke-linecap:butt;stroke-linejoin:miter;" /><path d="M 561.6,-182.70000000000002 L 567.0277996438308,-192.1986493767039" style="stroke:black;fill:none;stroke-width:2.0;stroke-dasharray:-;stroke-linecap:round;stroke-linejoin:round;" /><path d="M 569.6077221232864 -196.7135137157511 L 569.5283398931493 -190.76976923423624 L 564.5272593945124 -193.6275295191716 Z" style="stroke:black;fill:black;stroke-linecap:butt;stroke-linejoin:miter;" /><path d="M 468.0,-126.0 L 477.0,-126.0 L 486.0,-126.0" style="stroke:black;fill:none;stroke-width:2.0;stroke-dasharray:-;stroke-linecap:round;stroke-linejoin:round;" /><path d="M 504.0,-126.0 L 513.0,-126.0 L 522.0,-126.0" style="stroke:black;fill:none;stroke-width:2.0;stroke-dasharray:-;stroke-linecap:round;stroke-linejoin:round;" /><path d="M 522.0,-126.0 L 525.0,-135.0 L 531.0,-117.0 L 537.0,-135.0 L 543.0,-117.0 L 549.0,-135.0 L 555.0,-117.0 L 558.0,-126.0" style="stroke:black;fill:none;stroke-width:2.0;stroke-dasharray:-;stroke-linecap:round;stroke-linejoin:round;" /><path d="M 558.0,-126.0 L 560.6999999999999,-126.0 M 573.3000000000001,-135.0 L 573.3000000000001,-117.0 M 573.3000000000001,-126.0 L 576.0,-126.0" style="stroke:black;fill:none;stroke-width:2.0;stroke-dasharray:-;stroke-linecap:round;stroke-linejoin:round;" /><path d="M 569.6999999999999,-139.5 L 575.1277996438307,-148.9986493767039" style="stroke:black;fill:none;stroke-width:2.0;stroke-dasharray:-;stroke-linecap:round;stroke-linejoin:round;" /><path d="M 577.7077221232863 -153.5135137157511 L 577.6283398931492 -147.56976923423622 L 572.6272593945123 -150.42752951917157 Z" style="stroke:black;fill:black;stroke-linecap:butt;stroke-linejoin:miter;" /><path d="M 561.6,-139.5 L 567.0277996438308,-148.9986493767039" style="stroke:black;fill:none;stroke-width:2.0;stroke-dasharray:-;stroke-linecap:round;stroke-linejoin:round;" /><path d="M 569.6077221232864 -153.5135137157511 L 569.5283398931493 -147.56976923423622 L 564.5272593945124 -150.42752951917157 Z" style="stroke:black;fill:black;stroke-linecap:butt;stroke-linejoin:miter;" /><path d="M 396.0,-61.199999999999996 L 414.0,-61.199999999999996 L 432.0,-61.199999999999996" style="stroke:black;fill:none;stroke-width:2.0;stroke-dasharray:-;stroke-linecap:round;stroke-linejoin:round;" /><path d="M 432.0,-61.199999999999996 L 435.0,-70.2 L 441.0,-52.199999999999996 L 447.0,-70.2 L 453.0,-52.199999999999996 L 459.0,-70.2 L 465.0,-52.199999999999996 L 468.0,-61.199999999999996" style="stroke:black;fill:none;stroke-width:2.0;stroke-dasharray:-;stroke-linecap:round;stroke-linejoin:round;" /><path d="M 468.0,-61.199999999999996 L 477.0,-61.199999999999996 L 486.0,-61.199999999999996" style="stroke:black;fill:none;stroke-width:2.0;stroke-dasharray:-;stroke-linecap:round;stroke-linejoin:round;" /><path d="M 504.0,-61.199999999999996 L 513.0,-61.199999999999996 L 522.0,-61.199999999999996" style="stroke:black;fill:none;stroke-width:2.0;stroke-dasharray:-;stroke-linecap:round;stroke-linejoin:round;" /><path d="M 522.0,-61.199999999999996 L 525.0,-70.2 L 531.0,-52.199999999999996 L 537.0,-70.2 L 543.0,-52.199999999999996 L 549.0,-70.2 L 555.0,-52.199999999999996 L 558.0,-61.199999999999996" style="stroke:black;fill:none;stroke-width:2.0;stroke-dasharray:-;stroke-linecap:round;stroke-linejoin:round;" /><path d="M 558.0,-61.199999999999996 L 560.6999999999999,-61.199999999999996 M 573.3000000000001,-70.2 L 573.3000000000001,-52.199999999999996 M 573.3000000000001,-61.199999999999996 L 576.0,-61.199999999999996" style="stroke:black;fill:none;stroke-width:2.0;stroke-dasharray:-;stroke-linecap:round;stroke-linejoin:round;" /><path d="M 569.6999999999999,-74.7 L 575.1277996438307,-84.19864937670391" style="stroke:black;fill:none;stroke-width:2.0;stroke-dasharray:-;stroke-linecap:round;stroke-linejoin:round;" /><path d="M 577.7077221232863 -88.71351371575109 L 577.6283398931492 -82.76976923423622 L 572.6272593945123 -85.62752951917157 Z" style="stroke:black;fill:black;stroke-linecap:butt;stroke-linejoin:miter;" /><path d="M 561.6,-74.7 L 567.0277996438308,-84.19864937670391" style="stroke:black;fill:none;stroke-width:2.0;stroke-dasharray:-;stroke-linecap:round;stroke-linejoin:round;" /><path d="M 569.6077221232864 -88.71351371575109 L 569.5283398931493 -82.76976923423622 L 564.5272593945124 -85.62752951917157 Z" style="stroke:black;fill:black;stroke-linecap:butt;stroke-linejoin:miter;" /><path d="M 396.0,10.799999999999999 L 414.0,10.799999999999999 L 432.0,10.799999999999999" style="stroke:black;fill:none;stroke-width:2.0;stroke-dasharray:-;stroke-linecap:round;stroke-linejoin:round;" /><path d="M 450.0,10.799999999999999 L 459.0,10.799999999999999 L 468.0,10.799999999999999" style="stroke:black;fill:none;stroke-width:2.0;stroke-dasharray:-;stroke-linecap:round;stroke-linejoin:round;" /><path d="M 486.0,10.799999999999999 L 495.0,10.799999999999999 L 504.0,10.799999999999999" style="stroke:black;fill:none;stroke-width:2.0;stroke-dasharray:-;stroke-linecap:round;stroke-linejoin:round;" /><path d="M 504.0,10.799999999999999 L 507.0,1.7999999999999996 L 513.0,19.8 L 519.0,1.7999999999999996 L 525.0,19.8 L 531.0,1.7999999999999996 L 537.0,19.8 L 540.0,10.799999999999999" style="stroke:black;fill:none;stroke-width:2.0;stroke-dasharray:-;stroke-linecap:round;stroke-linejoin:round;" /><path d="M 540.0,10.799999999999999 L 542.6999999999999,10.799999999999999 M 555.3000000000001,1.7999999999999996 L 555.3000000000001,19.8 M 555.3000000000001,10.799999999999999 L 558.0,10.799999999999999" style="stroke:black;fill:none;stroke-width:2.0;stroke-dasharray:-;stroke-linecap:round;stroke-linejoin:round;" /><path d="M 551.6999999999999,-2.7 L 557.1277996438307,-12.198649376703893" style="stroke:black;fill:none;stroke-width:2.0;stroke-dasharray:-;stroke-linecap:round;stroke-linejoin:round;" /><path d="M 559.7077221232863 -16.71351371575108 L 559.6283398931492 -10.769769234236211 L 554.6272593945123 -13.627529519171574 Z" style="stroke:black;fill:black;stroke-linecap:butt;stroke-linejoin:miter;" /><path d="M 543.6,-2.7 L 549.0277996438308,-12.198649376703893" style="stroke:black;fill:none;stroke-width:2.0;stroke-dasharray:-;stroke-linecap:round;stroke-linejoin:round;" /><path d="M 551.6077221232864 -16.71351371575108 L 551.5283398931493 -10.769769234236211 L 546.5272593945124 -13.627529519171574 Z" style="stroke:black;fill:black;stroke-linecap:butt;stroke-linejoin:miter;" /><path d="M 396.0,57.6 L 414.0,57.6 L 432.0,57.6" style="stroke:black;fill:none;stroke-width:2.0;stroke-dasharray:-;stroke-linecap:round;stroke-linejoin:round;" /><path d="M 450.0,57.6 L 459.0,57.6 L 468.0,57.6" style="stroke:black;fill:none;stroke-width:2.0;stroke-dasharray:-;stroke-linecap:round;stroke-linejoin:round;" /><path d="M 486.0,57.6 L 495.0,57.6 L 504.0,57.6" style="stroke:black;fill:none;stroke-width:2.0;stroke-dasharray:-;stroke-linecap:round;stroke-linejoin:round;" /><path d="M 504.0,57.6 L 507.0,48.6 L 513.0,66.60000000000001 L 519.0,48.6 L 525.0,66.60000000000001 L 531.0,48.6 L 537.0,66.60000000000001 L 540.0,57.6" style="stroke:black;fill:none;stroke-width:2.0;stroke-dasharray:-;stroke-linecap:round;stroke-linejoin:round;" /><path d="M 540.0,57.6 L 542.6999999999999,57.6 M 555.3000000000001,48.6 L 555.3000000000001,66.60000000000001 M 555.3000000000001,57.6 L 558.0,57.6" style="stroke:black;fill:none;stroke-width:2.0;stroke-dasharray:-;stroke-linecap:round;stroke-linejoin:round;" /><path d="M 551.6999999999999,44.1 L 557.1277996438307,34.60135062329611" style="stroke:black;fill:none;stroke-width:2.0;stroke-dasharray:-;stroke-linecap:round;stroke-linejoin:round;" /><path d="M 559.7077221232863 30.08648628424892 L 559.6283398931492 36.03023076576379 L 554.6272593945123 33.17247048082842 Z" style="stroke:black;fill:black;stroke-linecap:butt;stroke-linejoin:miter;" /><path d="M 543.6,44.1 L 549.0277996438308,34.60135062329611" style="stroke:black;fill:none;stroke-width:2.0;stroke-dasharray:-;stroke-linecap:round;stroke-linejoin:round;" /><path d="M 551.6077221232864 30.08648628424892 L 551.5283398931493 36.03023076576379 L 546.5272593945124 33.17247048082842 Z" style="stroke:black;fill:black;stroke-linecap:butt;stroke-linejoin:miter;" /><text x="3.6" y="-701.6" dominant-baseline="central" fill="black" font-size="14" font-family="bold" text-anchor="start"><tspan x="3.6" dy="14">PRISME - UNIFIED SYSTEM SCHEMATIC</tspan></text><text x="3.6" y="-661.6" dominant-baseline="central" fill="black" font-size="10" font-family="sans" text-anchor="start"><tspan x="3.6" dy="10">Complete Hardware Interconnection Diagram</tspan></text><text x="3.6" y="-624.6" dominant-baseline="central" fill="black" font-size="9" font-family="sans" text-anchor="start"><tspan x="3.6" dy="9">Session 27: USB-only power, all 7 LEDs shown</tspan></text><text x="3.6" y="-571.6" dominant-baseline="central" fill="black" font-size="10" font-family="bold" text-anchor="start"><tspan x="3.6" dy="10">USB-C POWER</tspan></text><text x="2.204364238465236e-15" y="-512.0" dominant-baseline="central" fill="black" font-size="8" font-family="sans" text-anchor="middle"><tspan x="2.204364238465236e-15" dy="8">+</tspan></text><text x="36.0" y="-551.6" dominant-baseline="ideographic" fill="black" font-size="8" font-family="sans" text-anchor="middle"><tspan x="36.0" dy="8">5V</tspan></text><text x="2.204364238465236e-15" y="-494.0" dominant-baseline="central" fill="black" font-size="8" font-family="sans" text-anchor="middle"><tspan x="2.204364238465236e-15" dy="8">−</tspan></text><text x="273.59999999999997" y="-583.4" dominant-baseline="central" fill="black" font-size="11" font-family="bold" text-anchor="middle"><tspan x="273.59999999999997" dy="11">FEATHER M4 CAN EXPRESS</tspan></text><text x="266.40000000000003" y="-516.5999999999999" dominant-baseline="central" fill="black" font-size="9" font-family="sans" text-anchor="middle"><tspan x="266.40000000000003" dy="9">Power:</tspan></text><text x="266.40000000000003" y="-497.59999999999997" dominant-baseline="central" fill="black" font-size="8" font-family="sans" text-anchor="middle"><tspan x="266.40000000000003" dy="8">USB (5V), 3V3 (3.3V), GND</tspan></text><text x="266.40000000000003" y="-462.59999999999997" dominant-baseline="central" fill="black" font-size="9" font-family="sans" text-anchor="middle"><tspan x="266.40000000000003" dy="9">I2C:</tspan></text><text x="266.40000000000003" y="-443.59999999999997" dominant-baseline="central" fill="black" font-size="8" font-family="sans" text-anchor="middle"><tspan x="266.40000000000003" dy="8">SDA/SCL → OLED + MCP4728</tspan></text><text x="266.40000000000003" y="-408.59999999999997" dominant-baseline="central" fill="black" font-size="9" font-family="sans" text-anchor="middle"><tspan x="266.40000000000003" dy="9">UART:</tspan></text><text x="266.40000000000003" y="-389.59999999999997" dominant-baseline="central" fill="black" font-size="8" font-family="sans" text-anchor="middle"><tspan x="266.40000000000003" dy="8">RX/TX → MIDI FeatherWing</tspan></text><text x="266.40000000000003" y="-354.59999999999997" dominant-baseline="central" fill="black" font-size="9" font-family="sans" text-anchor="middle"><tspan x="266.40000000000003" dy="9">ADC Inputs:</tspan></text><text x="266.40000000000003" y="-335.59999999999997" dominant-baseline="central" fill="black" font-size="8" font-family="sans" text-anchor="middle"><tspan x="266.40000000000003" dy="8">A3 ← CV IN, A4 ← TRIG IN</tspan></text><text x="266.40000000000003" y="-300.59999999999997" dominant-baseline="central" fill="black" font-size="9" font-family="sans" text-anchor="middle"><tspan x="266.40000000000003" dy="9">GPIO Outputs (LEDs):</tspan></text><text x="266.40000000000003" y="-280.59999999999997" dominant-baseline="central" fill="black" font-size="7" font-family="sans" text-anchor="middle"><tspan x="266.40000000000003" dy="7">D4, D11/D23/D24, D12, A0/A1/A2,</tspan></text><text x="266.40000000000003" y="-262.6" dominant-baseline="central" fill="black" font-size="7" font-family="sans" text-anchor="middle"><tspan x="266.40000000000003" dy="7">D25, CAN_TX, A5</tspan></text><text x="129.6" y="-562.4" dominant-baseline="central" fill="black" font-size="8" font-family="sans" text-anchor="middle"><tspan x="129.6" dy="8">5V</tspan></text><text x="129.6" y="-526.4" dominant-baseline="central" fill="black" font-size="8" font-family="sans" text-anchor="middle"><tspan x="129.6" dy="8">GND</tspan></text><text x="399.59999999999997" y="-409.59999999999997" dominant-baseline="central" fill="black" font-size="10" font-family="bold" text-anchor="start"><tspan x="399.59999999999997" dy="10">INPUT CIRCUITS (TOP PCB)</tspan></text><text x="399.59999999999997" y="-390.59999999999997" dominant-baseline="central" fill="black" font-size="9" font-family="bold" text-anchor="start"><tspan x="399.59999999999997" dy="9">CV IN:</tspan></text><text x="417.59999999999997" y="-377.79999999999995" dominant-baseline="central" fill="black" font-size="7" font-family="sans" text-anchor="middle"><tspan x="417.59999999999997" dy="7">R1 10kΩ</tspan></text><text x="432.0" y="-377.59999999999997" dominant-baseline="ideographic" fill="black" font-size="7" font-family="sans" text-anchor="middle"><tspan x="432.0" dy="7">R2</tspan><tspan x="432.0" dy="7">10kΩ</tspan></text><text x="453.59999999999997" y="-377.79999999999995" dominant-baseline="central" fill="black" font-size="7" font-family="sans" text-anchor="middle"><tspan x="453.59999999999997" dy="7">→ A3</tspan></text><text x="504.0" y="-379.59999999999997" dominant-baseline="ideographic" fill="black" font-size="7" font-family="sans" text-anchor="middle"><tspan x="504.0" dy="7">1kΩ</tspan></text><text x="532.35" y="-405.61" dominant-baseline="ideographic" fill="black" font-size="7" font-family="sans" text-anchor="middle"><tspan x="532.35" dy="7">White</tspan></text><text x="543.6" y="-370.59999999999997" dominant-baseline="central" fill="black" font-size="7" font-family="sans" text-anchor="start"><tspan x="543.6" dy="7">D4</tspan></text><text x="399.59999999999997" y="-318.59999999999997" dominant-baseline="central" fill="black" font-size="9" font-family="bold" text-anchor="start"><tspan x="399.59999999999997" dy="9">TRIG IN:</tspan></text><text x="417.59999999999997" y="-305.79999999999995" dominant-baseline="central" fill="black" font-size="7" font-family="sans" text-anchor="middle"><tspan x="417.59999999999997" dy="7">R4 10kΩ</tspan></text><text x="432.0" y="-305.59999999999997" dominant-baseline="ideographic" fill="black" font-size="7" font-family="sans" text-anchor="middle"><tspan x="432.0" dy="7">R5</tspan><tspan x="432.0" dy="7">10kΩ</tspan></text><text x="453.59999999999997" y="-305.79999999999995" dominant-baseline="central" fill="black" font-size="7" font-family="sans" text-anchor="middle"><tspan x="453.59999999999997" dy="7">→ A4</tspan></text><text x="504.0" y="-307.59999999999997" dominant-baseline="ideographic" fill="black" font-size="7" font-family="sans" text-anchor="middle"><tspan x="504.0" dy="7">330Ω</tspan></text><text x="532.35" y="-333.61" dominant-baseline="ideographic" fill="black" font-size="7" font-family="sans" text-anchor="middle"><tspan x="532.35" dy="7">RGB</tspan></text><text x="543.6" y="-297.59999999999997" dominant-baseline="central" fill="black" font-size="6" font-family="sans" text-anchor="start"><tspan x="543.6" dy="6">D11/D23/D24</tspan></text><text x="543.6" y="-286.8" dominant-baseline="central" fill="black" font-size="6" font-family="sans" text-anchor="start"><tspan x="543.6" dy="6">(R/G/B)</tspan></text><text x="399.59999999999997" y="-211.6" dominant-baseline="central" fill="black" font-size="10" font-family="bold" text-anchor="start"><tspan x="399.59999999999997" dy="10">OUTPUT CIRCUITS (BOTTOM PCB)</tspan></text><text x="399.59999999999997" y="-192.6" dominant-baseline="central" fill="black" font-size="9" font-family="bold" text-anchor="start"><tspan x="399.59999999999997" dy="9">CV OUT:</tspan></text><text x="417.59999999999997" y="-187.0" dominant-baseline="central" fill="black" font-size="7" font-family="sans" text-anchor="middle"><tspan x="417.59999999999997" dy="7">MCP4728 Ch A</tspan></text><text x="450.0" y="-188.79999999999998" dominant-baseline="ideographic" fill="black" font-size="7" font-family="sans" text-anchor="middle"><tspan x="450.0" dy="7">100Ω</tspan></text><text x="500.40000000000003" y="-187.0" dominant-baseline="central" fill="black" font-size="7" font-family="sans" text-anchor="middle"><tspan x="500.40000000000003" dy="7">Jack</tspan></text><text x="540.0" y="-188.79999999999998" dominant-baseline="ideographic" fill="black" font-size="7" font-family="sans" text-anchor="middle"><tspan x="540.0" dy="7">1kΩ</tspan></text><text x="568.35" y="-214.81" dominant-baseline="ideographic" fill="black" font-size="7" font-family="sans" text-anchor="middle"><tspan x="568.35" dy="7">White</tspan></text><text x="597.6" y="-179.79999999999998" dominant-baseline="central" fill="black" font-size="7" font-family="sans" text-anchor="start"><tspan x="597.6" dy="7">D12</tspan></text><text x="399.59999999999997" y="-138.6" dominant-baseline="central" fill="black" font-size="9" font-family="bold" text-anchor="start"><tspan x="399.59999999999997" dy="9">TRIG OUT:</tspan></text><text x="417.59999999999997" y="-125.80000000000001" dominant-baseline="central" fill="black" font-size="7" font-family="sans" text-anchor="start"><tspan x="417.59999999999997" dy="7">Ch C (V-Trig)</tspan></text><text x="417.59999999999997" y="-115.0" dominant-baseline="central" fill="black" font-size="7" font-family="sans" text-anchor="start"><tspan x="417.59999999999997" dy="7">D10 (S-Trig)</tspan></text><text x="489.59999999999997" y="-143.8" dominant-baseline="central" fill="black" font-size="7" font-family="sans" text-anchor="middle"><tspan x="489.59999999999997" dy="7">Jack</tspan></text><text x="540.0" y="-145.6" dominant-baseline="ideographic" fill="black" font-size="7" font-family="sans" text-anchor="middle"><tspan x="540.0" dy="7">330Ω</tspan></text><text x="568.35" y="-171.60999999999999" dominant-baseline="ideographic" fill="black" font-size="7" font-family="sans" text-anchor="middle"><tspan x="568.35" dy="7">RGB</tspan></text><text x="597.6" y="-135.6" dominant-baseline="central" fill="black" font-size="6" font-family="sans" text-anchor="start"><tspan x="597.6" dy="6">A0/A1/A2</tspan></text><text x="597.6" y="-124.80000000000001" dominant-baseline="central" fill="black" font-size="6" font-family="sans" text-anchor="start"><tspan x="597.6" dy="6">(R/G/B)</tspan></text><text x="399.59999999999997" y="-84.60000000000001" dominant-baseline="central" fill="black" font-size="9" font-family="bold" text-anchor="start"><tspan x="399.59999999999997" dy="9">CC OUT:</tspan></text><text x="417.59999999999997" y="-79.0" dominant-baseline="central" fill="black" font-size="7" font-family="sans" text-anchor="middle"><tspan x="417.59999999999997" dy="7">MCP4728 Ch D</tspan></text><text x="450.0" y="-80.8" dominant-baseline="ideographic" fill="black" font-size="7" font-family="sans" text-anchor="middle"><tspan x="450.0" dy="7">100Ω</tspan></text><text x="500.40000000000003" y="-79.0" dominant-baseline="central" fill="black" font-size="7" font-family="sans" text-anchor="middle"><tspan x="500.40000000000003" dy="7">Jack</tspan></text><text x="540.0" y="-80.8" dominant-baseline="ideographic" fill="black" font-size="7" font-family="sans" text-anchor="middle"><tspan x="540.0" dy="7">1kΩ</tspan></text><text x="568.35" y="-106.81" dominant-baseline="ideographic" fill="black" font-size="7" font-family="sans" text-anchor="middle"><tspan x="568.35" dy="7">White</tspan></text><text x="597.6" y="-71.8" dominant-baseline="central" fill="black" font-size="7" font-family="sans" text-anchor="start"><tspan x="597.6" dy="7">D25</tspan></text><text x="399.59999999999997" y="-31.599999999999998" dominant-baseline="central" fill="black" font-size="10" font-family="bold" text-anchor="start"><tspan x="399.59999999999997" dy="10">MIDI (BREADBOARD)</tspan></text><text x="399.59999999999997" y="-12.6" dominant-baseline="central" fill="black" font-size="9" font-family="bold" text-anchor="start"><tspan x="399.59999999999997" dy="9">MIDI OUT:</tspan></text><text x="417.59999999999997" y="-7.0" dominant-baseline="central" fill="black" font-size="7" font-family="sans" text-anchor="middle"><tspan x="417.59999999999997" dy="7">TX → FeatherWing</tspan></text><text x="471.59999999999997" y="-7.0" dominant-baseline="central" fill="black" font-size="7" font-family="sans" text-anchor="middle"><tspan x="471.59999999999997" dy="7">DIN Jack</tspan></text><text x="522.0" y="-8.799999999999999" dominant-baseline="ideographic" fill="black" font-size="7" font-family="sans" text-anchor="middle"><tspan x="522.0" dy="7">1kΩ</tspan></text><text x="550.35" y="-34.81" dominant-baseline="ideographic" fill="black" font-size="7" font-family="sans" text-anchor="middle"><tspan x="550.35" dy="7">White</tspan></text><text x="579.6" y="0.1999999999999993" dominant-baseline="central" fill="black" font-size="7" font-family="sans" text-anchor="start"><tspan x="579.6" dy="7">CAN_TX</tspan></text><text x="399.59999999999997" y="34.199999999999996" dominant-baseline="central" fill="black" font-size="9" font-family="bold" text-anchor="start"><tspan x="399.59999999999997" dy="9">MIDI IN:</tspan></text><text x="417.59999999999997" y="39.8" dominant-baseline="central" fill="black" font-size="7" font-family="sans" text-anchor="middle"><tspan x="417.59999999999997" dy="7">RX ← FeatherWing</tspan></text><text x="471.59999999999997" y="39.8" dominant-baseline="central" fill="black" font-size="7" font-family="sans" text-anchor="middle"><tspan x="471.59999999999997" dy="7">DIN Jack</tspan></text><text x="522.0" y="38.0" dominant-baseline="ideographic" fill="black" font-size="7" font-family="sans" text-anchor="middle"><tspan x="522.0" dy="7">1kΩ</tspan></text><text x="550.35" y="11.990000000000002" dominant-baseline="ideographic" fill="black" font-size="7" font-family="sans" text-anchor="middle"><tspan x="550.35" dy="7">White</tspan></text><text x="579.6" y="47.0" dominant-baseline="central" fill="black" font-size="7" font-family="sans" text-anchor="start"><tspan x="579.6" dy="7">A5</tspan></text><text x="3.6" y="94.39999999999999" dominant-baseline="central" fill="black" font-size="10" font-family="bold" text-anchor="start"><tspan x="3.6" dy="10">COMPONENT VALUES:</tspan></text><text x="3.6" y="114.39999999999999" dominant-baseline="central" fill="black" font-size="8" font-family="sans" text-anchor="start"><tspan x="3.6" dy="8">Resistors: 10kΩ (voltage dividers), 100Ω (DAC output protection)</tspan></text><text x="3.6" y="132.4" dominant-baseline="central" fill="black" font-size="8" font-family="sans" text-anchor="start"><tspan x="3.6" dy="8">          1kΩ (white LED current limit), 330Ω (RGB LED current limit)</tspan></text><text x="3.6" y="150.4" dominant-baseline="central" fill="black" font-size="8" font-family="sans" text-anchor="start"><tspan x="3.6" dy="8">Diodes: BAT85 Schottky (30V 200mA, input clamps - see individual schematics)</tspan></text><text x="3.6" y="168.4" dominant-baseline="central" fill="black" font-size="8" font-family="sans" text-anchor="start"><tspan x="3.6" dy="8">LEDs: 5× white 3mm, 2× RGB 5mm common cathode</tspan></text><text x="3.6" y="186.4" dominant-baseline="central" fill="black" font-size="8" font-family="sans" text-anchor="start"><tspan x="3.6" dy="8">DAC: MCP4728 4-channel 12-bit I2C (address 0x60)</tspan></text><text x="3.6" y="220.4" dominant-baseline="central" fill="black" font-size="10" font-family="bold" text-anchor="start"><tspan x="3.6" dy="10">ALL 7 LED INDICATORS:</tspan></text><text x="3.6" y="240.4" dominant-baseline="central" fill="black" font-size="8" font-family="sans" text-anchor="start"><tspan x="3.6" dy="8">Inputs:  D4 (CV IN white), D11/D23/D24 (TRIG IN RGB)</tspan></text><text x="3.6" y="258.40000000000003" dominant-baseline="central" fill="black" font-size="8" font-family="sans" text-anchor="start"><tspan x="3.6" dy="8">Outputs: D12 (CV OUT white), A0/A1/A2 (TRIG OUT RGB), D25 (CC OUT white)</tspan></text><text x="3.6" y="276.40000000000003" dominant-baseline="central" fill="black" font-size="8" font-family="sans" text-anchor="start"><tspan x="3.6" dy="8">MIDI:    CAN_TX (MIDI OUT white), A5 (MIDI IN white)</tspan></text><text x="3.6" y="310.40000000000003" dominant-baseline="central" fill="black" font-size="10" font-family="bold" text-anchor="start"><tspan x="3.6" dy="10">NOTES:</tspan></text><text x="3.6" y="330.40000000000003" dominant-baseline="central" fill="black" font-size="8" font-family="sans" text-anchor="start"><tspan x="3.6" dy="8">• Power: USB-C only (no battery) - see POWER_DISTRIBUTION.svg</tspan></text><text x="3.6" y="348.40000000000003" dominant-baseline="central" fill="black" font-size="8" font-family="sans" text-anchor="start"><tspan x="3.6" dy="8">• Input protection: BAT85 diodes + voltage dividers - see TOP_PCB_*.svg</tspan></text><text x="3.6" y="366.40000000000003" dominant-baseline="central" fill="black" font-size="8" font-family="sans" text-anchor="start"><tspan x="3.6" dy="8">• OLED FeatherWing: Stacked on M4 (I2C 0x3C, buttons D5/D6/D9)</tspan></text><text x="3.6" y="384.40000000000003" dominant-baseline="central" fill="black" font-size="8" font-family="sans" text-anchor="start"><tspan x="3.6" dy="8">• MIDI FeatherWing: On breadboard (not stacked)</tspan></text><circle cx="72.0" cy="-540.0" r="2.6999999999999997" style="stroke:black;fill:black;stroke-width:2.0;stroke-dasharray:-;" /><circle cx="432.0" cy="-360.0" r="2.6999999999999997" style="stroke:black;fill:black;stroke-width:2.0;stroke-dasharray:-;" /><text x="432.0" y="-373.3" dominant-baseline="ideographic" fill="black" font-size="7" font-family="sans" text-anchor="middle"><tspan x="432.0" dy="7">TAP</tspan></text><circle cx="432.0" cy="-288.0" r="2.6999999999999997" style="stroke:black;fill:black;stroke-width:2.0;stroke-dasharray:-;" /><text x="432.0" y="-301.3" dominant-baseline="ideographic" fill="black" font-size="7" font-family="sans" text-anchor="middle"><tspan x="432.0" dy="7">TAP</tspan></text></svg>